<svg width="159" height="72" viewBox="0 0 159 72" fill="none" xmlns="http://www.w3.org/2000/svg">
<path d="M5.28207 68.2819C5.28207 68.2819 4.92321 68.5377 4.11049 69.6833C3.29777 70.8289 2.23174 72.1522 1 71.0617C1 71.0617 1.35886 70.8014 2.17264 69.6557C2.98641 68.5101 4.04716 67.193 5.28207 68.2819Z" fill="#FAFAFA" stroke="#231F20" stroke-width="0.3" stroke-miterlimit="10"/>
<path d="M7.23257 68.2819C7.23257 68.2819 6.87371 68.5377 6.06099 69.6833C5.24827 70.8289 4.18224 72.1522 2.9505 71.0617C2.9505 71.0617 3.30936 70.8014 4.12313 69.6557C4.93691 68.5101 6.00083 67.193 7.23257 68.2819Z" fill="#FAFAFA" stroke="#231F20" stroke-width="0.3" stroke-miterlimit="10"/>
<path d="M9.18734 68.2819C9.18734 68.2819 8.82848 68.5377 8.01471 69.6833C7.20094 70.8289 6.13701 72.1522 4.90527 71.0617C4.90527 71.0617 5.26414 70.8014 6.07685 69.6557C6.88957 68.5101 7.95455 67.193 9.18734 68.2819Z" fill="#FAFAFA" stroke="#231F20" stroke-width="0.3" stroke-miterlimit="10"/>
<path d="M11.14 68.2819C11.14 68.2819 10.7811 68.5377 9.96735 69.6833C9.15357 70.8289 8.08965 72.1522 6.85791 71.0617C6.85791 71.0617 7.21677 70.8014 8.02949 69.6557C8.84221 68.5101 9.90824 67.193 11.14 68.2819Z" fill="#FAFAFA" stroke="#231F20" stroke-width="0.3" stroke-miterlimit="10"/>
<path d="M13.0926 68.2819C13.0926 68.2819 12.7337 68.5377 11.9199 69.6833C11.1062 70.8289 10.0422 72.1522 8.80945 71.0617C8.80945 71.0617 9.16831 70.8014 9.98208 69.6557C10.7959 68.5101 11.8608 67.193 13.0926 68.2819Z" fill="#FAFAFA" stroke="#231F20" stroke-width="0.3" stroke-miterlimit="10"/>
<path d="M15.0473 68.2819C15.0473 68.2819 14.6884 68.5377 13.8747 69.6833C13.0609 70.8289 11.997 72.1522 10.7642 71.0617C10.7642 71.0617 11.123 70.8014 11.9368 69.6557C12.7506 68.5101 13.8145 67.193 15.0473 68.2819Z" fill="#FAFAFA" stroke="#231F20" stroke-width="0.3" stroke-miterlimit="10"/>
<path d="M16.9979 68.2819C16.9979 68.2819 16.639 68.5377 15.8263 69.6833C15.0136 70.8289 13.9476 72.1522 12.7158 71.0617C12.7158 71.0617 13.0747 70.8014 13.8885 69.6557C14.7022 68.5101 15.7683 67.193 16.9979 68.2819Z" fill="#FAFAFA" stroke="#231F20" stroke-width="0.3" stroke-miterlimit="10"/>
<path d="M18.9536 68.2819C18.9536 68.2819 18.5948 68.5377 17.7821 69.6833C16.9693 70.8289 15.9033 72.1522 14.6716 71.0617C14.6716 71.0617 15.0304 70.8014 15.8442 69.6557C16.658 68.5101 17.7219 67.193 18.9536 68.2819Z" fill="#FAFAFA" stroke="#231F20" stroke-width="0.3" stroke-miterlimit="10"/>
<path d="M20.9031 68.2819C20.9031 68.2819 20.5442 68.5377 19.7305 69.6833C18.9167 70.8289 17.8528 72.1522 16.621 71.0617C16.621 71.0617 16.9799 70.8014 17.7937 69.6557C18.6074 68.5101 19.6756 67.193 20.9031 68.2819Z" fill="#FAFAFA" stroke="#231F20" stroke-width="0.3" stroke-miterlimit="10"/>
<path d="M22.8611 68.2818C22.8611 68.2818 22.5022 68.5375 21.6884 69.6832C20.8747 70.8288 19.8107 72.1567 18.5811 71.0631C18.5811 71.0631 18.94 70.8028 19.7538 69.6571C20.5675 68.5115 21.6293 67.1928 22.8611 68.2818Z" fill="#FAFAFA" stroke="#231F20" stroke-width="0.3" stroke-miterlimit="10"/>
<path d="M24.8147 68.2819C24.8147 68.2819 24.4559 68.5377 23.6421 69.6833C22.8283 70.8289 21.7644 72.1522 20.5327 71.0617C20.5327 71.0617 20.8915 70.8014 21.7042 69.6557C22.5169 68.5101 23.5819 67.193 24.8147 68.2819Z" fill="#FAFAFA" stroke="#231F20" stroke-width="0.3" stroke-miterlimit="10"/>
<path d="M26.7684 68.2818C26.7684 68.2818 26.4095 68.5375 25.5958 69.6832C24.782 70.8288 23.7181 72.1567 22.4863 71.0631C22.4863 71.0631 22.8452 70.8028 23.659 69.6571C24.4727 68.5115 25.5356 67.1928 26.7684 68.2818Z" fill="#FAFAFA" stroke="#231F20" stroke-width="0.3" stroke-miterlimit="10"/>
<path d="M28.7221 68.2819C28.7221 68.2819 28.3633 68.5377 27.5495 69.6833C26.7357 70.8289 25.6718 72.1522 24.4401 71.0617C24.4401 71.0617 24.7979 70.8014 25.6116 69.6557C26.4254 68.5101 27.4893 67.193 28.7221 68.2819Z" fill="#FAFAFA" stroke="#231F20" stroke-width="0.3" stroke-miterlimit="10"/>
<path d="M30.6747 68.2818C30.6747 68.2818 30.3169 68.5375 29.5031 69.6832C28.6894 70.8288 27.6255 72.1567 26.3916 71.0631C26.3916 71.0631 26.7505 70.8028 27.5642 69.6571C28.378 68.5115 29.443 67.1928 30.6747 68.2818Z" fill="#FAFAFA" stroke="#231F20" stroke-width="0.3" stroke-miterlimit="10"/>
<path d="M32.6284 68.2819C32.6284 68.2819 32.2706 68.5377 31.4569 69.6833C30.6431 70.8289 29.5781 72.1522 28.3464 71.0617C28.3464 71.0617 28.7052 70.8014 29.519 69.6557C30.3328 68.5101 31.3967 67.193 32.6284 68.2819Z" fill="#FAFAFA" stroke="#231F20" stroke-width="0.3" stroke-miterlimit="10"/>
<path d="M34.5822 68.2818C34.5822 68.2818 34.2233 68.5375 33.4095 69.6832C32.5958 70.8288 31.5318 72.1567 30.2969 71.0631C30.2969 71.0631 30.6558 70.8028 31.4696 69.6571C32.2833 68.5115 33.3504 67.1928 34.5822 68.2818Z" fill="#FAFAFA" stroke="#231F20" stroke-width="0.3" stroke-miterlimit="10"/>
<path d="M36.5358 68.2819C36.5358 68.2819 36.1769 68.5377 35.3632 69.6833C34.5494 70.8289 33.4855 72.1522 32.2537 71.0617C32.2537 71.0617 32.6126 70.8014 33.4253 69.6557C34.238 68.5101 35.3041 67.193 36.5358 68.2819Z" fill="#FAFAFA" stroke="#231F20" stroke-width="0.3" stroke-miterlimit="10"/>
<path d="M38.4895 68.2818C38.4895 68.2818 38.1306 68.5375 37.3169 69.6832C36.5031 70.8288 35.4392 72.1567 34.2021 71.0631C34.2021 71.0631 34.5621 70.8028 35.3748 69.6571C36.1875 68.5115 37.263 67.1928 38.4895 68.2818Z" fill="#FAFAFA" stroke="#231F20" stroke-width="0.3" stroke-miterlimit="10"/>
<path d="M40.0505 68.2869C40.0073 68.3286 39.9543 68.3826 39.8909 68.4512C39.6943 68.6641 39.3974 69.0197 38.9881 69.5965C38.5797 70.1723 38.1252 70.7654 37.6309 71.0851C37.387 71.2429 37.1432 71.3274 36.8973 71.3176C36.6907 71.3094 36.4686 71.234 36.2307 71.0565C36.274 71.0142 36.3275 70.9596 36.3916 70.8898C36.5882 70.676 36.8852 70.3194 37.2949 69.7426C37.704 69.1667 38.1574 68.5753 38.6508 68.2569C38.8941 68.0999 39.1376 68.0158 39.3835 68.0259C39.59 68.0344 39.8122 68.1099 40.0505 68.2869Z" fill="#FAFAFA" stroke="#231F20" stroke-width="0.3" stroke-miterlimit="10"/>
<path d="M42.2821 68.2819C42.2821 68.2819 41.9232 68.5377 41.1105 69.6833C40.2978 70.8289 39.2317 72.1522 38 71.0617C38 71.0617 38.3589 70.8014 39.1726 69.6557C39.9864 68.5101 41.0503 67.193 42.2821 68.2819Z" fill="#FAFAFA" stroke="#231F20" stroke-width="0.3" stroke-miterlimit="10"/>
<path d="M44.1873 68.2819C44.1873 68.2819 43.8285 68.5377 43.0147 69.6833C42.2009 70.8289 41.137 72.1522 39.9053 71.0617C39.9053 71.0617 40.2641 70.8014 41.0769 69.6557C41.8896 68.5101 42.9545 67.193 44.1873 68.2819Z" fill="#FAFAFA" stroke="#231F20" stroke-width="0.3" stroke-miterlimit="10"/>
<path d="M46.14 68.2819C46.14 68.2819 45.7811 68.5377 44.9673 69.6833C44.1536 70.8289 43.0897 72.1522 41.8579 71.0617C41.8579 71.0617 42.2168 70.8014 43.0295 69.6557C43.8422 68.5101 44.9082 67.193 46.14 68.2819Z" fill="#FAFAFA" stroke="#231F20" stroke-width="0.3" stroke-miterlimit="10"/>
<path d="M48.0926 68.2819C48.0926 68.2819 47.7337 68.5377 46.9199 69.6833C46.1062 70.8289 45.0422 72.1522 43.8094 71.0617C43.8094 71.0617 44.1683 70.8014 44.9821 69.6557C45.7959 68.5101 46.8608 67.193 48.0926 68.2819Z" fill="#FAFAFA" stroke="#231F20" stroke-width="0.3" stroke-miterlimit="10"/>
<path d="M50.0473 68.2819C50.0473 68.2819 49.6884 68.5377 48.8747 69.6833C48.0609 70.8289 46.997 72.1522 45.7642 71.0617C45.7642 71.0617 46.123 70.8014 46.9368 69.6557C47.7506 68.5101 48.8145 67.193 50.0473 68.2819Z" fill="#FAFAFA" stroke="#231F20" stroke-width="0.3" stroke-miterlimit="10"/>
<path d="M51.9979 68.2819C51.9979 68.2819 51.639 68.5377 50.8263 69.6833C50.0136 70.8289 48.9476 72.1522 47.7158 71.0617C47.7158 71.0617 48.0747 70.8014 48.8885 69.6557C49.7022 68.5101 50.7683 67.193 51.9979 68.2819Z" fill="#FAFAFA" stroke="#231F20" stroke-width="0.3" stroke-miterlimit="10"/>
<path d="M53.9536 68.2819C53.9536 68.2819 53.5948 68.5377 52.7821 69.6833C51.9693 70.8289 50.9033 72.1522 49.6716 71.0617C49.6716 71.0617 50.0304 70.8014 50.8442 69.6557C51.658 68.5101 52.7219 67.193 53.9536 68.2819Z" fill="#FAFAFA" stroke="#231F20" stroke-width="0.3" stroke-miterlimit="10"/>
<path d="M55.9031 68.2819C55.9031 68.2819 55.5442 68.5377 54.7305 69.6833C53.9167 70.8289 52.8528 72.1522 51.621 71.0617C51.621 71.0617 51.9799 70.8014 52.7937 69.6557C53.6074 68.5101 54.6756 67.193 55.9031 68.2819Z" fill="#FAFAFA" stroke="#231F20" stroke-width="0.3" stroke-miterlimit="10"/>
<path d="M57.8611 68.2818C57.8611 68.2818 57.5022 68.5375 56.6884 69.6832C55.8747 70.8288 54.8107 72.1567 53.5811 71.0631C53.5811 71.0631 53.94 70.8028 54.7537 69.6571C55.5675 68.5115 56.6293 67.1928 57.8611 68.2818Z" fill="#FAFAFA" stroke="#231F20" stroke-width="0.3" stroke-miterlimit="10"/>
<path d="M59.8147 68.2819C59.8147 68.2819 59.4559 68.5377 58.6421 69.6833C57.8283 70.8289 56.7644 72.1522 55.5327 71.0617C55.5327 71.0617 55.8915 70.8014 56.7042 69.6557C57.5169 68.5101 58.5819 67.193 59.8147 68.2819Z" fill="#FAFAFA" stroke="#231F20" stroke-width="0.3" stroke-miterlimit="10"/>
<path d="M61.7684 68.2818C61.7684 68.2818 61.4095 68.5375 60.5958 69.6832C59.782 70.8288 58.7181 72.1567 57.4863 71.0631C57.4863 71.0631 57.8452 70.8028 58.659 69.6571C59.4727 68.5115 60.5356 67.1928 61.7684 68.2818Z" fill="#FAFAFA" stroke="#231F20" stroke-width="0.3" stroke-miterlimit="10"/>
<path d="M63.7221 68.2819C63.7221 68.2819 63.3633 68.5377 62.5495 69.6833C61.7357 70.8289 60.6718 72.1522 59.4401 71.0617C59.4401 71.0617 59.7979 70.8014 60.6116 69.6557C61.4254 68.5101 62.4893 67.193 63.7221 68.2819Z" fill="#FAFAFA" stroke="#231F20" stroke-width="0.3" stroke-miterlimit="10"/>
<path d="M65.6747 68.2818C65.6747 68.2818 65.3169 68.5375 64.5031 69.6832C63.6894 70.8288 62.6255 72.1567 61.3916 71.0631C61.3916 71.0631 61.7505 70.8028 62.5642 69.6571C63.378 68.5115 64.443 67.1928 65.6747 68.2818Z" fill="#FAFAFA" stroke="#231F20" stroke-width="0.3" stroke-miterlimit="10"/>
<path d="M67.6284 68.2819C67.6284 68.2819 67.2706 68.5377 66.4569 69.6833C65.6431 70.8289 64.5781 72.1522 63.3464 71.0617C63.3464 71.0617 63.7052 70.8014 64.519 69.6557C65.3328 68.5101 66.3967 67.193 67.6284 68.2819Z" fill="#FAFAFA" stroke="#231F20" stroke-width="0.3" stroke-miterlimit="10"/>
<path d="M69.5822 68.2818C69.5822 68.2818 69.2233 68.5375 68.4095 69.6832C67.5958 70.8288 66.5318 72.1567 65.2969 71.0631C65.2969 71.0631 65.6558 70.8028 66.4696 69.6571C67.2833 68.5115 68.3504 67.1928 69.5822 68.2818Z" fill="#FAFAFA" stroke="#231F20" stroke-width="0.3" stroke-miterlimit="10"/>
<path d="M71.5358 68.2819C71.5358 68.2819 71.1769 68.5377 70.3632 69.6833C69.5494 70.8289 68.4855 72.1522 67.2537 71.0617C67.2537 71.0617 67.6126 70.8014 68.4253 69.6557C69.238 68.5101 70.3041 67.193 71.5358 68.2819Z" fill="#FAFAFA" stroke="#231F20" stroke-width="0.3" stroke-miterlimit="10"/>
<path d="M73.4895 68.2818C73.4895 68.2818 73.1306 68.5375 72.3169 69.6832C71.5031 70.8288 70.4392 72.1567 69.2021 71.0631C69.2021 71.0631 69.5621 70.8028 70.3748 69.6571C71.1875 68.5115 72.263 67.1928 73.4895 68.2818Z" fill="#FAFAFA" stroke="#231F20" stroke-width="0.3" stroke-miterlimit="10"/>
<path d="M75.0505 68.2869C75.0074 68.3286 74.9543 68.3826 74.8909 68.4512C74.6943 68.6641 74.3974 69.0197 73.9882 69.5965C73.5797 70.1723 73.1252 70.7654 72.6309 71.0851C72.387 71.2429 72.1432 71.3274 71.8973 71.3176C71.6907 71.3094 71.4686 71.234 71.2307 71.0565C71.274 71.0142 71.3275 70.9596 71.3916 70.8898C71.5882 70.676 71.8852 70.3194 72.2949 69.7426C72.704 69.1667 73.1574 68.5753 73.6508 68.2569C73.8941 68.0999 74.1376 68.0158 74.3835 68.0259C74.59 68.0344 74.8122 68.1099 75.0505 68.2869Z" fill="#FAFAFA" stroke="#231F20" stroke-width="0.3" stroke-miterlimit="10"/>
<path d="M77.2326 68.2819C77.2326 68.2819 76.8737 68.5377 76.061 69.6833C75.2483 70.8289 74.1822 72.1522 72.9505 71.0617C72.9505 71.0617 73.3094 70.8014 74.1231 69.6557C74.9369 68.5101 76.0008 67.193 77.2326 68.2819Z" fill="#FAFAFA" stroke="#231F20" stroke-width="0.3" stroke-miterlimit="10"/>
<path d="M79.1873 68.2819C79.1873 68.2819 78.8285 68.5377 78.0147 69.6833C77.2009 70.8289 76.137 72.1522 74.9053 71.0617C74.9053 71.0617 75.2641 70.8014 76.0769 69.6557C76.8896 68.5101 77.9545 67.193 79.1873 68.2819Z" fill="#FAFAFA" stroke="#231F20" stroke-width="0.3" stroke-miterlimit="10"/>
<path d="M81.14 68.2819C81.14 68.2819 80.7811 68.5377 79.9673 69.6833C79.1536 70.8289 78.0897 72.1522 76.8579 71.0617C76.8579 71.0617 77.2168 70.8014 78.0295 69.6557C78.8422 68.5101 79.9082 67.193 81.14 68.2819Z" fill="#FAFAFA" stroke="#231F20" stroke-width="0.3" stroke-miterlimit="10"/>
<path d="M83.0926 68.2819C83.0926 68.2819 82.7337 68.5377 81.9199 69.6833C81.1062 70.8289 80.0422 72.1522 78.8094 71.0617C78.8094 71.0617 79.1683 70.8014 79.9821 69.6557C80.7959 68.5101 81.8608 67.193 83.0926 68.2819Z" fill="#FAFAFA" stroke="#231F20" stroke-width="0.3" stroke-miterlimit="10"/>
<path d="M85.0473 68.2819C85.0473 68.2819 84.6884 68.5377 83.8747 69.6833C83.0609 70.8289 81.997 72.1522 80.7642 71.0617C80.7642 71.0617 81.123 70.8014 81.9368 69.6557C82.7506 68.5101 83.8145 67.193 85.0473 68.2819Z" fill="#FAFAFA" stroke="#231F20" stroke-width="0.3" stroke-miterlimit="10"/>
<path d="M86.9979 68.2819C86.9979 68.2819 86.639 68.5377 85.8263 69.6833C85.0136 70.8289 83.9476 72.1522 82.7158 71.0617C82.7158 71.0617 83.0747 70.8014 83.8885 69.6557C84.7022 68.5101 85.7683 67.193 86.9979 68.2819Z" fill="#FAFAFA" stroke="#231F20" stroke-width="0.3" stroke-miterlimit="10"/>
<path d="M88.9536 68.2819C88.9536 68.2819 88.5948 68.5377 87.7821 69.6833C86.9693 70.8289 85.9033 72.1522 84.6716 71.0617C84.6716 71.0617 85.0304 70.8014 85.8442 69.6557C86.658 68.5101 87.7219 67.193 88.9536 68.2819Z" fill="#FAFAFA" stroke="#231F20" stroke-width="0.3" stroke-miterlimit="10"/>
<path d="M90.9031 68.2819C90.9031 68.2819 90.5442 68.5377 89.7305 69.6833C88.9167 70.8289 87.8528 72.1522 86.621 71.0617C86.621 71.0617 86.9799 70.8014 87.7937 69.6557C88.6074 68.5101 89.6756 67.193 90.9031 68.2819Z" fill="#FAFAFA" stroke="#231F20" stroke-width="0.3" stroke-miterlimit="10"/>
<path d="M92.8611 68.2818C92.8611 68.2818 92.5022 68.5375 91.6884 69.6832C90.8747 70.8288 89.8107 72.1567 88.5811 71.0631C88.5811 71.0631 88.94 70.8028 89.7537 69.6571C90.5675 68.5115 91.6293 67.1928 92.8611 68.2818Z" fill="#FAFAFA" stroke="#231F20" stroke-width="0.3" stroke-miterlimit="10"/>
<path d="M94.8147 68.2819C94.8147 68.2819 94.4559 68.5377 93.6421 69.6833C92.8283 70.8289 91.7644 72.1522 90.5327 71.0617C90.5327 71.0617 90.8915 70.8014 91.7042 69.6557C92.5169 68.5101 93.5819 67.193 94.8147 68.2819Z" fill="#FAFAFA" stroke="#231F20" stroke-width="0.3" stroke-miterlimit="10"/>
<path d="M96.7684 68.2818C96.7684 68.2818 96.4095 68.5375 95.5958 69.6832C94.782 70.8288 93.7181 72.1567 92.4863 71.0631C92.4863 71.0631 92.8452 70.8028 93.659 69.6571C94.4727 68.5115 95.5356 67.1928 96.7684 68.2818Z" fill="#FAFAFA" stroke="#231F20" stroke-width="0.3" stroke-miterlimit="10"/>
<path d="M98.7221 68.2819C98.7221 68.2819 98.3633 68.5377 97.5495 69.6833C96.7357 70.8289 95.6718 72.1522 94.4401 71.0617C94.4401 71.0617 94.7979 70.8014 95.6116 69.6557C96.4254 68.5101 97.4893 67.193 98.7221 68.2819Z" fill="#FAFAFA" stroke="#231F20" stroke-width="0.3" stroke-miterlimit="10"/>
<path d="M100.675 68.2818C100.675 68.2818 100.317 68.5375 99.5031 69.6832C98.6894 70.8288 97.6255 72.1567 96.3916 71.0631C96.3916 71.0631 96.7505 70.8028 97.5642 69.6571C98.378 68.5115 99.443 67.1928 100.675 68.2818Z" fill="#FAFAFA" stroke="#231F20" stroke-width="0.3" stroke-miterlimit="10"/>
<path d="M102.628 68.2819C102.628 68.2819 102.271 68.5377 101.457 69.6833C100.643 70.8289 99.5781 72.1522 98.3463 71.0617C98.3463 71.0617 98.7052 70.8014 99.519 69.6557C100.333 68.5101 101.397 67.193 102.628 68.2819Z" fill="#FAFAFA" stroke="#231F20" stroke-width="0.3" stroke-miterlimit="10"/>
<path d="M104.582 68.2818C104.582 68.2818 104.223 68.5375 103.41 69.6832C102.596 70.8288 101.532 72.1567 100.297 71.0631C100.297 71.0631 100.656 70.8028 101.47 69.6571C102.283 68.5115 103.35 67.1928 104.582 68.2818Z" fill="#FAFAFA" stroke="#231F20" stroke-width="0.3" stroke-miterlimit="10"/>
<path d="M106.536 68.2819C106.536 68.2819 106.177 68.5377 105.363 69.6833C104.549 70.8289 103.485 72.1522 102.254 71.0617C102.254 71.0617 102.613 70.8014 103.425 69.6557C104.238 68.5101 105.304 67.193 106.536 68.2819Z" fill="#FAFAFA" stroke="#231F20" stroke-width="0.3" stroke-miterlimit="10"/>
<path d="M108.49 68.2818C108.49 68.2818 108.131 68.5375 107.317 69.6832C106.503 70.8288 105.439 72.1567 104.202 71.0631C104.202 71.0631 104.562 70.8028 105.375 69.6571C106.188 68.5115 107.263 67.1928 108.49 68.2818Z" fill="#FAFAFA" stroke="#231F20" stroke-width="0.3" stroke-miterlimit="10"/>
<path d="M110.05 68.2869C110.007 68.3286 109.954 68.3826 109.891 68.4512C109.694 68.6641 109.397 69.0197 108.988 69.5965C108.58 70.1723 108.125 70.7654 107.631 71.0851C107.387 71.2429 107.143 71.3274 106.897 71.3176C106.691 71.3094 106.469 71.234 106.231 71.0565C106.274 71.0142 106.328 70.9596 106.392 70.8898C106.588 70.676 106.885 70.3194 107.295 69.7426C107.704 69.1667 108.157 68.5753 108.651 68.2569C108.894 68.0999 109.138 68.0158 109.384 68.0259C109.59 68.0344 109.812 68.1099 110.05 68.2869Z" fill="#FAFAFA" stroke="#231F20" stroke-width="0.3" stroke-miterlimit="10"/>
<path d="M112.233 68.2819C112.233 68.2819 111.874 68.5377 111.061 69.6833C110.248 70.8289 109.182 72.1522 107.951 71.0617C107.951 71.0617 108.309 70.8014 109.123 69.6557C109.937 68.5101 111.001 67.193 112.233 68.2819Z" fill="#FAFAFA" stroke="#231F20" stroke-width="0.3" stroke-miterlimit="10"/>
<path d="M114.187 68.2819C114.187 68.2819 113.828 68.5377 113.015 69.6833C112.201 70.8289 111.137 72.1522 109.905 71.0617C109.905 71.0617 110.264 70.8014 111.077 69.6557C111.89 68.5101 112.955 67.193 114.187 68.2819Z" fill="#FAFAFA" stroke="#231F20" stroke-width="0.3" stroke-miterlimit="10"/>
<path d="M116.14 68.2819C116.14 68.2819 115.781 68.5377 114.967 69.6833C114.154 70.8289 113.09 72.1522 111.858 71.0617C111.858 71.0617 112.217 70.8014 113.029 69.6557C113.842 68.5101 114.908 67.193 116.14 68.2819Z" fill="#FAFAFA" stroke="#231F20" stroke-width="0.3" stroke-miterlimit="10"/>
<path d="M118.093 68.2819C118.093 68.2819 117.734 68.5377 116.92 69.6833C116.106 70.8289 115.042 72.1522 113.809 71.0617C113.809 71.0617 114.168 70.8014 114.982 69.6557C115.796 68.5101 116.861 67.193 118.093 68.2819Z" fill="#FAFAFA" stroke="#231F20" stroke-width="0.3" stroke-miterlimit="10"/>
<path d="M120.047 68.2819C120.047 68.2819 119.688 68.5377 118.875 69.6833C118.061 70.8289 116.997 72.1522 115.764 71.0617C115.764 71.0617 116.123 70.8014 116.937 69.6557C117.751 68.5101 118.815 67.193 120.047 68.2819Z" fill="#FAFAFA" stroke="#231F20" stroke-width="0.3" stroke-miterlimit="10"/>
<path d="M121.998 68.2819C121.998 68.2819 121.639 68.5377 120.826 69.6833C120.014 70.8289 118.948 72.1522 117.716 71.0617C117.716 71.0617 118.075 70.8014 118.888 69.6557C119.702 68.5101 120.768 67.193 121.998 68.2819Z" fill="#FAFAFA" stroke="#231F20" stroke-width="0.3" stroke-miterlimit="10"/>
<path d="M123.954 68.2819C123.954 68.2819 123.595 68.5377 122.782 69.6833C121.969 70.8289 120.903 72.1522 119.672 71.0617C119.672 71.0617 120.03 70.8014 120.844 69.6557C121.658 68.5101 122.722 67.193 123.954 68.2819Z" fill="#FAFAFA" stroke="#231F20" stroke-width="0.3" stroke-miterlimit="10"/>
<path d="M125.903 68.2819C125.903 68.2819 125.544 68.5377 124.73 69.6833C123.917 70.8289 122.853 72.1522 121.621 71.0617C121.621 71.0617 121.98 70.8014 122.794 69.6557C123.607 68.5101 124.676 67.193 125.903 68.2819Z" fill="#FAFAFA" stroke="#231F20" stroke-width="0.3" stroke-miterlimit="10"/>
<path d="M127.861 68.2818C127.861 68.2818 127.502 68.5375 126.688 69.6832C125.875 70.8288 124.811 72.1567 123.581 71.0631C123.581 71.0631 123.94 70.8028 124.754 69.6571C125.567 68.5115 126.629 67.1928 127.861 68.2818Z" fill="#FAFAFA" stroke="#231F20" stroke-width="0.3" stroke-miterlimit="10"/>
<path d="M129.815 68.2819C129.815 68.2819 129.456 68.5377 128.642 69.6833C127.828 70.8289 126.764 72.1522 125.533 71.0617C125.533 71.0617 125.892 70.8014 126.704 69.6557C127.517 68.5101 128.582 67.193 129.815 68.2819Z" fill="#FAFAFA" stroke="#231F20" stroke-width="0.3" stroke-miterlimit="10"/>
<path d="M131.768 68.2818C131.768 68.2818 131.41 68.5375 130.596 69.6832C129.782 70.8288 128.718 72.1567 127.486 71.0631C127.486 71.0631 127.845 70.8028 128.659 69.6571C129.473 68.5115 130.536 67.1928 131.768 68.2818Z" fill="#FAFAFA" stroke="#231F20" stroke-width="0.3" stroke-miterlimit="10"/>
<path d="M133.722 68.2819C133.722 68.2819 133.363 68.5377 132.549 69.6833C131.736 70.8289 130.672 72.1522 129.44 71.0617C129.44 71.0617 129.798 70.8014 130.612 69.6557C131.425 68.5101 132.489 67.193 133.722 68.2819Z" fill="#FAFAFA" stroke="#231F20" stroke-width="0.3" stroke-miterlimit="10"/>
<path d="M135.675 68.2818C135.675 68.2818 135.317 68.5375 134.503 69.6832C133.689 70.8288 132.625 72.1567 131.392 71.0631C131.392 71.0631 131.75 70.8028 132.564 69.6571C133.378 68.5115 134.443 67.1928 135.675 68.2818Z" fill="#FAFAFA" stroke="#231F20" stroke-width="0.3" stroke-miterlimit="10"/>
<path d="M137.628 68.2819C137.628 68.2819 137.271 68.5377 136.457 69.6833C135.643 70.8289 134.578 72.1522 133.346 71.0617C133.346 71.0617 133.705 70.8014 134.519 69.6557C135.333 68.5101 136.397 67.193 137.628 68.2819Z" fill="#FAFAFA" stroke="#231F20" stroke-width="0.3" stroke-miterlimit="10"/>
<path d="M139.582 68.2818C139.582 68.2818 139.223 68.5375 138.41 69.6832C137.596 70.8288 136.532 72.1567 135.297 71.0631C135.297 71.0631 135.656 70.8028 136.47 69.6571C137.283 68.5115 138.35 67.1928 139.582 68.2818Z" fill="#FAFAFA" stroke="#231F20" stroke-width="0.3" stroke-miterlimit="10"/>
<path d="M141.536 68.2819C141.536 68.2819 141.177 68.5377 140.363 69.6833C139.549 70.8289 138.485 72.1522 137.254 71.0617C137.254 71.0617 137.613 70.8014 138.425 69.6557C139.238 68.5101 140.304 67.193 141.536 68.2819Z" fill="#FAFAFA" stroke="#231F20" stroke-width="0.3" stroke-miterlimit="10"/>
<path d="M143.49 68.2818C143.49 68.2818 143.131 68.5375 142.317 69.6832C141.503 70.8288 140.439 72.1567 139.202 71.0631C139.202 71.0631 139.562 70.8028 140.375 69.6571C141.188 68.5115 142.263 67.1928 143.49 68.2818Z" fill="#FAFAFA" stroke="#231F20" stroke-width="0.3" stroke-miterlimit="10"/>
<path d="M145.05 68.2869C145.007 68.3286 144.954 68.3826 144.891 68.4512C144.694 68.6641 144.397 69.0197 143.988 69.5965C143.58 70.1723 143.125 70.7654 142.631 71.0851C142.387 71.2429 142.143 71.3274 141.897 71.3176C141.691 71.3094 141.469 71.234 141.231 71.0565C141.274 71.0142 141.328 70.9596 141.392 70.8899C141.588 70.676 141.885 70.3194 142.295 69.7426C142.704 69.1667 143.157 68.5753 143.651 68.2569C143.894 68.0999 144.138 68.0158 144.384 68.0259C144.59 68.0344 144.812 68.1099 145.05 68.2869Z" fill="#FAFAFA" stroke="#231F20" stroke-width="0.3" stroke-miterlimit="10"/>
<path d="M147.233 68.2819C147.233 68.2819 146.874 68.5377 146.061 69.6833C145.248 70.8289 144.182 72.1522 142.95 71.0617C142.95 71.0617 143.309 70.8014 144.123 69.6557C144.937 68.5101 146.001 67.193 147.233 68.2819Z" fill="#FAFAFA" stroke="#231F20" stroke-width="0.3" stroke-miterlimit="10"/>
<path d="M149.187 68.2819C149.187 68.2819 148.828 68.5377 148.015 69.6833C147.201 70.8289 146.137 72.1522 144.905 71.0617C144.905 71.0617 145.264 70.8014 146.077 69.6557C146.89 68.5101 147.955 67.193 149.187 68.2819Z" fill="#FAFAFA" stroke="#231F20" stroke-width="0.3" stroke-miterlimit="10"/>
<path d="M151.14 68.2819C151.14 68.2819 150.781 68.5377 149.967 69.6833C149.154 70.8289 148.09 72.1522 146.858 71.0617C146.858 71.0617 147.217 70.8014 148.029 69.6557C148.842 68.5101 149.908 67.193 151.14 68.2819Z" fill="#FAFAFA" stroke="#231F20" stroke-width="0.3" stroke-miterlimit="10"/>
<path d="M153.093 68.2819C153.093 68.2819 152.734 68.5377 151.92 69.6833C151.106 70.8289 150.042 72.1522 148.81 71.0617C148.81 71.0617 149.168 70.8014 149.982 69.6557C150.796 68.5101 151.861 67.193 153.093 68.2819Z" fill="#FAFAFA" stroke="#231F20" stroke-width="0.3" stroke-miterlimit="10"/>
<path d="M155.047 68.2819C155.047 68.2819 154.688 68.5377 153.875 69.6833C153.061 70.8289 151.997 72.1522 150.764 71.0617C150.764 71.0617 151.123 70.8014 151.937 69.6557C152.751 68.5101 153.814 67.193 155.047 68.2819Z" fill="#FAFAFA" stroke="#231F20" stroke-width="0.3" stroke-miterlimit="10"/>
<path d="M156.998 68.2819C156.998 68.2819 156.639 68.5377 155.826 69.6833C155.014 70.8289 153.948 72.1522 152.716 71.0617C152.716 71.0617 153.075 70.8014 153.888 69.6557C154.702 68.5101 155.768 67.193 156.998 68.2819Z" fill="#FAFAFA" stroke="#231F20" stroke-width="0.3" stroke-miterlimit="10"/>
<path d="M154.908 71.0508C154.95 71.0094 155.002 70.9565 155.063 70.8899C155.26 70.676 155.557 70.3194 155.966 69.7426L155.967 69.7428L155.972 69.7349C156.159 69.4329 156.187 69.0612 156.194 68.7312C156.195 68.6588 156.195 68.5902 156.196 68.5237C156.196 68.4305 156.196 68.3414 156.2 68.2516C156.205 68.1017 156.219 67.9733 156.249 67.8677C156.28 67.7639 156.324 67.6905 156.388 67.64C156.451 67.5896 156.549 67.5499 156.707 67.5426C157.02 67.5284 157.526 67.6419 158.338 67.9708L158.152 69.5874C158.135 69.6042 158.113 69.6265 158.085 69.6535C158.019 69.7183 157.922 69.81 157.803 69.9168C157.562 70.1308 157.231 70.4035 156.864 70.6418C156.495 70.8813 156.098 71.0798 155.728 71.1551C155.422 71.2172 155.144 71.1942 154.908 71.0508Z" fill="#FAFAFA" stroke="#231F20" stroke-width="0.3" stroke-miterlimit="10"/>
<path d="M157.121 45.2912C157.86 46.3945 158.66 47.7593 158.181 49.3235C158.169 49.2986 158.155 49.2722 158.141 49.2445C157.994 48.9611 157.749 48.5308 157.352 47.9364C156.614 46.8321 155.817 45.4742 156.295 43.9076C156.307 43.9318 156.32 43.9573 156.334 43.9841C156.479 44.2674 156.724 44.6974 157.121 45.2912Z" fill="#FAFAFA" stroke="#231F20" stroke-width="0.3" stroke-miterlimit="10"/>
<path d="M156.28 40.6774C156.28 40.6774 156.457 41.1981 157.246 42.3774C158.036 43.5567 158.948 45.1036 158.196 46.891C158.196 46.891 158.017 46.3703 157.227 45.1894C156.438 44.0086 155.53 42.4647 156.28 40.6774Z" fill="#FAFAFA" stroke="#231F20" stroke-width="0.3" stroke-miterlimit="10"/>
<path d="M156.28 37.8408C156.28 37.8408 156.457 38.3615 157.246 39.5424C158.036 40.7232 158.948 42.2671 158.196 44.0544C158.196 44.0544 158.017 43.5337 157.227 42.3544C156.438 41.1751 155.53 39.6297 156.28 37.8408Z" fill="#FAFAFA" stroke="#231F20" stroke-width="0.3" stroke-miterlimit="10"/>
<path d="M156.28 35.0074C156.28 35.0074 156.457 35.5282 157.246 36.709C158.036 37.8899 158.948 39.4337 158.196 41.2211C158.196 41.2211 158.017 40.7003 157.227 39.521C156.438 38.3417 155.53 36.7948 156.28 35.0074Z" fill="#FAFAFA" stroke="#231F20" stroke-width="0.3" stroke-miterlimit="10"/>
<path d="M156.28 32.174C156.28 32.174 156.457 32.6947 157.246 33.8756C158.036 35.0564 158.948 36.6003 158.196 38.3892C158.196 38.3892 158.017 37.8684 157.227 36.6876C156.438 35.5067 155.53 33.9614 156.28 32.174Z" fill="#FAFAFA" stroke="#231F20" stroke-width="0.3" stroke-miterlimit="10"/>
<path d="M156.28 29.3376C156.28 29.3376 156.457 29.8583 157.246 31.0392C158.036 32.22 158.948 33.7638 158.196 35.5527C158.196 35.5527 158.017 35.032 157.227 33.8511C156.438 32.6703 155.53 31.1265 156.28 29.3376Z" fill="#FAFAFA" stroke="#231F20" stroke-width="0.3" stroke-miterlimit="10"/>
<path d="M156.28 26.5071C156.28 26.5071 156.457 27.0278 157.246 28.2071C158.036 29.3864 158.948 30.9333 158.196 32.7207C158.196 32.7207 158.017 32.2 157.227 31.0191C156.438 29.8383 155.53 28.2914 156.28 26.5071Z" fill="#FAFAFA" stroke="#231F20" stroke-width="0.3" stroke-miterlimit="10"/>
<path d="M156.28 23.6692C156.28 23.6692 156.457 24.1899 157.246 25.3692C158.036 26.5486 158.948 28.0955 158.196 29.8828C158.196 29.8828 158.017 29.3621 157.227 28.1812C156.438 27.0004 155.53 25.4565 156.28 23.6692Z" fill="#FAFAFA" stroke="#231F20" stroke-width="0.3" stroke-miterlimit="10"/>
<path d="M156.28 20.8403C156.28 20.8403 156.457 21.3611 157.246 22.5419C158.036 23.7228 158.948 25.2666 158.196 27.054C158.196 27.054 158.017 26.5332 157.227 25.3524C156.438 24.1715 155.53 22.6216 156.28 20.8403Z" fill="#FAFAFA" stroke="#231F20" stroke-width="0.3" stroke-miterlimit="10"/>
<path d="M156.28 17.9992C156.28 17.9992 156.457 18.5199 157.246 19.7007C158.036 20.8816 158.951 22.4254 158.197 24.2097C158.197 24.2097 158.018 23.689 157.228 22.5081C156.439 21.3273 155.53 19.7865 156.28 17.9992Z" fill="#FAFAFA" stroke="#231F20" stroke-width="0.3" stroke-miterlimit="10"/>
<path d="M156.28 15.1642C156.28 15.1642 156.457 15.6849 157.246 16.8658C158.036 18.0466 158.948 19.5905 158.196 21.3778C158.196 21.3778 158.017 20.8571 157.227 19.6778C156.438 18.4984 155.53 16.9531 156.28 15.1642Z" fill="#FAFAFA" stroke="#231F20" stroke-width="0.3" stroke-miterlimit="10"/>
<path d="M156.28 12.3292C156.28 12.3292 156.457 12.85 157.246 14.0308C158.036 15.2117 158.951 16.7555 158.197 18.5428C158.197 18.5428 158.018 18.0221 157.228 16.8413C156.439 15.6604 155.53 14.1181 156.28 12.3292Z" fill="#FAFAFA" stroke="#231F20" stroke-width="0.3" stroke-miterlimit="10"/>
<path d="M156.28 9.49426C156.28 9.49426 156.457 10.015 157.246 11.1958C158.036 12.3767 158.948 13.9205 158.196 15.7079C158.196 15.7079 158.017 15.1887 157.227 14.0078C156.438 12.827 155.53 11.2831 156.28 9.49426Z" fill="#FAFAFA" stroke="#231F20" stroke-width="0.3" stroke-miterlimit="10"/>
<path d="M156.28 6.66094C156.28 6.66094 156.457 7.18015 157.246 8.361C158.036 9.54185 158.951 11.0857 158.197 12.8761C158.197 12.8761 158.018 12.3554 157.228 11.1745C156.439 9.99366 155.53 8.44829 156.28 6.66094Z" fill="#FAFAFA" stroke="#231F20" stroke-width="0.3" stroke-miterlimit="10"/>
<path d="M156.28 3.82592C156.28 3.82592 156.457 4.34513 157.246 5.52598C158.036 6.70683 158.948 8.25219 158.196 10.0396C158.196 10.0396 158.017 9.51881 157.227 8.33796C156.438 7.15711 155.53 5.61328 156.28 3.82592Z" fill="#FAFAFA" stroke="#231F20" stroke-width="0.3" stroke-miterlimit="10"/>
<path d="M2.12145 43.0774C2.86006 44.1807 3.66025 45.5455 3.18111 47.1098C3.16861 47.0848 3.15522 47.0585 3.14089 47.0307C2.99444 46.7473 2.74926 46.3171 2.3518 45.7226C1.61355 44.6184 0.817013 43.2605 1.295 41.6938C1.30707 41.718 1.31997 41.7435 1.33376 41.7703C1.47947 42.0537 1.72393 42.4836 2.12145 43.0774Z" fill="#FAFAFA" stroke="#231F20" stroke-width="0.3" stroke-miterlimit="10"/>
<path d="M1.28034 38.4636C1.28034 38.4636 1.4566 38.9844 2.2461 40.1637C3.0356 41.343 3.94753 42.8899 3.19603 44.6772C3.19603 44.6772 3.0166 44.1565 2.2271 42.9757C1.4376 41.7948 0.529893 40.251 1.28034 38.4636Z" fill="#FAFAFA" stroke="#231F20" stroke-width="0.3" stroke-miterlimit="10"/>
<path d="M1.28034 35.6271C1.28034 35.6271 1.4566 36.1478 2.2461 37.3287C3.0356 38.5095 3.94753 40.0533 3.19603 41.8407C3.19603 41.8407 3.0166 41.32 2.2271 40.1406C1.4376 38.9613 0.529893 37.416 1.28034 35.6271Z" fill="#FAFAFA" stroke="#231F20" stroke-width="0.3" stroke-miterlimit="10"/>
<path d="M1.28034 32.7937C1.28034 32.7937 1.4566 33.3144 2.2461 34.4953C3.0356 35.6761 3.94753 37.22 3.19603 39.0073C3.19603 39.0073 3.0166 38.4866 2.2271 37.3073C1.4376 36.1279 0.529893 34.5811 1.28034 32.7937Z" fill="#FAFAFA" stroke="#231F20" stroke-width="0.3" stroke-miterlimit="10"/>
<path d="M1.28034 29.9603C1.28034 29.9603 1.4566 30.481 2.2461 31.6618C3.0356 32.8427 3.94753 34.3865 3.19603 36.1754C3.19603 36.1754 3.0166 35.6547 2.2271 34.4738C1.4376 33.293 0.529893 31.7476 1.28034 29.9603Z" fill="#FAFAFA" stroke="#231F20" stroke-width="0.3" stroke-miterlimit="10"/>
<path d="M1.28034 27.1238C1.28034 27.1238 1.4566 27.6446 2.2461 28.8254C3.0356 30.0063 3.94753 31.5501 3.19603 33.339C3.19603 33.339 3.0166 32.8183 2.2271 31.6374C1.4376 30.4566 0.529893 28.9127 1.28034 27.1238Z" fill="#FAFAFA" stroke="#231F20" stroke-width="0.3" stroke-miterlimit="10"/>
<path d="M1.28034 24.2933C1.28034 24.2933 1.4566 24.8141 2.2461 25.9934C3.0356 27.1727 3.94753 28.7196 3.19603 30.507C3.19603 30.507 3.0166 29.9862 2.2271 28.8054C1.4376 27.6245 0.529893 26.0776 1.28034 24.2933Z" fill="#FAFAFA" stroke="#231F20" stroke-width="0.3" stroke-miterlimit="10"/>
<path d="M1.28034 21.4554C1.28034 21.4554 1.4566 21.9762 2.2461 23.1555C3.0356 24.3348 3.94753 25.8817 3.19603 27.6691C3.19603 27.6691 3.0166 27.1483 2.2271 25.9675C1.4376 24.7866 0.529893 23.2428 1.28034 21.4554Z" fill="#FAFAFA" stroke="#231F20" stroke-width="0.3" stroke-miterlimit="10"/>
<path d="M1.28034 18.6266C1.28034 18.6266 1.4566 19.1473 2.2461 20.3282C3.0356 21.509 3.94753 23.0529 3.19603 24.8402C3.19603 24.8402 3.0166 24.3195 2.2271 23.1386C1.4376 21.9578 0.529893 20.4078 1.28034 18.6266Z" fill="#FAFAFA" stroke="#231F20" stroke-width="0.3" stroke-miterlimit="10"/>
<path d="M1.28028 15.7854C1.28028 15.7854 1.45654 16.3061 2.24604 17.487C3.03554 18.6678 3.95063 20.2117 3.19702 21.996C3.19702 21.996 3.01759 21.4752 2.2281 20.2944C1.4386 19.1135 0.529834 17.5728 1.28028 15.7854Z" fill="#FAFAFA" stroke="#231F20" stroke-width="0.3" stroke-miterlimit="10"/>
<path d="M1.28034 12.9504C1.28034 12.9504 1.4566 13.4712 2.2461 14.652C3.0356 15.8329 3.94753 17.3767 3.19603 19.1641C3.19603 19.1641 3.0166 18.6433 2.2271 17.464C1.4376 16.2847 0.529893 14.7393 1.28034 12.9504Z" fill="#FAFAFA" stroke="#231F20" stroke-width="0.3" stroke-miterlimit="10"/>
<path d="M1.28028 10.1155C1.28028 10.1155 1.45654 10.6362 2.24604 11.8171C3.03554 12.9979 3.95063 14.5417 3.19702 16.3291C3.19702 16.3291 3.01759 15.8084 2.2281 14.6275C1.4386 13.4467 0.529834 11.9044 1.28028 10.1155Z" fill="#FAFAFA" stroke="#231F20" stroke-width="0.3" stroke-miterlimit="10"/>
<path d="M1.28034 7.28051C1.28034 7.28051 1.4566 7.80125 2.2461 8.9821C3.0356 10.1629 3.94753 11.7068 3.19603 13.4941C3.19603 13.4941 3.0166 12.9749 2.2271 11.7941C1.4376 10.6132 0.529893 9.0694 1.28034 7.28051Z" fill="#FAFAFA" stroke="#231F20" stroke-width="0.3" stroke-miterlimit="10"/>
<path d="M1.28028 4.44719C1.28028 4.44719 1.45654 4.9664 2.24604 6.14725C3.03554 7.3281 3.95063 8.87193 3.19702 10.6624C3.19702 10.6624 3.01759 10.1416 2.2281 8.96077C1.4386 7.77992 0.529834 6.23455 1.28028 4.44719Z" fill="#FAFAFA" stroke="#231F20" stroke-width="0.3" stroke-miterlimit="10"/>
<path d="M1.28034 1.61218C1.28034 1.61218 1.4566 2.13138 2.2461 3.31223C3.0356 4.49308 3.94753 6.03845 3.19603 7.82581C3.19603 7.82581 3.0166 7.30507 2.2271 6.12422C1.4376 4.94337 0.529893 3.39953 1.28034 1.61218Z" fill="#FAFAFA" stroke="#231F20" stroke-width="0.3" stroke-miterlimit="10"/>
<path d="M146.059 4.52387C146.014 4.4778 145.957 4.41654 145.888 4.33646C145.691 4.10945 145.395 3.73007 144.986 3.11443C144.577 2.49928 144.122 1.86521 143.627 1.52354C143.383 1.35499 143.141 1.26582 142.898 1.27616C142.69 1.28499 142.465 1.36715 142.222 1.56379C142.268 1.61034 142.325 1.67238 142.395 1.75363C142.591 1.98173 142.888 2.36221 143.298 2.97777C143.707 3.59301 144.161 4.22534 144.655 4.56557C144.898 4.73336 145.14 4.82196 145.383 4.81129C145.591 4.80218 145.816 4.71999 146.059 4.52387Z" fill="#FAFAFA" stroke="#231F20" stroke-width="0.3" stroke-miterlimit="10"/>
<path d="M148.233 4.5278C148.233 4.5278 147.874 4.25469 147.061 3.03142C146.248 1.80815 145.182 0.395176 143.95 1.55957C143.95 1.55957 144.309 1.83759 145.123 3.06085C145.937 4.28412 147.001 5.69055 148.233 4.5278Z" fill="#FAFAFA" stroke="#231F20" stroke-width="0.3" stroke-miterlimit="10"/>
<path d="M150.187 4.5278C150.187 4.5278 149.828 4.25469 149.015 3.03142C148.201 1.80815 147.137 0.395176 145.905 1.55957C145.905 1.55957 146.264 1.83759 147.077 3.06085C147.89 4.28412 148.955 5.69055 150.187 4.5278Z" fill="#FAFAFA" stroke="#231F20" stroke-width="0.3" stroke-miterlimit="10"/>
<path d="M152.14 4.5278C152.14 4.5278 151.781 4.25469 150.967 3.03142C150.154 1.80815 149.09 0.395176 147.858 1.55957C147.858 1.55957 148.217 1.83759 149.029 3.06085C149.842 4.28412 150.908 5.69055 152.14 4.5278Z" fill="#FAFAFA" stroke="#231F20" stroke-width="0.3" stroke-miterlimit="10"/>
<path d="M154.093 4.5278C154.093 4.5278 153.734 4.25469 152.92 3.03142C152.106 1.80815 151.042 0.395176 149.81 1.55957C149.81 1.55957 150.168 1.83759 150.982 3.06085C151.796 4.28412 152.861 5.69055 154.093 4.5278Z" fill="#FAFAFA" stroke="#231F20" stroke-width="0.3" stroke-miterlimit="10"/>
<path d="M156.047 4.5278C156.047 4.5278 155.688 4.25469 154.875 3.03142C154.061 1.80815 152.997 0.395176 151.764 1.55957C151.764 1.55957 152.123 1.83759 152.937 3.06085C153.751 4.28412 154.814 5.69055 156.047 4.5278Z" fill="#FAFAFA" stroke="#231F20" stroke-width="0.3" stroke-miterlimit="10"/>
<path d="M158.308 9.76086C158.308 9.76086 158.587 9.15076 158.539 8.34957C158.479 7.35504 158.264 6.0385 158.069 5.0962C157.913 4.34323 157.536 3.67197 157.11 3.03147C156.298 1.8082 153.968 -0.0259771 152.736 1.13842C152.736 1.13842 154.21 2.06742 155.023 3.29069C155.587 4.13745 157.297 9.35564 158.308 9.76086Z" fill="#FAFAFA" stroke="#231F20" stroke-width="0.3" stroke-miterlimit="10"/>
<path d="M140.439 1.17847C140.482 1.22025 140.535 1.27416 140.599 1.34284C140.795 1.55569 141.092 1.91128 141.501 2.48812C141.91 3.06393 142.364 3.65698 142.859 3.97672C143.102 4.13447 143.346 4.21903 143.592 4.20923C143.799 4.201 144.021 4.12557 144.259 3.94809C144.215 3.90585 144.162 3.85119 144.098 3.78145C143.901 3.56758 143.604 3.21098 143.195 2.63421C142.785 2.05831 142.332 1.46689 141.839 1.1485C141.595 0.991452 141.352 0.907434 141.106 0.917544C140.899 0.926034 140.677 1.00148 140.439 1.17847Z" fill="#FAFAFA" stroke="#231F20" stroke-width="0.3" stroke-miterlimit="10"/>
<path d="M138.257 1.17352C138.257 1.17352 138.616 1.42929 139.428 2.57491C140.241 3.72054 141.307 5.04382 142.539 3.95334C142.539 3.95334 142.18 3.69297 141.366 2.54734C140.553 1.40172 139.489 0.0845608 138.257 1.17352Z" fill="#FAFAFA" stroke="#231F20" stroke-width="0.3" stroke-miterlimit="10"/>
<path d="M136.302 1.17352C136.302 1.17352 136.661 1.42929 137.475 2.57491C138.289 3.72054 139.352 5.04382 140.584 3.95334C140.584 3.95334 140.225 3.69297 139.413 2.54734C138.6 1.40172 137.535 0.0845608 136.302 1.17352Z" fill="#FAFAFA" stroke="#231F20" stroke-width="0.3" stroke-miterlimit="10"/>
<path d="M134.35 1.17352C134.35 1.17352 134.708 1.42929 135.522 2.57491C136.336 3.72054 137.4 5.04382 138.632 3.95334C138.632 3.95334 138.273 3.69297 137.46 2.54734C136.647 1.40172 135.581 0.0845608 134.35 1.17352Z" fill="#FAFAFA" stroke="#231F20" stroke-width="0.3" stroke-miterlimit="10"/>
<path d="M132.397 1.17352C132.397 1.17352 132.756 1.42929 133.57 2.57491C134.383 3.72054 135.447 5.04382 136.68 3.95334C136.68 3.95334 136.321 3.69297 135.507 2.54734C134.694 1.40172 133.629 0.0845608 132.397 1.17352Z" fill="#FAFAFA" stroke="#231F20" stroke-width="0.3" stroke-miterlimit="10"/>
<path d="M130.442 1.17352C130.442 1.17352 130.801 1.42929 131.615 2.57491C132.429 3.72054 133.493 5.04382 134.725 3.95334C134.725 3.95334 134.366 3.69297 133.553 2.54734C132.739 1.40172 131.675 0.0845608 130.442 1.17352Z" fill="#FAFAFA" stroke="#231F20" stroke-width="0.3" stroke-miterlimit="10"/>
<path d="M128.492 1.17352C128.492 1.17352 128.85 1.42929 129.663 2.57491C130.476 3.72054 131.542 5.04382 132.774 3.95334C132.774 3.95334 132.415 3.69297 131.601 2.54734C130.787 1.40172 129.721 0.0845608 128.492 1.17352Z" fill="#FAFAFA" stroke="#231F20" stroke-width="0.3" stroke-miterlimit="10"/>
<path d="M126.536 1.17352C126.536 1.17352 126.895 1.42929 127.707 2.57491C128.52 3.72054 129.586 5.04382 130.818 3.95334C130.818 3.95334 130.459 3.69297 129.645 2.54734C128.832 1.40172 127.768 0.0845608 126.536 1.17352Z" fill="#FAFAFA" stroke="#231F20" stroke-width="0.3" stroke-miterlimit="10"/>
<path d="M124.586 1.17352C124.586 1.17352 124.945 1.42929 125.759 2.57491C126.573 3.72054 127.637 5.04382 128.868 3.95334C128.868 3.95334 128.51 3.69297 127.696 2.54734C126.882 1.40172 125.814 0.0845608 124.586 1.17352Z" fill="#FAFAFA" stroke="#231F20" stroke-width="0.3" stroke-miterlimit="10"/>
<path d="M122.628 1.17337C122.628 1.17337 122.987 1.42915 123.801 2.57477C124.615 3.7204 125.679 5.04828 126.908 3.95473C126.908 3.95473 126.55 3.69436 125.736 2.54874C124.922 1.40311 123.86 0.08442 122.628 1.17337Z" fill="#FAFAFA" stroke="#231F20" stroke-width="0.3" stroke-miterlimit="10"/>
<path d="M120.675 1.17352C120.675 1.17352 121.034 1.42929 121.847 2.57491C122.661 3.72054 123.725 5.04382 124.957 3.95334C124.957 3.95334 124.598 3.69297 123.785 2.54734C122.973 1.40172 121.908 0.0845608 120.675 1.17352Z" fill="#FAFAFA" stroke="#231F20" stroke-width="0.3" stroke-miterlimit="10"/>
<path d="M118.721 1.17337C118.721 1.17337 119.08 1.42915 119.894 2.57477C120.708 3.7204 121.771 5.04828 123.003 3.95473C123.003 3.95473 122.644 3.69436 121.831 2.54874C121.017 1.40311 119.954 0.08442 118.721 1.17337Z" fill="#FAFAFA" stroke="#231F20" stroke-width="0.3" stroke-miterlimit="10"/>
<path d="M116.767 1.17352C116.767 1.17352 117.126 1.42929 117.94 2.57491C118.754 3.72054 119.818 5.04382 121.049 3.95334C121.049 3.95334 120.692 3.69297 119.878 2.54734C119.064 1.40172 118 0.0845608 116.767 1.17352Z" fill="#FAFAFA" stroke="#231F20" stroke-width="0.3" stroke-miterlimit="10"/>
<path d="M114.815 1.17337C114.815 1.17337 115.173 1.42915 115.986 2.57477C116.8 3.7204 117.864 5.04828 119.098 3.95473C119.098 3.95473 118.739 3.69436 117.925 2.54874C117.111 1.40311 116.047 0.08442 114.815 1.17337Z" fill="#FAFAFA" stroke="#231F20" stroke-width="0.3" stroke-miterlimit="10"/>
<path d="M112.861 1.17352C112.861 1.17352 113.219 1.42929 114.033 2.57491C114.846 3.72054 115.911 5.04382 117.143 3.95334C117.143 3.95334 116.784 3.69297 115.971 2.54734C115.157 1.40172 114.093 0.0845608 112.861 1.17352Z" fill="#FAFAFA" stroke="#231F20" stroke-width="0.3" stroke-miterlimit="10"/>
<path d="M110.907 1.17337C110.907 1.17337 111.266 1.42915 112.08 2.57477C112.894 3.7204 113.958 5.04828 115.193 3.95473C115.193 3.95473 114.834 3.69436 114.02 2.54874C113.206 1.40311 112.139 0.08442 110.907 1.17337Z" fill="#FAFAFA" stroke="#231F20" stroke-width="0.3" stroke-miterlimit="10"/>
<path d="M108.954 1.17352C108.954 1.17352 109.313 1.42929 110.126 2.57491C110.94 3.72054 112.004 5.04382 113.236 3.95334C113.236 3.95334 112.877 3.69297 112.064 2.54734C111.251 1.40172 110.185 0.0845608 108.954 1.17352Z" fill="#FAFAFA" stroke="#231F20" stroke-width="0.3" stroke-miterlimit="10"/>
<path d="M107 1.17337C107 1.17337 107.359 1.42915 108.173 2.57477C108.986 3.7204 110.05 5.04828 111.287 3.95473C111.287 3.95473 110.927 3.69436 110.115 2.54874C109.302 1.40311 108.226 0.08442 107 1.17337Z" fill="#FAFAFA" stroke="#231F20" stroke-width="0.3" stroke-miterlimit="10"/>
<path d="M105.29 1.17591C105.333 1.21768 105.386 1.2716 105.449 1.34027C105.646 1.55313 105.943 1.90871 106.352 2.48556C106.76 3.06137 107.215 3.65442 107.709 3.97416C107.953 4.13191 108.197 4.21646 108.443 4.20667C108.649 4.19843 108.871 4.12301 109.109 3.94553C109.066 3.90328 109.013 3.84862 108.948 3.77889C108.752 3.56502 108.455 3.20841 108.045 2.63165C107.636 2.05575 107.183 1.46432 106.689 1.14594C106.446 0.988889 106.202 0.904871 105.957 0.91498C105.75 0.92347 105.528 0.998914 105.29 1.17591Z" fill="#FAFAFA" stroke="#231F20" stroke-width="0.3" stroke-miterlimit="10"/>
<path d="M103.107 1.17095C103.107 1.17095 103.466 1.42673 104.279 2.57235C105.092 3.71797 106.158 5.04126 107.39 3.95077C107.39 3.95077 107.031 3.6904 106.217 2.54478C105.403 1.39916 104.339 0.0819973 103.107 1.17095Z" fill="#FAFAFA" stroke="#231F20" stroke-width="0.3" stroke-miterlimit="10"/>
<path d="M101.153 1.17095C101.153 1.17095 101.512 1.42673 102.325 2.57235C103.139 3.71797 104.203 5.04126 105.435 3.95077C105.435 3.95077 105.076 3.6904 104.263 2.54478C103.451 1.39916 102.386 0.0819973 101.153 1.17095Z" fill="#FAFAFA" stroke="#231F20" stroke-width="0.3" stroke-miterlimit="10"/>
<path d="M99.2001 1.17095C99.2001 1.17095 99.559 1.42673 100.373 2.57235C101.187 3.71797 102.25 5.04126 103.482 3.95077C103.482 3.95077 103.123 3.6904 102.311 2.54478C101.498 1.39916 100.432 0.0819973 99.2001 1.17095Z" fill="#FAFAFA" stroke="#231F20" stroke-width="0.3" stroke-miterlimit="10"/>
<path d="M97.2475 1.17095C97.2475 1.17095 97.6064 1.42673 98.4201 2.57235C99.2339 3.71797 100.298 5.04126 101.531 3.95077C101.531 3.95077 101.172 3.6904 100.358 2.54478C99.5442 1.39916 98.4793 0.0819973 97.2475 1.17095Z" fill="#FAFAFA" stroke="#231F20" stroke-width="0.3" stroke-miterlimit="10"/>
<path d="M95.2928 1.17095C95.2928 1.17095 95.6516 1.42673 96.4654 2.57235C97.2792 3.71797 98.3431 5.04126 99.5759 3.95077C99.5759 3.95077 99.217 3.6904 98.4033 2.54478C97.5895 1.39916 96.5256 0.0819973 95.2928 1.17095Z" fill="#FAFAFA" stroke="#231F20" stroke-width="0.3" stroke-miterlimit="10"/>
<path d="M93.3422 1.17095C93.3422 1.17095 93.7011 1.42673 94.5138 2.57235C95.3265 3.71797 96.3925 5.04126 97.6243 3.95077C97.6243 3.95077 97.2654 3.6904 96.4516 2.54478C95.6379 1.39916 94.5718 0.0819973 93.3422 1.17095Z" fill="#FAFAFA" stroke="#231F20" stroke-width="0.3" stroke-miterlimit="10"/>
<path d="M91.3864 1.17095C91.3864 1.17095 91.7453 1.42673 92.558 2.57235C93.3707 3.71797 94.4368 5.04126 95.6685 3.95077C95.6685 3.95077 95.3097 3.6904 94.4959 2.54478C93.6821 1.39916 92.6182 0.0819973 91.3864 1.17095Z" fill="#FAFAFA" stroke="#231F20" stroke-width="0.3" stroke-miterlimit="10"/>
<path d="M89.437 1.17095C89.437 1.17095 89.7958 1.42673 90.6096 2.57235C91.4234 3.71797 92.4873 5.04126 93.7191 3.95077C93.7191 3.95077 93.3602 3.6904 92.5464 2.54478C91.7326 1.39916 90.6645 0.0819973 89.437 1.17095Z" fill="#FAFAFA" stroke="#231F20" stroke-width="0.3" stroke-miterlimit="10"/>
<path d="M87.479 1.17081C87.479 1.17081 87.8379 1.42659 88.6517 2.57221C89.4654 3.71783 90.5293 5.04571 91.759 3.95216C91.759 3.95216 91.4001 3.6918 90.5863 2.54617C89.7726 1.40055 88.7108 0.0818565 87.479 1.17081Z" fill="#FAFAFA" stroke="#231F20" stroke-width="0.3" stroke-miterlimit="10"/>
<path d="M85.5254 1.17095C85.5254 1.17095 85.8842 1.42673 86.698 2.57235C87.5118 3.71797 88.5757 5.04126 89.8074 3.95077C89.8074 3.95077 89.4486 3.6904 88.6359 2.54478C87.8231 1.39916 86.7582 0.0819973 85.5254 1.17095Z" fill="#FAFAFA" stroke="#231F20" stroke-width="0.3" stroke-miterlimit="10"/>
<path d="M83.5717 1.17081C83.5717 1.17081 83.9305 1.42659 84.7443 2.57221C85.5581 3.71783 86.622 5.04571 87.8538 3.95216C87.8538 3.95216 87.4949 3.6918 86.6811 2.54617C85.8674 1.40055 84.8045 0.0818565 83.5717 1.17081Z" fill="#FAFAFA" stroke="#231F20" stroke-width="0.3" stroke-miterlimit="10"/>
<path d="M81.618 1.17095C81.618 1.17095 81.9768 1.42673 82.7906 2.57235C83.6044 3.71797 84.6683 5.04126 85.9 3.95077C85.9 3.95077 85.5422 3.6904 84.7284 2.54478C83.9147 1.39916 82.8507 0.0819973 81.618 1.17095Z" fill="#FAFAFA" stroke="#231F20" stroke-width="0.3" stroke-miterlimit="10"/>
<path d="M79.6654 1.17081C79.6654 1.17081 80.0232 1.42659 80.8369 2.57221C81.6507 3.71783 82.7146 5.04571 83.9485 3.95216C83.9485 3.95216 83.5896 3.6918 82.7759 2.54617C81.9621 1.40055 80.8971 0.0818565 79.6654 1.17081Z" fill="#FAFAFA" stroke="#231F20" stroke-width="0.3" stroke-miterlimit="10"/>
<path d="M77.7116 1.17095C77.7116 1.17095 78.0695 1.42673 78.8832 2.57235C79.697 3.71797 80.762 5.04126 81.9937 3.95077C81.9937 3.95077 81.6349 3.6904 80.8211 2.54478C80.0073 1.39916 78.9434 0.0819973 77.7116 1.17095Z" fill="#FAFAFA" stroke="#231F20" stroke-width="0.3" stroke-miterlimit="10"/>
<path d="M75.7579 1.17081C75.7579 1.17081 76.1168 1.42659 76.9305 2.57221C77.7443 3.71783 78.8082 5.04571 80.0432 3.95216C80.0432 3.95216 79.6843 3.6918 78.8705 2.54617C78.0567 1.40055 76.9897 0.0818565 75.7579 1.17081Z" fill="#FAFAFA" stroke="#231F20" stroke-width="0.3" stroke-miterlimit="10"/>
<path d="M73.8043 1.17095C73.8043 1.17095 74.1632 1.42673 74.9769 2.57235C75.7907 3.71797 76.8546 5.04126 78.0864 3.95077C78.0864 3.95077 77.7275 3.6904 76.9148 2.54478C76.1021 1.39916 75.036 0.0819973 73.8043 1.17095Z" fill="#FAFAFA" stroke="#231F20" stroke-width="0.3" stroke-miterlimit="10"/>
<path d="M71.8506 1.17081C71.8506 1.17081 72.2094 1.42659 73.0232 2.57221C73.837 3.71783 74.9009 5.04571 76.1379 3.95216C76.1379 3.95216 75.778 3.6918 74.9653 2.54617C74.1526 1.40055 73.0771 0.0818565 71.8506 1.17081Z" fill="#FAFAFA" stroke="#231F20" stroke-width="0.3" stroke-miterlimit="10"/>
<path d="M70.2356 1.03211C70.2787 1.07388 70.3318 1.1278 70.3952 1.19647C70.5918 1.40933 70.8887 1.76491 71.2979 2.34176C71.7064 2.91757 72.1609 3.51062 72.6552 3.83036C72.899 3.98811 73.1429 4.07267 73.3887 4.06287C73.5954 4.05463 73.8175 3.97921 74.0554 3.80173C74.0121 3.75949 73.9586 3.70483 73.8945 3.63509C73.6979 3.42122 73.4008 3.06461 72.9911 2.48785C72.5821 1.91195 72.1287 1.32052 71.6353 1.00214C71.3919 0.84509 71.1485 0.761072 70.9025 0.771181C70.696 0.779671 70.4739 0.855115 70.2356 1.03211Z" fill="#FAFAFA" stroke="#231F20" stroke-width="0.3" stroke-miterlimit="10"/>
<path d="M68.0535 1.02715C68.0535 1.02715 68.4124 1.28293 69.2251 2.42855C70.0378 3.57417 71.1038 4.89746 72.3356 3.80697C72.3356 3.80697 71.9767 3.54661 71.1629 2.40098C70.3492 1.25536 69.2852 -0.0618016 68.0535 1.02715Z" fill="#FAFAFA" stroke="#231F20" stroke-width="0.3" stroke-miterlimit="10"/>
<path d="M66.0987 1.02715C66.0987 1.02715 66.4576 1.28293 67.2714 2.42855C68.0851 3.57417 69.1491 4.89746 70.3808 3.80697C70.3808 3.80697 70.0219 3.54661 69.2092 2.40098C68.3965 1.25536 67.3315 -0.0618016 66.0987 1.02715Z" fill="#FAFAFA" stroke="#231F20" stroke-width="0.3" stroke-miterlimit="10"/>
<path d="M64.1461 1.02715C64.1461 1.02715 64.5049 1.28293 65.3187 2.42855C66.1325 3.57417 67.1964 4.89746 68.4282 3.80697C68.4282 3.80697 68.0693 3.54661 67.2566 2.40098C66.4439 1.25536 65.3778 -0.0618016 64.1461 1.02715Z" fill="#FAFAFA" stroke="#231F20" stroke-width="0.3" stroke-miterlimit="10"/>
<path d="M62.1935 1.02715C62.1935 1.02715 62.5524 1.28293 63.3661 2.42855C64.1799 3.57417 65.2438 4.89746 66.4766 3.80697C66.4766 3.80697 66.1178 3.54661 65.304 2.40098C64.4902 1.25536 63.4252 -0.0618016 62.1935 1.02715Z" fill="#FAFAFA" stroke="#231F20" stroke-width="0.3" stroke-miterlimit="10"/>
<path d="M60.2388 1.02715C60.2388 1.02715 60.5976 1.28293 61.4114 2.42855C62.2252 3.57417 63.2891 4.89746 64.5219 3.80697C64.5219 3.80697 64.1631 3.54661 63.3493 2.40098C62.5355 1.25536 61.4716 -0.0618016 60.2388 1.02715Z" fill="#FAFAFA" stroke="#231F20" stroke-width="0.3" stroke-miterlimit="10"/>
<path d="M58.2882 1.02715C58.2882 1.02715 58.647 1.28293 59.4598 2.42855C60.2725 3.57417 61.3385 4.89746 62.5703 3.80697C62.5703 3.80697 62.2114 3.54661 61.3976 2.40098C60.5838 1.25536 59.5178 -0.0618016 58.2882 1.02715Z" fill="#FAFAFA" stroke="#231F20" stroke-width="0.3" stroke-miterlimit="10"/>
<path d="M56.3324 1.02715C56.3324 1.02715 56.6913 1.28293 57.504 2.42855C58.3167 3.57417 59.3828 4.89746 60.6145 3.80697C60.6145 3.80697 60.2556 3.54661 59.4419 2.40098C58.6281 1.25536 57.5642 -0.0618016 56.3324 1.02715Z" fill="#FAFAFA" stroke="#231F20" stroke-width="0.3" stroke-miterlimit="10"/>
<path d="M54.383 1.02715C54.383 1.02715 54.7418 1.28293 55.5556 2.42855C56.3694 3.57417 57.4333 4.89746 58.665 3.80697C58.665 3.80697 58.3062 3.54661 57.4924 2.40098C56.6786 1.25536 55.6105 -0.0618016 54.383 1.02715Z" fill="#FAFAFA" stroke="#231F20" stroke-width="0.3" stroke-miterlimit="10"/>
<path d="M52.425 1.02701C52.425 1.02701 52.7839 1.28279 53.5976 2.42841C54.4114 3.57403 55.4753 4.90192 56.705 3.80837C56.705 3.80837 56.3461 3.548 55.5323 2.40237C54.7185 1.25675 53.6567 -0.0619424 52.425 1.02701Z" fill="#FAFAFA" stroke="#231F20" stroke-width="0.3" stroke-miterlimit="10"/>
<path d="M50.4714 1.02715C50.4714 1.02715 50.8302 1.28293 51.644 2.42855C52.4578 3.57417 53.5217 4.89746 54.7534 3.80697C54.7534 3.80697 54.3946 3.54661 53.5818 2.40098C52.7691 1.25536 51.7041 -0.0618016 50.4714 1.02715Z" fill="#FAFAFA" stroke="#231F20" stroke-width="0.3" stroke-miterlimit="10"/>
<path d="M48.5177 1.02701C48.5177 1.02701 48.8765 1.28279 49.6903 2.42841C50.5041 3.57403 51.568 4.90192 52.7997 3.80837C52.7997 3.80837 52.4409 3.548 51.6271 2.40237C50.8133 1.25675 49.7505 -0.0619424 48.5177 1.02701Z" fill="#FAFAFA" stroke="#231F20" stroke-width="0.3" stroke-miterlimit="10"/>
<path d="M46.5639 1.02715C46.5639 1.02715 46.9228 1.28293 47.7366 2.42855C48.5503 3.57417 49.6143 4.89746 50.846 3.80697C50.846 3.80697 50.4882 3.54661 49.6744 2.40098C48.8607 1.25536 47.7967 -0.0618016 46.5639 1.02715Z" fill="#FAFAFA" stroke="#231F20" stroke-width="0.3" stroke-miterlimit="10"/>
<path d="M44.6113 1.02701C44.6113 1.02701 44.9692 1.28279 45.7829 2.42841C46.5967 3.57403 47.6606 4.90192 48.8945 3.80837C48.8945 3.80837 48.5356 3.548 47.7218 2.40237C46.9081 1.25675 45.8431 -0.0619424 44.6113 1.02701Z" fill="#FAFAFA" stroke="#231F20" stroke-width="0.3" stroke-miterlimit="10"/>
<path d="M42.6576 1.02715C42.6576 1.02715 43.0154 1.28293 43.8292 2.42855C44.643 3.57417 45.708 4.89746 46.9397 3.80697C46.9397 3.80697 46.5808 3.54661 45.7671 2.40098C44.9533 1.25536 43.8894 -0.0618016 42.6576 1.02715Z" fill="#FAFAFA" stroke="#231F20" stroke-width="0.3" stroke-miterlimit="10"/>
<path d="M40.7039 1.02701C40.7039 1.02701 41.0628 1.28279 41.8765 2.42841C42.6903 3.57403 43.7542 4.90192 44.9891 3.80837C44.9891 3.80837 44.6303 3.548 43.8165 2.40237C43.0027 1.25675 41.9356 -0.0619424 40.7039 1.02701Z" fill="#FAFAFA" stroke="#231F20" stroke-width="0.3" stroke-miterlimit="10"/>
<path d="M38.7503 1.02715C38.7503 1.02715 39.1091 1.28293 39.9229 2.42855C40.7367 3.57417 41.8006 4.89746 43.0323 3.80697C43.0323 3.80697 42.6735 3.54661 41.8608 2.40098C41.048 1.25536 39.982 -0.0618016 38.7503 1.02715Z" fill="#FAFAFA" stroke="#231F20" stroke-width="0.3" stroke-miterlimit="10"/>
<path d="M36.7966 1.02701C36.7966 1.02701 37.1554 1.28279 37.9692 2.42841C38.783 3.57403 39.8469 4.90192 41.0839 3.80837C41.0839 3.80837 40.724 3.548 39.9113 2.40237C39.0986 1.25675 38.023 -0.0619424 36.7966 1.02701Z" fill="#FAFAFA" stroke="#231F20" stroke-width="0.3" stroke-miterlimit="10"/>
<path d="M156.28 63.1171C156.28 63.1171 156.457 63.6378 157.246 64.8171C158.036 65.9964 158.948 67.5433 158.196 69.3307C158.196 69.3307 158.017 68.81 157.227 67.6291C156.438 66.4483 155.53 64.9044 156.28 63.1171Z" fill="#FAFAFA" stroke="#231F20" stroke-width="0.3" stroke-miterlimit="10"/>
<path d="M156.28 60.2805C156.28 60.2805 156.457 60.8012 157.246 61.9821C158.036 63.1629 158.948 64.7068 158.196 66.4941C158.196 66.4941 158.017 65.9734 157.227 64.7941C156.438 63.6148 155.53 62.0694 156.28 60.2805Z" fill="#FAFAFA" stroke="#231F20" stroke-width="0.3" stroke-miterlimit="10"/>
<path d="M156.28 57.4471C156.28 57.4471 156.457 57.9679 157.246 59.1487C158.036 60.3296 158.948 61.8734 158.196 63.6608C158.196 63.6608 158.017 63.14 157.227 61.9607C156.438 60.7814 155.53 59.2345 156.28 57.4471Z" fill="#FAFAFA" stroke="#231F20" stroke-width="0.3" stroke-miterlimit="10"/>
<path d="M156.28 54.6137C156.28 54.6137 156.457 55.1344 157.246 56.3153C158.036 57.4961 158.948 59.04 158.196 60.8289C158.196 60.8289 158.017 60.3081 157.227 59.1273C156.438 57.9464 155.53 56.4011 156.28 54.6137Z" fill="#FAFAFA" stroke="#231F20" stroke-width="0.3" stroke-miterlimit="10"/>
<path d="M156.28 51.7773C156.28 51.7773 156.457 52.298 157.246 53.4789C158.036 54.6597 158.948 56.2035 158.196 57.9924C158.196 57.9924 158.017 57.4717 157.227 56.2908C156.438 55.11 155.53 53.5662 156.28 51.7773Z" fill="#FAFAFA" stroke="#231F20" stroke-width="0.3" stroke-miterlimit="10"/>
<path d="M156.28 48.9469C156.28 48.9469 156.457 49.4676 157.246 50.6469C158.036 51.8263 158.948 53.3732 158.196 55.1605C158.196 55.1605 158.017 54.6398 157.227 53.4589C156.438 52.2781 155.53 50.7312 156.28 48.9469Z" fill="#FAFAFA" stroke="#231F20" stroke-width="0.3" stroke-miterlimit="10"/>
<path d="M156.28 46.1089C156.28 46.1089 156.457 46.6296 157.246 47.8089C158.036 48.9883 158.948 50.5352 158.196 52.3225C158.196 52.3225 158.017 51.8018 157.227 50.6209C156.438 49.4401 155.53 47.8962 156.28 46.1089Z" fill="#FAFAFA" stroke="#231F20" stroke-width="0.3" stroke-miterlimit="10"/>
<path d="M35.5421 1.32972C35.5852 1.37149 35.6383 1.42541 35.7017 1.49408C35.8983 1.70694 36.1952 2.06252 36.6044 2.63937C37.0129 3.21518 37.4673 3.80823 37.9616 4.12797C38.2055 4.28572 38.4493 4.37027 38.6952 4.36048C38.9018 4.35224 39.1239 4.27682 39.3618 4.09933C39.3185 4.05709 39.265 4.00243 39.2009 3.9327C39.0044 3.71883 38.7073 3.36222 38.2976 2.78546C37.8885 2.20956 37.4352 1.61813 36.9418 1.29975C36.6984 1.1427 36.4549 1.05868 36.209 1.06879C36.0025 1.07728 35.7803 1.15272 35.5421 1.32972Z" fill="#FAFAFA" stroke="#231F20" stroke-width="0.3" stroke-miterlimit="10"/>
<path d="M33.36 1.32476C33.36 1.32476 33.7188 1.58054 34.5315 2.72616C35.3443 3.87178 36.4103 5.19507 37.642 4.10458C37.642 4.10458 37.2832 3.84421 36.4694 2.69859C35.6556 1.55297 34.5917 0.235806 33.36 1.32476Z" fill="#FAFAFA" stroke="#231F20" stroke-width="0.3" stroke-miterlimit="10"/>
<path d="M31.4052 1.32476C31.4052 1.32476 31.764 1.58054 32.5778 2.72616C33.3916 3.87178 34.4555 5.19507 35.6873 4.10458C35.6873 4.10458 35.3284 3.84421 34.5157 2.69859C33.703 1.55297 32.638 0.235806 31.4052 1.32476Z" fill="#FAFAFA" stroke="#231F20" stroke-width="0.3" stroke-miterlimit="10"/>
<path d="M29.4525 1.32476C29.4525 1.32476 29.8114 1.58054 30.6252 2.72616C31.439 3.87178 32.5029 5.19507 33.7346 4.10458C33.7346 4.10458 33.3758 3.84421 32.563 2.69859C31.7503 1.55297 30.6843 0.235806 29.4525 1.32476Z" fill="#FAFAFA" stroke="#231F20" stroke-width="0.3" stroke-miterlimit="10"/>
<path d="M27.5 1.32476C27.5 1.32476 27.8588 1.58054 28.6726 2.72616C29.4864 3.87178 30.5503 5.19507 31.7831 4.10458C31.7831 4.10458 31.4242 3.84421 30.6104 2.69859C29.7967 1.55297 28.7317 0.235806 27.5 1.32476Z" fill="#FAFAFA" stroke="#231F20" stroke-width="0.3" stroke-miterlimit="10"/>
<path d="M25.5452 1.32476C25.5452 1.32476 25.9041 1.58054 26.7179 2.72616C27.5317 3.87178 28.5956 5.19507 29.8284 4.10458C29.8284 4.10458 29.4695 3.84421 28.6557 2.69859C27.842 1.55297 26.778 0.235806 25.5452 1.32476Z" fill="#FAFAFA" stroke="#231F20" stroke-width="0.3" stroke-miterlimit="10"/>
<path d="M23.5946 1.32476C23.5946 1.32476 23.9535 1.58054 24.7662 2.72616C25.5789 3.87178 26.645 5.19507 27.8767 4.10458C27.8767 4.10458 27.5178 3.84421 26.7041 2.69859C25.8903 1.55297 24.8243 0.235806 23.5946 1.32476Z" fill="#FAFAFA" stroke="#231F20" stroke-width="0.3" stroke-miterlimit="10"/>
<path d="M21.6389 1.32476C21.6389 1.32476 21.9978 1.58054 22.8105 2.72616C23.6232 3.87178 24.6892 5.19507 25.921 4.10458C25.921 4.10458 25.5621 3.84421 24.7483 2.69859C23.9346 1.55297 22.8706 0.235806 21.6389 1.32476Z" fill="#FAFAFA" stroke="#231F20" stroke-width="0.3" stroke-miterlimit="10"/>
<path d="M19.6894 1.32476C19.6894 1.32476 20.0483 1.58054 20.8621 2.72616C21.6758 3.87178 22.7398 5.19507 23.9715 4.10458C23.9715 4.10458 23.6126 3.84421 22.7989 2.69859C21.9851 1.55297 20.9169 0.235806 19.6894 1.32476Z" fill="#FAFAFA" stroke="#231F20" stroke-width="0.3" stroke-miterlimit="10"/>
<path d="M17.7315 1.32462C17.7315 1.32462 18.0903 1.58039 18.9041 2.72602C19.7179 3.87164 20.7818 5.19952 22.0114 4.10597C22.0114 4.10597 21.6526 3.8456 20.8388 2.69998C20.025 1.55436 18.9632 0.235665 17.7315 1.32462Z" fill="#FAFAFA" stroke="#231F20" stroke-width="0.3" stroke-miterlimit="10"/>
<path d="M15.7778 1.32476C15.7778 1.32476 16.1367 1.58054 16.9504 2.72616C17.7642 3.87178 18.8281 5.19507 20.0599 4.10458C20.0599 4.10458 19.701 3.84421 18.8883 2.69859C18.0756 1.55297 17.0106 0.235806 15.7778 1.32476Z" fill="#FAFAFA" stroke="#231F20" stroke-width="0.3" stroke-miterlimit="10"/>
<path d="M13.8241 1.32462C13.8241 1.32462 14.183 1.58039 14.9968 2.72602C15.8105 3.87164 16.8745 5.19952 18.1062 4.10597C18.1062 4.10597 17.7473 3.8456 16.9336 2.69998C16.1198 1.55436 15.0569 0.235665 13.8241 1.32462Z" fill="#FAFAFA" stroke="#231F20" stroke-width="0.3" stroke-miterlimit="10"/>
<path d="M11.8704 1.32476C11.8704 1.32476 12.2293 1.58054 13.043 2.72616C13.8568 3.87178 14.9207 5.19507 16.1525 4.10458C16.1525 4.10458 15.7947 3.84421 14.9809 2.69859C14.1671 1.55297 13.1032 0.235806 11.8704 1.32476Z" fill="#FAFAFA" stroke="#231F20" stroke-width="0.3" stroke-miterlimit="10"/>
<path d="M9.9178 1.32462C9.9178 1.32462 10.2756 1.58039 11.0894 2.72602C11.9032 3.87164 12.9671 5.19952 14.2009 4.10597C14.2009 4.10597 13.8421 3.8456 13.0283 2.69998C12.2145 1.55436 11.1495 0.235665 9.9178 1.32462Z" fill="#FAFAFA" stroke="#231F20" stroke-width="0.3" stroke-miterlimit="10"/>
<path d="M7.96409 1.32476C7.96409 1.32476 8.32189 1.58054 9.13566 2.72616C9.94944 3.87178 11.0144 5.19507 12.2462 4.10458C12.2462 4.10458 11.8873 3.84421 11.0735 2.69859C10.2597 1.55297 9.19583 0.235806 7.96409 1.32476Z" fill="#FAFAFA" stroke="#231F20" stroke-width="0.3" stroke-miterlimit="10"/>
<path d="M6.01036 1.32462C6.01036 1.32462 6.36922 1.58039 7.18299 2.72602C7.99677 3.87164 9.06069 5.19952 10.2956 4.10597C10.2956 4.10597 9.93673 3.8456 9.12296 2.69998C8.30919 1.55436 7.2421 0.235665 6.01036 1.32462Z" fill="#FAFAFA" stroke="#231F20" stroke-width="0.3" stroke-miterlimit="10"/>
<path d="M4.05674 1.32476C4.05674 1.32476 4.4156 1.58054 5.22937 2.72616C6.04314 3.87178 7.10706 5.19507 8.33881 4.10458C8.33881 4.10458 7.97994 3.84421 7.16723 2.69859C6.35451 1.55297 5.28848 0.235806 4.05674 1.32476Z" fill="#FAFAFA" stroke="#231F20" stroke-width="0.3" stroke-miterlimit="10"/>
<path d="M2.10303 1.32462C2.10303 1.32462 2.4619 1.58039 3.27567 2.72602C4.08944 3.87164 5.15336 5.19952 6.39038 4.10597C6.39038 4.10597 6.03046 3.8456 5.21775 2.69998C4.40503 1.55436 3.3295 0.235665 2.10303 1.32462Z" fill="#FAFAFA" stroke="#231F20" stroke-width="0.3" stroke-miterlimit="10"/>
<path d="M2.13996 1.44455L2.13997 1.44456C2.59523 1.70146 2.95716 2.13318 3.31573 2.78979L3.31547 2.78993L3.32122 2.79921C3.5147 3.11139 3.73897 3.32766 3.927 3.50898C3.95195 3.53304 3.97626 3.55649 3.99978 3.57946C4.20512 3.78004 4.34614 3.94054 4.41017 4.17401C4.47581 4.41334 4.46849 4.76126 4.29059 5.33773C4.12348 5.87926 3.81195 6.60391 3.29721 7.60319L2.18204 6.06694L2.18139 6.06583L2.16548 6.03829C2.15147 6.01382 2.13085 5.97735 2.10493 5.93016C2.05307 5.83576 1.98005 5.69864 1.89622 5.52904C1.72832 5.18937 1.51819 4.72184 1.34745 4.20795C1.00544 3.17857 0.841887 2.02733 1.4029 1.30643C1.40917 1.30472 1.41657 1.30285 1.42507 1.30094C1.45986 1.29312 1.51258 1.28479 1.58012 1.28437C1.71465 1.28356 1.90881 1.31408 2.13996 1.44455ZM1.37796 1.31426L1.37875 1.31394L1.37864 1.31398L1.37845 1.31406L1.37816 1.31418L1.37796 1.31426Z" fill="#FAFAFA" stroke="#231F20" stroke-width="0.3" stroke-miterlimit="10"/>
<path d="M1.28061 66.4837C1.28061 66.4837 1.45688 67.0045 2.24638 68.1838C3.03587 69.3631 3.70717 69.4392 2.95567 71.2265C2.95567 71.2265 2.10432 72.1591 1.01675 71.2664C0.227255 70.0855 0.53017 68.268 1.28061 66.4837Z" fill="#FAFAFA" stroke="#231F20" stroke-width="0.3" stroke-miterlimit="10"/>
<path d="M1.28058 63.6457C1.28058 63.6457 1.45685 64.1665 2.24634 65.3458C3.03584 66.5251 3.94777 68.072 3.19627 69.8594C3.19627 69.8594 3.01684 69.3386 2.22734 68.1578C1.43785 66.9769 0.530137 65.4331 1.28058 63.6457Z" fill="#FAFAFA" stroke="#231F20" stroke-width="0.3" stroke-miterlimit="10"/>
<path d="M1.28058 60.8169C1.28058 60.8169 1.45685 61.3376 2.24634 62.5185C3.03584 63.6993 3.94777 65.2432 3.19627 67.0305C3.19627 67.0305 3.01684 66.5098 2.22734 65.3289C1.43785 64.1481 0.530137 62.5981 1.28058 60.8169Z" fill="#FAFAFA" stroke="#231F20" stroke-width="0.3" stroke-miterlimit="10"/>
<path d="M1.28064 57.9757C1.28064 57.9757 1.45691 58.4964 2.24641 59.6773C3.0359 60.8582 3.951 62.402 3.19739 64.1863C3.19739 64.1863 3.01796 63.6655 2.22846 62.4847C1.43897 61.3038 0.5302 59.7631 1.28064 57.9757Z" fill="#FAFAFA" stroke="#231F20" stroke-width="0.3" stroke-miterlimit="10"/>
<path d="M1.28058 55.1409C1.28058 55.1409 1.45685 55.6616 2.24634 56.8425C3.03584 58.0233 3.94777 59.5671 3.19627 61.3545C3.19627 61.3545 3.01684 60.8338 2.22734 59.6544C1.43785 58.4751 0.530137 56.9298 1.28058 55.1409Z" fill="#FAFAFA" stroke="#231F20" stroke-width="0.3" stroke-miterlimit="10"/>
<path d="M1.28064 52.3059C1.28064 52.3059 1.45691 52.8266 2.24641 54.0075C3.0359 55.1883 3.951 56.7322 3.19739 58.5195C3.19739 58.5195 3.01796 57.9988 2.22846 56.8179C1.43897 55.6371 0.5302 54.0948 1.28064 52.3059Z" fill="#FAFAFA" stroke="#231F20" stroke-width="0.3" stroke-miterlimit="10"/>
<path d="M1.28058 49.4709C1.28058 49.4709 1.45685 49.9917 2.24634 51.1725C3.03584 52.3534 3.94777 53.8972 3.19627 55.6846C3.19627 55.6846 3.01684 55.1654 2.22734 53.9845C1.43785 52.8037 0.530137 51.2598 1.28058 49.4709Z" fill="#FAFAFA" stroke="#231F20" stroke-width="0.3" stroke-miterlimit="10"/>
<path d="M1.28064 46.6375C1.28064 46.6375 1.45691 47.1567 2.24641 48.3376C3.0359 49.5184 3.951 51.0622 3.19739 52.8527C3.19739 52.8527 3.01796 52.3319 2.22846 51.1511C1.43897 49.9702 0.5302 48.4249 1.28064 46.6375Z" fill="#FAFAFA" stroke="#231F20" stroke-width="0.3" stroke-miterlimit="10"/>
<path d="M1.28058 43.8025C1.28058 43.8025 1.45685 44.3217 2.24634 45.5025C3.03584 46.6834 3.94777 48.2288 3.19627 50.0161C3.19627 50.0161 3.01684 49.4954 2.22734 48.3145C1.43785 47.1337 0.530137 45.5898 1.28058 43.8025Z" fill="#FAFAFA" stroke="#231F20" stroke-width="0.3" stroke-miterlimit="10"/>
</svg>
