<svg width="79" height="100" viewBox="0 0 79 100" fill="none" xmlns="http://www.w3.org/2000/svg">
<path d="M16.5204 79.6854H17.2473V83.9078H18.2329V78.8339H16.5204V79.6854Z" fill="#D63517"/>
<path d="M22.2175 78.7184C20.8673 78.7184 20.3004 79.624 20.3004 80.5226C20.3004 81.5812 21.0743 82.174 21.8929 82.174C22.1211 82.174 22.3022 82.1199 22.4622 82.0516L21.2649 83.5877L21.9635 84.1193L23.5019 82.0493C23.8289 81.6165 24.1394 81.1131 24.1394 80.4662C24.1347 79.5488 23.4972 78.7184 22.2175 78.7184ZM22.2175 81.3812C21.6859 81.3812 21.2837 80.986 21.2837 80.445C21.2837 79.904 21.6859 79.5088 22.2175 79.5088C22.7492 79.5088 23.1491 79.904 23.1491 80.445C23.1491 80.986 22.7468 81.3812 22.2175 81.3812Z" fill="#D63517"/>
<path d="M28.6847 78.7418H27.7979L25.2879 82.5691V83.0113H27.7579V83.9099H28.6823V83.0113H29.2728V82.2209H28.6823V78.7418H28.6847ZM27.7579 82.2186H26.4547L27.7579 80.2026V82.2186Z" fill="#D63517"/>
<path d="M32.2315 80.4546C32.1022 80.4546 31.9963 80.4687 31.8975 80.4852L32.0786 79.6854H33.7606V78.8339H31.4247L30.8248 81.4967H30.886C31.2506 81.2215 31.5988 81.1697 31.8575 81.1697C32.6314 81.1697 33.0031 81.6567 33.0031 82.1883C33.0031 82.767 32.5938 83.1692 31.9869 83.1692C31.3565 83.1692 30.933 82.8046 30.7049 82.5223L30.3779 83.3739C30.9683 83.9525 31.6058 84.0208 32.0081 84.0208C33.403 84.0208 33.9864 83.1316 33.9864 82.1718C33.9911 81.078 33.2242 80.4546 32.2315 80.4546Z" fill="#D63517"/>
<path d="M39.4206 81.306H35.4004V82.0964H39.4206V81.306Z" fill="#D63517"/>
<path d="M43.408 82.1057C43.8031 81.68 44.3254 81.1178 44.3254 80.3321C44.3254 79.5252 43.7185 78.7184 42.5446 78.7184C41.5449 78.7184 40.8157 79.3794 40.771 80.4144H41.7872C41.8037 79.9816 42.0765 79.5699 42.5917 79.5699C43.0151 79.5699 43.3421 79.8828 43.3421 80.3391C43.3421 80.6355 43.1821 80.9484 43.0457 81.153C42.8646 81.4283 42.2718 82.1034 42.1824 82.2116L40.6957 83.9076H44.3654V83.0561H42.5376L43.408 82.1057Z" fill="#D63517"/>
<path d="M47.7735 78.7184C46.7643 78.7184 45.8163 79.624 45.8163 81.3671C45.8163 83.1172 46.7643 84.0229 47.7735 84.0229C48.7826 84.0229 49.7306 83.1172 49.7306 81.3742C49.7306 79.624 48.7826 78.7184 47.7735 78.7184ZM47.7735 83.1713C47.3407 83.1713 46.802 82.6915 46.802 81.3671C46.802 80.0498 47.3477 79.5723 47.7735 79.5723C48.1969 79.5723 48.745 80.0522 48.745 81.3671C48.745 82.6915 48.2063 83.1713 47.7735 83.1713Z" fill="#D63517"/>
<path d="M53.5341 82.1057C53.9293 81.68 54.4515 81.1178 54.4515 80.3321C54.4515 79.5252 53.8446 78.7184 52.6708 78.7184C51.6711 78.7184 50.9419 79.3794 50.8972 80.4144H51.9134C51.9298 79.9816 52.2027 79.5699 52.7179 79.5699C53.1413 79.5699 53.4683 79.8828 53.4683 80.3391C53.4683 80.6355 53.3083 80.9484 53.1719 81.153C52.9907 81.4283 52.398 82.1034 52.3086 82.2116L50.8219 83.9076H54.4915V83.0561H52.6638L53.5341 82.1057Z" fill="#D63517"/>
<path d="M57.903 78.7184C56.8938 78.7184 55.9458 79.624 55.9458 81.3671C55.9458 83.1172 56.8938 84.0229 57.903 84.0229C58.9121 84.0229 59.8601 83.1172 59.8601 81.3742C59.8601 79.624 58.9121 78.7184 57.903 78.7184ZM57.903 83.1713C57.4701 83.1713 56.9314 82.6915 56.9314 81.3671C56.9314 80.0498 57.4772 79.5723 57.903 79.5723C58.3264 79.5723 58.8745 80.0522 58.8745 81.3671C58.8721 82.6915 58.3358 83.1713 57.903 83.1713Z" fill="#D63517"/>
<path d="M17.4685 74.6466V65.5266H9.45406V74.6466H11.8205V67.5496H15.0879V74.6466H17.4685Z" fill="#D63517"/>
<path d="M27.3034 73.4986C28.2749 72.5694 28.7383 71.2968 28.7383 70.0947C28.7383 68.8786 28.2726 67.5919 27.3034 66.6768C26.3742 65.7876 25.0616 65.3242 23.7067 65.3242C22.3541 65.3242 21.0391 65.79 20.11 66.6768C19.1385 67.5919 18.675 68.8786 18.675 70.0947C18.675 71.2968 19.1408 72.5694 20.11 73.4986C21.0391 74.3877 22.3517 74.8535 23.7067 74.8535C25.0616 74.8511 26.3742 74.3877 27.3034 73.4986ZM21.1379 70.1347C21.1379 69.4925 21.3708 68.8221 21.8625 68.3423C22.3541 67.8506 23.0527 67.6177 23.709 67.6177C24.3371 67.6177 25.0358 67.8647 25.5415 68.3423C25.9649 68.7516 26.2801 69.382 26.2801 70.0924C26.2801 70.7887 25.9649 71.4191 25.5415 71.8425C25.1181 72.2659 24.5159 72.5529 23.709 72.5529C22.9163 72.5529 22.3 72.2518 21.8625 71.8284C21.5214 71.5014 21.1379 70.9416 21.1379 70.1347Z" fill="#D63517"/>
<path d="M36.0708 73.8256C36.5625 73.334 36.8236 72.6212 36.8236 71.885C36.8236 71.1181 36.5507 70.45 36.1273 69.9984C35.4428 69.288 34.4054 69.1092 33.241 69.1092H32.3118V67.5379H35.8662V65.5266H29.9313V74.6466H33.1587C34.2525 74.6466 35.3463 74.5384 36.0708 73.8256ZM32.3118 72.8V70.9134H33.1328C33.4339 70.9134 33.8714 70.9276 34.1443 71.1604C34.2948 71.2969 34.4172 71.5298 34.4172 71.845C34.4172 72.1178 34.3207 72.3366 34.1843 72.4872C33.8973 72.7883 33.3915 72.8024 33.1304 72.8024H32.3118V72.8Z" fill="#D63517"/>
<path d="M43.1915 67.5355V65.5266H38.0093V74.6466H43.1915V72.6377H40.3734V71.064H43.0409V69.0551H40.3734V67.5355H43.1915Z" fill="#D63517"/>
<path d="M53.7062 76.6978V72.8141H52.6124V65.5266H45.7201V69.2739C45.7201 70.5724 45.6118 71.558 44.9273 72.2684C44.5862 72.6236 44.2428 72.76 43.8876 72.8141V76.6978H46.0212V74.6466H51.5727V76.6978H53.7062ZM50.2342 72.8141H47.0068C47.3902 72.4166 47.6349 71.9932 47.7995 71.4192C47.9901 70.7347 48.0183 69.9419 48.0183 69.5044V67.3567H50.2342V72.8141Z" fill="#D63517"/>
<path d="M57.8063 65.5266L54.306 74.6466H56.8089L57.4252 73.1152H60.735L61.2948 74.6466H63.8236L60.3915 65.5266H57.8063ZM58.0792 71.311L59.0766 68.3565L60.1022 71.311H58.0792Z" fill="#D63517"/>
<path d="M67.0229 72.4987C66.7219 72.1976 66.3525 72.0612 66.0114 72.0612C65.7103 72.0612 65.341 72.1576 65.0141 72.4846C64.8353 72.6634 64.5906 72.9903 64.5906 73.482C64.5906 73.9736 64.8376 74.3029 65.0141 74.4794C65.341 74.8063 65.7103 74.9028 66.0114 74.9028C66.3666 74.9028 66.7218 74.7663 67.0088 74.4794C67.2558 74.2324 67.4181 73.9313 67.4181 73.482C67.4181 73.0327 67.2535 72.7316 67.0229 72.4987Z" fill="#D63517"/>
<path d="M67.1309 65.5266H64.8609V71.5439H67.1309V65.5266Z" fill="#D63517"/>
<path d="M31.8861 41.0153C33.1799 35.8496 35.7581 31.2084 39.0184 27.0283L39.964 28.148L41.0908 24.4713L37.3694 25.0829L38.3057 26.1885C33.2575 28.9431 21.4912 35.8378 17.8262 52.7887C17.2146 55.6186 16.6712 60.1256 16.6712 60.1256C16.6712 60.1256 25.8665 60.2315 30.8723 59.6952C30.7994 53.4756 30.3759 47.0443 31.8861 41.0153Z" fill="#D63517"/>
<path d="M59.4103 36.8067C57.425 27.8985 46.0914 28.1902 40.8175 32.9113L40.1541 31.601L38.197 34.9108L41.9631 35.186L41.3091 33.8946C45.3834 32.3114 51.9605 33.1089 51.2242 38.9427C50.495 44.7271 41.0904 46.7853 35.9835 47.5499V59.128C36.8068 59.1704 63.1294 53.4848 59.4103 36.8067Z" fill="#D63517"/>
<path d="M55.5033 21.9449C56.6206 20.4041 57.5545 18.6798 57.9379 17.5342L58.9541 18.5481L59.7657 14.7891L56.1078 15.7112L57.1334 16.7344C57.1217 16.7415 55.0352 18.0917 51.2526 18.9715C47.9688 19.7337 44.0121 19.7948 44.0121 19.7948C43.8334 20.3523 41.888 26.8754 41.2199 29.0983C47.0043 29.103 52.9698 25.4381 55.5033 21.9449Z" fill="#D63517"/>
<path d="M38.414 22.126L37.8847 23.5092L41.599 22.9023L39.322 19.7408L38.7974 21.1287C38.7597 21.0957 34.9443 18.2047 29.5057 16.8568C26.5112 16.1158 22.8556 16.3228 19.2895 17.0568V30.1193C29.8562 21.5615 38.4163 22.126 38.414 22.126Z" fill="#D63517"/>
</svg>
