<svg width="602" height="14" viewBox="0 0 602 14" fill="none" xmlns="http://www.w3.org/2000/svg">
<path d="M1.36816 8.53438C4.29677 8.29537 34.1054 5.08362 62.1368 4.3517C72.4351 4.08281 84.1459 4.56937 95.6615 5.40794C134.086 8.20603 172.695 10.1737 211.052 6.56391L220.453 5.67916C229.835 4.79626 239.28 4.82365 248.656 5.76093L291.754 10.0692C304.592 11.3526 317.531 11.2284 330.342 9.69896L360.33 6.11889C370.165 4.94461 380.103 4.89839 389.95 5.98112L433.377 10.7564C440.898 11.5834 448.482 11.6596 456.018 10.9839L517.107 5.50614C525.67 4.73838 534.287 4.8153 542.834 5.73578L601.001 12" stroke="#9DD8D7" stroke-width="4"/>
<path d="M1 6.25691C3.92861 6.01791 33.7372 2.80616 61.7686 2.07424C72.0669 1.80534 83.7778 2.2919 95.2934 3.13047C133.718 5.92856 172.327 7.89628 210.684 4.28645L220.085 3.40169C229.467 2.51879 238.911 2.54618 248.288 3.48346L291.386 7.79177C304.224 9.07511 317.163 8.95095 329.974 7.4215L359.961 3.84143C369.797 2.66715 379.735 2.62092 389.582 3.70365L433.008 8.47894C440.529 9.30596 448.114 9.38216 455.65 8.70641L516.739 3.22868C525.301 2.46091 533.918 2.53783 542.466 3.45831L600.632 9.72256" stroke="#04BCF4" stroke-width="4"/>
</svg>
