<svg width="443" height="14" viewBox="0 0 443 14" fill="none" xmlns="http://www.w3.org/2000/svg">
<path d="M1.26953 8.28393C3.42206 8.02765 25.3314 4.58378 45.9346 3.79896C51.8784 3.57255 58.4624 3.84564 65.1144 4.40875C97.0327 7.11076 129.196 9.76701 160.931 5.40995V5.40995C168.715 4.34129 176.61 4.37434 184.385 5.50813L202.15 8.09894C219.87 10.6832 237.889 10.4343 255.532 7.36155V7.36155C269.074 5.00288 282.914 4.91032 296.487 7.08765L310.722 9.3712C321.589 11.1146 332.652 11.2749 343.566 9.84729L371.105 6.24476C383.505 4.62259 396.074 4.7845 408.429 6.72557L442 12" stroke="#9DD8D7" stroke-width="4"/>
<path d="M1 6.56457C3.15253 6.30829 25.0619 2.86442 45.665 2.0796C51.6088 1.85319 58.1928 2.12628 64.8448 2.68939C96.7631 5.3914 128.927 8.04765 160.662 3.69059V3.69059C168.445 2.62192 176.341 2.65498 184.115 3.78877L201.88 6.37958C219.601 8.96388 237.62 8.71499 255.262 5.64219V5.64219C268.805 3.28352 282.645 3.19096 296.217 5.36829L310.452 7.65184C321.32 9.39521 332.383 9.55557 343.296 8.12793L370.835 4.5254C383.236 2.90323 395.805 3.06514 408.16 5.00621L441.731 10.2807" stroke="#04BCF4" stroke-width="4"/>
</svg>
