<svg width="136" height="11" viewBox="0 0 136 11" fill="none" xmlns="http://www.w3.org/2000/svg">
<path d="M1.08203 6.23931C1.73609 6.07579 8.39333 3.87854 14.6537 3.37781C16.5166 3.22881 18.5864 3.41888 20.6724 3.80134C30.274 5.56177 40.1986 7.11477 49.5783 4.41072V4.41072C51.9163 3.73669 54.3999 3.75715 56.7266 4.46961L62.0112 6.08788C67.3561 7.72458 73.0892 7.57132 78.339 5.6514V5.6514C82.363 4.17974 86.7685 4.12313 90.829 5.4909L93.368 6.34614C97.7491 7.82188 102.471 7.95611 106.929 6.73163L109.007 6.16093C115.614 4.34602 122.61 4.52302 129.118 6.66972L135 8.61025" stroke="#9DD8D7" stroke-width="4"/>
<path d="M1 4.91228C1.65406 4.74877 8.3113 2.55152 14.5716 2.05079C16.4345 1.90179 18.5044 2.09185 20.5904 2.47431C30.192 4.23474 40.1166 5.78774 49.4962 3.08369V3.08369C51.8343 2.40966 54.3179 2.43012 56.6445 3.14258L61.9292 4.76085C67.274 6.39756 73.0072 6.2443 78.2569 4.32438V4.32438C82.281 2.85271 86.6864 2.7961 90.747 4.16387L93.286 5.01911C97.6671 6.49486 102.389 6.62909 106.847 5.4046L108.925 4.83391C115.532 3.01899 122.528 3.19599 129.036 5.3427L134.918 7.28323" stroke="#04BCF4" stroke-width="4"/>
</svg>
