<?xml version="1.0" standalone="no"?>
<!DOCTYPE svg PUBLIC "-//W3C//DTD SVG 1.1//EN" "http://www.w3.org/Graphics/SVG/1.1/DTD/svg11.dtd" >
<svg xmlns="http://www.w3.org/2000/svg" xmlns:xlink="http://www.w3.org/1999/xlink" version="1.1">
<metadata>
Created by FontForge 20190801 at Thu Nov  5 20:02:31 2015
 By Jimmy Wärting
Copyright (c) 2015 by Radomir Tinkov. All rights reserved.
</metadata>
<defs>
<font id="Qanelas-SemiBold" horiz-adv-x="528" >
  <font-face 
    font-family="Qanelas SemiBold"
    font-weight="600"
    font-stretch="normal"
    units-per-em="1000"
    panose-1="0 0 7 0 0 0 0 0 0 0"
    ascent="800"
    descent="-200"
    x-height="500"
    cap-height="700"
    bbox="-382 -255 1102 970"
    underline-thickness="50"
    underline-position="-100"
    unicode-range="U+0020-FB02"
  />
<missing-glyph horiz-adv-x="500" 
d="M410 -200h-317v1000h317v-1000zM168 733v-33h65v-37h-66v-33h166v33h-66v37h66v33h-165zM167 604v-104h166v34h-66v70h-100zM233 534h-33v36h33v-36zM167 473v-33h66v-37h-66v-33h100v70h66v33h-166zM300 413v-66h-133v-34h166v100h-33zM233 291v-56h34v23h33v-47h-100
v80h-33v-113h166v113h-100zM167 118v-113h166v113h-166zM300 38h-100v47h100v-47zM167 -18v-33h70l-70 -47v-33h166v33h-102l70 47h32v33h-166z" />
    <glyph glyph-name="f_f" unicode="ff" horiz-adv-x="588" 
d="M567 620q-49 0 -73.5 -24t-24.5 -76v-20h119v-104h-119v-396h-108v396h-76h-91v-396h-108v396h-76v104h76v10q0 97 51.5 150.5t150.5 53.5q16 0 25 -1v-104q-7 1 -21 1q-49 0 -73.5 -24t-24.5 -76v-10h119h48v20q0 97 51.5 150.5t150.5 53.5q16 0 25 -1v-104q-7 1 -21 1z
" />
    <glyph glyph-name="f_f_i" unicode="ffi" horiz-adv-x="806" 
d="M743 0h-108v396h-166v-396h-108v396h-76h-91v-396h-108v396h-76v104h76v10q0 97 51.5 150.5t150.5 53.5q16 0 25 -1v-104q-7 1 -21 1q-49 0 -73.5 -24t-24.5 -76v-10h119h48v20q0 203 227 203q54 0 110 -13v-99q-53 8 -110 8q-61 0 -90 -22t-29 -77v-20h274v-500z" />
    <glyph glyph-name="f_f_l" unicode="ffl" horiz-adv-x="806" 
d="M743 705v-705h-108v626q-32 2 -47 2q-59 0 -89 -26t-30 -82v-20h94v-104h-94v-396h-108v396h-76h-91v-396h-108v396h-76v104h76v10q0 97 51.5 150.5t150.5 53.5q16 0 25 -1v-104q-7 1 -21 1q-49 0 -73.5 -24t-24.5 -76v-10h119h48v20q0 203 227 203q72 0 155 -18z" />
    <glyph glyph-name="fi" unicode="fi" horiz-adv-x="531" 
d="M468 0h-108v396h-166v-396h-108v396h-76v104h76v10q0 203 227 203q54 0 110 -13v-99q-53 8 -110 8q-61 0 -90 -22t-29 -77v-10h274v-500z" />
    <glyph glyph-name="fl" unicode="fl" horiz-adv-x="531" 
d="M468 695v-695h-108v616q-32 2 -47 2q-59 0 -89 -26t-30 -82v-10h94v-104h-94v-396h-108v396h-76v104h76v10q0 203 227 203q72 0 155 -18z" />
    <glyph glyph-name=".notdef" horiz-adv-x="500" 
d="M410 -200h-317v1000h317v-1000zM168 733v-33h65v-37h-66v-33h166v33h-66v37h66v33h-165zM167 604v-104h166v34h-66v70h-100zM233 534h-33v36h33v-36zM167 473v-33h66v-37h-66v-33h100v70h66v33h-166zM300 413v-66h-133v-34h166v100h-33zM233 291v-56h34v23h33v-47h-100
v80h-33v-113h166v113h-100zM167 118v-113h166v113h-166zM300 38h-100v47h100v-47zM167 -18v-33h70l-70 -47v-33h166v33h-102l70 47h32v33h-166z" />
    <glyph glyph-name="space" unicode=" " horiz-adv-x="250" 
 />
    <glyph glyph-name="A" unicode="A" horiz-adv-x="645" 
d="M468 141h-291l-47 -141h-125l249 700h138l248 -700h-124zM431 249l-108 320l-109 -320h217z" />
    <glyph glyph-name="Aacute" unicode="&#xc1;" horiz-adv-x="645" 
d="M468 141h-291l-47 -141h-125l249 700h138l248 -700h-124zM431 249l-108 320l-109 -320h217zM357 765l106 135h-130l-80 -135h104z" />
    <glyph glyph-name="Abreve" unicode="&#x102;" horiz-adv-x="645" 
d="M468 141h-291l-47 -141h-125l249 700h138l248 -700h-124zM431 249l-108 320l-109 -320h217zM206.5 788.5q-41.5 36.5 -41.5 103.5h98q0 -59 60 -59q59 0 59 59h98q0 -67 -41.5 -103.5t-115.5 -36.5q-75 0 -116.5 36.5z" />
    <glyph glyph-name="Acircumflex" unicode="&#xc2;" horiz-adv-x="645" 
d="M468 141h-291l-47 -141h-125l249 700h138l248 -700h-124zM431 249l-108 320l-109 -320h217zM373 760l-52 74l-53 -74h-110l106 140h104h9l106 -140h-110z" />
    <glyph glyph-name="Adieresis" unicode="&#xc4;" horiz-adv-x="645" 
d="M468 141h-291l-47 -141h-125l249 700h138l248 -700h-124zM431 249l-108 320l-109 -320h217zM175 873h105v-105h-105v105zM365 873h105v-105h-105v105z" />
    <glyph glyph-name="Agrave" unicode="&#xc0;" horiz-adv-x="645" 
d="M468 141h-291l-47 -141h-125l249 700h138l248 -700h-124zM431 249l-108 320l-109 -320h217zM308 900h-130l106 -135h104z" />
    <glyph glyph-name="Amacron" unicode="&#x100;" horiz-adv-x="645" 
d="M468 141h-291l-47 -141h-125l249 700h138l248 -700h-124zM431 249l-108 320l-109 -320h217zM183 859h280v-89h-280v89z" />
    <glyph glyph-name="Aogonek" unicode="&#x104;" horiz-adv-x="645" 
d="M612 -133q8 0 28 6v-72q-34 -14 -73 -14q-42 0 -66.5 22t-24.5 61q0 29 18 63.5t50 66.5h-28l-48 141h-291l-47 -141h-125l249 700h138l248 -700q-28 -28 -44 -56.5t-16 -48.5q-1 -28 28 -28h4zM431 249l-108 320l-109 -320h217z" />
    <glyph glyph-name="Aring" unicode="&#xc5;" horiz-adv-x="645" 
d="M468 141h-291l-47 -141h-125l249 700h138l248 -700h-124zM431 249l-108 320l-109 -320h217zM236.5 775q-33.5 32 -33.5 80q0 49 33.5 81t86.5 32t86 -32t33 -81t-33 -80.5t-86 -31.5t-86.5 32zM355.5 825.5q11.5 11.5 11.5 29.5q0 19 -11.5 30.5t-32.5 11.5
q-20 0 -31.5 -11.5t-11.5 -30.5q0 -18 11.5 -29.5t31.5 -11.5q21 0 32.5 11.5z" />
    <glyph glyph-name="Atilde" unicode="&#xc3;" horiz-adv-x="645" 
d="M468 141h-291l-47 -141h-125l249 700h138l248 -700h-124zM431 249l-108 320l-109 -320h217zM187.5 871q24.5 34 64.5 34q38 0 80 -28q31 -23 44 -23q18 0 18 46h89q0 -70 -24.5 -104t-64.5 -34q-37 0 -79 28q-17 12 -27 17.5t-18 5.5q-18 0 -18 -46h-89q0 70 24.5 104z
" />
    <glyph glyph-name="AE" unicode="&#xc6;" horiz-adv-x="880" 
d="M845 110v-110h-355h-40v141h-236l-84 -141h-130l419 700h71h73h277v-110h-277v-182h257v-108h-257v-190h282zM450 249v288l-172 -288h172z" />
    <glyph glyph-name="B" unicode="B" horiz-adv-x="685" 
d="M621.5 348q33.5 -55 33.5 -123q0 -62 -29 -113.5t-79.5 -81.5t-112.5 -30h-339h-25v700h115h172q57 0 102.5 -24t70.5 -65.5t25 -93.5q0 -45 -25 -86q58 -28 91.5 -83zM185 592v-137h233q22 24 22 57q0 35 -22.5 57.5t-60.5 22.5h-172zM508 143q32 35 32 87
q0 53 -31.5 87.5t-88.5 34.5h-235v-244h234q57 0 89 35z" />
    <glyph glyph-name="C" unicode="C" horiz-adv-x="756" 
d="M213 35q-84 48 -131 131t-47 184t47 184t131 131t188 48q80 0 150 -32t118.5 -89.5t66.5 -131.5h-121q-22 64 -81 102.5t-133 38.5t-131 -32.5t-88.5 -89.5t-31.5 -129t31.5 -129t88.5 -89.5t131 -32.5t133 38.5t81 102.5h121q-17 -73 -66 -130.5t-119 -90t-150 -32.5
q-104 0 -188 48z" />
    <glyph glyph-name="Cacute" unicode="&#x106;" horiz-adv-x="756" 
d="M213 35q-84 48 -131 131t-47 184t47 184t131 131t188 48q80 0 150 -32t118.5 -89.5t66.5 -131.5h-121q-22 64 -81 102.5t-133 38.5t-131 -32.5t-88.5 -89.5t-31.5 -129t31.5 -129t88.5 -89.5t131 -32.5t133 38.5t81 102.5h121q-17 -73 -66 -130.5t-119 -90t-150 -32.5
q-104 0 -188 48zM435 770l106 135h-130l-80 -135h104z" />
    <glyph glyph-name="Ccaron" unicode="&#x10c;" horiz-adv-x="756" 
d="M213 35q-84 48 -131 131t-47 184t47 184t131 131t188 48q80 0 150 -32t118.5 -89.5t66.5 -131.5h-121q-22 64 -81 102.5t-133 38.5t-131 -32.5t-88.5 -89.5t-31.5 -129t31.5 -129t88.5 -89.5t131 -32.5t133 38.5t81 102.5h121q-17 -73 -66 -130.5t-119 -90t-150 -32.5
q-104 0 -188 48zM561 905l-106 -140h-104h-9l-106 140h110l53 -73l52 73h110z" />
    <glyph glyph-name="Ccedilla" unicode="&#xc7;" horiz-adv-x="756" 
d="M534 137.5q59 38.5 81 102.5h121q-24 -100 -103 -168t-185 -82v-36q34 -6 56 -26.5t22 -52.5q0 -92 -171 -92q-28 0 -44 1v79q34 -2 45 -2q76 0 76 27t-73 30v71q-94 9 -168 59t-115 129t-41 173q0 101 47 184t131 131t188 48q80 0 150 -32t118.5 -89.5t66.5 -131.5h-121
q-22 64 -81 102.5t-133 38.5t-131 -32.5t-88.5 -89.5t-31.5 -129t31.5 -129t88.5 -89.5t131 -32.5t133 38.5z" />
    <glyph glyph-name="Cdotaccent" unicode="&#x10a;" horiz-adv-x="756" 
d="M213 35q-84 48 -131 131t-47 184t47 184t131 131t188 48q80 0 150 -32t118.5 -89.5t66.5 -131.5h-121q-22 64 -81 102.5t-133 38.5t-131 -32.5t-88.5 -89.5t-31.5 -129t31.5 -129t88.5 -89.5t131 -32.5t133 38.5t81 102.5h121q-17 -73 -66 -130.5t-119 -90t-150 -32.5
q-104 0 -188 48zM341 890h120v-120h-120v120z" />
    <glyph glyph-name="D" unicode="D" horiz-adv-x="735" 
d="M536.5 653.5q76.5 -46.5 120 -126.5t43.5 -177t-43.5 -177t-120 -126.5t-171.5 -46.5h-255h-40v700h115h180q95 0 171.5 -46.5zM481 141q51 31 79.5 86t28.5 123q0 69 -28.5 123.5t-79.5 85.5t-116 31h-180v-480h180q65 0 116 31z" />
    <glyph glyph-name="Eth" unicode="&#xd0;" horiz-adv-x="765" 
d="M566.5 653.5q76.5 -46.5 120 -126.5t43.5 -177t-43.5 -177t-120 -126.5t-171.5 -46.5h-255h-40v293h-75v104h75v303h115h180q95 0 171.5 -46.5zM511 141q51 31 79.5 86t28.5 123q0 69 -28.5 123.5t-79.5 85.5t-116 31h-180v-193h180v-104h-180v-183h180q65 0 116 31z" />
    <glyph glyph-name="Dcaron" unicode="&#x10e;" horiz-adv-x="735" 
d="M536.5 653.5q76.5 -46.5 120 -126.5t43.5 -177t-43.5 -177t-120 -126.5t-171.5 -46.5h-255h-40v700h115h180q95 0 171.5 -46.5zM481 141q51 31 79.5 86t28.5 123q0 69 -28.5 123.5t-79.5 85.5t-116 31h-180v-480h180q65 0 116 31zM500 900l-106 -140h-104h-9l-106 140
h110l53 -73l52 73h110z" />
    <glyph glyph-name="Dcroat" unicode="&#x110;" horiz-adv-x="765" 
d="M566.5 653.5q76.5 -46.5 120 -126.5t43.5 -177t-43.5 -177t-120 -126.5t-171.5 -46.5h-255h-40v293h-75v104h75v303h115h180q95 0 171.5 -46.5zM511 141q51 31 79.5 86t28.5 123q0 69 -28.5 123.5t-79.5 85.5t-116 31h-180v-193h180v-104h-180v-183h180q65 0 116 31z" />
    <glyph glyph-name="E" unicode="E" horiz-adv-x="515" 
d="M480 110v-110h-370h-40v700h115h290v-110h-290v-182h265v-108h-265v-190h295z" />
    <glyph glyph-name="Eacute" unicode="&#xc9;" horiz-adv-x="515" 
d="M480 110v-110h-370h-40v700h115h290v-110h-290v-182h265v-108h-265v-190h295zM307 765l106 135h-130l-80 -135h104z" />
    <glyph glyph-name="Ecaron" unicode="&#x11a;" horiz-adv-x="515" 
d="M480 110v-110h-370h-40v700h115h290v-110h-290v-182h265v-108h-265v-190h295zM433 900l-106 -140h-104h-9l-106 140h110l53 -73l52 73h110z" />
    <glyph glyph-name="Ecircumflex" unicode="&#xca;" horiz-adv-x="515" 
d="M480 110v-110h-370h-40v700h115h290v-110h-290v-182h265v-108h-265v-190h295zM323 760l-52 74l-53 -74h-110l106 140h104h9l106 -140h-110z" />
    <glyph glyph-name="Edieresis" unicode="&#xcb;" horiz-adv-x="515" 
d="M480 110v-110h-370h-40v700h115h290v-110h-290v-182h265v-108h-265v-190h295zM126 873h105v-105h-105v105zM316 873h105v-105h-105v105z" />
    <glyph glyph-name="Edotaccent" unicode="&#x116;" horiz-adv-x="515" 
d="M480 110v-110h-370h-40v700h115h290v-110h-290v-182h265v-108h-265v-190h295zM213 885h120v-120h-120v120z" />
    <glyph glyph-name="Egrave" unicode="&#xc8;" horiz-adv-x="515" 
d="M480 110v-110h-370h-40v700h115h290v-110h-290v-182h265v-108h-265v-190h295zM258 900h-130l106 -135h104z" />
    <glyph glyph-name="Emacron" unicode="&#x112;" horiz-adv-x="515" 
d="M480 110v-110h-370h-40v700h115h290v-110h-290v-182h265v-108h-265v-190h295zM133 859h280v-89h-280v89z" />
    <glyph glyph-name="Eogonek" unicode="&#x118;" horiz-adv-x="515" 
d="M480 110v-110h-370h-40v700h115h290v-110h-290v-182h265v-108h-265v-190h295zM341 -191q-25 22 -25 61q0 29 18 63t50 67h97q-28 -27 -44.5 -55.5t-16.5 -49.5q0 -28 28 -28h4q9 0 29 6v-72q-34 -14 -74 -14q-41 0 -66 22z" />
    <glyph glyph-name="F" unicode="F" horiz-adv-x="500" 
d="M185 590v-211h280v-110h-280v-269h-115v700h115h290v-110h-290z" />
    <glyph glyph-name="G" unicode="G" horiz-adv-x="789" 
d="M409 368h325v-103v-265h-110v95q-38 -52 -99 -80t-137 -28q-99 0 -180 48t-127 131.5t-46 183.5q0 101 47 184t130 131t186 48q80 0 150 -31.5t119 -87t67 -124.5h-122q-22 57 -81 94t-133 37q-73 0 -129.5 -32.5t-87.5 -89.5t-31 -129q0 -74 31.5 -132t88 -91t128.5 -33
q90 0 152 45t69 126h-210v103z" />
    <glyph glyph-name="Gbreve" unicode="&#x11e;" horiz-adv-x="789" 
d="M409 368h325v-103v-265h-110v95q-38 -52 -99 -80t-137 -28q-99 0 -180 48t-127 131.5t-46 183.5q0 101 47 184t130 131t186 48q80 0 150 -31.5t119 -87t67 -124.5h-122q-22 57 -81 94t-133 37q-73 0 -129.5 -32.5t-87.5 -89.5t-31 -129q0 -74 31.5 -132t88 -91t128.5 -33
q90 0 152 45t69 126h-210v103zM277.5 793.5q-41.5 36.5 -41.5 103.5h98q0 -59 60 -59q59 0 59 59h98q0 -67 -41.5 -103.5t-115.5 -36.5q-75 0 -116.5 36.5z" />
    <glyph glyph-name="Gcommaaccent" unicode="&#x122;" horiz-adv-x="789" 
d="M409 368h325v-103v-265h-110v95q-38 -52 -99 -80t-137 -28q-99 0 -180 48t-127 131.5t-46 183.5q0 101 47 184t130 131t186 48q80 0 150 -31.5t119 -87t67 -124.5h-122q-22 57 -81 94t-133 37q-73 0 -129.5 -32.5t-87.5 -89.5t-31 -129q0 -74 31.5 -132t88 -91t128.5 -33
q90 0 152 45t69 126h-210v103zM467 -65h-103l-10 -190h83z" />
    <glyph glyph-name="Gdotaccent" unicode="&#x120;" horiz-adv-x="789" 
d="M409 368h325v-103v-265h-110v95q-38 -52 -99 -80t-137 -28q-99 0 -180 48t-127 131.5t-46 183.5q0 101 47 184t130 131t186 48q80 0 150 -31.5t119 -87t67 -124.5h-122q-22 57 -81 94t-133 37q-73 0 -129.5 -32.5t-87.5 -89.5t-31 -129q0 -74 31.5 -132t88 -91t128.5 -33
q90 0 152 45t69 126h-210v103zM333 890h120v-120h-120v120z" />
    <glyph glyph-name="H" unicode="H" horiz-adv-x="635" 
d="M565 700v-700h-115v305h-265v-305h-115v700h115v-285h265v285h115z" />
    <glyph glyph-name="Hbar" unicode="&#x126;" horiz-adv-x="680" 
d="M650 505h-62v-505h-115v290h-265v-290h-115v505h-63v86h63v109h115v-109h265v109h115v-109h62v-86zM473 505h-265v-105h265v105z" />
    <glyph glyph-name="I" unicode="I" horiz-adv-x="255" 
d="M185 700v-700h-115v700h115z" />
    <glyph glyph-name="Iacute" unicode="&#xcd;" horiz-adv-x="255" 
d="M185 700v-700h-115v700h115zM162 765l106 135h-130l-80 -135h104z" />
    <glyph glyph-name="Icircumflex" unicode="&#xce;" horiz-adv-x="255" 
d="M185 700v-700h-115v700h115zM177 760l-52 74l-53 -74h-110l106 140h104h9l106 -140h-110z" />
    <glyph glyph-name="Idieresis" unicode="&#xcf;" horiz-adv-x="255" 
d="M185 700v-700h-115v700h115zM-20 873h105v-105h-105v105zM170 873h105v-105h-105v105z" />
    <glyph glyph-name="Idotaccent" unicode="&#x130;" horiz-adv-x="255" 
d="M185 700v-700h-115v700h115zM68 885h120v-120h-120v120z" />
    <glyph glyph-name="Igrave" unicode="&#xcc;" horiz-adv-x="255" 
d="M185 700v-700h-115v700h115zM112 900h-130l106 -135h104z" />
    <glyph glyph-name="Imacron" unicode="&#x12a;" horiz-adv-x="255" 
d="M185 700v-700h-115v700h115zM-13 859h280v-89h-280v89z" />
    <glyph glyph-name="Iogonek" unicode="&#x12e;" horiz-adv-x="255" 
d="M180 -133q8 0 28 6v-72q-34 -14 -73 -14q-42 0 -66.5 22t-24.5 61q0 30 11.5 64t31.5 66h-17v700h115v-700q-37 -63 -37 -105q-1 -28 28 -28h4z" />
    <glyph glyph-name="J" unicode="J" horiz-adv-x="535" 
d="M131.5 11q-52.5 24 -84.5 73t-32 120v15h115v-15q0 -52 31 -78.5t84 -26.5t84 26.5t31 78.5v496h115v-496q0 -71 -31.5 -120t-84 -73t-114.5 -24q-61 0 -113.5 24z" />
    <glyph glyph-name="K" unicode="K" horiz-adv-x="603" 
d="M461 0l-276 333v-333h-115v700h115v-313l266 313h137l-284 -341l294 -359h-137z" />
    <glyph glyph-name="Kcommaaccent" unicode="&#x136;" horiz-adv-x="603" 
d="M461 0l-276 333v-333h-115v700h115v-313l266 313h137l-284 -341l294 -359h-137zM363 -65h-103l-10 -190h83z" />
    <glyph glyph-name="L" unicode="L" horiz-adv-x="480" 
d="M465 110v-110h-395v700h115v-590h280z" />
    <glyph glyph-name="Lacute" unicode="&#x139;" horiz-adv-x="480" 
d="M465 110v-110h-395v700h115v-590h280zM176 765l106 135h-130l-80 -135h104z" />
    <glyph glyph-name="Lcaron" unicode="&#x13d;" horiz-adv-x="480" 
d="M465 110v-110h-395v700h115v-590h280zM352 520h-88l10 180h108z" />
    <glyph glyph-name="Lcommaaccent" unicode="&#x13b;" horiz-adv-x="480" 
d="M465 110v-110h-395v700h115v-590h280zM334 -65h-103l-10 -190h83z" />
    <glyph glyph-name="Lslash" unicode="&#x141;" horiz-adv-x="505" 
d="M485 110v-110h-395v222l-55 -36v113l55 36v365h115v-289l150 98v-113l-150 -98v-188h280z" />
    <glyph glyph-name="M" unicode="M" horiz-adv-x="810" 
d="M740 0h-115v510l-175 -395h-90l-175 395v-510h-115v700h115h19l201 -452l201 452h134v-700z" />
    <glyph glyph-name="N" unicode="N" horiz-adv-x="640" 
d="M570 700v-700h-90l-295 475v-475h-115v700h90l295 -475v475h115z" />
    <glyph glyph-name="Nacute" unicode="&#x143;" horiz-adv-x="640" 
d="M570 700v-700h-90l-295 475v-475h-115v700h90l295 -475v475h115zM354 765l106 135h-130l-80 -135h104z" />
    <glyph glyph-name="Ncaron" unicode="&#x147;" horiz-adv-x="640" 
d="M570 700v-700h-90l-295 475v-475h-115v700h90l295 -475v475h115zM480 900l-106 -140h-104h-9l-106 140h110l53 -73l52 73h110z" />
    <glyph glyph-name="Ncommaaccent" unicode="&#x145;" horiz-adv-x="640" 
d="M570 700v-700h-90l-295 475v-475h-115v700h90l295 -475v475h115zM376 -65h-103l-10 -190h83z" />
    <glyph glyph-name="Eng" unicode="&#x14a;" horiz-adv-x="640" 
d="M570 700v-700q0 -103 -59 -151.5t-166 -48.5v104q54 0 82 21t28 75v40l-270 435v-475h-115v700h90l295 -475v475h115z" />
    <glyph glyph-name="Ntilde" unicode="&#xd1;" horiz-adv-x="640" 
d="M570 700v-700h-90l-295 475v-475h-115v700h90l295 -475v475h115zM184.5 871q24.5 34 64.5 34q38 0 80 -28q31 -23 44 -23q18 0 18 46h89q0 -70 -24.5 -104t-64.5 -34q-37 0 -79 28q-17 12 -27 17.5t-18 5.5q-18 0 -18 -46h-89q0 70 24.5 104z" />
    <glyph glyph-name="O" unicode="O" horiz-adv-x="796" 
d="M215.5 35.5q-83.5 48.5 -132 131.5t-48.5 183t48.5 183t132 131.5t182.5 48.5q100 0 183 -48.5t131.5 -131.5t48.5 -183t-48.5 -183t-131.5 -131.5t-183 -48.5q-99 0 -182.5 48.5zM524 131.5q57 32.5 89.5 90t32.5 128.5t-32.5 128.5t-89.5 90t-126 32.5t-126 -32.5
t-89.5 -90t-32.5 -128.5t32.5 -128.5t89.5 -90t126 -32.5t126 32.5z" />
    <glyph glyph-name="Oacute" unicode="&#xd3;" horiz-adv-x="796" 
d="M215.5 35.5q-83.5 48.5 -132 131.5t-48.5 183t48.5 183t132 131.5t182.5 48.5q100 0 183 -48.5t131.5 -131.5t48.5 -183t-48.5 -183t-131.5 -131.5t-183 -48.5q-99 0 -182.5 48.5zM524 131.5q57 32.5 89.5 90t32.5 128.5t-32.5 128.5t-89.5 90t-126 32.5t-126 -32.5
t-89.5 -90t-32.5 -128.5t32.5 -128.5t89.5 -90t126 -32.5t126 32.5zM432 770l106 135h-130l-80 -135h104z" />
    <glyph glyph-name="Ocircumflex" unicode="&#xd4;" horiz-adv-x="796" 
d="M215.5 35.5q-83.5 48.5 -132 131.5t-48.5 183t48.5 183t132 131.5t182.5 48.5q100 0 183 -48.5t131.5 -131.5t48.5 -183t-48.5 -183t-131.5 -131.5t-183 -48.5q-99 0 -182.5 48.5zM524 131.5q57 32.5 89.5 90t32.5 128.5t-32.5 128.5t-89.5 90t-126 32.5t-126 -32.5
t-89.5 -90t-32.5 -128.5t32.5 -128.5t89.5 -90t126 -32.5t126 32.5zM448 765l-52 74l-53 -74h-110l106 140h104h9l106 -140h-110z" />
    <glyph glyph-name="Odieresis" unicode="&#xd6;" horiz-adv-x="796" 
d="M215.5 35.5q-83.5 48.5 -132 131.5t-48.5 183t48.5 183t132 131.5t182.5 48.5q100 0 183 -48.5t131.5 -131.5t48.5 -183t-48.5 -183t-131.5 -131.5t-183 -48.5q-99 0 -182.5 48.5zM524 131.5q57 32.5 89.5 90t32.5 128.5t-32.5 128.5t-89.5 90t-126 32.5t-126 -32.5
t-89.5 -90t-32.5 -128.5t32.5 -128.5t89.5 -90t126 -32.5t126 32.5zM251 878h105v-105h-105v105zM441 878h105v-105h-105v105z" />
    <glyph glyph-name="Ograve" unicode="&#xd2;" horiz-adv-x="796" 
d="M215.5 35.5q-83.5 48.5 -132 131.5t-48.5 183t48.5 183t132 131.5t182.5 48.5q100 0 183 -48.5t131.5 -131.5t48.5 -183t-48.5 -183t-131.5 -131.5t-183 -48.5q-99 0 -182.5 48.5zM524 131.5q57 32.5 89.5 90t32.5 128.5t-32.5 128.5t-89.5 90t-126 32.5t-126 -32.5
t-89.5 -90t-32.5 -128.5t32.5 -128.5t89.5 -90t126 -32.5t126 32.5zM383 905h-130l106 -135h104z" />
    <glyph glyph-name="Ohungarumlaut" unicode="&#x150;" horiz-adv-x="796" 
d="M215.5 35.5q-83.5 48.5 -132 131.5t-48.5 183t48.5 183t132 131.5t182.5 48.5q100 0 183 -48.5t131.5 -131.5t48.5 -183t-48.5 -183t-131.5 -131.5t-183 -48.5q-99 0 -182.5 48.5zM524 131.5q57 32.5 89.5 90t32.5 128.5t-32.5 128.5t-89.5 90t-126 32.5t-126 -32.5
t-89.5 -90t-32.5 -128.5t32.5 -128.5t89.5 -90t126 -32.5t126 32.5zM356 765l81 135h-114l-75 -135h108zM519 765l91 135h-114l-85 -135h108z" />
    <glyph glyph-name="Omacron" unicode="&#x14c;" horiz-adv-x="796" 
d="M215.5 35.5q-83.5 48.5 -132 131.5t-48.5 183t48.5 183t132 131.5t182.5 48.5q100 0 183 -48.5t131.5 -131.5t48.5 -183t-48.5 -183t-131.5 -131.5t-183 -48.5q-99 0 -182.5 48.5zM524 131.5q57 32.5 89.5 90t32.5 128.5t-32.5 128.5t-89.5 90t-126 32.5t-126 -32.5
t-89.5 -90t-32.5 -128.5t32.5 -128.5t89.5 -90t126 -32.5t126 32.5zM258 864h280v-89h-280v89z" />
    <glyph glyph-name="Oslash" unicode="&#xd8;" horiz-adv-x="804" 
d="M740.5 492q28.5 -67 28.5 -142q0 -100 -48.5 -183t-132 -131.5t-182.5 -48.5q-115 0 -209 65l-43 -52h-90l80 97q-48 50 -74.5 115t-26.5 138q0 100 48.5 183t131.5 131.5t183 48.5q110 0 202 -60l40 47h90l-76 -91q50 -50 78.5 -117zM217 184l319 382q-60 35 -130 35
q-69 0 -126 -32.5t-89.5 -90t-32.5 -128.5q0 -96 59 -166zM532 131.5q57 32.5 89.5 90t32.5 128.5q0 50 -17 94.5t-48 77.5l-320 -384q61 -39 137 -39q69 0 126 32.5z" />
    <glyph glyph-name="Otilde" unicode="&#xd5;" horiz-adv-x="796" 
d="M215.5 35.5q-83.5 48.5 -132 131.5t-48.5 183t48.5 183t132 131.5t182.5 48.5q100 0 183 -48.5t131.5 -131.5t48.5 -183t-48.5 -183t-131.5 -131.5t-183 -48.5q-99 0 -182.5 48.5zM524 131.5q57 32.5 89.5 90t32.5 128.5t-32.5 128.5t-89.5 90t-126 32.5t-126 -32.5
t-89.5 -90t-32.5 -128.5t32.5 -128.5t89.5 -90t126 -32.5t126 32.5zM262.5 876q24.5 34 64.5 34q38 0 80 -28q31 -23 44 -23q18 0 18 46h89q0 -70 -24.5 -104t-64.5 -34q-37 0 -79 28q-17 12 -27 17.5t-18 5.5q-18 0 -18 -46h-89q0 70 24.5 104z" />
    <glyph glyph-name="OE" unicode="&#x152;" horiz-adv-x="916" 
d="M881 110v-110h-355h-40q-45 -13 -98 -13q-99 0 -180 48t-127 131.5t-46 183.5t46 183.5t127 131.5t180 48q53 0 98 -13h115h275v-110h-275v-182h255v-108h-255v-190h280zM486 586q-41 15 -98 15q-69 0 -123 -32.5t-84.5 -90t-30.5 -128.5t30.5 -128.5t84.5 -90t123 -32.5
q53 0 98 15v472z" />
    <glyph glyph-name="P" unicode="P" horiz-adv-x="585" 
d="M442.5 670q52.5 -30 82.5 -81.5t30 -113.5q0 -61 -30 -112.5t-82.5 -82t-114.5 -30.5h-143v-250h-115v700h115h143q62 0 114.5 -30zM407.5 392q32.5 34 32.5 83t-32.5 83t-79.5 34h-143v-234h143q47 0 79.5 34z" />
    <glyph glyph-name="Thorn" unicode="&#xde;" horiz-adv-x="585" 
d="M443.5 545q51.5 -30 81.5 -81.5t30 -113.5q0 -61 -30 -112.5t-82 -82t-113 -30.5h-145v-125h-115v700h115v-125h145q62 0 113.5 -30zM408 267q32 34 32 83t-32 83t-78 34h-145v-234h145q46 0 78 34z" />
    <glyph glyph-name="Q" unicode="Q" horiz-adv-x="801" 
d="M736.5 218q-24.5 -63 -68.5 -112l82 -93l-84 -69l-82 93q-86 -50 -186 -50q-99 0 -182 48.5t-132 131.5t-49 183t49 183t132 131.5t182 48.5t182.5 -48.5t132 -131.5t48.5 -183q0 -69 -24.5 -132zM508 124l-88 100l84 69l89 -101q25 32 39 72.5t14 85.5q0 71 -33 128
t-90 90t-125 33t-125 -33t-90 -90t-33 -128t33 -128t90 -90t125 -33q58 0 110 25z" />
    <glyph glyph-name="R" unicode="R" horiz-adv-x="630" 
d="M294 255h-109v-255h-115v700h115h145q62 0 113.5 -30t81.5 -81.5t30 -113.5q0 -66 -38.5 -121.5t-99.5 -81.5l228 -272h-137zM185 358h145q46 0 78 34t32 83t-32 83t-78 34h-145v-234z" />
    <glyph glyph-name="Racute" unicode="&#x154;" horiz-adv-x="630" 
d="M294 255h-109v-255h-115v700h115h145q62 0 113.5 -30t81.5 -81.5t30 -113.5q0 -66 -38.5 -121.5t-99.5 -81.5l228 -272h-137zM185 358h145q46 0 78 34t32 83t-32 83t-78 34h-145v-234zM314 765l106 135h-130l-80 -135h104z" />
    <glyph glyph-name="Rcaron" unicode="&#x158;" horiz-adv-x="630" 
d="M294 255h-109v-255h-115v700h115h145q62 0 113.5 -30t81.5 -81.5t30 -113.5q0 -66 -38.5 -121.5t-99.5 -81.5l228 -272h-137zM185 358h145q46 0 78 34t32 83t-32 83t-78 34h-145v-234zM440 900l-106 -140h-104h-9l-106 140h110l53 -73l52 73h110z" />
    <glyph glyph-name="Rcommaaccent" unicode="&#x156;" horiz-adv-x="630" 
d="M294 255h-109v-255h-115v700h115h145q62 0 113.5 -30t81.5 -81.5t30 -113.5q0 -66 -38.5 -121.5t-99.5 -81.5l228 -272h-137zM185 358h145q46 0 78 34t32 83t-32 83t-78 34h-145v-234zM406 -65h-103l-10 -190h83z" />
    <glyph glyph-name="S" unicode="S" horiz-adv-x="548" 
d="M155 12.5q-57 25.5 -91 76t-34 123.5h115q0 -55 36 -84t101 -29q56 0 88.5 24t32.5 64q0 39 -33.5 62.5t-100.5 47.5q-75 27 -117.5 48t-74.5 63t-32 109q0 61 31 105.5t81.5 67.5t109.5 23q62 0 115 -24.5t84.5 -73.5t31.5 -119h-115q0 51 -31 78t-85 27
q-48 0 -77.5 -23t-29.5 -61q0 -42 31.5 -66t95.5 -47q81 -30 122.5 -50t75 -61t33.5 -106q0 -62 -32 -107.5t-86 -69t-118 -23.5q-70 0 -127 25.5z" />
    <glyph glyph-name="Sacute" unicode="&#x15a;" horiz-adv-x="548" 
d="M155 12.5q-57 25.5 -91 76t-34 123.5h115q0 -55 36 -84t101 -29q56 0 88.5 24t32.5 64q0 39 -33.5 62.5t-100.5 47.5q-75 27 -117.5 48t-74.5 63t-32 109q0 61 31 105.5t81.5 67.5t109.5 23q62 0 115 -24.5t84.5 -73.5t31.5 -119h-115q0 51 -31 78t-85 27
q-48 0 -77.5 -23t-29.5 -61q0 -42 31.5 -66t95.5 -47q81 -30 122.5 -50t75 -61t33.5 -106q0 -62 -32 -107.5t-86 -69t-118 -23.5q-70 0 -127 25.5zM305 770l106 135h-130l-80 -135h104z" />
    <glyph glyph-name="Scaron" unicode="&#x160;" horiz-adv-x="548" 
d="M155 12.5q-57 25.5 -91 76t-34 123.5h115q0 -55 36 -84t101 -29q56 0 88.5 24t32.5 64q0 39 -33.5 62.5t-100.5 47.5q-75 27 -117.5 48t-74.5 63t-32 109q0 61 31 105.5t81.5 67.5t109.5 23q62 0 115 -24.5t84.5 -73.5t31.5 -119h-115q0 51 -31 78t-85 27
q-48 0 -77.5 -23t-29.5 -61q0 -42 31.5 -66t95.5 -47q81 -30 122.5 -50t75 -61t33.5 -106q0 -62 -32 -107.5t-86 -69t-118 -23.5q-70 0 -127 25.5zM431 905l-106 -140h-104h-9l-106 140h110l53 -73l52 73h110z" />
    <glyph glyph-name="Scedilla" unicode="&#x15e;" horiz-adv-x="548" 
d="M464 53.5q-54 -51.5 -138 -63.5v-36q34 -6 56 -26.5t22 -52.5q0 -92 -171 -92q-28 0 -44 1v79q34 -2 45 -2q76 0 76 27t-73 30v72q-92 12 -149.5 68.5t-57.5 153.5h115q0 -55 36 -84t101 -29q56 0 88.5 24t32.5 64q0 39 -33.5 62.5t-100.5 47.5q-75 27 -117.5 48
t-74.5 63t-32 109q0 61 31 105.5t81.5 67.5t109.5 23q62 0 115 -24.5t84.5 -73.5t31.5 -119h-115q0 51 -31 78t-85 27q-48 0 -77.5 -23t-29.5 -61q0 -42 31.5 -66t95.5 -47q81 -30 122.5 -50t75 -61t33.5 -106q0 -82 -54 -133.5z" />
    <glyph glyph-name="Scommaaccent" unicode="&#x218;" horiz-adv-x="548" 
d="M155 12.5q-57 25.5 -91 76t-34 123.5h115q0 -55 36 -84t101 -29q56 0 88.5 24t32.5 64q0 39 -33.5 62.5t-100.5 47.5q-75 27 -117.5 48t-74.5 63t-32 109q0 61 31 105.5t81.5 67.5t109.5 23q62 0 115 -24.5t84.5 -73.5t31.5 -119h-115q0 51 -31 78t-85 27
q-48 0 -77.5 -23t-29.5 -61q0 -42 31.5 -66t95.5 -47q81 -30 122.5 -50t75 -61t33.5 -106q0 -62 -32 -107.5t-86 -69t-118 -23.5q-70 0 -127 25.5zM343 -65h-103l-10 -190h83z" />
    <glyph glyph-name="T" unicode="T" horiz-adv-x="500" 
d="M485 590h-177v-590h-115v590h-178v110h293h177v-110z" />
    <glyph glyph-name="Tbar" unicode="&#x166;" horiz-adv-x="500" 
d="M308 590v-193h127v-104h-127v-293h-115v293h-128v104h128v193h-178v110h293h177v-110h-177z" />
    <glyph glyph-name="Tcaron" unicode="&#x164;" horiz-adv-x="500" 
d="M485 590h-177v-590h-115v590h-178v110h293h177v-110zM410 900l-106 -140h-104h-9l-106 140h110l53 -73l52 73h110z" />
    <glyph glyph-name="uni0162" unicode="&#x162;" horiz-adv-x="500" 
d="M485 590h-177v-590h-115v590h-178v110h293h177v-110zM306 -65h-103l-10 -190h83z" />
    <glyph glyph-name="uni021A" unicode="&#x21a;" horiz-adv-x="500" 
d="M485 590h-177v-590h-115v590h-178v110h293h177v-110zM306 -65h-103l-10 -190h83z" />
    <glyph glyph-name="U" unicode="U" horiz-adv-x="620" 
d="M183 13.5q-57 26.5 -90 77t-33 121.5v488h115v-481q0 -58 34.5 -89t100.5 -31t100.5 31t34.5 89v481h115v-488q0 -71 -33 -122t-89.5 -77t-127.5 -26q-70 0 -127 26.5z" />
    <glyph glyph-name="Uacute" unicode="&#xda;" horiz-adv-x="620" 
d="M183 13.5q-57 26.5 -90 77t-33 121.5v488h115v-481q0 -58 34.5 -89t100.5 -31t100.5 31t34.5 89v481h115v-488q0 -71 -33 -122t-89.5 -77t-127.5 -26q-70 0 -127 26.5zM344 765l106 135h-130l-80 -135h104z" />
    <glyph glyph-name="Ucircumflex" unicode="&#xdb;" horiz-adv-x="620" 
d="M183 13.5q-57 26.5 -90 77t-33 121.5v488h115v-481q0 -58 34.5 -89t100.5 -31t100.5 31t34.5 89v481h115v-488q0 -71 -33 -122t-89.5 -77t-127.5 -26q-70 0 -127 26.5zM360 760l-52 74l-53 -74h-110l106 140h104h9l106 -140h-110z" />
    <glyph glyph-name="Udieresis" unicode="&#xdc;" horiz-adv-x="620" 
d="M183 13.5q-57 26.5 -90 77t-33 121.5v488h115v-481q0 -58 34.5 -89t100.5 -31t100.5 31t34.5 89v481h115v-488q0 -71 -33 -122t-89.5 -77t-127.5 -26q-70 0 -127 26.5zM163 873h105v-105h-105v105zM353 873h105v-105h-105v105z" />
    <glyph glyph-name="Ugrave" unicode="&#xd9;" horiz-adv-x="620" 
d="M183 13.5q-57 26.5 -90 77t-33 121.5v488h115v-481q0 -58 34.5 -89t100.5 -31t100.5 31t34.5 89v481h115v-488q0 -71 -33 -122t-89.5 -77t-127.5 -26q-70 0 -127 26.5zM295 900h-130l106 -135h104z" />
    <glyph glyph-name="Uhungarumlaut" unicode="&#x170;" horiz-adv-x="620" 
d="M183 13.5q-57 26.5 -90 77t-33 121.5v488h115v-481q0 -58 34.5 -89t100.5 -31t100.5 31t34.5 89v481h115v-488q0 -71 -33 -122t-89.5 -77t-127.5 -26q-70 0 -127 26.5zM268 760l81 135h-114l-75 -135h108zM431 760l91 135h-114l-85 -135h108z" />
    <glyph glyph-name="Umacron" unicode="&#x16a;" horiz-adv-x="620" 
d="M183 13.5q-57 26.5 -90 77t-33 121.5v488h115v-481q0 -58 34.5 -89t100.5 -31t100.5 31t34.5 89v481h115v-488q0 -71 -33 -122t-89.5 -77t-127.5 -26q-70 0 -127 26.5zM170 859h280v-89h-280v89z" />
    <glyph glyph-name="Uogonek" unicode="&#x172;" horiz-adv-x="620" 
d="M560 700v-488q0 -105 -73 -167q-59 -55 -82.5 -87t-23.5 -63q-1 -28 28 -28h4q8 0 28 6v-72q-34 -14 -73 -14q-42 0 -66.5 22t-24.5 61q0 27 14.5 57.5t41.5 60.5q-8 -1 -23 -1q-70 0 -127 26.5t-90 77t-33 121.5v488h115v-481q0 -58 34.5 -89t100.5 -31t100.5 31
t34.5 89v481h115z" />
    <glyph glyph-name="Uring" unicode="&#x16e;" horiz-adv-x="620" 
d="M183 13.5q-57 26.5 -90 77t-33 121.5v488h115v-481q0 -58 34.5 -89t100.5 -31t100.5 31t34.5 89v481h115v-488q0 -71 -33 -122t-89.5 -77t-127.5 -26q-70 0 -127 26.5zM224.5 775q-33.5 32 -33.5 80q0 49 33.5 81t86.5 32t86 -32t33 -81t-33 -80.5t-86 -31.5t-86.5 32z
M343.5 825.5q11.5 11.5 11.5 29.5q0 19 -11.5 30.5t-32.5 11.5q-20 0 -31.5 -11.5t-11.5 -30.5q0 -18 11.5 -29.5t31.5 -11.5q21 0 32.5 11.5z" />
    <glyph glyph-name="V" unicode="V" horiz-adv-x="624" 
d="M5 700h125l182 -564l183 564h124l-238 -700h-138z" />
    <glyph glyph-name="W" unicode="W" horiz-adv-x="880" 
d="M875 700l-205 -700h-132l-98 332l-97 -332h-132l-206 700h118l159 -559l106 367l-56 192h108l159 -559l158 559h118z" />
    <glyph glyph-name="Wacute" unicode="&#x1e82;" horiz-adv-x="880" 
d="M875 700l-205 -700h-132l-98 332l-97 -332h-132l-206 700h118l159 -559l106 367l-56 192h108l159 -559l158 559h118zM474 765l106 135h-130l-80 -135h104z" />
    <glyph glyph-name="Wcircumflex" unicode="&#x174;" horiz-adv-x="880" 
d="M875 700l-205 -700h-132l-98 332l-97 -332h-132l-206 700h118l159 -559l106 367l-56 192h108l159 -559l158 559h118zM490 760l-52 74l-53 -74h-110l106 140h104h9l106 -140h-110z" />
    <glyph glyph-name="Wdieresis" unicode="&#x1e84;" horiz-adv-x="880" 
d="M875 700l-205 -700h-132l-98 332l-97 -332h-132l-206 700h118l159 -559l106 367l-56 192h108l159 -559l158 559h118zM293 873h105v-105h-105v105zM483 873h105v-105h-105v105z" />
    <glyph glyph-name="Wgrave" unicode="&#x1e80;" horiz-adv-x="880" 
d="M875 700l-205 -700h-132l-98 332l-97 -332h-132l-206 700h118l159 -559l106 367l-56 192h108l159 -559l158 559h118zM425 900h-130l106 -135h104z" />
    <glyph glyph-name="X" unicode="X" horiz-adv-x="590" 
d="M446 0l-151 252l-150 -252h-130l215 360l-202 340h129l138 -231l138 231h130l-203 -340l215 -360h-129z" />
    <glyph glyph-name="Y" unicode="Y" horiz-adv-x="593" 
d="M354 315v-315h-115v316l-234 384h131l160 -274l161 274h131z" />
    <glyph glyph-name="Yacute" unicode="&#xdd;" horiz-adv-x="593" 
d="M354 315v-315h-115v316l-234 384h131l160 -274l161 274h131zM329 765l106 135h-130l-80 -135h104z" />
    <glyph glyph-name="Ycircumflex" unicode="&#x176;" horiz-adv-x="593" 
d="M354 315v-315h-115v316l-234 384h131l160 -274l161 274h131zM345 760l-52 74l-53 -74h-110l106 140h104h9l106 -140h-110z" />
    <glyph glyph-name="Ydieresis" unicode="&#x178;" horiz-adv-x="593" 
d="M354 315v-315h-115v316l-234 384h131l160 -274l161 274h131zM147 873h105v-105h-105v105zM337 873h105v-105h-105v105z" />
    <glyph glyph-name="Ygrave" unicode="&#x1ef2;" horiz-adv-x="593" 
d="M354 315v-315h-115v316l-234 384h131l160 -274l161 274h131zM280 900h-130l106 -135h104z" />
    <glyph glyph-name="Z" unicode="Z" horiz-adv-x="530" 
d="M503 110v-110h-465v95l314 495h-307v110h450v-95l-315 -495h323z" />
    <glyph glyph-name="Zacute" unicode="&#x179;" horiz-adv-x="530" 
d="M503 110v-110h-465v95l314 495h-307v110h450v-95l-315 -495h323zM304 765l106 135h-130l-80 -135h104z" />
    <glyph glyph-name="Zcaron" unicode="&#x17d;" horiz-adv-x="530" 
d="M503 110v-110h-465v95l314 495h-307v110h450v-95l-315 -495h323zM430 900l-106 -140h-104h-9l-106 140h110l53 -73l52 73h110z" />
    <glyph glyph-name="Zdotaccent" unicode="&#x17b;" horiz-adv-x="530" 
d="M503 110v-110h-465v95l314 495h-307v110h450v-95l-315 -495h323zM210 885h120v-120h-120v120z" />
    <glyph glyph-name="a" unicode="a" horiz-adv-x="505" 
d="M399 462q56 -51 56 -142v-320h-106v47q-48 -60 -142 -60q-72 0 -122 41.5t-50 117.5t50 117t122 41q91 0 142 -51v62q0 50 -25 73.5t-68 23.5q-41 0 -67 -20.5t-26 -56.5h-106q0 54 26.5 94.5t71.5 62t101 21.5q87 0 143 -51zM319.5 92q29.5 21 29.5 54q0 34 -29.5 54
t-77.5 20q-49 0 -74 -20t-25 -54t25 -54.5t74 -20.5q48 0 77.5 21z" />
    <glyph glyph-name="aacute" unicode="&#xe1;" horiz-adv-x="505" 
d="M399 462q56 -51 56 -142v-320h-106v47q-48 -60 -142 -60q-72 0 -122 41.5t-50 117.5t50 117t122 41q91 0 142 -51v62q0 50 -25 73.5t-68 23.5q-41 0 -67 -20.5t-26 -56.5h-106q0 54 26.5 94.5t71.5 62t101 21.5q87 0 143 -51zM319.5 92q29.5 21 29.5 54q0 34 -29.5 54
t-77.5 20q-49 0 -74 -20t-25 -54t25 -54.5t74 -20.5q48 0 77.5 21zM291 570l106 135h-130l-80 -135h104z" />
    <glyph glyph-name="abreve" unicode="&#x103;" horiz-adv-x="505" 
d="M399 462q56 -51 56 -142v-320h-106v47q-48 -60 -142 -60q-72 0 -122 41.5t-50 117.5t50 117t122 41q91 0 142 -51v62q0 50 -25 73.5t-68 23.5q-41 0 -67 -20.5t-26 -56.5h-106q0 54 26.5 94.5t71.5 62t101 21.5q87 0 143 -51zM319.5 92q29.5 21 29.5 54q0 34 -29.5 54
t-77.5 20q-49 0 -74 -20t-25 -54t25 -54.5t74 -20.5q48 0 77.5 21zM141.5 593.5q-41.5 36.5 -41.5 103.5h98q0 -59 60 -59q59 0 59 59h98q0 -67 -41.5 -103.5t-115.5 -36.5q-75 0 -116.5 36.5z" />
    <glyph glyph-name="acircumflex" unicode="&#xe2;" horiz-adv-x="505" 
d="M399 462q56 -51 56 -142v-320h-106v47q-48 -60 -142 -60q-72 0 -122 41.5t-50 117.5t50 117t122 41q91 0 142 -51v62q0 50 -25 73.5t-68 23.5q-41 0 -67 -20.5t-26 -56.5h-106q0 54 26.5 94.5t71.5 62t101 21.5q87 0 143 -51zM319.5 92q29.5 21 29.5 54q0 34 -29.5 54
t-77.5 20q-49 0 -74 -20t-25 -54t25 -54.5t74 -20.5q48 0 77.5 21zM307 565l-52 74l-53 -74h-110l106 140h104h9l106 -140h-110z" />
    <glyph glyph-name="adieresis" unicode="&#xe4;" horiz-adv-x="505" 
d="M399 462q56 -51 56 -142v-320h-106v47q-48 -60 -142 -60q-72 0 -122 41.5t-50 117.5t50 117t122 41q91 0 142 -51v62q0 50 -25 73.5t-68 23.5q-41 0 -67 -20.5t-26 -56.5h-106q0 54 26.5 94.5t71.5 62t101 21.5q87 0 143 -51zM319.5 92q29.5 21 29.5 54q0 34 -29.5 54
t-77.5 20q-49 0 -74 -20t-25 -54t25 -54.5t74 -20.5q48 0 77.5 21zM110 678h105v-105h-105v105zM300 678h105v-105h-105v105z" />
    <glyph glyph-name="agrave" unicode="&#xe0;" horiz-adv-x="505" 
d="M399 462q56 -51 56 -142v-320h-106v47q-48 -60 -142 -60q-72 0 -122 41.5t-50 117.5t50 117t122 41q91 0 142 -51v62q0 50 -25 73.5t-68 23.5q-41 0 -67 -20.5t-26 -56.5h-106q0 54 26.5 94.5t71.5 62t101 21.5q87 0 143 -51zM319.5 92q29.5 21 29.5 54q0 34 -29.5 54
t-77.5 20q-49 0 -74 -20t-25 -54t25 -54.5t74 -20.5q48 0 77.5 21zM242 705h-130l106 -135h104z" />
    <glyph glyph-name="amacron" unicode="&#x101;" horiz-adv-x="505" 
d="M399 462q56 -51 56 -142v-320h-106v47q-48 -60 -142 -60q-72 0 -122 41.5t-50 117.5t50 117t122 41q91 0 142 -51v62q0 50 -25 73.5t-68 23.5q-41 0 -67 -20.5t-26 -56.5h-106q0 54 26.5 94.5t71.5 62t101 21.5q87 0 143 -51zM319.5 92q29.5 21 29.5 54q0 34 -29.5 54
t-77.5 20q-49 0 -74 -20t-25 -54t25 -54.5t74 -20.5q48 0 77.5 21zM117 664h280v-89h-280v89z" />
    <glyph glyph-name="aogonek" unicode="&#x105;" horiz-adv-x="505" 
d="M411 -56.5q-16 -28.5 -16 -48.5q-1 -28 28 -28h4q8 0 28 6v-72q-34 -14 -73 -14q-42 0 -66.5 22t-24.5 61q0 28 16 61.5t47 68.5h-5v47q-48 -60 -142 -60q-72 0 -122 41.5t-50 117.5t50 117t122 41q91 0 142 -51v62q0 50 -25 73.5t-68 23.5q-41 0 -67 -20.5t-26 -56.5
h-106q0 54 26.5 94.5t71.5 62t101 21.5q87 0 143 -51t56 -142v-320q-28 -28 -44 -56.5zM319.5 92q29.5 21 29.5 54q0 34 -29.5 54t-77.5 20q-49 0 -74 -20t-25 -54t25 -54.5t74 -20.5q48 0 77.5 21z" />
    <glyph glyph-name="aring" unicode="&#xe5;" horiz-adv-x="505" 
d="M399 462q56 -51 56 -142v-320h-106v47q-48 -60 -142 -60q-72 0 -122 41.5t-50 117.5t50 117t122 41q91 0 142 -51v62q0 50 -25 73.5t-68 23.5q-41 0 -67 -20.5t-26 -56.5h-106q0 54 26.5 94.5t71.5 62t101 21.5q87 0 143 -51zM319.5 92q29.5 21 29.5 54q0 34 -29.5 54
t-77.5 20q-49 0 -74 -20t-25 -54t25 -54.5t74 -20.5q48 0 77.5 21zM171.5 580q-33.5 32 -33.5 80q0 49 33.5 81t86.5 32t86 -32t33 -81t-33 -80.5t-86 -31.5t-86.5 32zM290.5 630.5q11.5 11.5 11.5 29.5q0 19 -11.5 30.5t-32.5 11.5q-20 0 -31.5 -11.5t-11.5 -30.5
q0 -18 11.5 -29.5t31.5 -11.5q21 0 32.5 11.5z" />
    <glyph glyph-name="atilde" unicode="&#xe3;" horiz-adv-x="505" 
d="M399 462q56 -51 56 -142v-320h-106v47q-48 -60 -142 -60q-72 0 -122 41.5t-50 117.5t50 117t122 41q91 0 142 -51v62q0 50 -25 73.5t-68 23.5q-41 0 -67 -20.5t-26 -56.5h-106q0 54 26.5 94.5t71.5 62t101 21.5q87 0 143 -51zM319.5 92q29.5 21 29.5 54q0 34 -29.5 54
t-77.5 20q-49 0 -74 -20t-25 -54t25 -54.5t74 -20.5q48 0 77.5 21zM121.5 676q24.5 34 64.5 34q38 0 80 -28q31 -23 44 -23q18 0 18 46h89q0 -70 -24.5 -104t-64.5 -34q-37 0 -79 28q-17 12 -27 17.5t-18 5.5q-18 0 -18 -46h-89q0 70 24.5 104z" />
    <glyph glyph-name="ae" unicode="&#xe6;" horiz-adv-x="837" 
d="M503.5 111.5q33.5 -31.5 85.5 -31.5q70 0 93 61l110 1q-15 -71 -69.5 -112.5t-127.5 -41.5q-118 0 -175 89q-23 -43 -70 -66.5t-116 -23.5q-88 0 -143.5 42.5t-55.5 116.5q0 76 50 117t122 41q87 0 142 -46v57l34 2l-34 -2q0 50 -25 73.5t-68 23.5q-41 0 -67 -20.5
t-26 -56.5h-106q0 54 26 94.5t70.5 62t97.5 21.5q58 0 102 -24t68 -69q27 44 70 68.5t100 24.5q68 0 117 -35.5t74.5 -95.5t25.5 -133q0 -17 -4 -45h-344q10 -61 43.5 -92.5zM701 293q-6 61 -38 91.5t-77 30.5q-54 0 -85.5 -32.5t-40.5 -89.5h241zM320.5 92q28.5 21 28.5 54
q0 34 -29.5 54t-77.5 20q-49 0 -74 -20t-25 -54q0 -33 26.5 -54t73.5 -21q49 0 77.5 21z" />
    <glyph glyph-name="b" unicode="b" horiz-adv-x="630" 
d="M470.5 478.5q57.5 -34.5 91 -95t33.5 -133.5t-33.5 -133t-91 -95t-124.5 -35q-58 0 -102.5 22t-72.5 63v-72h-108v700h108v-272q28 41 72.5 63t102.5 22q67 0 124.5 -34.5zM410 110.5q36 20.5 56.5 57t20.5 82.5t-20.5 82.5t-56.5 57t-81 20.5t-81 -20.5t-56.5 -57
t-20.5 -82.5t20.5 -82.5t56.5 -57t81 -20.5t81 20.5z" />
    <glyph glyph-name="c" unicode="c" horiz-adv-x="568" 
d="M498.5 78q-35.5 -43 -87.5 -67t-112 -24q-74 0 -134.5 35t-95 95t-34.5 133q0 74 34.5 134t95 94.5t134.5 34.5q60 0 112 -24t87.5 -66.5t47.5 -97.5h-114q-16 38 -51.5 60t-81.5 22q-43 0 -79 -20.5t-56.5 -56.5t-20.5 -80t20.5 -80t56.5 -56.5t79 -20.5q46 0 82 22.5
t51 59.5h114q-12 -54 -47.5 -97z" />
    <glyph glyph-name="cacute" unicode="&#x107;" horiz-adv-x="568" 
d="M498.5 78q-35.5 -43 -87.5 -67t-112 -24q-74 0 -134.5 35t-95 95t-34.5 133q0 74 34.5 134t95 94.5t134.5 34.5q60 0 112 -24t87.5 -66.5t47.5 -97.5h-114q-16 38 -51.5 60t-81.5 22q-43 0 -79 -20.5t-56.5 -56.5t-20.5 -80t20.5 -80t56.5 -56.5t79 -20.5q46 0 82 22.5
t51 59.5h114q-12 -54 -47.5 -97zM329 565l106 135h-130l-80 -135h104z" />
    <glyph glyph-name="ccaron" unicode="&#x10d;" horiz-adv-x="568" 
d="M498.5 78q-35.5 -43 -87.5 -67t-112 -24q-74 0 -134.5 35t-95 95t-34.5 133q0 74 34.5 134t95 94.5t134.5 34.5q60 0 112 -24t87.5 -66.5t47.5 -97.5h-114q-16 38 -51.5 60t-81.5 22q-43 0 -79 -20.5t-56.5 -56.5t-20.5 -80t20.5 -80t56.5 -56.5t79 -20.5q46 0 82 22.5
t51 59.5h114q-12 -54 -47.5 -97zM455 700l-106 -140h-104h-9l-106 140h110l53 -73l52 73h110z" />
    <glyph glyph-name="ccedilla" unicode="&#xe7;" horiz-adv-x="568" 
d="M381 115.5q36 22.5 51 59.5h114q-16 -72 -70.5 -121.5t-129.5 -62.5v-37q34 -6 56 -26.5t22 -52.5q0 -92 -171 -92q-28 0 -44 1v79q34 -2 45 -2q76 0 76 27t-73 30v72q-64 9 -114.5 45.5t-79 92.5t-28.5 122q0 74 34.5 134t95 94.5t134.5 34.5q60 0 112 -24t87.5 -66.5
t47.5 -97.5h-114q-16 38 -51.5 60t-81.5 22q-43 0 -79 -20.5t-56.5 -56.5t-20.5 -80t20.5 -80t56.5 -56.5t79 -20.5q46 0 82 22.5z" />
    <glyph glyph-name="cdotaccent" unicode="&#x10b;" horiz-adv-x="568" 
d="M498.5 78q-35.5 -43 -87.5 -67t-112 -24q-74 0 -134.5 35t-95 95t-34.5 133q0 74 34.5 134t95 94.5t134.5 34.5q60 0 112 -24t87.5 -66.5t47.5 -97.5h-114q-16 38 -51.5 60t-81.5 22q-43 0 -79 -20.5t-56.5 -56.5t-20.5 -80t20.5 -80t56.5 -56.5t79 -20.5q46 0 82 22.5
t51 59.5h114q-12 -54 -47.5 -97zM235 685h120v-120h-120v120z" />
    <glyph glyph-name="d" unicode="d" horiz-adv-x="630" 
d="M568 700v-700h-108v72q-29 -40 -73.5 -62.5t-102.5 -22.5q-67 0 -124 35t-90.5 95t-33.5 133t33.5 133.5t90.5 95t124 34.5q58 0 102.5 -22t73.5 -63v272h108zM383 110.5q36 20.5 56.5 57t20.5 82.5t-20.5 82.5t-56.5 57t-81 20.5t-81 -20.5t-56.5 -57t-20.5 -82.5
t20.5 -82.5t56.5 -57t81 -20.5t81 20.5z" />
    <glyph glyph-name="eth" unicode="&#xf0;" horiz-adv-x="576" 
d="M541 230q0 -73 -34.5 -128t-92.5 -84.5t-126 -29.5t-126 29.5t-92.5 84.5t-34.5 128q0 64 31 116t84 82t115 30q19 0 38 -3h1l-67 91l-122 -65v80l80 43l-70 96h124l36 -49l117 62v-80l-74 -39l167 -224q46 -61 46 -140zM391.5 128q41.5 38 41.5 102q0 49 -24 81
q-40 55 -120 55q-64 0 -105 -37t-41 -99q0 -64 41.5 -102t103.5 -38t103.5 38z" />
    <glyph glyph-name="dcaron" unicode="&#x10f;" horiz-adv-x="724" 
d="M460 700h108v-700h-108v72q-29 -40 -73.5 -62.5t-102.5 -22.5q-67 0 -124 35t-90.5 95t-33.5 133t33.5 133.5t90.5 95t124 34.5q58 0 102.5 -22t73.5 -63v272zM734 700l-30 -190h-83l10 190h103zM383 110.5q36 20.5 56.5 57t20.5 82.5t-20.5 82.5t-56.5 57t-81 20.5
t-81 -20.5t-56.5 -57t-20.5 -82.5t20.5 -82.5t56.5 -57t81 -20.5t81 20.5z" />
    <glyph glyph-name="dcroat" unicode="&#x111;" horiz-adv-x="637" 
d="M632 561h-65v-561h-108v72q-29 -41 -73.5 -63t-101.5 -22q-67 0 -124.5 35t-91 95t-33.5 133t33.5 133.5t91 95t124.5 34.5q57 0 101.5 -22t73.5 -63v133h-162v74h162v65h108v-65h65v-74zM382 110.5q36 20.5 56.5 57t20.5 82.5t-20.5 82.5t-56.5 57t-81 20.5t-81 -20.5
t-56.5 -57t-20.5 -82.5t20.5 -82.5t56.5 -57t81 -20.5t81 20.5z" />
    <glyph glyph-name="e" unicode="e" horiz-adv-x="574" 
d="M200.5 112q41.5 -32 100.5 -32q40 0 72 17t46 44l110 1q-23 -72 -84.5 -113.5t-145.5 -41.5q-78 0 -138 34t-93 94t-33 135q0 74 33 134t93 94.5t136 34.5q73 0 129.5 -35.5t87.5 -96t31 -132.5q0 -17 -4 -45h-394q12 -60 53.5 -92zM436 293q-10 60 -48.5 91t-90.5 31
q-60 0 -100 -33t-51 -89h290z" />
    <glyph glyph-name="eacute" unicode="&#xe9;" horiz-adv-x="574" 
d="M200.5 112q41.5 -32 100.5 -32q40 0 72 17t46 44l110 1q-23 -72 -84.5 -113.5t-145.5 -41.5q-78 0 -138 34t-93 94t-33 135q0 74 33 134t93 94.5t136 34.5q73 0 129.5 -35.5t87.5 -96t31 -132.5q0 -17 -4 -45h-394q12 -60 53.5 -92zM436 293q-10 60 -48.5 91t-90.5 31
q-60 0 -100 -33t-51 -89h290zM332 568l106 135h-130l-80 -135h104z" />
    <glyph glyph-name="ecaron" unicode="&#x11b;" horiz-adv-x="574" 
d="M200.5 112q41.5 -32 100.5 -32q40 0 72 17t46 44l110 1q-23 -72 -84.5 -113.5t-145.5 -41.5q-78 0 -138 34t-93 94t-33 135q0 74 33 134t93 94.5t136 34.5q73 0 129.5 -35.5t87.5 -96t31 -132.5q0 -17 -4 -45h-394q12 -60 53.5 -92zM436 293q-10 60 -48.5 91t-90.5 31
q-60 0 -100 -33t-51 -89h290zM458 703l-106 -140h-104h-9l-106 140h110l53 -73l52 73h110z" />
    <glyph glyph-name="ecircumflex" unicode="&#xea;" horiz-adv-x="574" 
d="M200.5 112q41.5 -32 100.5 -32q40 0 72 17t46 44l110 1q-23 -72 -84.5 -113.5t-145.5 -41.5q-78 0 -138 34t-93 94t-33 135q0 74 33 134t93 94.5t136 34.5q73 0 129.5 -35.5t87.5 -96t31 -132.5q0 -17 -4 -45h-394q12 -60 53.5 -92zM436 293q-10 60 -48.5 91t-90.5 31
q-60 0 -100 -33t-51 -89h290zM348 563l-52 74l-53 -74h-110l106 140h104h9l106 -140h-110z" />
    <glyph glyph-name="edieresis" unicode="&#xeb;" horiz-adv-x="574" 
d="M200.5 112q41.5 -32 100.5 -32q40 0 72 17t46 44l110 1q-23 -72 -84.5 -113.5t-145.5 -41.5q-78 0 -138 34t-93 94t-33 135q0 74 33 134t93 94.5t136 34.5q73 0 129.5 -35.5t87.5 -96t31 -132.5q0 -17 -4 -45h-394q12 -60 53.5 -92zM436 293q-10 60 -48.5 91t-90.5 31
q-60 0 -100 -33t-51 -89h290zM150 676h105v-105h-105v105zM340 676h105v-105h-105v105z" />
    <glyph glyph-name="edotaccent" unicode="&#x117;" horiz-adv-x="574" 
d="M200.5 112q41.5 -32 100.5 -32q40 0 72 17t46 44l110 1q-23 -72 -84.5 -113.5t-145.5 -41.5q-78 0 -138 34t-93 94t-33 135q0 74 33 134t93 94.5t136 34.5q73 0 129.5 -35.5t87.5 -96t31 -132.5q0 -17 -4 -45h-394q12 -60 53.5 -92zM436 293q-10 60 -48.5 91t-90.5 31
q-60 0 -100 -33t-51 -89h290zM238 688h120v-120h-120v120z" />
    <glyph glyph-name="egrave" unicode="&#xe8;" horiz-adv-x="574" 
d="M200.5 112q41.5 -32 100.5 -32q40 0 72 17t46 44l110 1q-23 -72 -84.5 -113.5t-145.5 -41.5q-78 0 -138 34t-93 94t-33 135q0 74 33 134t93 94.5t136 34.5q73 0 129.5 -35.5t87.5 -96t31 -132.5q0 -17 -4 -45h-394q12 -60 53.5 -92zM436 293q-10 60 -48.5 91t-90.5 31
q-60 0 -100 -33t-51 -89h290zM283 703h-130l106 -135h104z" />
    <glyph glyph-name="emacron" unicode="&#x113;" horiz-adv-x="574" 
d="M200.5 112q41.5 -32 100.5 -32q40 0 72 17t46 44l110 1q-23 -72 -84.5 -113.5t-145.5 -41.5q-78 0 -138 34t-93 94t-33 135q0 74 33 134t93 94.5t136 34.5q73 0 129.5 -35.5t87.5 -96t31 -132.5q0 -17 -4 -45h-394q12 -60 53.5 -92zM436 293q-10 60 -48.5 91t-90.5 31
q-60 0 -100 -33t-51 -89h290zM158 662h280v-89h-280v89z" />
    <glyph glyph-name="eogonek" unicode="&#x119;" horiz-adv-x="574" 
d="M200.5 112q41.5 -32 100.5 -32q40 0 72 17t46 44l110 1q-23 -69 -77 -108q-78 -88 -78 -139q0 -28 28 -28h4q9 0 29 6v-72q-34 -14 -74 -14q-41 0 -66 22t-25 61q0 27 15.5 58t47.5 61q-22 -2 -34 -2q-78 0 -138 34t-93 94t-33 135q0 74 33 134t93 94.5t136 34.5
q73 0 129.5 -35.5t87.5 -96t31 -132.5q0 -17 -4 -45h-394q12 -60 53.5 -92zM436 293q-10 60 -48.5 91t-90.5 31q-60 0 -100 -33t-51 -89h290z" />
    <glyph glyph-name="f" unicode="f" horiz-adv-x="313" 
d="M292 610q-49 0 -73.5 -24t-24.5 -76v-10h119v-104h-119v-396h-108v396h-76v104h76v10q0 97 51.5 150.5t150.5 53.5q16 0 25 -1v-104q-7 1 -21 1z" />
    <glyph glyph-name="g" unicode="g" horiz-adv-x="627" 
d="M567 500v-477q0 -77 -35.5 -130t-93.5 -79.5t-125 -26.5q-64 0 -120.5 24t-91 68t-34.5 103h108q0 -24 16.5 -46.5t48 -36.5t73.5 -14q70 0 109 36.5t39 101.5v61q-29 -42 -73.5 -64.5t-103.5 -22.5q-67 0 -124 34.5t-91 94t-34 129.5q0 71 33.5 130t91 93.5t124.5 34.5
q59 0 103.5 -22.5t73.5 -64.5v74h106zM383.5 118.5q36.5 20.5 57 56.5t20.5 80t-20.5 80t-57 56.5t-81.5 20.5t-81.5 -20.5t-57 -56.5t-20.5 -80t20.5 -80t57 -56.5t81.5 -20.5t81.5 20.5z" />
    <glyph glyph-name="gbreve" unicode="&#x11f;" horiz-adv-x="627" 
d="M567 500v-477q0 -77 -35.5 -130t-93.5 -79.5t-125 -26.5q-64 0 -120.5 24t-91 68t-34.5 103h108q0 -24 16.5 -46.5t48 -36.5t73.5 -14q70 0 109 36.5t39 101.5v61q-29 -42 -73.5 -64.5t-103.5 -22.5q-67 0 -124 34.5t-91 94t-34 129.5q0 71 33.5 130t91 93.5t124.5 34.5
q59 0 103.5 -22.5t73.5 -64.5v74h106zM383.5 118.5q36.5 20.5 57 56.5t20.5 80t-20.5 80t-57 56.5t-81.5 20.5t-81.5 -20.5t-57 -56.5t-20.5 -80t20.5 -80t57 -56.5t81.5 -20.5t81.5 20.5zM184.5 593.5q-41.5 36.5 -41.5 103.5h98q0 -59 60 -59q59 0 59 59h98
q0 -67 -41.5 -103.5t-115.5 -36.5q-75 0 -116.5 36.5z" />
    <glyph glyph-name="gcommaaccent" unicode="&#x123;" horiz-adv-x="627" 
d="M567 500v-477q0 -77 -35.5 -130t-93.5 -79.5t-125 -26.5q-64 0 -120.5 24t-91 68t-34.5 103h108q0 -24 16.5 -46.5t48 -36.5t73.5 -14q70 0 109 36.5t39 101.5v61q-29 -42 -73.5 -64.5t-103.5 -22.5q-67 0 -124 34.5t-91 94t-34 129.5q0 71 33.5 130t91 93.5t124.5 34.5
q59 0 103.5 -22.5t73.5 -64.5v74h106zM383.5 118.5q36.5 20.5 57 56.5t20.5 80t-20.5 80t-57 56.5t-81.5 20.5t-81.5 -20.5t-57 -56.5t-20.5 -80t20.5 -80t57 -56.5t81.5 -20.5t81.5 20.5zM243 585h103l10 190h-83z" />
    <glyph glyph-name="gdotaccent" unicode="&#x121;" horiz-adv-x="627" 
d="M567 500v-477q0 -77 -35.5 -130t-93.5 -79.5t-125 -26.5q-64 0 -120.5 24t-91 68t-34.5 103h108q0 -24 16.5 -46.5t48 -36.5t73.5 -14q70 0 109 36.5t39 101.5v61q-29 -42 -73.5 -64.5t-103.5 -22.5q-67 0 -124 34.5t-91 94t-34 129.5q0 71 33.5 130t91 93.5t124.5 34.5
q59 0 103.5 -22.5t73.5 -64.5v74h106zM383.5 118.5q36.5 20.5 57 56.5t20.5 80t-20.5 80t-57 56.5t-81.5 20.5t-81.5 -20.5t-57 -56.5t-20.5 -80t20.5 -80t57 -56.5t81.5 -20.5t81.5 20.5zM241 690h120v-120h-120v120z" />
    <glyph glyph-name="h" unicode="h" 
d="M397.5 490q37.5 -23 59 -66t21.5 -102v-322h-108v316q0 46 -25.5 71t-66.5 25q-46 0 -76.5 -30t-30.5 -95v-287h-108v700h108v-257q46 70 142 70q47 0 84.5 -23z" />
    <glyph glyph-name="hbar" unicode="&#x127;" horiz-adv-x="535" 
d="M404.5 490q37.5 -23 59 -66t21.5 -102v-322h-108v316q0 46 -25 71t-66 25q-47 0 -77.5 -30t-30.5 -95v-287h-108v561h-65v74h65v65h108v-65h142v-74h-142v-118q46 70 142 70q47 0 84.5 -23z" />
    <glyph glyph-name="i" unicode="i" horiz-adv-x="233" 
d="M63 700h108v-120h-108v120zM63 500h108v-500h-108v500z" />
    <glyph glyph-name="dotlessi" unicode="&#x131;" horiz-adv-x="233" 
d="M63 500h108v-500h-108v500z" />
    <glyph glyph-name="iacute" unicode="&#xed;" horiz-adv-x="233" 
d="M168 560l66 140h-125l-45 -140h104zM63 500h108v-500h-108v500z" />
    <glyph glyph-name="icircumflex" unicode="&#xee;" horiz-adv-x="233" 
d="M79 560h-110l91 140h104h9l91 -140h-110l-37 62zM63 500h108v-500h-108v500z" />
    <glyph glyph-name="idieresis" unicode="&#xef;" horiz-adv-x="233" 
d="M-16 673h105v-105h-105v105zM144 673h105v-105h-105v105zM63 500h108v-500h-108v500z" />
    <glyph glyph-name="i.loclTRK" horiz-adv-x="233" 
d="M63 500h108v-500h-108v500zM57 685h120v-120h-120v120z" />
    <glyph glyph-name="igrave" unicode="&#xec;" horiz-adv-x="233" 
d="M122 700h-125l66 -140h104zM63 0v500h108v-500h-108z" />
    <glyph glyph-name="imacron" unicode="&#x12b;" horiz-adv-x="233" 
d="M7 664h220v-94h-220v94zM63 500h108v-500h-108v500z" />
    <glyph glyph-name="iogonek" unicode="&#x12f;" horiz-adv-x="233" 
d="M171 580h-108v120h108v-120zM166 -133q9 0 29 6v-72q-34 -14 -74 -14q-41 0 -66 24t-25 64q0 54 41 125h-8v500h108v-500q-37 -60 -37 -100q0 -15 7.5 -24t20.5 -9h4z" />
    <glyph glyph-name="j" unicode="j" horiz-adv-x="253" 
d="M190 700v-120h-108v120h108zM82 500h108v-520q0 -194 -178 -194q-18 0 -27 1v104q6 -1 18 -1q41 0 60 21.5t19 68.5v520z" />
    <glyph glyph-name="k" unicode="k" horiz-adv-x="510" 
d="M371 0l-200 231v-231h-108v700h108v-421l190 221h129l-214 -245l224 -255h-129z" />
    <glyph glyph-name="kcommaaccent" unicode="&#x137;" horiz-adv-x="510" 
d="M371 0l-200 231v-231h-108v700h108v-421l190 221h129l-214 -245l224 -255h-129zM331 -65h-103l-10 -190h83z" />
    <glyph glyph-name="l" unicode="l" horiz-adv-x="233" 
d="M63 720h108v-720h-108v720z" />
    <glyph glyph-name="lacute" unicode="&#x13a;" horiz-adv-x="233" 
d="M63 720h108v-720h-108v720zM165 765l106 135h-130l-80 -135h104z" />
    <glyph glyph-name="lcaron" unicode="&#x13e;" horiz-adv-x="327" 
d="M63 720h108v-720h-108v720zM337 720h-103l-10 -190h83z" />
    <glyph glyph-name="lcommaaccent" unicode="&#x13c;" horiz-adv-x="233" 
d="M63 720h108v-720h-108v720zM170 -65h-103l-10 -190h83z" />
    <glyph glyph-name="lslash" unicode="&#x142;" horiz-adv-x="255" 
d="M240 377l-58 -40v-337h-108v263l-59 -40v103l59 40v354h108v-280l58 40v-103z" />
    <glyph glyph-name="m" unicode="m" horiz-adv-x="768" 
d="M674.5 467q43.5 -46 43.5 -130v-337h-108v331q0 42 -21 61.5t-55 19.5q-36 0 -63 -24.5t-27 -80.5v-307h-108v331q0 42 -21 61.5t-54 19.5q-36 0 -63 -24.5t-27 -80.5v-307h-108v500h108v-52q42 65 124 65q40 0 73 -18.5t52 -53.5q52 72 141 72q70 0 113.5 -46z" />
    <glyph glyph-name="n" unicode="n" 
d="M397.5 490q37.5 -23 59 -66t21.5 -102v-322h-108v316q0 46 -25.5 71t-66.5 25q-46 0 -76.5 -30t-30.5 -95v-287h-108v500h108v-57q46 70 142 70q47 0 84.5 -23z" />
    <glyph glyph-name="nacute" unicode="&#x144;" 
d="M397.5 490q37.5 -23 59 -66t21.5 -102v-322h-108v316q0 46 -25.5 71t-66.5 25q-46 0 -76.5 -30t-30.5 -95v-287h-108v500h108v-57q46 70 142 70q47 0 84.5 -23zM302 570l106 135h-130l-80 -135h104z" />
    <glyph glyph-name="ncaron" unicode="&#x148;" 
d="M397.5 490q37.5 -23 59 -66t21.5 -102v-322h-108v316q0 46 -25.5 71t-66.5 25q-46 0 -76.5 -30t-30.5 -95v-287h-108v500h108v-57q46 70 142 70q47 0 84.5 -23zM428 705l-106 -140h-104h-9l-106 140h110l53 -73l52 73h110z" />
    <glyph glyph-name="ncommaaccent" unicode="&#x146;" 
d="M397.5 490q37.5 -23 59 -66t21.5 -102v-322h-108v316q0 46 -25.5 71t-66.5 25q-46 0 -76.5 -30t-30.5 -95v-287h-108v500h108v-57q46 70 142 70q47 0 84.5 -23zM329 -65h-103l-10 -190h83z" />
    <glyph glyph-name="eng" unicode="&#x14b;" 
d="M397.5 490q37.5 -23 59 -66t21.5 -102v-342q0 -93 -44.5 -143.5t-131.5 -50.5q-16 0 -24 1v104q7 -1 19 -1q37 0 55 21.5t18 68.5v336q0 46 -25.5 71t-66.5 25q-46 0 -76.5 -30t-30.5 -95v-287h-108v500h108v-57q46 70 142 70q47 0 84.5 -23z" />
    <glyph glyph-name="ntilde" unicode="&#xf1;" 
d="M397.5 490q37.5 -23 59 -66t21.5 -102v-322h-108v316q0 46 -25.5 71t-66.5 25q-46 0 -76.5 -30t-30.5 -95v-287h-108v500h108v-57q46 70 142 70q47 0 84.5 -23zM132.5 676q24.5 34 64.5 34q38 0 80 -28q31 -23 44 -23q18 0 18 46h89q0 -70 -24.5 -104t-64.5 -34
q-37 0 -79 28q-17 12 -27 17.5t-18 5.5q-18 0 -18 -46h-89q0 70 24.5 104z" />
    <glyph glyph-name="o" unicode="o" horiz-adv-x="598" 
d="M166.5 22q-60.5 35 -96 95t-35.5 133t35.5 133.5t96 95t132.5 34.5q73 0 133.5 -34.5t95.5 -95t35 -133.5t-35 -133t-96 -95t-133 -35t-132.5 35zM378.5 112.5q35.5 20.5 56 56.5t20.5 81t-20.5 81t-56 56.5t-79.5 20.5t-79.5 -20.5t-56 -56.5t-20.5 -81t20.5 -81
t56 -56.5t79.5 -20.5t79.5 20.5z" />
    <glyph glyph-name="oacute" unicode="&#xf3;" horiz-adv-x="598" 
d="M166.5 22q-60.5 35 -96 95t-35.5 133t35.5 133.5t96 95t132.5 34.5q73 0 133.5 -34.5t95.5 -95t35 -133.5t-35 -133t-96 -95t-133 -35t-132.5 35zM378.5 112.5q35.5 20.5 56 56.5t20.5 81t-20.5 81t-56 56.5t-79.5 20.5t-79.5 -20.5t-56 -56.5t-20.5 -81t20.5 -81
t56 -56.5t79.5 -20.5t79.5 20.5zM333 570l106 135h-130l-80 -135h104z" />
    <glyph glyph-name="ocircumflex" unicode="&#xf4;" horiz-adv-x="598" 
d="M166.5 22q-60.5 35 -96 95t-35.5 133t35.5 133.5t96 95t132.5 34.5q73 0 133.5 -34.5t95.5 -95t35 -133.5t-35 -133t-96 -95t-133 -35t-132.5 35zM378.5 112.5q35.5 20.5 56 56.5t20.5 81t-20.5 81t-56 56.5t-79.5 20.5t-79.5 -20.5t-56 -56.5t-20.5 -81t20.5 -81
t56 -56.5t79.5 -20.5t79.5 20.5zM349 565l-52 74l-53 -74h-110l106 140h104h9l106 -140h-110z" />
    <glyph glyph-name="odieresis" unicode="&#xf6;" horiz-adv-x="598" 
d="M166.5 22q-60.5 35 -96 95t-35.5 133t35.5 133.5t96 95t132.5 34.5q73 0 133.5 -34.5t95.5 -95t35 -133.5t-35 -133t-96 -95t-133 -35t-132.5 35zM378.5 112.5q35.5 20.5 56 56.5t20.5 81t-20.5 81t-56 56.5t-79.5 20.5t-79.5 -20.5t-56 -56.5t-20.5 -81t20.5 -81
t56 -56.5t79.5 -20.5t79.5 20.5zM152 678h105v-105h-105v105zM342 678h105v-105h-105v105z" />
    <glyph glyph-name="ograve" unicode="&#xf2;" horiz-adv-x="598" 
d="M166.5 22q-60.5 35 -96 95t-35.5 133t35.5 133.5t96 95t132.5 34.5q73 0 133.5 -34.5t95.5 -95t35 -133.5t-35 -133t-96 -95t-133 -35t-132.5 35zM378.5 112.5q35.5 20.5 56 56.5t20.5 81t-20.5 81t-56 56.5t-79.5 20.5t-79.5 -20.5t-56 -56.5t-20.5 -81t20.5 -81
t56 -56.5t79.5 -20.5t79.5 20.5zM284 705h-130l106 -135h104z" />
    <glyph glyph-name="ohungarumlaut" unicode="&#x151;" horiz-adv-x="598" 
d="M166.5 22q-60.5 35 -96 95t-35.5 133t35.5 133.5t96 95t132.5 34.5q73 0 133.5 -34.5t95.5 -95t35 -133.5t-35 -133t-96 -95t-133 -35t-132.5 35zM378.5 112.5q35.5 20.5 56 56.5t20.5 81t-20.5 81t-56 56.5t-79.5 20.5t-79.5 -20.5t-56 -56.5t-20.5 -81t20.5 -81
t56 -56.5t79.5 -20.5t79.5 20.5zM257 565l81 135h-114l-75 -135h108zM420 565l91 135h-114l-85 -135h108z" />
    <glyph glyph-name="omacron" unicode="&#x14d;" horiz-adv-x="598" 
d="M166.5 22q-60.5 35 -96 95t-35.5 133t35.5 133.5t96 95t132.5 34.5q73 0 133.5 -34.5t95.5 -95t35 -133.5t-35 -133t-96 -95t-133 -35t-132.5 35zM378.5 112.5q35.5 20.5 56 56.5t20.5 81t-20.5 81t-56 56.5t-79.5 20.5t-79.5 -20.5t-56 -56.5t-20.5 -81t20.5 -81
t56 -56.5t79.5 -20.5t79.5 20.5zM159 664h280v-89h-280v89z" />
    <glyph glyph-name="oslash" unicode="&#xf8;" horiz-adv-x="598" 
d="M543 352q20 -48 20 -102q0 -73 -35 -133t-96 -95t-133 -35q-81 0 -150 45l-27 -32h-75l58 70q-33 35 -51.5 81.5t-18.5 98.5q0 73 35.5 133.5t96 95t132.5 34.5q78 0 143 -41l24 28h75l-54 -64q36 -36 56 -84zM175 152l199 238q-33 18 -75 18q-44 0 -79.5 -20.5
t-56 -56.5t-20.5 -81q0 -55 32 -98zM378.5 112.5q35.5 20.5 56 56.5t20.5 81q0 60 -36 104l-202 -240q38 -22 82 -22t79.5 20.5z" />
    <glyph glyph-name="otilde" unicode="&#xf5;" horiz-adv-x="598" 
d="M166.5 22q-60.5 35 -96 95t-35.5 133t35.5 133.5t96 95t132.5 34.5q73 0 133.5 -34.5t95.5 -95t35 -133.5t-35 -133t-96 -95t-133 -35t-132.5 35zM378.5 112.5q35.5 20.5 56 56.5t20.5 81t-20.5 81t-56 56.5t-79.5 20.5t-79.5 -20.5t-56 -56.5t-20.5 -81t20.5 -81
t56 -56.5t79.5 -20.5t79.5 20.5zM163.5 676q24.5 34 64.5 34q38 0 80 -28q31 -23 44 -23q18 0 18 46h89q0 -70 -24.5 -104t-64.5 -34q-37 0 -79 28q-17 12 -27 17.5t-18 5.5q-18 0 -18 -46h-89q0 70 24.5 104z" />
    <glyph glyph-name="oe" unicode="&#x153;" horiz-adv-x="994" 
d="M620.5 112q41.5 -32 100.5 -32q40 0 72 17t46 44l110 1q-23 -72 -83.5 -113.5t-144.5 -41.5q-75 0 -130 32t-84 88q-31 -56 -86 -88t-124 -32q-74 0 -134 35t-94 95t-34 133q0 74 34 134t94 94.5t134 34.5q69 0 124 -32t86 -89q30 57 84 89t128 32q73 0 129 -35.5
t86.5 -96t30.5 -132.5q0 -17 -4 -45h-394q12 -60 53.5 -92zM856 293q-10 60 -48.5 91t-90.5 31q-60 0 -100 -33t-51 -89h290zM378.5 112.5q35.5 20.5 56 56.5t20.5 81t-20.5 81t-56 56.5t-79.5 20.5q-68 0 -112 -45t-44 -113t44 -113t112 -45q44 0 79.5 20.5z" />
    <glyph glyph-name="p" unicode="p" horiz-adv-x="630" 
d="M470.5 478.5q57.5 -34.5 91 -95t33.5 -133.5t-33.5 -133t-91 -95t-124.5 -35q-57 0 -101.5 22t-73.5 63v-272h-108v700h108v-71q29 40 73.5 62t101.5 22q67 0 124.5 -34.5zM410 110.5q36 20.5 56.5 57t20.5 82.5t-20.5 82.5t-56.5 57t-81 20.5q-65 0 -109.5 -41.5
t-48.5 -105.5v-26q4 -64 48.5 -105.5t109.5 -41.5q45 0 81 20.5z" />
    <glyph glyph-name="thorn" unicode="&#xfe;" horiz-adv-x="630" 
d="M470.5 478.5q57.5 -34.5 91 -95t33.5 -133.5t-33.5 -133t-91 -95t-124.5 -35q-58 0 -102.5 22t-72.5 63v-272h-108v900h108v-272q28 41 72.5 63t102.5 22q67 0 124.5 -34.5zM410 110.5q36 20.5 56.5 57t20.5 82.5t-20.5 82.5t-56.5 57t-81 20.5t-81 -20.5t-56.5 -57
t-20.5 -82.5t20.5 -82.5t56.5 -57t81 -20.5t81 20.5z" />
    <glyph glyph-name="q" unicode="q" horiz-adv-x="630" 
d="M568 500v-700h-108v272q-29 -40 -73.5 -62.5t-102.5 -22.5q-67 0 -124 35t-90.5 95t-33.5 133t33.5 133.5t90.5 95t124 34.5q58 0 102.5 -22t73.5 -63v72h108zM383 110.5q36 20.5 56.5 57t20.5 82.5t-20.5 82.5t-56.5 57t-81 20.5t-81 -20.5t-56.5 -57t-20.5 -82.5
t20.5 -82.5t56.5 -57t81 -20.5t81 20.5z" />
    <glyph glyph-name="r" unicode="r" horiz-adv-x="330" 
d="M315 509v-117q-60 4 -102 -28.5t-42 -106.5v-257h-108v500h108v-75q41 84 144 84z" />
    <glyph glyph-name="racute" unicode="&#x155;" horiz-adv-x="330" 
d="M315 509v-117q-60 4 -102 -28.5t-42 -106.5v-257h-108v500h108v-75q41 84 144 84zM224 565l106 135h-130l-80 -135h104z" />
    <glyph glyph-name="rcaron" unicode="&#x159;" horiz-adv-x="330" 
d="M315 509v-117q-60 4 -102 -28.5t-42 -106.5v-257h-108v500h108v-75q41 84 144 84zM350 700l-106 -140h-104h-9l-106 140h110l53 -73l52 73h110z" />
    <glyph glyph-name="rcommaaccent" unicode="&#x157;" horiz-adv-x="330" 
d="M315 509v-117q-60 4 -102 -28.5t-42 -106.5v-257h-108v500h108v-75q41 84 144 84zM171 -65h-103l-10 -190h83z" />
    <glyph glyph-name="s" unicode="s" horiz-adv-x="473" 
d="M181 318.5q25 -12.5 81 -26.5q53 -12 87.5 -25.5t59 -44t24.5 -81.5q0 -72 -55.5 -113t-140.5 -41q-87 0 -142 44t-55 124h106q0 -36 24.5 -53.5t66.5 -17.5q40 0 64 14.5t24 42.5q0 27 -25.5 40t-79.5 27q-53 12 -87.5 26t-59.5 44.5t-25 81.5q0 70 54.5 111.5
t134.5 41.5q79 0 132.5 -44t53.5 -123h-106q0 35 -23 52.5t-57 17.5q-36 0 -58.5 -14.5t-22.5 -41.5q0 -29 25 -41.5z" />
    <glyph glyph-name="sacute" unicode="&#x15b;" horiz-adv-x="473" 
d="M181 318.5q25 -12.5 81 -26.5q53 -12 87.5 -25.5t59 -44t24.5 -81.5q0 -72 -55.5 -113t-140.5 -41q-87 0 -142 44t-55 124h106q0 -36 24.5 -53.5t66.5 -17.5q40 0 64 14.5t24 42.5q0 27 -25.5 40t-79.5 27q-53 12 -87.5 26t-59.5 44.5t-25 81.5q0 70 54.5 111.5
t134.5 41.5q79 0 132.5 -44t53.5 -123h-106q0 35 -23 52.5t-57 17.5q-36 0 -58.5 -14.5t-22.5 -41.5q0 -29 25 -41.5zM269 570l106 135h-130l-80 -135h104z" />
    <glyph glyph-name="scaron" unicode="&#x161;" horiz-adv-x="473" 
d="M181 318.5q25 -12.5 81 -26.5q53 -12 87.5 -25.5t59 -44t24.5 -81.5q0 -72 -55.5 -113t-140.5 -41q-87 0 -142 44t-55 124h106q0 -36 24.5 -53.5t66.5 -17.5q40 0 64 14.5t24 42.5q0 27 -25.5 40t-79.5 27q-53 12 -87.5 26t-59.5 44.5t-25 81.5q0 70 54.5 111.5
t134.5 41.5q79 0 132.5 -44t53.5 -123h-106q0 35 -23 52.5t-57 17.5q-36 0 -58.5 -14.5t-22.5 -41.5q0 -29 25 -41.5zM395 705l-106 -140h-104h-9l-106 140h110l53 -73l52 73h110z" />
    <glyph glyph-name="scedilla" unicode="&#x15f;" horiz-adv-x="473" 
d="M393.5 42q-39.5 -39 -105.5 -51v-37q34 -6 56 -26.5t22 -52.5q0 -92 -171 -92q-28 0 -44 1v79q34 -2 45 -2q76 0 76 27t-73 30v71q-72 9 -115.5 52t-43.5 114h106q0 -36 24.5 -53.5t66.5 -17.5q40 0 64 14.5t24 42.5q0 27 -25.5 40t-79.5 27q-53 12 -87.5 26t-59.5 44.5
t-25 81.5q0 70 54.5 111.5t134.5 41.5q79 0 132.5 -44t53.5 -123h-106q0 35 -23 52.5t-57 17.5q-36 0 -58.5 -14.5t-22.5 -41.5q0 -29 25 -41.5t81 -26.5q53 -12 87.5 -25.5t59 -44t24.5 -81.5q0 -60 -39.5 -99z" />
    <glyph glyph-name="scommaaccent" unicode="&#x219;" horiz-adv-x="473" 
d="M181 318.5q25 -12.5 81 -26.5q53 -12 87.5 -25.5t59 -44t24.5 -81.5q0 -72 -55.5 -113t-140.5 -41q-87 0 -142 44t-55 124h106q0 -36 24.5 -53.5t66.5 -17.5q40 0 64 14.5t24 42.5q0 27 -25.5 40t-79.5 27q-53 12 -87.5 26t-59.5 44.5t-25 81.5q0 70 54.5 111.5
t134.5 41.5q79 0 132.5 -44t53.5 -123h-106q0 35 -23 52.5t-57 17.5q-36 0 -58.5 -14.5t-22.5 -41.5q0 -29 25 -41.5zM305 -65h-103l-10 -190h83z" />
    <glyph glyph-name="germandbls" unicode="&#xdf;" horiz-adv-x="508" 
d="M273 91q8 -1 23 -1q44 0 66.5 18t22.5 51q0 26 -15.5 50.5t-48.5 63.5q-31 36 -47 61t-16 50q0 18 8.5 34.5t25.5 40.5q19 27 29 47.5t10 43.5q0 30 -20.5 46.5t-52.5 16.5q-37 0 -62 -21.5t-25 -71.5v-520h-108v520q0 90 53.5 141.5t143.5 51.5q83 0 131 -42t48 -108
q0 -36 -13 -63t-36 -57q-14 -18 -20.5 -30t-6.5 -24q0 -17 11.5 -33.5t37.5 -47.5q38 -43 59.5 -80t21.5 -84q0 -68 -44.5 -109.5t-135.5 -41.5q-12 0 -40 2v96z" />
    <glyph glyph-name="t" unicode="t" horiz-adv-x="328" 
d="M310 396h-92v-396h-108v396h-92v104h92v160h108v-160h92v-104z" />
    <glyph glyph-name="tbar" unicode="&#x167;" horiz-adv-x="328" 
d="M218 396v-75h69v-87h-69v-234h-108v234h-73v87h73v75h-92v104h92v160h108v-160h92v-104h-92z" />
    <glyph glyph-name="tcaron" unicode="&#x165;" horiz-adv-x="369" 
d="M379 730l-30 -175h-83l10 175h103zM218 500h92v-104h-92v-396h-108v396h-92v104h92v160h108v-160z" />
    <glyph glyph-name="uni0163" unicode="&#x163;" horiz-adv-x="328" 
d="M310 396h-92v-396h-108v396h-92v104h92v160h108v-160h92v-104zM219 -65h-103l-10 -190h83z" />
    <glyph glyph-name="uni021B" unicode="&#x21b;" horiz-adv-x="328" 
d="M310 396h-92v-396h-108v396h-92v104h92v160h108v-160h92v-104zM219 -65h-103l-10 -190h83z" />
    <glyph glyph-name="u" unicode="u" 
d="M466 500v-500h-108v57q-46 -70 -142 -70q-47 0 -84.5 23t-59 66t-21.5 102v322h108v-315q0 -47 25 -72t66 -25q47 0 77.5 30.5t30.5 94.5v287h108z" />
    <glyph glyph-name="uacute" unicode="&#xfa;" 
d="M466 500v-500h-108v57q-46 -70 -142 -70q-47 0 -84.5 23t-59 66t-21.5 102v322h108v-315q0 -47 25 -72t66 -25q47 0 77.5 30.5t30.5 94.5v287h108zM296 565l106 135h-130l-80 -135h104z" />
    <glyph glyph-name="ucircumflex" unicode="&#xfb;" 
d="M466 500v-500h-108v57q-46 -70 -142 -70q-47 0 -84.5 23t-59 66t-21.5 102v322h108v-315q0 -47 25 -72t66 -25q47 0 77.5 30.5t30.5 94.5v287h108zM312 560l-52 74l-53 -74h-110l106 140h104h9l106 -140h-110z" />
    <glyph glyph-name="udieresis" unicode="&#xfc;" 
d="M466 500v-500h-108v57q-46 -70 -142 -70q-47 0 -84.5 23t-59 66t-21.5 102v322h108v-315q0 -47 25 -72t66 -25q47 0 77.5 30.5t30.5 94.5v287h108zM115 673h105v-105h-105v105zM305 673h105v-105h-105v105z" />
    <glyph glyph-name="ugrave" unicode="&#xf9;" 
d="M466 500v-500h-108v57q-46 -70 -142 -70q-47 0 -84.5 23t-59 66t-21.5 102v322h108v-315q0 -47 25 -72t66 -25q47 0 77.5 30.5t30.5 94.5v287h108zM247 700h-130l106 -135h104z" />
    <glyph glyph-name="uhungarumlaut" unicode="&#x171;" 
d="M466 500v-500h-108v57q-46 -70 -142 -70q-47 0 -84.5 23t-59 66t-21.5 102v322h108v-315q0 -47 25 -72t66 -25q47 0 77.5 30.5t30.5 94.5v287h108zM220 560l81 135h-114l-75 -135h108zM383 560l91 135h-114l-85 -135h108z" />
    <glyph glyph-name="umacron" unicode="&#x16b;" 
d="M466 500v-500h-108v57q-46 -70 -142 -70q-47 0 -84.5 23t-59 66t-21.5 102v322h108v-315q0 -47 25 -72t66 -25q47 0 77.5 30.5t30.5 94.5v287h108zM122 659h280v-89h-280v89z" />
    <glyph glyph-name="uogonek" unicode="&#x173;" 
d="M466 500v-500h-1q-28 -28 -44 -56.5t-16 -48.5q-1 -28 28 -28h4q8 0 28 6v-72q-34 -14 -73 -14q-42 0 -66.5 22t-24.5 61q0 57 64 130h-7v57q-46 -70 -142 -70q-47 0 -84.5 23t-59 66t-21.5 102v322h108v-315q0 -47 25 -72t66 -25q47 0 77.5 30.5t30.5 94.5v287h108z" />
    <glyph glyph-name="uring" unicode="&#x16f;" 
d="M466 500v-500h-108v57q-46 -70 -142 -70q-47 0 -84.5 23t-59 66t-21.5 102v322h108v-315q0 -47 25 -72t66 -25q47 0 77.5 30.5t30.5 94.5v287h108zM176.5 575q-33.5 32 -33.5 80q0 49 33.5 81t86.5 32t86 -32t33 -81t-33 -80.5t-86 -31.5t-86.5 32zM295.5 625.5
q11.5 11.5 11.5 29.5q0 19 -11.5 30.5t-32.5 11.5q-20 0 -31.5 -11.5t-11.5 -30.5q0 -18 11.5 -29.5t31.5 -11.5q21 0 32.5 11.5z" />
    <glyph glyph-name="v" unicode="v" horiz-adv-x="490" 
d="M485 500l-182 -500h-101h-14l-183 500h115l125 -372l125 372h115z" />
    <glyph glyph-name="w" unicode="w" horiz-adv-x="710" 
d="M700 500l-167 -500h-98h-8l-72 215l-72 -215h-88h-18l-167 500h115l112 -371l73 222l-50 149h100l116 -362l109 362h115z" />
    <glyph glyph-name="wacute" unicode="&#x1e83;" horiz-adv-x="710" 
d="M700 500l-167 -500h-98h-8l-72 215l-72 -215h-88h-18l-167 500h115l112 -371l73 222l-50 149h100l116 -362l109 362h115zM389 565l106 135h-130l-80 -135h104z" />
    <glyph glyph-name="wcircumflex" unicode="&#x175;" horiz-adv-x="710" 
d="M700 500l-167 -500h-98h-8l-72 215l-72 -215h-88h-18l-167 500h115l112 -371l73 222l-50 149h100l116 -362l109 362h115zM405 560l-52 74l-53 -74h-110l106 140h104h9l106 -140h-110z" />
    <glyph glyph-name="wdieresis" unicode="&#x1e85;" horiz-adv-x="710" 
d="M700 500l-167 -500h-98h-8l-72 215l-72 -215h-88h-18l-167 500h115l112 -371l73 222l-50 149h100l116 -362l109 362h115zM208 673h105v-105h-105v105zM398 673h105v-105h-105v105z" />
    <glyph glyph-name="wgrave" unicode="&#x1e81;" horiz-adv-x="710" 
d="M700 500l-167 -500h-98h-8l-72 215l-72 -215h-88h-18l-167 500h115l112 -371l73 222l-50 149h100l116 -362l109 362h115zM340 700h-130l106 -135h104z" />
    <glyph glyph-name="x" unicode="x" horiz-adv-x="467" 
d="M339 0l-106 167l-107 -167h-116l165 257l-155 243h116l97 -152l97 152h116l-155 -243l164 -257h-116z" />
    <glyph glyph-name="y" unicode="y" horiz-adv-x="490" 
d="M485 500l-240 -700h-115l70 206l-195 494h115l134 -344l116 344h115z" />
    <glyph glyph-name="yacute" unicode="&#xfd;" horiz-adv-x="490" 
d="M485 500l-240 -700h-115l70 206l-195 494h115l134 -344l116 344h115zM279 565l106 135h-130l-80 -135h104z" />
    <glyph glyph-name="ycircumflex" unicode="&#x177;" horiz-adv-x="490" 
d="M485 500l-240 -700h-115l70 206l-195 494h115l134 -344l116 344h115zM295 560l-52 74l-53 -74h-110l106 140h104h9l106 -140h-110z" />
    <glyph glyph-name="ydieresis" unicode="&#xff;" horiz-adv-x="490" 
d="M485 500l-240 -700h-115l70 206l-195 494h115l134 -344l116 344h115zM98 673h105v-105h-105v105zM288 673h105v-105h-105v105z" />
    <glyph glyph-name="ygrave" unicode="&#x1ef3;" horiz-adv-x="490" 
d="M485 500l-240 -700h-115l70 206l-195 494h115l134 -344l116 344h115zM230 700h-130l106 -135h104z" />
    <glyph glyph-name="z" unicode="z" horiz-adv-x="453" 
d="M425 102v-102h-390v72l234 326h-224v102h370v-72l-233 -326h243z" />
    <glyph glyph-name="zacute" unicode="&#x17a;" horiz-adv-x="453" 
d="M425 102v-102h-390v72l234 326h-224v102h370v-72l-233 -326h243zM265 565l106 135h-130l-80 -135h104z" />
    <glyph glyph-name="zcaron" unicode="&#x17e;" horiz-adv-x="453" 
d="M425 102v-102h-390v72l234 326h-224v102h370v-72l-233 -326h243zM391 700l-106 -140h-104h-9l-106 140h110l53 -73l52 73h110z" />
    <glyph glyph-name="zdotaccent" unicode="&#x17c;" horiz-adv-x="453" 
d="M425 102v-102h-390v72l234 326h-224v102h370v-72l-233 -326h243zM171 685h120v-120h-120v120z" />
    <glyph glyph-name="a.ss01" horiz-adv-x="630" 
d="M567 500v-500h-108v72q-29 -41 -73.5 -63t-101.5 -22q-67 0 -124.5 35t-91 95t-33.5 133t33.5 133.5t91 95t124.5 34.5q57 0 101.5 -22t73.5 -63v72h108zM382 110.5q36 20.5 56.5 57t20.5 82.5t-20.5 82.5t-56.5 57t-81 20.5t-81 -20.5t-56.5 -57t-20.5 -82.5t20.5 -82.5
t56.5 -57t81 -20.5t81 20.5z" />
    <glyph glyph-name="aacute.ss01" horiz-adv-x="630" 
d="M567 500v-500h-108v72q-29 -41 -73.5 -63t-101.5 -22q-67 0 -124.5 35t-91 95t-33.5 133t33.5 133.5t91 95t124.5 34.5q57 0 101.5 -22t73.5 -63v72h108zM382 110.5q36 20.5 56.5 57t20.5 82.5t-20.5 82.5t-56.5 57t-81 20.5t-81 -20.5t-56.5 -57t-20.5 -82.5t20.5 -82.5
t56.5 -57t81 -20.5t81 20.5zM339 565l106 135h-130l-80 -135h104z" />
    <glyph glyph-name="abreve.ss01" horiz-adv-x="630" 
d="M567 500v-500h-108v72q-29 -41 -73.5 -63t-101.5 -22q-67 0 -124.5 35t-91 95t-33.5 133t33.5 133.5t91 95t124.5 34.5q57 0 101.5 -22t73.5 -63v72h108zM382 110.5q36 20.5 56.5 57t20.5 82.5t-20.5 82.5t-56.5 57t-81 20.5t-81 -20.5t-56.5 -57t-20.5 -82.5t20.5 -82.5
t56.5 -57t81 -20.5t81 20.5zM189.5 588.5q-41.5 36.5 -41.5 103.5h98q0 -59 60 -59q59 0 59 59h98q0 -67 -41.5 -103.5t-115.5 -36.5q-75 0 -116.5 36.5z" />
    <glyph glyph-name="acircumflex.ss01" horiz-adv-x="630" 
d="M567 500v-500h-108v72q-29 -41 -73.5 -63t-101.5 -22q-67 0 -124.5 35t-91 95t-33.5 133t33.5 133.5t91 95t124.5 34.5q57 0 101.5 -22t73.5 -63v72h108zM382 110.5q36 20.5 56.5 57t20.5 82.5t-20.5 82.5t-56.5 57t-81 20.5t-81 -20.5t-56.5 -57t-20.5 -82.5t20.5 -82.5
t56.5 -57t81 -20.5t81 20.5zM355 560l-52 74l-53 -74h-110l106 140h104h9l106 -140h-110z" />
    <glyph glyph-name="adieresis.ss01" horiz-adv-x="630" 
d="M567 500v-500h-108v72q-29 -41 -73.5 -63t-101.5 -22q-67 0 -124.5 35t-91 95t-33.5 133t33.5 133.5t91 95t124.5 34.5q57 0 101.5 -22t73.5 -63v72h108zM382 110.5q36 20.5 56.5 57t20.5 82.5t-20.5 82.5t-56.5 57t-81 20.5t-81 -20.5t-56.5 -57t-20.5 -82.5t20.5 -82.5
t56.5 -57t81 -20.5t81 20.5zM158 673h105v-105h-105v105zM348 673h105v-105h-105v105z" />
    <glyph glyph-name="agrave.ss01" horiz-adv-x="630" 
d="M567 500v-500h-108v72q-29 -41 -73.5 -63t-101.5 -22q-67 0 -124.5 35t-91 95t-33.5 133t33.5 133.5t91 95t124.5 34.5q57 0 101.5 -22t73.5 -63v72h108zM382 110.5q36 20.5 56.5 57t20.5 82.5t-20.5 82.5t-56.5 57t-81 20.5t-81 -20.5t-56.5 -57t-20.5 -82.5t20.5 -82.5
t56.5 -57t81 -20.5t81 20.5zM290 700h-130l106 -135h104z" />
    <glyph glyph-name="amacron.ss01" horiz-adv-x="630" 
d="M567 500v-500h-108v72q-29 -41 -73.5 -63t-101.5 -22q-67 0 -124.5 35t-91 95t-33.5 133t33.5 133.5t91 95t124.5 34.5q57 0 101.5 -22t73.5 -63v72h108zM382 110.5q36 20.5 56.5 57t20.5 82.5t-20.5 82.5t-56.5 57t-81 20.5t-81 -20.5t-56.5 -57t-20.5 -82.5t20.5 -82.5
t56.5 -57t81 -20.5t81 20.5zM165 659h280v-89h-280v89z" />
    <glyph glyph-name="aogonek.ss01" horiz-adv-x="630" 
d="M523 -56.5q-16 -28.5 -16 -48.5q-1 -28 28 -28h4q8 0 28 6v-72q-34 -14 -73 -14q-42 0 -66.5 22t-24.5 61q0 28 16 61.5t47 68.5h-7v72q-29 -41 -73.5 -63t-101.5 -22q-67 0 -124.5 35t-91 95t-33.5 133t33.5 133.5t91 95t124.5 34.5q57 0 101.5 -22t73.5 -63v72h108
v-500q-28 -28 -44 -56.5zM382 110.5q36 20.5 56.5 57t20.5 82.5t-20.5 82.5t-56.5 57t-81 20.5t-81 -20.5t-56.5 -57t-20.5 -82.5t20.5 -82.5t56.5 -57t81 -20.5t81 20.5z" />
    <glyph glyph-name="aring.ss01" horiz-adv-x="630" 
d="M567 500v-500h-108v72q-29 -41 -73.5 -63t-101.5 -22q-67 0 -124.5 35t-91 95t-33.5 133t33.5 133.5t91 95t124.5 34.5q57 0 101.5 -22t73.5 -63v72h108zM382 110.5q36 20.5 56.5 57t20.5 82.5t-20.5 82.5t-56.5 57t-81 20.5t-81 -20.5t-56.5 -57t-20.5 -82.5t20.5 -82.5
t56.5 -57t81 -20.5t81 20.5zM219.5 575q-33.5 32 -33.5 80t33.5 80.5t85.5 32.5q53 0 86.5 -32t33.5 -81t-33.5 -80.5t-86.5 -31.5q-52 0 -85.5 32zM337.5 625.5q11.5 11.5 11.5 29.5q0 19 -11.5 30.5t-32.5 11.5q-20 0 -31.5 -11.5t-11.5 -30.5q0 -18 11.5 -29.5
t31.5 -11.5q21 0 32.5 11.5z" />
    <glyph glyph-name="atilde.ss01" horiz-adv-x="630" 
d="M567 500v-500h-108v72q-29 -41 -73.5 -63t-101.5 -22q-67 0 -124.5 35t-91 95t-33.5 133t33.5 133.5t91 95t124.5 34.5q57 0 101.5 -22t73.5 -63v72h108zM382 110.5q36 20.5 56.5 57t20.5 82.5t-20.5 82.5t-56.5 57t-81 20.5t-81 -20.5t-56.5 -57t-20.5 -82.5t20.5 -82.5
t56.5 -57t81 -20.5t81 20.5zM169.5 671q24.5 34 64.5 34q38 0 80 -28q31 -23 44 -23q18 0 18 46h89q0 -70 -24.5 -104t-64.5 -34q-37 0 -79 28q-17 12 -27 17.5t-18 5.5q-18 0 -18 -46h-89q0 70 24.5 104z" />
    <glyph glyph-name="ae.ss01" horiz-adv-x="999" 
d="M625.5 112q41.5 -32 100.5 -32q40 0 72 17t46 44l110 1q-24 -74 -77.5 -114.5t-135.5 -40.5q-59 0 -104 22t-75 62v-71h-103v72q-29 -41 -73.5 -63t-101.5 -22q-67 0 -124.5 35t-91 95t-33.5 133t33.5 133.5t91 95t124.5 34.5q57 0 101.5 -22t73.5 -63v72h103v-73
q30 41 74 63.5t100 22.5q73 0 126 -35.5t80.5 -95.5t27.5 -133q0 -17 -4 -45h-394q12 -60 53.5 -92zM861 293q-10 60 -48.5 91t-90.5 31q-60 0 -100 -33t-51 -89h290zM382 110.5q36 20.5 56.5 57t20.5 82.5t-20.5 82.5t-56.5 57t-81 20.5t-81 -20.5t-56.5 -57t-20.5 -82.5
t20.5 -82.5t56.5 -57t81 -20.5t81 20.5z" />
    <glyph glyph-name="y.ss01" 
d="M465 500v-520q0 -94 -56.5 -143.5t-144.5 -49.5q-56 0 -101.5 20t-71.5 58t-26 90h106q0 -34 26 -53.5t66 -19.5q43 0 68.5 24t25.5 74v77q-46 -70 -142 -70q-47 0 -84.5 23t-59 66t-21.5 102v322h108v-315q0 -47 25.5 -72t66.5 -25q46 0 76.5 30.5t30.5 94.5v287h108z
" />
    <glyph glyph-name="yacute.ss01" 
d="M465 500v-520q0 -94 -56.5 -143.5t-144.5 -49.5q-56 0 -101.5 20t-71.5 58t-26 90h106q0 -34 26 -53.5t66 -19.5q43 0 68.5 24t25.5 74v77q-46 -70 -142 -70q-47 0 -84.5 23t-59 66t-21.5 102v322h108v-315q0 -47 25.5 -72t66.5 -25q46 0 76.5 30.5t30.5 94.5v287h108z
M292 565l106 135h-130l-80 -135h104z" />
    <glyph glyph-name="ycircumflex.ss01" 
d="M465 500v-520q0 -94 -56.5 -143.5t-144.5 -49.5q-56 0 -101.5 20t-71.5 58t-26 90h106q0 -34 26 -53.5t66 -19.5q43 0 68.5 24t25.5 74v77q-46 -70 -142 -70q-47 0 -84.5 23t-59 66t-21.5 102v322h108v-315q0 -47 25.5 -72t66.5 -25q46 0 76.5 30.5t30.5 94.5v287h108z
M308 560l-52 74l-53 -74h-110l106 140h104h9l106 -140h-110z" />
    <glyph glyph-name="ydieresis.ss01" 
d="M465 500v-520q0 -94 -56.5 -143.5t-144.5 -49.5q-56 0 -101.5 20t-71.5 58t-26 90h106q0 -34 26 -53.5t66 -19.5q43 0 68.5 24t25.5 74v77q-46 -70 -142 -70q-47 0 -84.5 23t-59 66t-21.5 102v322h108v-315q0 -47 25.5 -72t66.5 -25q46 0 76.5 30.5t30.5 94.5v287h108z
M110 673h105v-105h-105v105zM300 673h105v-105h-105v105z" />
    <glyph glyph-name="ygrave.ss01" 
d="M465 500v-520q0 -94 -56.5 -143.5t-144.5 -49.5q-56 0 -101.5 20t-71.5 58t-26 90h106q0 -34 26 -53.5t66 -19.5q43 0 68.5 24t25.5 74v77q-46 -70 -142 -70q-47 0 -84.5 23t-59 66t-21.5 102v322h108v-315q0 -47 25.5 -72t66.5 -25q46 0 76.5 30.5t30.5 94.5v287h108z
M243 700h-130l106 -135h104z" />
    <glyph glyph-name="f_f_j" horiz-adv-x="806" 
d="M743 -20q0 -194 -178 -194q-18 0 -27 1v104q6 -1 18 -1q41 0 60 21.5t19 68.5v416h-166v-396h-108v396h-76h-91v-396h-108v396h-76v104h76v10q0 97 51.5 150.5t150.5 53.5q16 0 25 -1v-104q-7 1 -21 1q-49 0 -73.5 -24t-24.5 -76v-10h119h48v20q0 203 227 203
q54 0 110 -13v-99q-53 8 -110 8q-61 0 -90 -22t-29 -77v-20h274v-520z" />
    <glyph glyph-name="f_j" horiz-adv-x="531" 
d="M468 -20q0 -194 -178 -194q-18 0 -27 1v104q6 -1 18 -1q41 0 60 21.5t19 68.5v416h-166v-396h-108v396h-76v104h76v10q0 203 227 203q54 0 110 -13v-99q-53 8 -110 8q-61 0 -90 -22t-29 -77v-10h274v-520z" />
    <glyph glyph-name="ordfeminine" unicode="&#xaa;" horiz-adv-x="275" 
d="M212 687.5q28 -25.5 28 -70.5v-160h-61v22q-24 -29 -70 -29q-35 0 -59.5 21.5t-24.5 58.5t24.5 58t59.5 21q43 0 70 -25v31q0 40 -41 40q-19 0 -30 -8t-11 -22h-61q0 41 28.5 64.5t73.5 23.5q46 0 74 -25.5zM163.5 506.5q15.5 8.5 15.5 23.5q0 16 -15 23.5t-35 7.5
t-31 -8.5t-11 -22.5q0 -15 11 -23.5t31 -8.5q19 0 34.5 8.5z" />
    <glyph glyph-name="ordmasculine" unicode="&#xba;" horiz-adv-x="314" 
d="M63.5 488q-38.5 38 -38.5 94q0 55 38.5 93t94.5 38t93.5 -37.5t37.5 -93.5t-38 -94t-93 -38q-56 0 -94.5 38zM207.5 530.5q19.5 19.5 19.5 51.5t-19.5 51.5t-49.5 19.5q-31 0 -50.5 -19.5t-19.5 -51.5t19.5 -51.5t50.5 -19.5q30 0 49.5 19.5z" />
    <glyph glyph-name="uni0410" unicode="&#x410;" horiz-adv-x="645" 
d="M468 141h-291l-47 -141h-125l249 700h138l248 -700h-124zM431 249l-108 320l-109 -320h217z" />
    <glyph glyph-name="uni0411" unicode="&#x411;" horiz-adv-x="585" 
d="M450.5 402q51.5 -28 80.5 -77t29 -110t-29 -110t-80.5 -77t-115.5 -28h-225h-40v700h115h315v-110h-315v-160h150q64 0 115.5 -28zM413.5 137.5q31.5 29.5 31.5 77.5t-31.5 77.5t-78.5 29.5h-150v-214h150q47 0 78.5 29.5z" />
    <glyph glyph-name="uni0412" unicode="&#x412;" horiz-adv-x="685" 
d="M621.5 348q33.5 -55 33.5 -123q0 -62 -29 -113.5t-79.5 -81.5t-112.5 -30h-339h-25v700h115h172q57 0 102.5 -24t70.5 -65.5t25 -93.5q0 -45 -25 -86q58 -28 91.5 -83zM185 592v-137h233q22 24 22 57q0 35 -22.5 57.5t-60.5 22.5h-172zM508 143q32 35 32 87
q0 53 -31.5 87.5t-88.5 34.5h-235v-244h234q57 0 89 35z" />
    <glyph glyph-name="uni0413" unicode="&#x413;" horiz-adv-x="480" 
d="M465 590h-280v-590h-115v700h395v-110z" />
    <glyph glyph-name="uni0403" unicode="&#x403;" horiz-adv-x="480" 
d="M465 590h-280v-590h-115v700h395v-110zM305 764l106 135h-130l-80 -135h104z" />
    <glyph glyph-name="uni0490" unicode="&#x490;" horiz-adv-x="480" 
d="M465 820v-175v-55h-280v-590h-115v700h280v120h115z" />
    <glyph glyph-name="uni0414" unicode="&#x414;" horiz-adv-x="675" 
d="M645 108v-108v-144h-115v144h-400v-144h-115v180v72h63q30 38 46.5 95.5t16.5 147.5v349h429v-592h75zM455 108v484h-199v-243q0 -157 -52 -241h251z" />
    <glyph glyph-name="uni0415" unicode="&#x415;" horiz-adv-x="515" 
d="M480 110v-110h-370h-40v700h115h290v-110h-290v-182h265v-108h-265v-190h295z" />
    <glyph glyph-name="uni0401" unicode="&#x401;" horiz-adv-x="515" 
d="M480 110v-110h-370h-40v700h115h290v-110h-290v-182h265v-108h-265v-190h295zM126 873h105v-105h-105v105zM316 873h105v-105h-105v105z" />
    <glyph glyph-name="uni0416" unicode="&#x416;" horiz-adv-x="886" 
d="M742 0l-241 328v-328h-115v328l-241 -328h-130l262 357l-252 343h130l231 -318v318h115v-318l231 318h129l-252 -343l262 -357h-129z" />
    <glyph glyph-name="uni0417" unicode="&#x417;" horiz-adv-x="540" 
d="M498 332q27 -50 27 -112q0 -67 -31 -120t-89 -83t-135 -30t-134.5 31.5t-89 85.5t-31.5 121h115q0 -56 36.5 -93t103.5 -37q68 0 104 35t36 90t-35 90t-97 35h-53v106h53q13 0 35 -2q42 29 42 76q0 36 -24 58t-69 22t-69 -22t-24 -58h-115q0 54 26 97t73 67t109 24
t109.5 -24t73 -65.5t25.5 -93.5q0 -31 -12.5 -61.5t-35.5 -55.5q49 -31 76 -81z" />
    <glyph glyph-name="uni0418" unicode="&#x418;" horiz-adv-x="640" 
d="M455 475l-295 -475h-90v700h115v-475l295 475h90v-700h-115v475z" />
    <glyph glyph-name="uni0419" unicode="&#x419;" horiz-adv-x="640" 
d="M455 475l-295 -475h-90v700h115v-475l295 475h90v-700h-115v475zM190 864h280v-94h-280v94z" />
    <glyph glyph-name="uni041A" unicode="&#x41a;" horiz-adv-x="603" 
d="M461 0l-276 333v-333h-115v700h115v-313l266 313h137l-284 -341l294 -359h-137z" />
    <glyph glyph-name="uni040C" unicode="&#x40c;" horiz-adv-x="603" 
d="M461 0l-276 333v-333h-115v700h115v-313l266 313h137l-284 -341l294 -359h-137zM335 764l106 135h-130l-80 -135h104z" />
    <glyph glyph-name="uni041B" unicode="&#x41b;" horiz-adv-x="643" 
d="M13 105q16 -2 24 -2q54 0 80.5 43.5t26.5 148.5v405h429v-700h-115v590h-199v-293q0 -300 -216 -300q-20 0 -30 1v107z" />
    <glyph glyph-name="uni041C" unicode="&#x41c;" horiz-adv-x="810" 
d="M740 0h-115v510l-175 -395h-90l-175 395v-510h-115v700h115h19l201 -452l201 452h134v-700z" />
    <glyph glyph-name="uni041D" unicode="&#x41d;" horiz-adv-x="635" 
d="M565 700v-700h-115v305h-265v-305h-115v700h115v-285h265v285h115z" />
    <glyph glyph-name="uni041E" unicode="&#x41e;" horiz-adv-x="796" 
d="M215.5 35.5q-83.5 48.5 -132 131.5t-48.5 183t48.5 183t132 131.5t182.5 48.5q100 0 183 -48.5t131.5 -131.5t48.5 -183t-48.5 -183t-131.5 -131.5t-183 -48.5q-99 0 -182.5 48.5zM524 131.5q57 32.5 89.5 90t32.5 128.5t-32.5 128.5t-89.5 90t-126 32.5t-126 -32.5
t-89.5 -90t-32.5 -128.5t32.5 -128.5t89.5 -90t126 -32.5t126 32.5z" />
    <glyph glyph-name="uni041F" unicode="&#x41f;" horiz-adv-x="635" 
d="M565 0h-115v590h-265v-590h-115v700h115h380v-700z" />
    <glyph glyph-name="uni0420" unicode="&#x420;" horiz-adv-x="585" 
d="M442.5 670q52.5 -30 82.5 -81.5t30 -113.5q0 -61 -30 -112.5t-82.5 -82t-114.5 -30.5h-143v-250h-115v700h115h143q62 0 114.5 -30zM407.5 392q32.5 34 32.5 83t-32.5 83t-79.5 34h-143v-234h143q47 0 79.5 34z" />
    <glyph glyph-name="uni0421" unicode="&#x421;" horiz-adv-x="756" 
d="M213 35q-84 48 -131 131t-47 184t47 184t131 131t188 48q80 0 150 -32t118.5 -89.5t66.5 -131.5h-121q-22 64 -81 102.5t-133 38.5t-131 -32.5t-88.5 -89.5t-31.5 -129t31.5 -129t88.5 -89.5t131 -32.5t133 38.5t81 102.5h121q-17 -73 -66 -130.5t-119 -90t-150 -32.5
q-104 0 -188 48z" />
    <glyph glyph-name="uni0422" unicode="&#x422;" horiz-adv-x="500" 
d="M485 590h-177v-590h-115v590h-178v110h293h177v-110z" />
    <glyph glyph-name="uni0423" unicode="&#x423;" horiz-adv-x="590" 
d="M580 700l-217 -520q-41 -97 -105 -141t-154 -39v107q8 -1 22 -1q49 0 80 24t52 74l-233 496h116l170 -369l153 369h116z" />
    <glyph glyph-name="uni040E" unicode="&#x40e;" horiz-adv-x="590" 
d="M580 700l-217 -520q-41 -97 -105 -141t-154 -39v107q8 -1 22 -1q49 0 80 24t52 74l-233 496h116l170 -369l153 369h116zM151 863h280v-94h-280v94z" />
    <glyph glyph-name="uni0424" unicode="&#x424;" horiz-adv-x="814" 
d="M700.5 155.5q-88.5 -73.5 -236.5 -85.5v-80h-113v80q-149 12 -237.5 85.5t-88.5 194.5t88.5 194.5t237.5 85.5v80h113v-80q148 -12 236.5 -85.5t88.5 -194.5t-88.5 -194.5zM194.5 228q54.5 -44 156.5 -53v350q-102 -9 -156.5 -53t-54.5 -122t54.5 -122zM619.5 228
q54.5 44 54.5 122t-54.5 122t-155.5 53v-350q101 9 155.5 53z" />
    <glyph glyph-name="uni0425" unicode="&#x425;" horiz-adv-x="590" 
d="M446 0l-151 252l-150 -252h-130l215 360l-202 340h129l138 -231l138 231h130l-203 -340l215 -360h-129z" />
    <glyph glyph-name="uni0427" unicode="&#x427;" horiz-adv-x="613" 
d="M543 700v-700h-115v262q-65 -26 -137 -26q-69 0 -122.5 26.5t-83.5 75t-30 112.5v250h115v-238q0 -54 33 -85t90 -31q73 0 135 26v328h115z" />
    <glyph glyph-name="uni0426" unicode="&#x426;" horiz-adv-x="670" 
d="M640 110v-254h-115v144h-455v700h115v-590h265v590h115v-590h75z" />
    <glyph glyph-name="uni0428" unicode="&#x428;" horiz-adv-x="905" 
d="M835 700v-700h-765v700h115v-590h210v590h115v-590h210v590h115z" />
    <glyph glyph-name="uni0429" unicode="&#x429;" horiz-adv-x="940" 
d="M910 110v-254h-115v144h-725v700h115v-590h210v590h115v-590h210v590h115v-590h75z" />
    <glyph glyph-name="uni040F" unicode="&#x40f;" horiz-adv-x="635" 
d="M565 700v-700h-115h-75v-144h-115v144h-150h-40v700h115v-590h265v590h115z" />
    <glyph glyph-name="uni042C" unicode="&#x42c;" horiz-adv-x="585" 
d="M442.5 419.5q52.5 -30.5 82.5 -82t30 -112.5t-30 -112.5t-82.5 -82t-114.5 -30.5h-218h-40v700h115v-250h143q62 0 114.5 -30.5zM407.5 142q32.5 34 32.5 83t-32.5 83t-79.5 34h-143v-234h143q47 0 79.5 34z" />
    <glyph glyph-name="uni042A" unicode="&#x42a;" horiz-adv-x="690" 
d="M175 590h-175v110h290v-250h143q62 0 114.5 -30.5t82.5 -82t30 -112.5t-30 -112.5t-82.5 -82t-114.5 -30.5h-258v590zM433 108q47 0 79.5 34t32.5 83t-32.5 83t-79.5 34h-143v-234h143z" />
    <glyph glyph-name="uni042B" unicode="&#x42b;" horiz-adv-x="808" 
d="M70 700h115v-250h143q62 0 114.5 -30.5t82.5 -82t30 -112.5t-30 -112.5t-82.5 -82t-114.5 -30.5h-258v700zM623 700h115v-700h-115v700zM328 108q47 0 79.5 34t32.5 83t-32.5 83t-79.5 34h-143v-234h143z" />
    <glyph glyph-name="uni0409" unicode="&#x409;" horiz-adv-x="933" 
d="M790 398q52 -27 82.5 -75.5t30.5 -109.5t-30.5 -109.5t-82.5 -76t-115 -27.5h-197h-40v590h-179v-293q0 -300 -216 -300q-20 0 -30 1v107q16 -2 24 -2q54 0 80.5 43.5t26.5 148.5v405h409v-275h122q63 0 115 -27zM756 136.5q32 28.5 32 76.5t-32 76t-81 28h-122v-209h122
q49 0 81 28.5z" />
    <glyph glyph-name="uni040A" unicode="&#x40a;" horiz-adv-x="925" 
d="M783 398q52 -27 82 -75.5t30 -109.5t-30 -109.5t-82 -76t-115 -27.5h-198h-40v317h-245v-317h-115v700h115v-275h245v275h115v-275h123q63 0 115 -27zM748.5 136.5q31.5 28.5 31.5 76.5t-31.5 76t-80.5 28h-123v-209h123q49 0 80.5 28.5z" />
    <glyph glyph-name="uni0405" unicode="&#x405;" horiz-adv-x="548" 
d="M155 12.5q-57 25.5 -91 76t-34 123.5h115q0 -55 36 -84t101 -29q56 0 88.5 24t32.5 64q0 39 -33.5 62.5t-100.5 47.5q-75 27 -117.5 48t-74.5 63t-32 109q0 61 31 105.5t81.5 67.5t109.5 23q62 0 115 -24.5t84.5 -73.5t31.5 -119h-115q0 51 -31 78t-85 27
q-48 0 -77.5 -23t-29.5 -61q0 -42 31.5 -66t95.5 -47q81 -30 122.5 -50t75 -61t33.5 -106q0 -62 -32 -107.5t-86 -69t-118 -23.5q-70 0 -127 25.5z" />
    <glyph glyph-name="uni0404" unicode="&#x404;" horiz-adv-x="751" 
d="M529.5 137.5q57.5 38.5 77.5 102.5h122q-16 -74 -63.5 -131.5t-118.5 -89.5t-156 -32q-103 0 -184.5 48t-126.5 131t-45 184t45 184t126.5 131t184.5 48q85 0 155.5 -32t118 -89.5t64.5 -131.5h-122q-21 65 -78 103t-138 38q-95 0 -158 -54t-78 -143h336v-108h-336
q15 -89 78 -143t158 -54q81 0 138.5 38.5z" />
    <glyph glyph-name="uni042D" unicode="&#x42d;" horiz-adv-x="751" 
d="M545 665q81 -48 126 -131t45 -184t-45 -184t-126 -131t-184 -48q-85 0 -156 32t-118.5 89.5t-63.5 131.5h121q21 -65 78.5 -103t138.5 -38q94 0 157 54t78 143h-336v108h336q-15 89 -78 143t-157 54q-81 0 -138.5 -38t-78.5 -103h-121q16 74 63.5 131.5t118.5 89.5
t156 32q103 0 184 -48z" />
    <glyph glyph-name="uni0406" unicode="&#x406;" horiz-adv-x="255" 
d="M185 700v-700h-115v700h115z" />
    <glyph glyph-name="uni0407" unicode="&#x407;" horiz-adv-x="255" 
d="M185 700v-700h-115v700h115zM-20 873h105v-105h-105v105zM170 873h105v-105h-105v105z" />
    <glyph glyph-name="uni0408" unicode="&#x408;" horiz-adv-x="535" 
d="M131.5 11q-52.5 24 -84.5 73t-32 120v15h115v-15q0 -52 31 -78.5t84 -26.5t84 26.5t31 78.5v496h115v-496q0 -71 -31.5 -120t-84 -73t-114.5 -24q-61 0 -113.5 24z" />
    <glyph glyph-name="uni040B" unicode="&#x40b;" horiz-adv-x="667" 
d="M565.5 413.5q51.5 -49.5 51.5 -143.5v-270h-115v261q0 50 -25 74t-68 24q-48 0 -106 -24v-335h-115v590h-173v110h288h207v-110h-207v-153q62 26 125 26q86 0 137.5 -49.5z" />
    <glyph glyph-name="uni042E" unicode="&#x42e;" horiz-adv-x="1050" 
d="M835 664.5q83 -48.5 131.5 -131.5t48.5 -183q0 -99 -48.5 -182.5t-131.5 -132t-183 -48.5q-92 0 -169.5 41.5t-127 114t-59.5 162.5h-111v-305h-115v700h115v-285h113q15 85 65 153t125.5 106.5t163.5 38.5q100 0 183 -48.5zM778 131.5q57 32.5 89.5 90t32.5 128.5
t-32.5 128.5t-89.5 90t-126 32.5t-126 -32.5t-89.5 -89.5t-32.5 -129q0 -71 32.5 -128.5t89.5 -90t126 -32.5t126 32.5z" />
    <glyph glyph-name="uni042F" unicode="&#x42f;" horiz-adv-x="630" 
d="M560 0h-115v255h-82l-213 -255h-140l226 265q-71 20 -116 78.5t-45 131.5q0 62 30.5 113.5t83 81.5t114.5 30h257v-700zM445 358v234h-140q-48 0 -81.5 -34t-33.5 -83t34 -83t81 -34h140z" />
    <glyph glyph-name="uni0402" unicode="&#x402;" horiz-adv-x="662" 
d="M565.5 413.5q51.5 -49.5 51.5 -143.5v-86q0 -194 -179 -194q-17 0 -26 1v107q6 -1 18 -1q39 0 55.5 20.5t16.5 66.5v77q0 50 -25 74t-68 24q-48 0 -106 -24v-335h-115v590h-173v110h288h207v-110h-207v-153q62 26 125 26q86 0 137.5 -49.5z" />
    <glyph glyph-name="uni0414.loclBGR" horiz-adv-x="720" 
d="M700 108v-108v-144h-115v144h-404h-46v-144h-115v180v72h74l197 592h138l197 -592h74zM505 108l-145 459l-145 -459h290z" />
    <glyph glyph-name="uni041B.loclBGR" horiz-adv-x="624" 
d="M381 700l238 -700h-124l-183 564l-182 -564h-125l238 700h138z" />
    <glyph glyph-name="uni0424.loclBGR" horiz-adv-x="854" 
d="M777.5 172.5q-41.5 -77.5 -118 -124.5t-177.5 -57v-91h-110v91q-101 10 -177.5 57t-118 124.5t-41.5 177.5t41.5 177.5t118 124.5t177.5 57v91h110v-91q101 -10 177.5 -57t118 -124.5t41.5 -177.5t-41.5 -177.5zM207.5 176q57.5 -66 164.5 -80v508q-107 -14 -164.5 -80
t-57.5 -174t57.5 -174zM646.5 176q57.5 66 57.5 174t-57.5 174t-164.5 80v-508q107 14 164.5 80z" />
    <glyph glyph-name="uni0414.ss01" horiz-adv-x="675" 
d="M645 108v-108h-190h-440v108h63q30 38 46.5 95.5t16.5 147.5v349h429v-592h75zM455 108v484h-199v-243q0 -157 -52 -241h251z" />
    <glyph glyph-name="uni0426.ss01" horiz-adv-x="670" 
d="M640 110v-110h-570v700h115v-590h265v590h115v-590h75z" />
    <glyph glyph-name="uni0429.ss01" horiz-adv-x="940" 
d="M910 110v-110h-840v700h115v-590h210v590h115v-590h210v590h115v-590h75z" />
    <glyph glyph-name="uni0414.loclBGR.ss01" horiz-adv-x="720" 
d="M700 108v-108h-160h-482h-38v108h74l197 592h138l197 -592h74zM505 108l-145 459l-145 -459h290z" />
    <glyph glyph-name="uni0430" unicode="&#x430;" horiz-adv-x="505" 
d="M399 462q56 -51 56 -142v-320h-106v47q-48 -60 -142 -60q-72 0 -122 41.5t-50 117.5t50 117t122 41q91 0 142 -51v62q0 50 -25 73.5t-68 23.5q-41 0 -67 -20.5t-26 -56.5h-106q0 54 26.5 94.5t71.5 62t101 21.5q87 0 143 -51zM319.5 92q29.5 21 29.5 54q0 34 -29.5 54
t-77.5 20q-49 0 -74 -20t-25 -54t25 -54.5t74 -20.5q48 0 77.5 21z" />
    <glyph glyph-name="uni0431" unicode="&#x431;" horiz-adv-x="565" 
d="M160.5 20q-58.5 33 -92 91.5t-33.5 132.5q0 82 31.5 143t74.5 100t109 85q59 41 86 68t27 60h114q0 -48 -21 -82.5t-51.5 -57t-84.5 -53.5q-55 -31 -88 -55.5t-54 -59.5q56 55 140 55q57 0 108.5 -28.5t83.5 -80t32 -117.5q0 -67 -32 -120t-89 -83.5t-129 -30.5
q-73 0 -131.5 33zM394 125.5q40 37.5 40 95.5t-41.5 96.5t-104.5 38.5q-36 0 -69 -15.5t-53.5 -45t-20.5 -69.5q0 -61 42.5 -99.5t104.5 -38.5t102 37.5z" />
    <glyph glyph-name="uni0432" unicode="&#x432;" horiz-adv-x="525" 
d="M485.5 243q22.5 -36 22.5 -82q0 -70 -46.5 -115.5t-133.5 -45.5h-265v232v268h103h117q48 0 84.5 -18t56 -49t19.5 -69q0 -34 -21 -66q41 -19 63.5 -55zM166 317h162h2q10 17 10 33q0 29 -19.5 45t-50.5 15h-104v-93zM380.5 111q21.5 19 21.5 52t-21 51t-61 18h-154v-140
h154q39 0 60.5 19z" />
    <glyph glyph-name="uni0433" unicode="&#x433;" horiz-adv-x="380" 
d="M378 396h-207v-396h-108v500h315v-104z" />
    <glyph glyph-name="uni0453" unicode="&#x453;" horiz-adv-x="380" 
d="M378 396h-207v-396h-108v500h315v-104zM235 565l106 135h-130l-80 -135h104z" />
    <glyph glyph-name="uni0491" unicode="&#x491;" horiz-adv-x="380" 
d="M378 602v-206h-207v-396h-108v500h209v102h106z" />
    <glyph glyph-name="uni0434" unicode="&#x434;" horiz-adv-x="575" 
d="M550 99v-99v-144h-106v144h-323v-144h-106v180v63h59q24 33 36 75t12 109v217h106h208h47v-401h67zM377 99v302h-149v-118q0 -111 -34 -184h183z" />
    <glyph glyph-name="uni0435" unicode="&#x435;" horiz-adv-x="574" 
d="M200.5 112q41.5 -32 100.5 -32q40 0 72 17t46 44l110 1q-23 -72 -84.5 -113.5t-145.5 -41.5q-78 0 -138 34t-93 94t-33 135q0 74 33 134t93 94.5t136 34.5q73 0 129.5 -35.5t87.5 -96t31 -132.5q0 -17 -4 -45h-394q12 -60 53.5 -92zM436 293q-10 60 -48.5 91t-90.5 31
q-60 0 -100 -33t-51 -89h290z" />
    <glyph glyph-name="uni0451" unicode="&#x451;" horiz-adv-x="574" 
d="M200.5 112q41.5 -32 100.5 -32q40 0 72 17t46 44l110 1q-23 -72 -84.5 -113.5t-145.5 -41.5q-78 0 -138 34t-93 94t-33 135q0 74 33 134t93 94.5t136 34.5q73 0 129.5 -35.5t87.5 -96t31 -132.5q0 -17 -4 -45h-394q12 -60 53.5 -92zM436 293q-10 60 -48.5 91t-90.5 31
q-60 0 -100 -33t-51 -89h290zM150 676h105v-105h-105v105zM340 676h105v-105h-105v105z" />
    <glyph glyph-name="uni0436" unicode="&#x436;" horiz-adv-x="722" 
d="M584 0l-170 230v-230h-106v230l-170 -230h-123l195 255l-185 245h123l160 -220v220h106v-220l160 220h123l-185 -245l195 -255h-123z" />
    <glyph glyph-name="uni0437" unicode="&#x437;" horiz-adv-x="430" 
d="M395.5 229q17.5 -33 17.5 -74q0 -46 -23 -84.5t-68 -61t-107 -22.5q-93 0 -145 48t-52 123h107q0 -35 23.5 -54t66.5 -19t67 19.5t24 54.5q0 32 -24.5 51.5t-66.5 19.5h-42v85h46q18 0 26 -1q28 21 28 49q0 27 -18 40.5t-47 13.5t-47 -14.5t-18 -43.5h-105q0 71 46 112.5
t126 41.5q77 0 122.5 -41t45.5 -102q0 -50 -34 -86q34 -22 51.5 -55z" />
    <glyph glyph-name="uni0438" unicode="&#x438;" horiz-adv-x="540" 
d="M478 500v-500h-106v320l-226 -320h-83v500h106v-320l226 320h83z" />
    <glyph glyph-name="uni0439" unicode="&#x439;" horiz-adv-x="540" 
d="M478 500v-500h-106v320l-226 -320h-83v500h106v-320l226 320h83zM130 664h280v-94h-280v94z" />
    <glyph glyph-name="uni043A" unicode="&#x43a;" horiz-adv-x="510" 
d="M371 0l-200 231v-231h-108v500h108v-221l190 221h129l-214 -245l224 -255h-129z" />
    <glyph glyph-name="uni045C" unicode="&#x45c;" horiz-adv-x="510" 
d="M371 0l-200 231v-231h-108v500h108v-221l190 221h129l-214 -245l224 -255h-129zM290 565l106 135h-130l-80 -135h104z" />
    <glyph glyph-name="uni043B" unicode="&#x43b;" horiz-adv-x="523" 
d="M460 0h-108v396h-142v-186q0 -215 -179 -215l-21 1v101l14 -1q39 0 58.5 28t19.5 91v285h108h250v-500z" />
    <glyph glyph-name="uni043C" unicode="&#x43c;" horiz-adv-x="645" 
d="M583 0h-105v336l-123 -240h-64l-123 240v-336h-105v500h105h11l144 -281l144 281h116v-500z" />
    <glyph glyph-name="uni043D" unicode="&#x43d;" horiz-adv-x="541" 
d="M478 500v-500h-108v199h-199v-199h-108v500h108v-199h199v199h108z" />
    <glyph glyph-name="uni043E" unicode="&#x43e;" horiz-adv-x="598" 
d="M166.5 22q-60.5 35 -96 95t-35.5 133t35.5 133.5t96 95t132.5 34.5q73 0 133.5 -34.5t95.5 -95t35 -133.5t-35 -133t-96 -95t-133 -35t-132.5 35zM378.5 112.5q35.5 20.5 56 56.5t20.5 81t-20.5 81t-56 56.5t-79.5 20.5t-79.5 -20.5t-56 -56.5t-20.5 -81t20.5 -81
t56 -56.5t79.5 -20.5t79.5 20.5z" />
    <glyph glyph-name="uni043F" unicode="&#x43f;" horiz-adv-x="540" 
d="M478 0h-108v398h-199v-398h-108v500h108h307v-500z" />
    <glyph glyph-name="uni0440" unicode="&#x440;" horiz-adv-x="630" 
d="M470.5 478.5q57.5 -34.5 91 -95t33.5 -133.5t-33.5 -133t-91 -95t-124.5 -35q-57 0 -101.5 22t-73.5 63v-272h-108v700h108v-71q29 40 73.5 62t101.5 22q67 0 124.5 -34.5zM410 110.5q36 20.5 56.5 57t20.5 82.5t-20.5 82.5t-56.5 57t-81 20.5q-65 0 -109.5 -41.5
t-48.5 -105.5v-26q4 -64 48.5 -105.5t109.5 -41.5q45 0 81 20.5z" />
    <glyph glyph-name="uni0441" unicode="&#x441;" horiz-adv-x="568" 
d="M498.5 78q-35.5 -43 -87.5 -67t-112 -24q-74 0 -134.5 35t-95 95t-34.5 133q0 74 34.5 134t95 94.5t134.5 34.5q60 0 112 -24t87.5 -66.5t47.5 -97.5h-114q-16 38 -51.5 60t-81.5 22q-43 0 -79 -20.5t-56.5 -56.5t-20.5 -80t20.5 -80t56.5 -56.5t79 -20.5q46 0 82 22.5
t51 59.5h114q-12 -54 -47.5 -97z" />
    <glyph glyph-name="uni0442" unicode="&#x442;" horiz-adv-x="415" 
d="M405 398h-143v-398h-108v398h-144v102h252h143v-102z" />
    <glyph glyph-name="uni0443" unicode="&#x443;" horiz-adv-x="490" 
d="M485 500l-177 -516q-33 -95 -96.5 -142t-147.5 -42v101q52 -3 83.5 21t49.5 75l3 8l-195 495h115l136 -355l114 355h115z" />
    <glyph glyph-name="uni045E" unicode="&#x45e;" horiz-adv-x="490" 
d="M485 500l-177 -516q-33 -95 -96.5 -142t-147.5 -42v101q52 -3 83.5 21t49.5 75l3 8l-195 495h115l136 -355l114 355h115zM105 664h280v-94h-280v94z" />
    <glyph glyph-name="uni0444" unicode="&#x444;" horiz-adv-x="680" 
d="M614.5 128q-30.5 -55 -87.5 -91t-134 -46v-191h-106v191q-77 10 -134 46t-87.5 91t-30.5 122t30.5 122t87.5 91t134 46v191h106v-191q77 -10 134 -46t87.5 -91t30.5 -122t-30.5 -122zM180 149q38 -42 107 -55v312q-69 -13 -107 -55t-38 -101t38 -101zM500 149
q38 42 38 101t-38 101t-107 55v-312q69 13 107 55z" />
    <glyph glyph-name="uni0445" unicode="&#x445;" horiz-adv-x="467" 
d="M339 0l-106 167l-107 -167h-116l165 257l-155 243h116l97 -152l97 152h116l-155 -243l164 -257h-116z" />
    <glyph glyph-name="uni0447" unicode="&#x447;" horiz-adv-x="508" 
d="M445 500v-500h-108v169q-54 -22 -116 -22q-82 0 -131.5 44.5t-49.5 126.5v182h108v-172q0 -80 88 -80q51 0 101 22v230h108z" />
    <glyph glyph-name="uni0446" unicode="&#x446;" horiz-adv-x="570" 
d="M545 102v-246h-106v144h-376v500h108v-398h184v398h108v-398h82z" />
    <glyph glyph-name="uni0448" unicode="&#x448;" horiz-adv-x="765" 
d="M703 500v-500h-108h-266h-223h-43v500h108v-398h158v398h108v-398h158v398h108z" />
    <glyph glyph-name="uni0449" unicode="&#x449;" horiz-adv-x="785" 
d="M760 102v-102v-144h-106v144h-222h-261h-108v500h108v-398h153v398h108v-398h153v398h108v-398h67z" />
    <glyph glyph-name="uni045F" unicode="&#x45f;" horiz-adv-x="540" 
d="M478 500v-500h-108h-47v-144h-106v144h-111h-43v500h108v-398h199v398h108z" />
    <glyph glyph-name="uni044C" unicode="&#x44c;" horiz-adv-x="488" 
d="M412 284.5q51 -45.5 51 -119.5q0 -48 -23.5 -85.5t-64.5 -58.5t-94 -21h-186h-32v500h108v-170h110q80 0 131 -45.5zM335.5 116q21.5 19 21.5 49q0 31 -21.5 49.5t-53.5 18.5h-111v-136h111q32 0 53.5 19z" />
    <glyph glyph-name="uni044A" unicode="&#x44a;" horiz-adv-x="563" 
d="M487 284.5q51 -45.5 51 -119.5q0 -48 -23.5 -85.5t-64.5 -58.5t-94 -21h-186h-32v398h-138v102h180h66v-170h110q80 0 131 -45.5zM410.5 116q21.5 19 21.5 49q0 31 -21.5 49.5t-53.5 18.5h-111v-136h111q32 0 53.5 19z" />
    <glyph glyph-name="uni044B" unicode="&#x44b;" horiz-adv-x="693" 
d="M412 284.5q51 -45.5 51 -119.5q0 -48 -23.5 -85.5t-64.5 -58.5t-94 -21h-186h-32v500h108v-170h110q80 0 131 -45.5zM335.5 116q21.5 19 21.5 49q0 31 -21.5 49.5t-53.5 18.5h-111v-136h111q32 0 53.5 19zM523 500h108v-500h-108v500z" />
    <glyph glyph-name="uni0459" unicode="&#x459;" horiz-adv-x="747" 
d="M674 272.5q48 -42.5 48 -114.5q0 -73 -48 -115.5t-123 -42.5h-177h-32v396h-132v-186q0 -215 -179 -215l-21 1v101l14 -1q39 0 58.5 28t19.5 91v285h108h193h47v-185h101q75 0 123 -42.5zM597.5 112.5q18.5 15.5 18.5 45.5q0 29 -18.5 44.5t-46.5 15.5h-101v-121h101
q28 0 46.5 15.5z" />
    <glyph glyph-name="uni045A" unicode="&#x45a;" horiz-adv-x="760" 
d="M687 272.5q48 -42.5 48 -114.5q0 -73 -48.5 -115.5t-123.5 -42.5h-176h-32v213h-189v-213h-108v500h108v-185h189v185h108v-185h100q76 0 124 -42.5zM610.5 112.5q18.5 15.5 18.5 45.5q0 29 -19 44.5t-46 15.5h-101v-121h101q28 0 46.5 15.5z" />
    <glyph glyph-name="uni0455" unicode="&#x455;" horiz-adv-x="473" 
d="M181 318.5q25 -12.5 81 -26.5q53 -12 87.5 -25.5t59 -44t24.5 -81.5q0 -72 -55.5 -113t-140.5 -41q-87 0 -142 44t-55 124h106q0 -36 24.5 -53.5t66.5 -17.5q40 0 64 14.5t24 42.5q0 27 -25.5 40t-79.5 27q-53 12 -87.5 26t-59.5 44.5t-25 81.5q0 70 54.5 111.5
t134.5 41.5q79 0 132.5 -44t53.5 -123h-106q0 35 -23 52.5t-57 17.5q-36 0 -58.5 -14.5t-22.5 -41.5q0 -29 25 -41.5z" />
    <glyph glyph-name="uni0454" unicode="&#x454;" horiz-adv-x="564" 
d="M380 112q38 24 53 63h111q-12 -54 -47.5 -97t-88 -67t-112.5 -24q-74 0 -133.5 34.5t-93.5 95t-34 133.5q0 74 34 134t93.5 94.5t133.5 34.5q60 0 112 -24t88 -66.5t48 -97.5h-111q-16 40 -54 64t-86 24q-53 0 -92.5 -31t-53.5 -82h197v-99h-198q14 -51 54 -82t93 -31
q49 0 87 24z" />
    <glyph glyph-name="uni044D" unicode="&#x44d;" horiz-adv-x="564" 
d="M402.5 478.5q59.5 -34.5 93 -94.5t33.5 -134q0 -73 -33.5 -133.5t-93 -95t-133.5 -34.5q-60 0 -112.5 24t-88.5 67t-48 97h112q14 -39 52.5 -63t87.5 -24q53 0 92.5 31t53.5 82h-198v99h198q-15 51 -54 82t-92 31q-49 0 -87 -24t-53 -64h-112q12 55 48 97.5t88.5 66.5
t112.5 24q74 0 133.5 -34.5z" />
    <glyph glyph-name="uni0456" unicode="&#x456;" horiz-adv-x="233" 
d="M63 700h108v-120h-108v120zM63 500h108v-500h-108v500z" />
    <glyph glyph-name="uni0457" unicode="&#x457;" horiz-adv-x="233" 
d="M63 500h108v-500h-108v500zM-31 673h105v-105h-105v105zM159 673h105v-105h-105v105z" />
    <glyph glyph-name="uni0458" unicode="&#x458;" horiz-adv-x="253" 
d="M190 700v-120h-108v120h108zM82 500h108v-520q0 -194 -178 -194q-18 0 -27 1v104q6 -1 18 -1q41 0 60 21.5t19 68.5v520z" />
    <glyph glyph-name="uni045B" unicode="&#x45b;" horiz-adv-x="535" 
d="M404.5 490q37.5 -23 59 -66t21.5 -102v-322h-108v316q0 46 -25 71t-66 25q-47 0 -77.5 -30t-30.5 -95v-287h-108v561h-65v74h65v65h108v-65h142v-74h-142v-118q46 70 142 70q47 0 84.5 -23z" />
    <glyph glyph-name="uni044E" unicode="&#x44e;" horiz-adv-x="808" 
d="M641.5 478.5q60.5 -34.5 96 -95t35.5 -133.5t-35.5 -133t-96 -95t-132.5 -35q-64 0 -118 27t-90.5 75.5t-47.5 109.5h-82v-199h-108v500h108v-199h82q11 61 47.5 109.5t90.5 75.5t118 27q72 0 132.5 -34.5zM588.5 112.5q35.5 20.5 56 56.5t20.5 81t-20.5 81t-56 56.5
t-79.5 20.5t-79.5 -20.5t-56 -56.5t-20.5 -81t20.5 -81t56 -56.5t79.5 -20.5t79.5 20.5z" />
    <glyph glyph-name="uni044F" unicode="&#x44f;" horiz-adv-x="513" 
d="M450 0h-106v168h-65l-142 -168h-127l152 179q-51 18 -81.5 60t-30.5 95q0 45 22.5 83t62.5 60.5t92 22.5h223v-500zM344 261v141h-111q-33 0 -55 -19t-22 -52q0 -32 22 -51t55 -19h111z" />
    <glyph glyph-name="uni0452" unicode="&#x452;" horiz-adv-x="530" 
d="M404.5 490q37.5 -23 59 -66t21.5 -102v-342q0 -194 -178 -194q-18 0 -27 1v104q6 -1 18 -1q41 0 60 21.5t19 68.5v336q0 46 -25 71t-66 25q-47 0 -77.5 -30t-30.5 -95v-287h-108v561h-65v74h65v65h108v-65h142v-74h-142v-118q46 70 142 70q47 0 84.5 -23z" />
    <glyph glyph-name="uni0432.loclBGR" horiz-adv-x="568" 
d="M501.5 333q31.5 -51 31.5 -124q0 -104 -62 -163t-173 -59q-109 0 -172 65.5t-63 176.5v237q0 74 27.5 130t78 86.5t118.5 30.5q86 0 138.5 -47t52.5 -125q0 -70 -66 -135q58 -22 89.5 -73zM202 571.5q-31 -39.5 -31 -105.5v-66l66 14q37 8 68 8q67 53 67 109
q0 36 -22.5 58t-62.5 22q-54 0 -85 -39.5zM391.5 122q33.5 31 33.5 87q0 54 -34 83.5t-94 29.5q-29 0 -60 -7l-66 -14v-72q0 -64 34 -101t93 -37q60 0 93.5 31z" />
    <glyph glyph-name="uni0433.loclBGR" horiz-adv-x="453" 
d="M423 155q0 -80 -55 -124t-140 -44q-89 0 -143.5 38.5t-54.5 111.5q0 51 24.5 82t58.5 45t88 28q54 13 79.5 27t25.5 42t-21.5 41.5t-55.5 13.5q-36 0 -60.5 -18t-24.5 -53h-106q0 53 25.5 91t69 57.5t95.5 19.5q79 0 132.5 -40.5t53.5 -111.5q0 -51 -24.5 -81.5
t-58.5 -44.5t-88 -29q-54 -13 -79.5 -27t-25.5 -42q0 -29 22.5 -41t66.5 -12q41 0 65.5 17.5t24.5 53.5h106z" />
    <glyph glyph-name="uni0434.loclBGR" horiz-adv-x="627" 
d="M567 500v-477q0 -77 -35.5 -130t-93.5 -79.5t-125 -26.5q-64 0 -120.5 24t-91 68t-34.5 103h108q0 -24 16.5 -46.5t48 -36.5t73.5 -14q70 0 109 36.5t39 101.5v61q-29 -42 -73.5 -64.5t-103.5 -22.5q-67 0 -124 34.5t-91 94t-34 129.5q0 71 33.5 130t91 93.5t124.5 34.5
q59 0 103.5 -22.5t73.5 -64.5v74h106zM383.5 118.5q36.5 20.5 57 56.5t20.5 80t-20.5 80t-57 56.5t-81.5 20.5t-81.5 -20.5t-57 -56.5t-20.5 -80t20.5 -80t57 -56.5t81.5 -20.5t81.5 20.5z" />
    <glyph glyph-name="uni0436.loclBGR" horiz-adv-x="722" 
d="M584 0l-170 229v-229h-106v229l-170 -229h-123l195 255l-185 245h123l160 -218v418h106v-418l160 218h123l-185 -245l195 -255h-123z" />
    <glyph glyph-name="uni0438.loclBGR" 
d="M466 500v-500h-108v57q-46 -70 -142 -70q-47 0 -84.5 23t-59 66t-21.5 102v322h108v-315q0 -47 25 -72t66 -25q47 0 77.5 30.5t30.5 94.5v287h108z" />
    <glyph glyph-name="uni0439.loclBGR" 
d="M466 500v-500h-108v57q-46 -70 -142 -70q-47 0 -84.5 23t-59 66t-21.5 102v322h108v-315q0 -47 25 -72t66 -25q47 0 77.5 30.5t30.5 94.5v287h108zM125 664h280v-94h-280v94z" />
    <glyph glyph-name="uni043A.loclBGR" horiz-adv-x="510" 
d="M371 0l-200 231v-231h-108v700h108v-421l190 221h129l-214 -245l224 -255h-129z" />
    <glyph glyph-name="uni043B.loclBGR" horiz-adv-x="490" 
d="M370 0l-125 372l-125 -372h-115l183 500h100h15l182 -500h-115z" />
    <glyph glyph-name="uni043F.loclBGR" 
d="M397.5 490q37.5 -23 59 -66t21.5 -102v-322h-108v316q0 46 -25.5 71t-66.5 25q-46 0 -76.5 -30t-30.5 -95v-287h-108v500h108v-57q46 70 142 70q47 0 84.5 -23z" />
    <glyph glyph-name="uni0442.loclBGR" horiz-adv-x="768" 
d="M674.5 467q43.5 -46 43.5 -130v-337h-108v331q0 42 -21 61.5t-55 19.5q-36 0 -63 -24.5t-27 -80.5v-307h-108v331q0 42 -21 61.5t-54 19.5q-36 0 -63 -24.5t-27 -80.5v-307h-108v500h108v-52q42 65 124 65q40 0 73 -18.5t52 -53.5q52 72 141 72q70 0 113.5 -46z" />
    <glyph glyph-name="uni0446.loclBGR" horiz-adv-x="566" 
d="M541 102v-102v-144h-106v151q-41 12 -62 50q-50 -70 -150 -70q-49 0 -88.5 23t-62 66t-22.5 102v322h108v-315q0 -47 25.5 -72t66.5 -25q46 0 76.5 30.5t30.5 94.5v287h108v-365q0 -15 9 -24t25 -9h42z" />
    <glyph glyph-name="uni0448.loclBGR" horiz-adv-x="768" 
d="M706 500v-500h-108v52q-23 -33 -55 -49t-70 -16q-40 0 -73 18.5t-52 53.5q-50 -72 -141 -72q-70 0 -113 46t-43 130v337h108v-330q0 -42 21 -62t54 -20q36 0 63 25t27 80v307h108v-330q0 -42 21 -62t55 -20q36 0 63 25t27 80v307h108z" />
    <glyph glyph-name="uni0449.loclBGR" horiz-adv-x="806" 
d="M781 102v-102v-144h-106v151q-42 12 -62 49q-48 -69 -140 -69q-41 0 -73.5 18.5t-52.5 53.5q-50 -72 -140 -72q-70 0 -113.5 46t-43.5 130v337h108v-330q0 -42 21 -62t55 -20q36 0 63 25t27 80v307h108v-330q0 -42 21 -62t54 -20q36 0 63 25t27 80v307h108v-365
q0 -15 9 -24t25 -9h42z" />
    <glyph glyph-name="uni044C.loclBGR" horiz-adv-x="485" 
d="M408 306.5q52 -46.5 52 -131.5q0 -52 -26 -95t-72.5 -68t-106.5 -25q-95 0 -150 53t-55 140v320h106v-147h104q96 0 148 -46.5zM326 115.5q28 26.5 28 60.5q0 37 -24.5 58.5t-69.5 21.5h-104v-76q0 -38 27 -64.5t72 -26.5q43 0 71 26.5z" />
    <glyph glyph-name="uni044A.loclBGR" horiz-adv-x="574" 
d="M496 306.5q52 -46.5 52 -131.5q0 -52 -26 -95t-72.5 -68t-106.5 -25q-95 0 -150 53t-55 140v218h-138v102h180h64v-147h104q96 0 148 -46.5zM414 115.5q28 26.5 28 60.5q0 37 -24.5 58.5t-69.5 21.5h-104v-76q0 -38 27 -64.5t72 -26.5q43 0 71 26.5z" />
    <glyph glyph-name="uni044E.loclBGR" horiz-adv-x="808" 
d="M641.5 478.5q60.5 -34.5 96 -95t35.5 -133.5t-35.5 -133t-96 -95t-132.5 -35q-64 0 -118 27t-90.5 75.5t-47.5 109.5h-82v-199h-108v700h108v-399h82q11 61 47.5 109.5t90.5 75.5t118 27q72 0 132.5 -34.5zM588.5 112.5q35.5 20.5 56 56.5t20.5 81t-20.5 81t-56 56.5
t-79.5 20.5t-79.5 -20.5t-56 -56.5t-20.5 -81t20.5 -81t56 -56.5t79.5 -20.5t79.5 20.5z" />
    <glyph glyph-name="uni0430.ss01" horiz-adv-x="630" 
d="M567 500v-500h-108v72q-29 -41 -73.5 -63t-101.5 -22q-67 0 -124.5 35t-91 95t-33.5 133t33.5 133.5t91 95t124.5 34.5q57 0 101.5 -22t73.5 -63v72h108zM382 110.5q36 20.5 56.5 57t20.5 82.5t-20.5 82.5t-56.5 57t-81 20.5t-81 -20.5t-56.5 -57t-20.5 -82.5t20.5 -82.5
t56.5 -57t81 -20.5t81 20.5z" />
    <glyph glyph-name="uni0443.ss01" 
d="M465 500v-520q0 -94 -56.5 -143.5t-144.5 -49.5q-56 0 -101.5 20t-71.5 58t-26 90h106q0 -34 26 -53.5t66 -19.5q43 0 68.5 24t25.5 74v77q-46 -70 -142 -70q-47 0 -84.5 23t-59 66t-21.5 102v322h108v-315q0 -47 25.5 -72t66.5 -25q46 0 76.5 30.5t30.5 94.5v287h108z
" />
    <glyph glyph-name="uni0394" unicode="&#x394;" horiz-adv-x="645" 
d="M640 0h-124h-411h-100l249 700h138zM479 108l-156 461l-157 -461h313z" />
    <glyph glyph-name="uni03A9" unicode="&#x3a9;" horiz-adv-x="786" 
d="M724 219q-32 -65 -89 -109h108v-110h-275v110q77 23 125 88t48 152q0 71 -32.5 128.5t-89.5 90t-126 32.5t-126 -32.5t-89.5 -90t-32.5 -128.5q0 -87 48 -152t126 -88v-110h-276v110h107q-56 44 -88 109t-32 141q0 97 48.5 178t131.5 128t183 47t183 -47t131.5 -128
t48.5 -178q0 -76 -32 -141z" />
    <glyph glyph-name="pi" unicode="&#x3c0;" horiz-adv-x="630" 
d="M605 398h-80v-398h-108v398h-199v-398h-108v398h-85v102h193h307h80v-102z" />
    <glyph glyph-name="zero" unicode="0" horiz-adv-x="630" 
d="M167 32.5q-62 45.5 -94.5 127.5t-32.5 190t32.5 190t94.5 127.5t148 45.5t148 -45.5t94.5 -127.5t32.5 -190t-32.5 -190t-94.5 -127.5t-148 -45.5t-148 45.5zM434 164q41 65 41 186t-41 186t-119 65q-77 0 -118.5 -65t-41.5 -186t41.5 -186t118.5 -65q78 0 119 65z" />
    <glyph glyph-name="one" unicode="1" horiz-adv-x="370" 
d="M295 700v-700h-115v582l-167 -91v118l167 91h115z" />
    <glyph glyph-name="two" unicode="2" horiz-adv-x="531" 
d="M35 90l243 244q90 92 90 159q0 51 -29.5 79.5t-75.5 28.5q-51 0 -82 -27.5t-31 -82.5h-115q0 73 31.5 123t83 74.5t111.5 24.5q58 0 108.5 -24.5t82 -74.5t31.5 -121q0 -107 -117 -224l-160 -158h290v-111h-461v90z" />
    <glyph glyph-name="three" unicode="3" horiz-adv-x="540" 
d="M457.5 343.5q47.5 -52.5 47.5 -131.5q0 -71 -33.5 -122t-89.5 -77t-122 -26t-122 26t-89.5 77t-33.5 122h115q0 -52 35.5 -82.5t94.5 -30.5q60 0 95 30.5t35 82.5t-35 82t-95 30h-66v76l143 192h-293v108h430v-98l-141 -187q77 -19 124.5 -71.5z" />
    <glyph glyph-name="four" unicode="4" horiz-adv-x="580" 
d="M568 126h-80v-126h-116v126h-349v107l241 467h125l-242 -467h225v182h116v-182h80v-107z" />
    <glyph glyph-name="five" unicode="5" horiz-adv-x="555" 
d="M403.5 410q54.5 -26 87 -77t32.5 -121q0 -71 -33.5 -122t-89.5 -77t-122 -26t-122 26t-89.5 77t-33.5 122h115q0 -52 35 -82.5t95 -30.5q59 0 94.5 30.5t35.5 82.5t-35.5 82t-94.5 30h-212l27 376h400v-108h-293l-12 -156h95q66 0 120.5 -26z" />
    <glyph glyph-name="six" unicode="6" horiz-adv-x="545" 
d="M401 434.5q56 -30.5 87.5 -84.5t31.5 -124t-31.5 -124t-87.5 -84.5t-128 -30.5t-128.5 30.5t-88 84.5t-31.5 124q0 80 42 141l222 333h131l-160 -235h13q72 0 128 -30.5zM368 131.5q37 35.5 37 94.5t-37 94.5t-95 35.5q-59 0 -96 -35.5t-37 -94.5t37 -94.5t96 -35.5
q58 0 95 35.5z" />
    <glyph glyph-name="seven" unicode="7" horiz-adv-x="490" 
d="M460 700v-100l-246 -600h-121l241 590h-319v110h445z" />
    <glyph glyph-name="eight" unicode="8" horiz-adv-x="561" 
d="M499 292q27 -44 27 -98q0 -96 -67 -151.5t-178 -55.5t-178.5 55.5t-67.5 151.5q0 54 27 98t76 71q-37 25 -58 62.5t-21 86.5q0 65 30.5 110.5t81 68t110.5 22.5t110.5 -22.5t81 -68t30.5 -110.5q0 -49 -21 -86.5t-59 -62.5q49 -27 76 -71zM204 579q-30 -25 -30 -72
q0 -45 30.5 -71t76.5 -26q45 0 76 26t31 71q0 47 -30.5 72t-76.5 25q-47 0 -77 -25zM375 124.5q36 28.5 36 80.5t-36 80.5t-94 28.5q-59 0 -95 -28.5t-36 -80.5t36 -80.5t95 -28.5q58 0 94 28.5z" />
    <glyph glyph-name="nine" unicode="9" horiz-adv-x="545" 
d="M478 333l-221 -333h-132l160 235h-12q-72 0 -128.5 30.5t-88 84.5t-31.5 124t31.5 124t88 84.5t128.5 30.5t128 -30.5t87.5 -84.5t31.5 -124q0 -80 -42 -141zM177.5 380q37.5 -36 95.5 -36t95 35.5t37 94.5t-37 94.5t-95 35.5t-95.5 -35.5t-37.5 -94.5q0 -58 37.5 -94z
" />
    <glyph glyph-name="zero.sinf" horiz-adv-x="409" 
d="M73.5 -115.5q-48.5 57.5 -48.5 155.5t48.5 155.5t131.5 57.5t131 -57.5t48 -155.5t-48 -155.5t-131 -57.5t-131.5 57.5zM267.5 -50.5q22.5 31.5 22.5 90.5t-22.5 90.5t-62.5 31.5q-41 0 -63.5 -31.5t-22.5 -90.5t22.5 -90.5t63.5 -31.5q40 0 62.5 31.5z" />
    <glyph glyph-name="one.sinf" horiz-adv-x="261" 
d="M208 240v-400h-92v305l-101 -54v94l101 55h92z" />
    <glyph glyph-name="two.sinf" horiz-adv-x="351" 
d="M30 -96l157 151q37 34 37 69q0 20 -13.5 32t-36.5 12q-25 0 -39.5 -13t-14.5 -38h-92q0 65 41 100.5t105 35.5q63 0 102.5 -34.5t39.5 -92.5q0 -62 -66 -125l-82 -76h155v-85h-293v64z" />
    <glyph glyph-name="three.sinf" horiz-adv-x="349" 
d="M297 32.5q25 -30.5 25 -73.5q0 -62 -41 -97t-111 -35t-111 35t-41 97h92q0 -23 15.5 -36.5t44.5 -13.5t44 13.5t15 36.5t-15.5 36.5t-43.5 13.5h-52v57l74 89h-158v85h270v-72l-77 -93q45 -12 70 -42.5z" />
    <glyph glyph-name="four.sinf" horiz-adv-x="356" 
d="M339 -92h-44v-68h-89v68h-193v84l135 248h99l-133 -248h92v79h89v-79h44v-84z" />
    <glyph glyph-name="five.sinf" horiz-adv-x="337" 
d="M273 55.5q39 -34.5 39 -98.5q0 -62 -40 -96t-106 -34t-106 34.5t-40 96.5h87q0 -22 15.5 -36t43.5 -14t43.5 13.5t15.5 36.5q0 24 -15.5 38.5t-43.5 14.5h-130l16 229h241v-84h-160l-4 -66h41q64 0 103 -34.5z" />
    <glyph glyph-name="six.sinf" horiz-adv-x="339" 
d="M280 68q41 -40 41 -100q0 -61 -42.5 -101t-109.5 -40q-66 0 -108.5 40t-42.5 101q0 43 19 72v1l1 2l1 2l124 195h98l-87 -131q65 -1 106 -41zM216.5 -76.5q17.5 16.5 17.5 44.5t-17.5 44.5t-47.5 16.5q-29 0 -46.5 -16.5t-17.5 -44.5t17.5 -44.5t46.5 -16.5
q30 0 47.5 16.5z" />
    <glyph glyph-name="seven.sinf" horiz-adv-x="296" 
d="M278 240v-71l-133 -329h-96l129 315h-173v85h273z" />
    <glyph glyph-name="eight.sinf" horiz-adv-x="345" 
d="M307 7.5q16 -26.5 16 -59.5q0 -56 -40.5 -88.5t-109.5 -32.5q-70 0 -110.5 32.5t-40.5 88.5q0 33 16 59.5t45 42.5q-47 31 -47 85q0 55 38.5 86.5t98.5 31.5q59 0 97.5 -31.5t38.5 -86.5q0 -27 -12.5 -48.5t-34.5 -36.5q29 -16 45 -42.5zM132.5 162q-14.5 -12 -14.5 -33
t14.5 -33t40.5 -12q25 0 39.5 12t14.5 33t-14.5 33t-39.5 12q-26 0 -40.5 -12zM218.5 -78q16.5 14 16.5 38t-17 38t-45 14q-30 0 -46.5 -14t-16.5 -38t16.5 -38t46.5 -14q29 0 45.5 14z" />
    <glyph glyph-name="nine.sinf" horiz-adv-x="339" 
d="M301 37l-2 -2l-123 -195h-98l86 131q-65 1 -105.5 41t-40.5 100q0 61 42.5 101t109.5 40q66 0 108.5 -40t42.5 -101q0 -40 -19 -72zM122.5 67.5q17.5 -16.5 47.5 -16.5q29 0 46.5 16.5t17.5 44.5t-17.5 44.5t-46.5 16.5q-30 0 -47.5 -16.5t-17.5 -44.5t17.5 -44.5z" />
    <glyph glyph-name="zero.tf" horiz-adv-x="575" 
d="M140 32.5q-62 45.5 -94.5 127.5t-32.5 190t32.5 190t94.5 127.5t148 45.5t148 -45.5t94.5 -127.5t32.5 -190t-32.5 -190t-94.5 -127.5t-148 -45.5t-148 45.5zM406.5 164q41.5 65 41.5 186t-41.5 186t-118.5 65q-78 0 -119 -65t-41 -186t41 -186t119 -65q77 0 118.5 65z
" />
    <glyph glyph-name="one.tf" horiz-adv-x="575" 
d="M553 110v-110h-300h-220v110h220v472l-182 -101v116l182 103h115v-590h185z" />
    <glyph glyph-name="two.tf" horiz-adv-x="575" 
d="M40 90l255 226q56 49 85.5 88.5t29.5 79.5q0 53 -33.5 85t-89.5 32t-94 -31.5t-38 -87.5h-115q0 73 35.5 125.5t92 79t117.5 26.5q63 0 118 -27t88.5 -78.5t33.5 -123.5q0 -118 -152 -241l-162 -132h327v-111h-498v90z" />
    <glyph glyph-name="three.tf" horiz-adv-x="575" 
d="M498 349q50 -53 50 -135q0 -71 -35 -122t-95 -78t-133 -27t-132.5 26.5t-94.5 78t-35 122.5h115q0 -54 38.5 -84.5t108.5 -30.5t109 30.5t39 84.5q0 55 -39 85t-109 30h-66v76l154 187h-322v108h465v-98l-151 -182q83 -18 133 -71z" />
    <glyph glyph-name="four.tf" horiz-adv-x="575" 
d="M558 126h-80v-126h-116v126h-349v107l241 467h124l-241 -467h225v172h116v-172h80v-107z" />
    <glyph glyph-name="five.tf" horiz-adv-x="575" 
d="M420.5 410q56.5 -26 89.5 -76.5t33 -121.5t-34 -122t-92 -77t-129 -26t-129 26t-92 77t-34 122h115q0 -53 37 -83t103 -30t103 30t37 83t-37 82.5t-103 29.5h-222l27 376h420v-108h-313l-12 -156h105q71 0 127.5 -26z" />
    <glyph glyph-name="six.tf" horiz-adv-x="575" 
d="M423 439.5q60 -30.5 92.5 -85t32.5 -125.5q0 -72 -32.5 -126.5t-92.5 -85t-140 -30.5t-140 30.5t-92.5 85t-32.5 126.5q0 84 45 145l234 326h133l-165 -230h18q80 0 140 -30.5zM393 131.5q40 35.5 40 97.5q0 61 -40 96.5t-110 35.5t-110 -35t-40 -97t40 -97.5t110 -35.5
t110 35.5z" />
    <glyph glyph-name="seven.tf" horiz-adv-x="575" 
d="M540 700v-100l-271 -600h-121l265 590h-383v110h510z" />
    <glyph glyph-name="eight.tf" horiz-adv-x="575" 
d="M523 292q28 -44 28 -98q0 -96 -71 -151.5t-192 -55.5q-122 0 -193 55.5t-71 151.5q0 54 28 98t79 71q-39 25 -61 63t-22 86q0 64 32 109.5t86.5 68.5t121.5 23t121.5 -23t86 -68.5t31.5 -109.5q0 -48 -22 -86t-61 -63q51 -27 79 -71zM196 579q-33 -25 -33 -72
q0 -45 33.5 -71t91.5 -26q57 0 90.5 26t33.5 71q0 47 -33 72t-91 25q-59 0 -92 -25zM398 124.5q38 28.5 38 80.5t-38 80.5t-110 28.5t-110.5 -28.5t-38.5 -80.5t38.5 -80.5t110.5 -28.5t110 28.5z" />
    <glyph glyph-name="nine.tf" horiz-adv-x="575" 
d="M512 326l-233 -326h-134l165 230h-17q-80 0 -140 30.5t-92.5 85t-32.5 126.5q0 71 32.5 125.5t92.5 85t140 30.5t140 -30.5t92.5 -85t32.5 -125.5q0 -84 -46 -146zM183 374.5q40 -35.5 110 -35.5t110 35.5t40 97.5t-40 97t-110 35t-110 -35t-40 -97t40 -97.5z" />
    <glyph glyph-name="fraction" unicode="&#x2044;" horiz-adv-x="200" 
d="M-140 0l400 700h80l-400 -700h-80z" />
    <glyph glyph-name="onehalf" unicode="&#xbd;" horiz-adv-x="811" 
d="M208 700v-400h-92v305l-101 -54v94l101 55h92zM121 0l400 700h80l-400 -700h-80zM491 64l157 151q37 34 37 69q0 20 -13.5 32t-36.5 12q-25 0 -39.5 -13t-14.5 -38h-92q0 65 41 100.5t105 35.5q63 0 102.5 -34.5t39.5 -92.5q0 -62 -66 -125l-82 -76h155v-85h-293v64z" />
    <glyph glyph-name="onequarter" unicode="&#xbc;" horiz-adv-x="817" 
d="M208 700v-400h-92v305l-101 -54v94l101 55h92zM121 0l400 700h80l-400 -700h-80zM800 68h-44v-68h-89v68h-193v84l135 248h99l-133 -248h92v79h89v-79h44v-84z" />
    <glyph glyph-name="threequarters" unicode="&#xbe;" horiz-adv-x="905" 
d="M297 493q25 -30 25 -73q0 -63 -41 -98t-111 -35t-111 35t-41 98h92q0 -24 15.5 -37t44.5 -13t44 13t15 37q0 23 -15.5 36t-43.5 13h-52v57l74 89h-158v85h270v-72l-77 -93q45 -12 70 -42zM209 0l400 700h80l-400 -700h-80zM888 68h-44v-68h-89v68h-193v84l135 248h99
l-133 -248h92v79h89v-79h44v-84z" />
    <glyph glyph-name="oneeighth" unicode="&#x215b;" horiz-adv-x="805" 
d="M208 700v-400h-92v305l-101 -54v94l101 55h92zM121 0l400 700h80l-400 -700h-80zM768 167.5q16 -26.5 16 -59.5q0 -55 -40.5 -88t-109.5 -33t-110 33t-41 88q0 33 16 59.5t45 42.5q-47 31 -47 85q0 55 38.5 86.5t98.5 31.5q59 0 97.5 -31.5t38.5 -86.5q0 -54 -47 -85
q29 -16 45 -42.5zM593.5 322q-14.5 -12 -14.5 -33t14.5 -33t40.5 -12q25 0 39.5 12t14.5 33t-14.5 33t-39.5 12q-26 0 -40.5 -12zM679.5 82.5q16.5 14.5 16.5 38.5t-17 37.5t-45 13.5q-30 0 -46.5 -13.5t-16.5 -37.5t16.5 -38.5t46.5 -14.5q29 0 45.5 14.5z" />
    <glyph glyph-name="threeeighths" unicode="&#x215c;" horiz-adv-x="894" 
d="M297 493q25 -30 25 -73q0 -63 -41 -98t-111 -35t-111 35t-41 98h92q0 -24 15.5 -37t44.5 -13t44 13t15 37q0 23 -15.5 36t-43.5 13h-52v57l74 89h-158v85h270v-72l-77 -93q45 -12 70 -42zM209 0l400 700h80l-400 -700h-80zM856 167.5q16 -26.5 16 -59.5q0 -55 -40.5 -88
t-109.5 -33t-110 33t-41 88q0 33 16 59.5t45 42.5q-47 31 -47 85q0 55 38.5 86.5t98.5 31.5q59 0 97.5 -31.5t38.5 -86.5q0 -54 -47 -85q29 -16 45 -42.5zM681.5 322q-14.5 -12 -14.5 -33t14.5 -33t40.5 -12q25 0 39.5 12t14.5 33t-14.5 33t-39.5 12q-26 0 -40.5 -12z
M767.5 82.5q16.5 14.5 16.5 38.5t-17 37.5t-45 13.5q-30 0 -46.5 -13.5t-16.5 -37.5t16.5 -38.5t46.5 -14.5q29 0 45.5 14.5z" />
    <glyph glyph-name="fiveeighths" unicode="&#x215d;" horiz-adv-x="881" 
d="M270.5 515.5q38.5 -34.5 38.5 -98.5q0 -61 -39.5 -95.5t-105.5 -34.5t-106 35t-40 97h86q0 -23 15.5 -37t44.5 -14q28 0 43.5 14t15.5 37q0 24 -16 38t-43 14h-131l16 229h242v-84h-160l-4 -66h40q65 0 103.5 -34.5zM197 0l400 700h80l-400 -700h-80zM844 167.5
q16 -26.5 16 -59.5q0 -55 -40.5 -88t-109.5 -33t-110 33t-41 88q0 33 16 59.5t45 42.5q-47 31 -47 85q0 55 38.5 86.5t98.5 31.5q59 0 97.5 -31.5t38.5 -86.5q0 -54 -47 -85q29 -16 45 -42.5zM669.5 322q-14.5 -12 -14.5 -33t14.5 -33t40.5 -12q25 0 39.5 12t14.5 33
t-14.5 33t-39.5 12q-26 0 -40.5 -12zM755.5 82.5q16.5 14.5 16.5 38.5t-17 37.5t-45 13.5q-30 0 -46.5 -13.5t-16.5 -37.5t16.5 -38.5t46.5 -14.5q29 0 45.5 14.5z" />
    <glyph glyph-name="seveneighths" unicode="&#x215e;" horiz-adv-x="840" 
d="M278 700v-71l-133 -329h-96l130 315h-174v85h273zM156 0l400 700h80l-400 -700h-80zM803 167.5q16 -26.5 16 -59.5q0 -55 -40.5 -88t-109.5 -33t-110 33t-41 88q0 33 16 59.5t45 42.5q-47 31 -47 85q0 55 38.5 86.5t98.5 31.5q59 0 97.5 -31.5t38.5 -86.5q0 -54 -47 -85
q29 -16 45 -42.5zM628.5 322q-14.5 -12 -14.5 -33t14.5 -33t40.5 -12q25 0 39.5 12t14.5 33t-14.5 33t-39.5 12q-26 0 -40.5 -12zM714.5 82.5q16.5 14.5 16.5 38.5t-17 37.5t-45 13.5q-30 0 -46.5 -13.5t-16.5 -37.5t16.5 -38.5t46.5 -14.5q29 0 45.5 14.5z" />
    <glyph glyph-name="zero.dnom" horiz-adv-x="409" 
d="M73.5 44.5q-48.5 57.5 -48.5 155.5t48.5 155.5t131.5 57.5t131 -57.5t48 -155.5t-48 -155.5t-131 -57.5t-131.5 57.5zM267.5 109.5q22.5 31.5 22.5 90.5t-22.5 90.5t-62.5 31.5q-41 0 -63.5 -31.5t-22.5 -90.5t22.5 -90.5t63.5 -31.5q40 0 62.5 31.5z" />
    <glyph glyph-name="one.dnom" horiz-adv-x="261" 
d="M208 400v-400h-92v305l-101 -54v94l101 55h92z" />
    <glyph glyph-name="two.dnom" horiz-adv-x="351" 
d="M30 64l157 151q37 34 37 69q0 20 -13.5 32t-36.5 12q-25 0 -39.5 -13t-14.5 -38h-92q0 65 41 100.5t105 35.5q63 0 102.5 -34.5t39.5 -92.5q0 -62 -66 -125l-82 -76h155v-85h-293v64z" />
    <glyph glyph-name="three.dnom" horiz-adv-x="349" 
d="M297 192.5q25 -30.5 25 -73.5q0 -62 -41 -97t-111 -35t-111 35t-41 97h92q0 -23 15.5 -36.5t44.5 -13.5t44 13.5t15 36.5t-15.5 36.5t-43.5 13.5h-52v57l74 89h-158v85h270v-72l-77 -93q45 -12 70 -42.5z" />
    <glyph glyph-name="four.dnom" horiz-adv-x="356" 
d="M339 68h-44v-68h-89v68h-193v84l135 248h99l-133 -248h92v79h89v-79h44v-84z" />
    <glyph glyph-name="five.dnom" horiz-adv-x="337" 
d="M270 215.5q39 -34.5 39 -98.5q0 -62 -40 -96t-106 -34t-106 34.5t-40 96.5h87q0 -22 15.5 -36t43.5 -14t43.5 13.5t15.5 36.5q0 24 -15.5 38.5t-43.5 14.5h-130l16 229h241v-84h-160l-4 -66h41q64 0 103 -34.5z" />
    <glyph glyph-name="six.dnom" horiz-adv-x="339" 
d="M280 228q41 -40 41 -100q0 -61 -42.5 -101t-109.5 -40q-66 0 -108.5 40t-42.5 101q0 43 19 72v1l1 2l1 2l124 195h98l-87 -131q65 -1 106 -41zM216.5 83.5q17.5 16.5 17.5 44.5t-17.5 44.5t-47.5 16.5q-29 0 -46.5 -16.5t-17.5 -44.5t17.5 -44.5t46.5 -16.5
q30 0 47.5 16.5z" />
    <glyph glyph-name="seven.dnom" horiz-adv-x="296" 
d="M278 400v-71l-133 -329h-96l129 315h-173v85h273z" />
    <glyph glyph-name="eight.dnom" horiz-adv-x="345" 
d="M307 167.5q16 -26.5 16 -59.5q0 -55 -40.5 -88t-109.5 -33t-110 33t-41 88q0 33 16 59.5t45 42.5q-47 31 -47 85q0 55 38.5 86.5t98.5 31.5q59 0 97.5 -31.5t38.5 -86.5q0 -54 -47 -85q29 -16 45 -42.5zM132.5 322q-14.5 -12 -14.5 -33t14.5 -33t40.5 -12q25 0 39.5 12
t14.5 33t-14.5 33t-39.5 12q-26 0 -40.5 -12zM218.5 82.5q16.5 14.5 16.5 38.5t-17 37.5t-45 13.5q-30 0 -46.5 -13.5t-16.5 -37.5t16.5 -38.5t46.5 -14.5q29 0 45.5 14.5z" />
    <glyph glyph-name="nine.dnom" horiz-adv-x="339" 
d="M301 197l-2 -2l-123 -195h-98l86 131q-65 1 -105.5 41t-40.5 100q0 61 42.5 101t109.5 40q66 0 108.5 -40t42.5 -101q0 -40 -19 -72zM122.5 227.5q17.5 -16.5 47.5 -16.5q29 0 46.5 16.5t17.5 44.5t-17.5 44.5t-46.5 16.5q-30 0 -47.5 -16.5t-17.5 -44.5t17.5 -44.5z" />
    <glyph glyph-name="zero.numr" horiz-adv-x="409" 
d="M73.5 344.5q-48.5 57.5 -48.5 155.5t48.5 155.5t131.5 57.5t131 -57.5t48 -155.5t-48 -155.5t-131 -57.5t-131.5 57.5zM267.5 409.5q22.5 31.5 22.5 90.5t-22.5 90.5t-62.5 31.5q-41 0 -63.5 -31.5t-22.5 -90.5t22.5 -90.5t63.5 -31.5q40 0 62.5 31.5z" />
    <glyph glyph-name="one.numr" horiz-adv-x="261" 
d="M208 700v-400h-92v305l-101 -54v94l101 55h92z" />
    <glyph glyph-name="two.numr" horiz-adv-x="351" 
d="M30 364l157 151q37 34 37 69q0 20 -13.5 32t-36.5 12q-25 0 -39.5 -13t-14.5 -38h-92q0 65 41 100.5t105 35.5q63 0 102.5 -34.5t39.5 -92.5q0 -62 -66 -125l-82 -76h155v-85h-293v64z" />
    <glyph glyph-name="three.numr" horiz-adv-x="349" 
d="M297 493q25 -30 25 -73q0 -63 -41 -98t-111 -35t-111 35t-41 98h92q0 -24 15.5 -37t44.5 -13t44 13t15 37q0 23 -15.5 36t-43.5 13h-52v57l74 89h-158v85h270v-72l-77 -93q45 -12 70 -42z" />
    <glyph glyph-name="four.numr" horiz-adv-x="356" 
d="M339 368h-44v-68h-89v68h-193v84l135 248h99l-133 -248h92v79h89v-79h44v-84z" />
    <glyph glyph-name="five.numr" horiz-adv-x="337" 
d="M270.5 515.5q38.5 -34.5 38.5 -98.5q0 -61 -39.5 -95.5t-105.5 -34.5t-106 35t-40 97h86q0 -23 15.5 -37t44.5 -14q28 0 43.5 14t15.5 37q0 24 -16 38t-43 14h-131l16 229h242v-84h-160l-4 -66h40q65 0 103.5 -34.5z" />
    <glyph glyph-name="six.numr" horiz-adv-x="339" 
d="M280 528q41 -40 41 -100q0 -61 -42.5 -101t-109.5 -40q-66 0 -108.5 40t-42.5 101q0 43 19 72v1l1 2l1 2l124 195h98l-87 -131q65 -1 106 -41zM216.5 383.5q17.5 16.5 17.5 44.5t-17.5 44.5t-47.5 16.5q-29 0 -46.5 -16.5t-17.5 -44.5t17.5 -44.5t46.5 -16.5
q30 0 47.5 16.5z" />
    <glyph glyph-name="seven.numr" horiz-adv-x="296" 
d="M278 700v-71l-133 -329h-96l130 315h-174v85h273z" />
    <glyph glyph-name="eight.numr" horiz-adv-x="345" 
d="M307 467.5q16 -26.5 16 -59.5q0 -56 -40.5 -88.5t-109.5 -32.5q-70 0 -110.5 32.5t-40.5 88.5q0 33 16 59.5t45 42.5q-47 31 -47 85q0 55 38.5 86.5t98.5 31.5q59 0 97.5 -31.5t38.5 -86.5q0 -27 -12.5 -48.5t-34.5 -36.5q29 -16 45 -42.5zM132.5 622
q-14.5 -12 -14.5 -33t14.5 -33t40.5 -12q25 0 39.5 12t14.5 33t-14.5 33t-39.5 12q-26 0 -40.5 -12zM218.5 382q16.5 14 16.5 38t-17 38t-45 14q-30 0 -46.5 -14t-16.5 -38t16.5 -38t46.5 -14q29 0 45.5 14z" />
    <glyph glyph-name="nine.numr" horiz-adv-x="339" 
d="M301 497l-2 -2l-123 -195h-98l86 131q-65 1 -105.5 41t-40.5 100q0 61 42.5 101t109.5 40q66 0 108.5 -40t42.5 -101q0 -40 -19 -72zM122.5 527.5q17.5 -16.5 47.5 -16.5q29 0 46.5 16.5t17.5 44.5t-17.5 44.5t-46.5 16.5q-30 0 -47.5 -16.5t-17.5 -44.5t17.5 -44.5z" />
    <glyph glyph-name="zero.sups" horiz-adv-x="409" 
d="M73.5 504.5q-48.5 57.5 -48.5 155.5t48.5 155.5t131.5 57.5t131 -57.5t48 -155.5t-48 -155.5t-131 -57.5t-131.5 57.5zM267.5 569.5q22.5 31.5 22.5 90.5t-22.5 90.5t-62.5 31.5q-41 0 -63.5 -31.5t-22.5 -90.5t22.5 -90.5t63.5 -31.5q40 0 62.5 31.5z" />
    <glyph glyph-name="one.sups" horiz-adv-x="261" 
d="M208 860v-400h-92v305l-101 -54v94l101 55h92z" />
    <glyph glyph-name="two.sups" horiz-adv-x="351" 
d="M30 524l157 151q37 34 37 69q0 20 -13.5 32t-36.5 12q-25 0 -39.5 -13t-14.5 -38h-92q0 65 41 100.5t105 35.5q63 0 102.5 -34.5t39.5 -92.5q0 -62 -66 -125l-82 -76h155v-85h-293v64z" />
    <glyph glyph-name="three.sups" horiz-adv-x="349" 
d="M297 652.5q25 -30.5 25 -73.5q0 -62 -41 -97t-111 -35t-111 35t-41 97h92q0 -23 15.5 -36.5t44.5 -13.5t44 13.5t15 36.5t-15.5 36.5t-43.5 13.5h-52v57l74 89h-158v85h270v-72l-77 -93q45 -12 70 -42.5z" />
    <glyph glyph-name="four.sups" horiz-adv-x="356" 
d="M339 528h-44v-68h-89v68h-193v84l135 248h99l-133 -248h92v79h89v-79h44v-84z" />
    <glyph glyph-name="five.sups" horiz-adv-x="337" 
d="M270 675.5q39 -34.5 39 -98.5q0 -62 -40 -96t-106 -34t-106 34.5t-40 96.5h87q0 -22 15.5 -36t43.5 -14t43.5 13.5t15.5 36.5q0 24 -15.5 38.5t-43.5 14.5h-130l16 229h241v-84h-160l-4 -66h41q64 0 103 -34.5z" />
    <glyph glyph-name="six.sups" horiz-adv-x="339" 
d="M280 688q41 -40 41 -100q0 -61 -42.5 -101t-109.5 -40q-66 0 -108.5 40t-42.5 101q0 43 19 72v1l1 2l1 2l124 195h98l-87 -131q65 -1 106 -41zM216.5 543.5q17.5 16.5 17.5 44.5t-17.5 44.5t-47.5 16.5q-29 0 -46.5 -16.5t-17.5 -44.5t17.5 -44.5t46.5 -16.5
q30 0 47.5 16.5z" />
    <glyph glyph-name="seven.sups" horiz-adv-x="296" 
d="M278 860v-71l-133 -329h-96l129 315h-173v85h273z" />
    <glyph glyph-name="eight.sups" horiz-adv-x="345" 
d="M307 627.5q16 -26.5 16 -59.5q0 -56 -40.5 -88.5t-109.5 -32.5q-70 0 -110.5 32.5t-40.5 88.5q0 33 16 59.5t45 42.5q-47 31 -47 85q0 55 38.5 86.5t98.5 31.5q59 0 97.5 -31.5t38.5 -86.5q0 -27 -12.5 -48.5t-34.5 -36.5q29 -16 45 -42.5zM132.5 782
q-14.5 -12 -14.5 -33t14.5 -33t40.5 -12q25 0 39.5 12t14.5 33t-14.5 33t-39.5 12q-26 0 -40.5 -12zM218.5 542q16.5 14 16.5 38t-17 38t-45 14q-30 0 -46.5 -14t-16.5 -38t16.5 -38t46.5 -14q29 0 45.5 14z" />
    <glyph glyph-name="nine.sups" horiz-adv-x="339" 
d="M301 657l-2 -2l-123 -195h-98l86 131q-65 1 -105.5 41t-40.5 100q0 61 42.5 101t109.5 40q66 0 108.5 -40t42.5 -101q0 -40 -19 -72zM122.5 687.5q17.5 -16.5 47.5 -16.5q29 0 46.5 16.5t17.5 44.5t-17.5 44.5t-46.5 16.5q-30 0 -47.5 -16.5t-17.5 -44.5t17.5 -44.5z" />
    <glyph glyph-name="asterisk" unicode="*" horiz-adv-x="396" 
d="M341 537l-90 6l53 -72l-62 -38l-44 83l-44 -83l-62 38l54 72l-91 -6v72l91 -6l-54 72l62 38l44 -83l44 83l62 -38l-53 -72l90 6v-72z" />
    <glyph glyph-name="backslash" unicode="\" horiz-adv-x="525" 
d="M35 800h55l400 -900h-55z" />
    <glyph glyph-name="periodcentered" unicode="&#xb7;" horiz-adv-x="255" 
d="M65 410h125v-125h-125v125z" />
    <glyph glyph-name="bullet" unicode="&#x2022;" horiz-adv-x="340" 
d="M108.5 242q-29.5 17 -46.5 46.5t-17 63.5q0 33 17 61.5t46.5 45t63.5 16.5q51 0 87 -36t36 -87q0 -34 -16.5 -63.5t-45 -46.5t-61.5 -17q-34 0 -63.5 17z" />
    <glyph glyph-name="colon" unicode=":" horiz-adv-x="255" 
d="M65 125h125v-125h-125v125zM65 500h125v-125h-125v125z" />
    <glyph glyph-name="comma" unicode="," horiz-adv-x="255" 
d="M190 125v-125q0 -61 -32.5 -97t-92.5 -39v52q30 3 45 21.5t15 62.5h-60v125h125z" />
    <glyph glyph-name="ellipsis" unicode="&#x2026;" horiz-adv-x="685" 
d="M65 125h125v-125h-125v125zM280 125h125v-125h-125v125zM495 125h125v-125h-125v125z" />
    <glyph glyph-name="exclam" unicode="!" horiz-adv-x="255" 
d="M63 500v200h130v-200l-23 -280h-85zM65 125h125v-125h-125v125z" />
    <glyph glyph-name="exclamdown" unicode="&#xa1;" horiz-adv-x="255" 
d="M190 500v-125h-125v125h125zM170 280l23 -280v-200h-130v200l22 280h85z" />
    <glyph glyph-name="numbersign" unicode="#" horiz-adv-x="610" 
d="M459 400l-17 -100h113l-13 -85h-114l-27 -165h-89l27 165h-112l-27 -165h-89l27 165h-113l14 85h113l17 100h-114l14 85h114l28 165h89l-28 -165h112l28 165h89l-28 -165h112l-14 -85h-112zM370 400h-112l-17 -100h112z" />
    <glyph glyph-name="period" unicode="." horiz-adv-x="255" 
d="M65 125h125v-125h-125v125z" />
    <glyph glyph-name="question" unicode="?" horiz-adv-x="548" 
d="M227.5 310q25.5 37 72.5 80q40 38 59 64.5t19 59.5q0 42 -29.5 64.5t-78.5 22.5q-54 0 -87 -27t-33 -78h-115q0 71 32.5 119.5t86.5 73t119 24.5q58 0 108 -22.5t81 -66t31 -103.5q0 -38 -14 -69.5t-33.5 -54t-51.5 -54.5q-39 -37 -58 -63.5t-19 -59.5h-115q0 53 25.5 90
zM197 125h125v-125h-125v125z" />
    <glyph glyph-name="questiondown" unicode="&#xbf;" horiz-adv-x="543" 
d="M346 375h-125v125h125v-125zM316.5 192q-24.5 -36 -72.5 -81q-40 -37 -59.5 -64t-19.5 -61q0 -42 29.5 -64.5t78.5 -22.5q54 0 87 27t33 78h115q0 -71 -32.5 -119.5t-86.5 -73t-119 -24.5q-58 0 -108 22.5t-81 66t-31 103.5q0 39 14 70.5t34 54.5t52 54q39 38 57.5 63.5
t18.5 58.5h115q0 -52 -24.5 -88z" />
    <glyph glyph-name="quotedbl" unicode="&#x22;" horiz-adv-x="355" 
d="M45 700h105l-15 -220h-75zM205 700h105l-15 -220h-75z" />
    <glyph glyph-name="quotesingle" unicode="'" horiz-adv-x="195" 
d="M45 700h105l-15 -220h-75z" />
    <glyph glyph-name="semicolon" unicode=";" horiz-adv-x="255" 
d="M190 125v-125q0 -61 -32.5 -97t-92.5 -39v52q30 3 45 21.5t15 62.5h-60v125h125zM65 500h125v-125h-125v125z" />
    <glyph glyph-name="slash" unicode="/" horiz-adv-x="525" 
d="M35 -100l400 900h55l-400 -900h-55z" />
    <glyph glyph-name="underscore" unicode="_" horiz-adv-x="520" 
d="M35 -57h450v-104h-450v104z" />
    <glyph glyph-name="braceleft" unicode="{" horiz-adv-x="352" 
d="M310 -109q-86 0 -129.5 46t-43.5 134v154q0 47 -21 61.5t-66 12.5v105q45 -2 66 12.5t21 61.5v154q0 88 43.5 133.5t129.5 45.5q18 0 27 -1v-104q-18 2 -25 2q-34 0 -50.5 -17.5t-16.5 -58.5v-154q0 -50 -16 -80.5t-49 -45.5q33 -16 49 -46.5t16 -80.5v-154q0 -42 17 -59
t52 -17q15 0 23 1v-104q-9 -1 -27 -1z" />
    <glyph glyph-name="braceright" unicode="}" horiz-adv-x="352" 
d="M15 -4q8 -1 23 -1q35 0 52 17t17 59v154q0 49 16.5 80t49.5 47q-66 31 -66 126v154q0 41 -16.5 58.5t-50.5 17.5q-7 0 -25 -2v104q9 1 27 1q86 0 129.5 -45.5t43.5 -133.5v-154q0 -47 21 -61.5t66 -12.5v-105q-45 2 -66 -12.5t-21 -61.5v-154q0 -88 -43.5 -134
t-129.5 -46q-18 0 -27 1v104z" />
    <glyph glyph-name="bracketleft" unicode="[" horiz-adv-x="280" 
d="M163 696v-692h117v-104h-185h-40v900h108h117v-104h-117z" />
    <glyph glyph-name="bracketright" unicode="]" horiz-adv-x="280" 
d="M225 -100h-108h-117v104h117v692h-117v104h225v-900z" />
    <glyph glyph-name="parenleft" unicode="(" horiz-adv-x="293" 
d="M55 350q0 230 110 450h108q-110 -220 -110 -450t110 -450h-108q-110 220 -110 450z" />
    <glyph glyph-name="parenright" unicode=")" horiz-adv-x="293" 
d="M20 -100q110 220 110 450t-110 450h108q110 -220 110 -450t-110 -450h-108z" />
    <glyph glyph-name="emdash" unicode="&#x2014;" horiz-adv-x="750" 
d="M70 356h610v-104h-610v104z" />
    <glyph glyph-name="endash" unicode="&#x2013;" horiz-adv-x="650" 
d="M70 356h510v-104h-510v104z" />
    <glyph glyph-name="hyphen" unicode="-" horiz-adv-x="510" 
d="M70 356h370v-104h-370v104z" />
    <glyph glyph-name="guillemotleft" unicode="&#xab;" horiz-adv-x="527" 
d="M172 309l110 -185h-107l-110 185l110 185h107zM352 309l110 -185h-107l-110 185l110 185h107z" />
    <glyph glyph-name="guillemotright" unicode="&#xbb;" horiz-adv-x="527" 
d="M282 309l-110 -185h-107l110 185l-110 185h107zM462 309l-110 -185h-107l110 185l-110 185h107z" />
    <glyph glyph-name="guilsinglleft" unicode="&#x2039;" horiz-adv-x="347" 
d="M172 309l110 -185h-107l-110 185l110 185h107z" />
    <glyph glyph-name="guilsinglright" unicode="&#x203a;" horiz-adv-x="347" 
d="M282 309l-110 -185h-107l110 185l-110 185h107z" />
    <glyph glyph-name="quotedblbase" unicode="&#x201e;" horiz-adv-x="425" 
d="M190 125v-125q0 -61 -32.5 -97t-92.5 -39v52q30 3 45 21.5t15 62.5h-60v125h125zM360 125v-125q0 -61 -32.5 -97t-92.5 -39v52q30 3 45 21.5t15 62.5h-60v125h125z" />
    <glyph glyph-name="quotedblleft" unicode="&#x201c;" horiz-adv-x="425" 
d="M97.5 667q32.5 36 92.5 39v-52q-30 -3 -44.5 -21.5t-14.5 -62.5h59v-125h-125v125q0 61 32.5 97zM315.5 632.5q-14.5 -18.5 -14.5 -62.5h59v-125h-125v125q0 61 32.5 97t92.5 39v-52q-30 -3 -44.5 -21.5z" />
    <glyph glyph-name="quotedblright" unicode="&#x201d;" horiz-adv-x="425" 
d="M190 700v-125q0 -61 -32.5 -97t-92.5 -39v52q30 3 45 21.5t15 62.5h-60v125h125zM360 700v-125q0 -61 -32.5 -97t-92.5 -39v52q30 3 45 21.5t15 62.5h-60v125h125z" />
    <glyph glyph-name="quoteleft" unicode="&#x2018;" horiz-adv-x="255" 
d="M145.5 631.5q-14.5 -18.5 -14.5 -61.5h59v-125h-125v125q0 60 32.5 96t92.5 40v-52q-30 -4 -44.5 -22.5z" />
    <glyph glyph-name="quoteright" unicode="&#x2019;" horiz-adv-x="255" 
d="M190 700v-125q0 -61 -32.5 -97t-92.5 -39v52q30 3 45 21.5t15 62.5h-60v125h125z" />
    <glyph glyph-name="quotesinglbase" unicode="&#x201a;" horiz-adv-x="255" 
d="M190 125v-125q0 -61 -32.5 -97t-92.5 -39v52q30 3 45 21.5t15 62.5h-60v125h125z" />
    <glyph glyph-name="cent" unicode="&#xa2;" horiz-adv-x="568" 
d="M381 215.5q36 22.5 51 59.5h114q-12 -54 -47.5 -97t-87.5 -67t-112 -24q-34 0 -68 8l-31 -95h-55l36 113q-67 32 -106.5 95t-39.5 142q0 74 34.5 134t95 94.5t134.5 34.5q22 0 43 -3l29 90h55l-33 -103q59 -22 99.5 -67t53.5 -105h-114q-10 24 -28.5 42t-43.5 28
l-96 -298q15 -4 35 -4q46 0 82 22.5zM162 272q19 -35 53 -56l94 291h-10q-43 0 -79 -20.5t-56.5 -56.5t-20.5 -80q0 -43 19 -78z" />
    <glyph glyph-name="currency" unicode="&#xa4;" horiz-adv-x="546" 
d="M441 218l70 -70l-36 -36l-70 70q-57 -43 -132 -43q-73 0 -132 43l-70 -70l-36 36l70 70q-46 57 -46 132t46 132l-70 70l36 36l71 -70q57 43 131 43q75 0 132 -43l70 70l36 -36l-70 -70q46 -57 46 -132t-46 -132zM349.5 272.5q30.5 30.5 30.5 77.5t-30.5 77.5t-76.5 30.5
t-76.5 -30.5t-30.5 -77.5t30.5 -77.5t76.5 -30.5t76.5 30.5z" />
    <glyph glyph-name="dollar" unicode="$" horiz-adv-x="547" 
d="M488.5 83.5q-28.5 -42.5 -76 -66.5t-105.5 -29v-88h-65v89q-94 10 -153 67.5t-59 155.5h115q0 -46 25 -74t72 -36v205q-60 22 -101.5 45.5t-69 64.5t-27.5 102q0 83 57 133.5t141 59.5v88h65v-89q85 -10 141 -65.5t56 -149.5h-113q0 42 -22.5 68t-61.5 34v-201
q66 -25 108 -47.5t72 -63t30 -102.5q0 -58 -28.5 -100.5zM180 463.5q21 -22.5 62 -41.5v177q-38 -6 -60.5 -27t-22.5 -53q0 -33 21 -55.5zM376.5 127.5q25.5 22.5 25.5 56.5t-25 57t-70 41v-182q44 5 69.5 27.5z" />
    <glyph glyph-name="Euro" unicode="&#x20ac;" horiz-adv-x="637" 
d="M612 244q-14 -119 -81.5 -188t-175.5 -69q-110 0 -180 73t-89 200h-71v71h65v19q0 18 1 27h-66v71h73q20 123 89 194t178 71q106 0 173 -66.5t82 -182.5h-117q-8 66 -44.5 101.5t-93.5 35.5q-60 0 -98.5 -39t-52.5 -114h221v-71h-229q-1 -9 -1 -27v-19h230v-71h-223
q14 -78 53 -119.5t100 -41.5q59 0 96 38t44 107h117z" />
    <glyph glyph-name="florin" unicode="&#x192;" horiz-adv-x="441" 
d="M399 606q-29 0 -49 -17.5t-25 -51.5l-23 -133h99v-104h-117l-59 -351q-14 -80 -57 -119.5t-105 -39.5q-30 0 -63 9v107q21 -9 42 -9q29 0 49 17.5t25 51.5l57 334h-93v104h110l26 150q14 80 57 119.5t105 39.5q30 0 63 -9v-107q-21 9 -42 9z" />
    <glyph glyph-name="uni20BD" unicode="&#x20bd;" horiz-adv-x="598" 
d="M210 255v-67h235v-78h-235v-110h-115v110h-80v78h80v67h-80v103h80v342h115h143q62 0 114.5 -30t82.5 -81.5t30 -113.5q0 -61 -30 -111.5t-82 -79.5t-115 -29h-143zM210 358h143q47 0 79.5 34t32.5 83t-32.5 83t-79.5 34h-143v-234z" />
    <glyph glyph-name="sterling" unicode="&#xa3;" horiz-adv-x="585" 
d="M570 111v-111h-535v111h80v153h-65v101h65v131q0 71 31 120t80 73t104 24q54 0 103.5 -24t80.5 -73t31 -120v-36h-115v36q0 51 -29 78t-71 27q-43 0 -71.5 -27t-28.5 -78v-131h203v-101h-203v-153h340z" />
    <glyph glyph-name="yen" unicode="&#xa5;" horiz-adv-x="593" 
d="M379 357h143v-73h-168v-50h168v-73h-168v-161h-115v161h-167v73h167v50h-167v73h142l-209 343h131l160 -274l161 274h131z" />
    <glyph glyph-name="cent.tf" horiz-adv-x="575" 
d="M387 215.5q36 22.5 51 59.5h114q-12 -54 -47.5 -97t-87.5 -67t-112 -24q-34 0 -68 8l-31 -95h-55l36 113q-67 32 -106.5 95t-39.5 142q0 74 34.5 134t95 94.5t134.5 34.5q22 0 43 -3l29 90h55l-33 -103q59 -22 99.5 -67t53.5 -105h-114q-10 24 -28.5 42t-43.5 28
l-96 -298q15 -4 35 -4q46 0 82 22.5zM168 272q19 -35 53 -56l94 291h-10q-43 0 -79 -20.5t-56.5 -56.5t-20.5 -80q0 -43 19 -78z" />
    <glyph glyph-name="dollar.tf" horiz-adv-x="575" 
d="M478 47q-62 -53 -157 -59v-88h-65v89q-99 9 -160 66.5t-61 156.5h115q0 -48 27 -75.5t79 -34.5v203q-66 23 -109 46t-71.5 63.5t-28.5 102.5q0 85 59.5 136.5t149.5 58.5v88h65v-89q90 -10 147 -65.5t57 -149.5h-113q0 43 -23.5 68.5t-67.5 33.5v-200q70 -24 114.5 -46.5
t74.5 -62.5t30 -102q0 -87 -62 -140zM186 462.5q24 -21.5 70 -40.5v177q-44 -5 -69 -26.5t-25 -55.5q0 -33 24 -54.5zM397.5 128.5q27.5 23.5 27.5 58.5q0 33 -26.5 54.5t-77.5 41.5v-183q49 5 76.5 28.5z" />
    <glyph glyph-name="Euro.tf" horiz-adv-x="575" 
d="M560 244q-6 -78 -38.5 -136t-85 -89.5t-119.5 -31.5q-104 0 -168.5 73t-81.5 200h-62v71h57v19v27h-57v71h63q18 124 82 194.5t167 70.5q66 0 118 -30.5t84 -87t39 -131.5h-116q-5 65 -39.5 101t-85.5 36q-108 0 -133 -153h200v-71h-207v-27v-19h207v-71h-202
q25 -161 135 -161q52 0 87.5 38.5t39.5 106.5h116z" />
    <glyph glyph-name="florin.tf" horiz-adv-x="575" 
d="M501 606q-64 0 -82 -69l-35 -133h131v-104h-159l-92 -351q-21 -80 -66 -119.5t-108 -39.5q-30 0 -65 9v107q27 -9 49 -9q64 0 82 69l87 334h-128v104h156l40 150q21 80 66 119.5t108 39.5q31 0 65 -9v-107q-27 9 -49 9z" />
    <glyph glyph-name="uni20BD.tf" horiz-adv-x="575" 
d="M205 255v-67h210v-78h-210v-110h-115v110h-80v78h80v67h-80v103h80v342h115h118q62 0 114.5 -30t82.5 -81.5t30 -113.5q0 -61 -30 -111.5t-82 -79.5t-115 -29h-118zM205 358h118q47 0 79.5 34t32.5 83t-32.5 83t-79.5 34h-118v-234z" />
    <glyph glyph-name="sterling.tf" horiz-adv-x="575" 
d="M545 111v-111h-540v111h80v153h-65v101h65v131q0 71 31 120t80.5 73t106.5 24q55 0 105 -24t81 -73t31 -120v-36h-115v36q0 51 -29.5 78t-72.5 27q-45 0 -74 -27t-29 -78v-131h208v-101h-208v-153h345z" />
    <glyph glyph-name="yen.tf" horiz-adv-x="575" 
d="M369 357h144v-73h-168v-50h168v-73h-168v-161h-115v161h-167v73h167v50h-167v73h144l-203 343h130l154 -274l154 274h130z" />
    <glyph glyph-name="approxequal" unicode="&#x2248;" horiz-adv-x="577" 
d="M191 418q-22 0 -37 -11t-29 -33l-75 28q36 127 135 127q48 0 106 -30q59 -30 89 -30q22 0 35.5 14t21.5 44l90 -43q-15 -62 -50 -95t-85 -33q-47 0 -105 31q-61 31 -96 31zM50 217q15 61 50.5 94t86.5 33q47 0 104 -30q63 -32 96 -32q22 0 37 11t28 34l75 -28
q-36 -128 -133 -128q-48 0 -107 31q-57 30 -89 30q-22 0 -36 -14t-22 -44z" />
    <glyph glyph-name="asciitilde" unicode="~" horiz-adv-x="597" 
d="M547 390q-18 -63 -54 -95.5t-87 -32.5t-109 31q-64 34 -97 34q-22 0 -36 -15t-24 -47l-90 43q18 63 54.5 95.5t87.5 32.5t109 -31q66 -34 96 -34q22 0 36 15t24 47z" />
    <glyph glyph-name="divide" unicode="&#xf7;" horiz-adv-x="570" 
d="M233.5 490.5q-20.5 20.5 -20.5 51.5t20.5 52t51.5 21t52 -21t21 -52t-21 -51.5t-52 -20.5t-51.5 20.5zM50 401h470v-102h-470v102zM233.5 106.5q-20.5 20.5 -20.5 51.5t20.5 52t51.5 21t52 -21t21 -52t-21 -51.5t-52 -20.5t-51.5 20.5z" />
    <glyph glyph-name="emptyset" unicode="&#x2205;" horiz-adv-x="804" 
d="M735.5 490.5q28.5 -66.5 28.5 -140.5q0 -98 -48.5 -181.5t-132 -132t-181.5 -48.5q-107 0 -198 59l-54 -67h-95l92 113q-50 50 -78.5 116.5t-28.5 140.5q0 98 48.5 181.5t132 132t181.5 48.5q107 0 198 -59l54 67h95l-92 -113q50 -50 78.5 -116.5zM140 243.5
q20 -50.5 56 -88.5l354 437q-67 42 -148 42q-77 0 -142 -38t-102.5 -103t-37.5 -143q0 -56 20 -106.5zM544 104q65 38 102.5 103t37.5 143q0 56 -20 106.5t-56 88.5l-354 -437q67 -42 148 -42q77 0 142 38z" />
    <glyph glyph-name="equal" unicode="=" horiz-adv-x="530" 
d="M50 504h430v-102h-430v102zM50 299h430v-102h-430v102z" />
    <glyph glyph-name="greater" unicode="&#x3e;" horiz-adv-x="525" 
d="M475 400v-100l-425 -185v114l303 121l-303 121v114z" />
    <glyph glyph-name="greaterequal" unicode="&#x2265;" horiz-adv-x="525" 
d="M475 472v-98l-425 -163v114l299 98l-299 98v114zM50 172h425v-102h-425v102z" />
    <glyph glyph-name="infinity" unicode="&#x221e;" horiz-adv-x="805" 
d="M667.5 498.5q39.5 -21.5 62.5 -60t23 -88.5q0 -49 -23 -88t-62.5 -60.5t-89.5 -21.5q-90 0 -175 93q-87 -93 -176 -93q-49 0 -89 21.5t-62.5 60.5t-22.5 88q0 50 22.5 88.5t62.5 60t89 21.5q89 0 176 -93q85 93 175 93q50 0 89.5 -21.5zM304 373q-38 32 -71 32
q-11 0 -24 -5q-15 -7 -23.5 -19.5t-8.5 -27.5q0 -27 16.5 -43t42.5 -16q15 0 31 6q23 19 37 73zM620.5 380.5q-8.5 12.5 -23.5 19.5q-13 5 -24 5q-33 0 -71 -32q14 -54 37 -73q17 -6 31 -6q26 0 42.5 16t16.5 43q0 15 -8.5 27.5z" />
    <glyph glyph-name="integral" unicode="&#x222b;" horiz-adv-x="441" 
d="M0 -96q21 -9 42 -9q27 0 46.5 17.5t24.5 51.5l100 588q14 80 56 119.5t106 39.5q31 0 66 -9v-107q-24 9 -45 9q-30 0 -49.5 -17.5t-24.5 -51.5l-100 -588q-14 -80 -55.5 -119.5t-103.5 -39.5q-30 0 -63 9v107z" />
    <glyph glyph-name="less" unicode="&#x3c;" horiz-adv-x="525" 
d="M475 471l-302 -121l302 -121v-114l-425 185v100l425 185v-114z" />
    <glyph glyph-name="lessequal" unicode="&#x2264;" horiz-adv-x="525" 
d="M475 521l-298 -98l298 -98v-114l-425 163v98l425 163v-114zM50 172h425v-102h-425v102z" />
    <glyph glyph-name="logicalnot" unicode="&#xac;" horiz-adv-x="540" 
d="M490 401v-102v-118h-108v118h-332v102h440z" />
    <glyph glyph-name="uni00B5" unicode="&#xb5;" horiz-adv-x="573" 
d="M548 102v-102h-56q-37 0 -64 14.5t-42 41.5q-24 -36 -58.5 -52.5t-80.5 -16.5q-43 0 -76 18v-205h-108v700h108v-315q0 -47 25 -72t66 -25q47 0 77.5 30.5t30.5 94.5v287h108v-365q0 -15 9 -24t24 -9h37z" />
    <glyph glyph-name="minus" unicode="&#x2212;" horiz-adv-x="550" 
d="M55 401h440v-102h-440v102z" />
    <glyph glyph-name="multiply" unicode="&#xd7;" horiz-adv-x="498" 
d="M320 350l128 -128l-72 -70l-127 127l-127 -127l-72 70l128 128l-128 128l72 70l127 -127l127 127l72 -70z" />
    <glyph glyph-name="notequal" unicode="&#x2260;" horiz-adv-x="530" 
d="M323 402l-46 -103h203v-102h-249l-61 -137h-70l61 137h-111v102h157l46 103h-203v102h249l61 136h70l-61 -136h111v-102h-157z" />
    <glyph glyph-name="partialdiff" unicode="&#x2202;" horiz-adv-x="581" 
d="M383.5 668q67.5 -45 107.5 -128t40 -190q0 -116 -36 -198t-97.5 -123.5t-138.5 -41.5q-67 0 -115 28t-73.5 76.5t-25.5 108.5q0 68 27 120.5t79 82.5t122 30q78 0 148 -45q-9 100 -59 161t-135 62q-64 0 -121 -33v99q56 36 131 36q79 0 146.5 -45zM370 143q41 54 51 149
q-58 44 -137 44q-59 0 -95 -35t-36 -98q0 -51 29 -82.5t80 -31.5q67 0 108 54z" />
    <glyph glyph-name="percent" unicode="%" horiz-adv-x="782" 
d="M130.5 414.5q-37.5 21.5 -59 58t-21.5 80.5t21.5 80.5t59 58t83.5 21.5t83 -21t58.5 -58t21.5 -81t-21 -80.5t-58.5 -58t-83.5 -21.5t-83.5 21.5zM582 700h108l-492 -700h-107zM265 502q20 21 20 51q0 31 -20 52t-52 21q-31 0 -51 -21t-20 -52q0 -30 20 -51t51 -21
q32 0 52 21zM485.5 9.5q-37.5 21.5 -59 58t-21.5 80.5t21.5 80.5t59 58t83.5 21.5t83 -21.5t58.5 -58t21.5 -80.5t-21.5 -80.5t-58.5 -58t-83 -21.5t-83.5 21.5zM620 97q20 21 20 51q0 31 -20 52t-52 21q-31 0 -51 -21t-20 -52q0 -30 20 -51t51 -21q32 0 52 21z" />
    <glyph glyph-name="perthousand" unicode="&#x2030;" horiz-adv-x="1137" 
d="M130.5 414.5q-37.5 21.5 -59 58t-21.5 80.5t21.5 80.5t59 58t83.5 21.5t83 -21.5t58.5 -58t21.5 -80.5t-21 -80.5t-58.5 -58t-83.5 -21.5t-83.5 21.5zM582 700h108l-492 -700h-107zM265 502q20 21 20 51q0 31 -20 52t-52 21q-31 0 -51 -21t-20 -52q0 -30 20 -51t51 -21
q32 0 52 21zM485.5 9.5q-37.5 21.5 -59 58t-21.5 80.5t21.5 80.5t59 58t83.5 21.5t83 -21.5t58.5 -58t21.5 -80.5t-21.5 -80.5t-58.5 -58t-83 -21.5t-83.5 21.5zM855.5 9.5q-37.5 21.5 -59 58t-21.5 80.5t21.5 80.5t59 58t83.5 21.5t83 -21.5t58.5 -58t21.5 -80.5
t-21.5 -80.5t-58.5 -58t-83 -21.5t-83.5 21.5zM620 97q20 21 20 51q0 31 -20 52t-52 21q-31 0 -51 -21t-20 -52q0 -30 20 -51t51 -21q32 0 52 21zM990 97q20 21 20 51q0 31 -20 52t-52 21q-31 0 -51 -21t-20 -52q0 -30 20 -51t51 -21q32 0 52 21z" />
    <glyph glyph-name="plus" unicode="+" horiz-adv-x="550" 
d="M495 299h-169v-169h-102v169h-169v102h169v169h102v-169h169v-102z" />
    <glyph glyph-name="plusminus" unicode="&#xb1;" horiz-adv-x="550" 
d="M495 484v-102h-169v-152h-102v152h-169v102h169v151h102v-151h169zM55 167h440v-102h-440v102z" />
    <glyph glyph-name="product" unicode="&#x220f;" horiz-adv-x="640" 
d="M70 700h500v-900h-108v796h-284v-796h-108v900z" />
    <glyph glyph-name="radical" unicode="&#x221a;" horiz-adv-x="665" 
d="M147 211h-97v104h159l109 -188l226 673h111l-274 -800h-107z" />
    <glyph glyph-name="summation" unicode="&#x2211;" horiz-adv-x="555" 
d="M40 -105l222 365l-207 344v96h450v-104h-323l202 -336l-216 -356h352v-104h-480v95z" />
    <glyph glyph-name="arrowup" unicode="&#x2191;" horiz-adv-x="700" 
d="M650 256l-246 246v-502h-108v502l-246 -246v144l300 300l300 -300v-144z" />
    <glyph glyph-name="uni2197" unicode="&#x2197;" horiz-adv-x="642" 
d="M592 605v-424l-102 -102v350l-366 -366l-74 74l366 366h-350l102 102h424z" />
    <glyph glyph-name="arrowright" unicode="&#x2192;" horiz-adv-x="805" 
d="M755 350l-300 -300h-144l248 248h-509v104h509l-248 248h144z" />
    <glyph glyph-name="uni2198" unicode="&#x2198;" horiz-adv-x="642" 
d="M592 502v-424h-424l-102 102h350l-366 366l74 74l366 -366v350z" />
    <glyph glyph-name="arrowdown" unicode="&#x2193;" horiz-adv-x="700" 
d="M650 444v-144l-300 -300l-300 300v144l246 -246v502h108v-502z" />
    <glyph glyph-name="uni2199" unicode="&#x2199;" horiz-adv-x="642" 
d="M226 180h350l-102 -102h-424v424l102 102v-350l366 366l74 -74z" />
    <glyph glyph-name="arrowleft" unicode="&#x2190;" horiz-adv-x="805" 
d="M755 298h-509l248 -248h-144l-300 300l300 300h144l-248 -248h509v-104z" />
    <glyph glyph-name="uni2196" unicode="&#x2196;" horiz-adv-x="642" 
d="M518 63l-366 366v-350l-102 102v424h424l102 -102h-350l366 -366z" />
    <glyph glyph-name="arrowboth" unicode="&#x2194;" horiz-adv-x="1070" 
d="M1020 350l-264 -265h-142l210 213h-580l213 -213h-142l-265 265l265 265h142l-213 -213h582l-212 213h142z" />
    <glyph glyph-name="arrowupdn" unicode="&#x2195;" horiz-adv-x="630" 
d="M369 639v-578l211 211v-142l-265 -265l-265 265v142l211 -211v578l-211 -210v142l265 264l265 -264v-142z" />
    <glyph glyph-name="lozenge" unicode="&#x25ca;" horiz-adv-x="550" 
d="M45 350l186 350h88l186 -350l-186 -350h-88zM389 350l-114 213l-113 -213l113 -213z" />
    <glyph glyph-name="bar" unicode="|" horiz-adv-x="248" 
d="M70 720h108v-920h-108v920z" />
    <glyph glyph-name="brokenbar" unicode="&#xa6;" horiz-adv-x="248" 
d="M70 720h108v-370h-108v370zM70 170h108v-370h-108v370z" />
    <glyph glyph-name="at" unicode="@" horiz-adv-x="784" 
d="M585 562.5q80 -49.5 122 -128.5t42 -164q0 -71 -21 -119.5t-55.5 -72t-77.5 -23.5q-47 0 -79.5 21t-45.5 60q-40 -48 -103 -48q-43 0 -78 21t-54.5 58.5t-19.5 82.5q0 46 19.5 83t54.5 58.5t78 21.5q57 0 96 -41v31h92v-226q0 -36 14.5 -58.5t46.5 -22.5q43 0 70.5 43.5
t27.5 130.5t-41.5 158t-113.5 111.5t-160 40.5q-90 0 -165.5 -43.5t-119.5 -119t-44 -167.5q0 -94 45 -169t124 -118t178 -43q95 0 167 26v-34q-74 -24 -167 -24q-108 0 -195 46.5t-137 129.5t-50 186q0 99 47.5 182t131 131.5t185.5 48.5q106 0 186 -49.5zM441 193.5
q22 21.5 22 56.5t-22 57t-55 22q-34 0 -56 -22t-22 -57t22 -56.5t56 -21.5q33 0 55 21.5z" />
    <glyph glyph-name="ampersand" unicode="&#x26;" horiz-adv-x="697" 
d="M537 0l-45 44q-81 -57 -199 -57q-69 0 -125.5 25.5t-89.5 73t-33 110.5q0 57 27.5 106.5t78.5 83.5q-45 58 -45 130q0 58 29.5 102.5t80.5 69.5t112 25t112.5 -24t83.5 -73t32 -120h-115q0 51 -32 78t-81 27q-46 0 -76.5 -24.5t-30.5 -67.5q0 -27 17.5 -53t47.5 -56
l199 -201q28 56 28 135h115q0 -56 -15.5 -112.5t-47.5 -103.5l117 -118h-145zM414 121l-193 191q-30 -20 -45 -48t-15 -59q0 -50 37.5 -80.5t101.5 -30.5q66 0 114 27z" />
    <glyph glyph-name="paragraph" unicode="&#xb6;" horiz-adv-x="639" 
d="M595 604h-61v-804h-102v804h-90v-804h-102v480q-57 0 -105 28.5t-76.5 76.5t-28.5 105q0 58 28 106t76.5 76t105.5 28h102h192h61v-96z" />
    <glyph glyph-name="copyright" unicode="&#xa9;" horiz-adv-x="794" 
d="M215.5 36.5q-83.5 48.5 -132 132t-48.5 181.5t48.5 181.5t132 132t181.5 48.5t181.5 -48.5t132 -132t48.5 -181.5t-48.5 -181.5t-132 -132t-181.5 -48.5t-181.5 48.5zM561 64.5q75 44.5 119 120t44 165.5t-44 166t-119 120t-164 44t-164 -44.5t-119 -120t-44 -165.5
q0 -89 44 -165t119 -120.5t164 -44.5t164 44.5zM301 182q-45 26 -71 70.5t-26 97.5t26 97.5t71 71t99 26.5q69 0 122 -42t66 -110h-101q-8 26 -32.5 41.5t-55.5 15.5q-45 0 -72.5 -29.5t-27.5 -70.5q0 -40 27.5 -70t72.5 -30q31 0 55.5 15.5t32.5 41.5h101q-13 -67 -66 -109
t-122 -42q-54 0 -99 26z" />
    <glyph glyph-name="registered" unicode="&#xae;" horiz-adv-x="794" 
d="M578.5 663.5q83.5 -48.5 132 -132t48.5 -181.5t-48.5 -181.5t-132 -132t-181.5 -48.5t-181.5 48.5t-132 132t-48.5 181.5t48.5 181.5t132 132t181.5 48.5t181.5 -48.5zM561 64.5q75 44.5 119 120t44 165.5t-44 166t-119 120t-164 44t-164 -44.5t-119 -120t-44 -165.5
q0 -89 44 -165t119 -120.5t164 -44.5t164 44.5zM538 344q-16 -29 -45 -47l96 -132h-101l-82 112h-44v-112h-92v370h92h52q62 0 101 -35.5t39 -88.5q0 -38 -16 -67zM362 357h41q28 0 43.5 12.5t15.5 34.5t-15.5 34t-43.5 12h-41v-93z" />
    <glyph glyph-name="section" unicode="&#xa7;" horiz-adv-x="534" 
d="M472 205q-17 -33 -47 -57q37 -44 37 -101q0 -75 -54 -117t-140 -42q-87 0 -143 45.5t-56 132.5h106q0 -42 25.5 -61.5t67.5 -19.5q40 0 63 16t23 46q0 29 -29 48.5t-90 45.5l-35 16q-72 32 -113.5 70.5t-41.5 102.5q0 39 17.5 71t48.5 55q-34 40 -34 101q0 72 53.5 114
t133.5 42t134 -45.5t54 -131.5h-106q0 41 -23.5 60.5t-58.5 19.5t-57 -15t-22 -44q0 -30 29.5 -50.5t92.5 -47.5l24 -11q74 -32 116 -70t42 -101q0 -39 -17 -72zM177 284q24 -21 69 -40l36 -15q46 -18 69 -29q30 29 30 67q0 31 -25.5 51.5t-74.5 41.5l-30 12q-49 20 -67 29
q-31 -27 -31 -66q0 -30 24 -51z" />
    <glyph glyph-name="trademark" unicode="&#x2122;" horiz-adv-x="465" 
d="M196 651h-53v-151h-54v151h-54v49h161v-49zM430 500h-53v112l-37 -70h-32l-38 73v-115h-52v200h52h6l48 -97l48 97h58v-200z" />
    <glyph glyph-name="degree" unicode="&#xb0;" horiz-adv-x="396" 
d="M114.5 511.5q-37.5 21.5 -58.5 58t-21 80.5t21 80.5t58.5 58t83.5 21.5t83.5 -21.5t58.5 -58t21 -80.5t-21 -80.5t-58 -58t-84 -21.5q-46 0 -83.5 21.5zM248 600q19 20 19 50t-19.5 50t-49.5 20t-49.5 -20t-19.5 -50t19.5 -50t49.5 -20q31 0 50 20z" />
    <glyph glyph-name="estimated" unicode="&#x212e;" horiz-adv-x="800" 
d="M592.5 662q84.5 -48 131 -130.5t46.5 -181.5q0 -15 -15 -15h-560q-15 0 -15 -15v-192q0 -11 7 -19q84 -89 233 -89q73 0 131.5 25t99.5 72q8 9 18 9h37q6 0 10 -2.5t4 -6.5q0 -5 -5 -10q-52 -55 -127 -86t-168 -31q-117 0 -205.5 48t-136.5 130t-48 182q0 99 46.5 181.5
t131 130.5t192.5 48t192.5 -48zM613 591q-41 43 -95.5 66t-117.5 23t-117.5 -23t-95.5 -66q-7 -8 -7 -19v-192q0 -15 15 -15h410q15 0 15 15v192q0 11 -7 19z" />
    <glyph glyph-name="uni2116" unicode="&#x2116;" horiz-adv-x="991" 
d="M709.5 414.5q-37.5 21.5 -58.5 58t-21 80.5t21 80.5t58.5 58t83.5 21.5t83.5 -21.5t58.5 -58t21 -80.5t-21 -80.5t-58 -58t-84 -21.5q-46 0 -83.5 21.5zM570 700v-700h-90l-295 475v-475h-115v700h90l295 -475v475h115zM843 503q19 20 19 50t-19.5 50t-49.5 20t-49.5 -20
t-19.5 -50t19.5 -50t49.5 -20q31 0 50 20zM643 333h302v-102h-302v102z" />
    <glyph glyph-name="asciicircum" unicode="^" horiz-adv-x="540" 
d="M500 380h-118l-112 197l-111 -197h-119l186 320h88z" />
    <glyph glyph-name="dagger" unicode="&#x2020;" horiz-adv-x="480" 
d="M430 451h-136v-451h-108v451h-136v104h136v145h108v-145h136v-104z" />
    <glyph glyph-name="daggerdbl" unicode="&#x2021;" horiz-adv-x="480" 
d="M294 451v-202h136v-104h-136v-145h-108v145h-136v104h136v202h-136v104h136v145h108v-145h136v-104h-136z" />
    <glyph glyph-name="uni0308" unicode="&#x308;" horiz-adv-x="0" 
d="M-315 673h105v-105h-105v105zM-125 673h105v-105h-105v105z" />
    <glyph glyph-name="uni0307" unicode="&#x307;" horiz-adv-x="0" 
d="M-142 685h120v-120h-120v120z" />
    <glyph glyph-name="gravecomb" unicode="&#x300;" horiz-adv-x="0" 
d="M-100 700h-130l106 -135h104z" />
    <glyph glyph-name="acutecomb" unicode="&#x301;" horiz-adv-x="0" 
d="M-126 565l106 135h-130l-80 -135h104z" />
    <glyph glyph-name="uni030B" unicode="&#x30b;" horiz-adv-x="0" 
d="M-274 560l81 135h-114l-75 -135h108zM-111 560l91 135h-114l-85 -135h108z" />
    <glyph glyph-name="uni0302" unicode="&#x302;" horiz-adv-x="0" 
d="M-130 560l-52 74l-53 -74h-110l106 140h104h9l106 -140h-110z" />
    <glyph glyph-name="uni030C" unicode="&#x30c;" horiz-adv-x="0" 
d="M-20 700l-106 -140h-104h-9l-106 140h110l53 -73l52 73h110z" />
    <glyph glyph-name="uni0306" unicode="&#x306;" horiz-adv-x="0" 
d="M-293.5 588.5q-41.5 36.5 -41.5 103.5h98q0 -59 60 -59q59 0 59 59h98q0 -67 -41.5 -103.5t-115.5 -36.5q-75 0 -116.5 36.5z" />
    <glyph glyph-name="uni030A" unicode="&#x30a;" horiz-adv-x="0" 
d="M-227.5 575q-33.5 32 -33.5 80t33.5 80.5t85.5 32.5q53 0 86.5 -32t33.5 -81t-33.5 -80.5t-86.5 -31.5q-52 0 -85.5 32zM-109.5 625.5q11.5 11.5 11.5 29.5q0 19 -11.5 30.5t-32.5 11.5q-20 0 -31.5 -11.5t-11.5 -30.5q0 -18 11.5 -29.5t31.5 -11.5q21 0 32.5 11.5z" />
    <glyph glyph-name="tildecomb" unicode="&#x303;" horiz-adv-x="0" 
d="M-310.5 671q24.5 34 64.5 34q38 0 80 -28q31 -23 44 -23q18 0 18 46h89q0 -70 -24.5 -104t-64.5 -34q-37 0 -79 28q-17 12 -27 17.5t-18 5.5q-18 0 -18 -46h-89q0 70 24.5 104z" />
    <glyph glyph-name="uni0304" unicode="&#x304;" horiz-adv-x="0" 
d="M-300 659h280v-89h-280v89z" />
    <glyph glyph-name="uni0312" unicode="&#x312;" horiz-adv-x="0" 
d="M-133 780h103l10 190h-83z" />
    <glyph glyph-name="uni0326" unicode="&#x326;" horiz-adv-x="0" 
d="M-20 -65h-103l-10 -190h83z" />
    <glyph glyph-name="uni0327" unicode="&#x327;" horiz-adv-x="0" 
d="M-42 -72.5q22 -20.5 22 -52.5q0 -92 -171 -92q-28 0 -44 1v79q34 -2 45 -2q76 0 76 27t-73 30v82h89v-46q34 -6 56 -26.5z" />
    <glyph glyph-name="uni0328" unicode="&#x328;" horiz-adv-x="0" 
d="M-165 -191q-25 22 -25 61q0 29 18 63t50 67h97q-28 -27 -44.5 -55.5t-16.5 -49.5q0 -28 28 -28h4q9 0 29 6v-72q-34 -14 -74 -14q-41 0 -66 22z" />
    <glyph glyph-name="acute" unicode="&#xb4;" horiz-adv-x="250" 
d="M124 565l106 135h-130l-80 -135h104z" />
    <glyph glyph-name="breve" unicode="&#x2d8;" horiz-adv-x="355" 
d="M61.5 588.5q-41.5 36.5 -41.5 103.5h98q0 -59 60 -59q59 0 59 59h98q0 -67 -41.5 -103.5t-115.5 -36.5q-75 0 -116.5 36.5z" />
    <glyph glyph-name="caron" unicode="&#x2c7;" horiz-adv-x="365" 
d="M345 700l-106 -140h-104h-9l-106 140h110l53 -73l52 73h110z" />
    <glyph glyph-name="cedilla" unicode="&#xb8;" horiz-adv-x="255" 
d="M213 -72.5q22 -20.5 22 -52.5q0 -92 -171 -92q-28 0 -44 1v79q34 -2 45 -2q76 0 76 27t-73 30v82h89v-46q34 -6 56 -26.5z" />
    <glyph glyph-name="circumflex" unicode="&#x2c6;" horiz-adv-x="365" 
d="M235 560l-52 74l-53 -74h-110l106 140h104h9l106 -140h-110z" />
    <glyph glyph-name="dieresis" unicode="&#xa8;" horiz-adv-x="335" 
d="M20 673h105v-105h-105v105zM210 673h105v-105h-105v105z" />
    <glyph glyph-name="dotaccent" unicode="&#x2d9;" horiz-adv-x="160" 
d="M20 685h120v-120h-120v120z" />
    <glyph glyph-name="grave" unicode="`" horiz-adv-x="250" 
d="M150 700h-130l106 -135h104z" />
    <glyph glyph-name="hungarumlaut" unicode="&#x2dd;" horiz-adv-x="402" 
d="M128 560l81 135h-114l-75 -135h108zM291 560l91 135h-114l-85 -135h108z" />
    <glyph glyph-name="macron" unicode="&#xaf;" horiz-adv-x="320" 
d="M20 659h280v-89h-280v89z" />
    <glyph glyph-name="ogonek" unicode="&#x2db;" horiz-adv-x="205" 
d="M45 -191q-25 22 -25 61q0 29 18 63t50 67h97q-28 -27 -44.5 -55.5t-16.5 -49.5q0 -28 28 -28h4q9 0 29 6v-72q-34 -14 -74 -14q-41 0 -66 22z" />
    <glyph glyph-name="ring" unicode="&#x2da;" horiz-adv-x="279" 
d="M53.5 575q-33.5 32 -33.5 80q0 49 33.5 81t86.5 32t86 -32t33 -81t-33 -80.5t-86 -31.5t-86.5 32zM172.5 625.5q11.5 11.5 11.5 29.5q0 19 -11.5 30.5t-32.5 11.5q-20 0 -31.5 -11.5t-11.5 -30.5q0 -18 11.5 -29.5t31.5 -11.5q21 0 32.5 11.5z" />
    <glyph glyph-name="tilde" unicode="&#x2dc;" horiz-adv-x="360" 
d="M44.5 671q24.5 34 64.5 34q38 0 80 -28q31 -23 44 -23q18 0 18 46h89q0 -70 -24.5 -104t-64.5 -34q-37 0 -79 28q-17 12 -27 17.5t-18 5.5q-18 0 -18 -46h-89q0 70 24.5 104z" />
    <glyph glyph-name="brevecy" horiz-adv-x="340" 
d="M30 664h280v-94h-280v94z" />
    </font>
</defs>
</svg>
