<svg width="805" height="269" viewBox="0 0 805 269" fill="none" xmlns="http://www.w3.org/2000/svg">
<g style="mix-blend-mode:multiply">
<path d="M402.495 179.337C393.662 179.347 385.03 181.983 377.691 186.91C370.352 191.838 364.634 198.835 361.261 207.02C357.888 215.204 357.011 224.206 358.741 232.89C360.47 241.574 364.729 249.548 370.979 255.806C377.228 262.064 385.188 266.324 393.852 268.047C402.516 269.771 411.496 268.881 419.655 265.49C427.815 262.099 434.789 256.359 439.695 248.995C444.601 241.632 447.22 232.976 447.22 224.121C447.22 218.235 446.063 212.407 443.814 206.97C441.566 201.533 438.271 196.594 434.117 192.435C429.963 188.276 425.032 184.978 419.606 182.731C414.18 180.483 408.366 179.33 402.495 179.337ZM402.495 260.033C395.418 260.033 388.5 257.929 382.616 253.988C376.732 250.046 372.146 244.444 369.438 237.89C366.73 231.336 366.022 224.123 367.402 217.165C368.783 210.207 372.19 203.816 377.194 198.8C382.198 193.783 388.574 190.367 395.514 188.983C402.455 187.599 409.649 188.309 416.187 191.024C422.725 193.739 428.313 198.336 432.245 204.235C436.176 210.134 438.275 217.069 438.275 224.163C438.275 233.676 434.505 242.8 427.795 249.527C421.085 256.254 411.984 260.033 402.495 260.033ZM420.385 206.228V219.695H380.18V214.748H371.235V237.449H380.18V228.663H420.385V237.449H429.33V206.228H420.385ZM406.93 219.685H415.875C417.023 219.629 418.106 219.132 418.899 218.297C419.692 217.462 420.135 216.354 420.135 215.201C420.135 214.048 419.692 212.94 418.899 212.105C418.106 211.271 417.023 210.774 415.875 210.717H406.93C406.324 210.688 405.719 210.782 405.151 210.994C404.582 211.206 404.063 211.531 403.624 211.951C403.185 212.37 402.835 212.874 402.596 213.433C402.357 213.992 402.234 214.593 402.234 215.201C402.234 215.809 402.357 216.411 402.596 216.969C402.835 217.528 403.185 218.033 403.624 218.452C404.063 218.871 404.582 219.197 405.151 219.408C405.719 219.62 406.324 219.714 406.93 219.685Z" fill="#A9DDE4"/>
<path d="M313.055 179.337C304.222 179.347 295.59 181.983 288.251 186.91C280.912 191.838 275.194 198.835 271.821 207.02C268.448 215.204 267.571 224.206 269.301 232.89C271.031 241.574 275.29 249.548 281.539 255.806C287.789 262.064 295.749 266.324 304.413 268.047C313.077 269.771 322.056 268.881 330.216 265.49C338.375 262.099 345.349 256.359 350.255 248.995C355.162 241.632 357.78 232.976 357.78 224.121C357.78 218.235 356.623 212.407 354.375 206.97C352.126 201.533 348.831 196.594 344.677 192.435C340.523 188.276 335.593 184.978 330.167 182.731C324.741 180.483 318.926 179.33 313.055 179.337ZM313.055 260.033C311.077 260.032 309.103 259.868 307.152 259.542H308.588V255.554H317.522V259.542H318.947C317 259.868 315.029 260.032 313.055 260.033ZM317.522 242.098V246.587H308.588V242.098H317.522ZM308.588 233.141V228.642H317.522V233.141H308.588ZM326.467 257.42V215.249H317.522V219.727H308.588V215.249H299.643V257.474C291.944 254.353 285.568 248.645 281.607 241.329C277.647 234.012 276.348 225.542 277.933 217.371C279.519 209.199 283.89 201.835 290.298 196.54C296.706 191.245 304.751 188.35 313.055 188.35C321.359 188.35 329.404 191.245 335.812 196.54C342.22 201.835 346.591 209.199 348.177 217.371C349.762 225.542 348.463 234.012 344.503 241.329C340.542 248.645 334.166 254.353 326.467 257.474V257.42ZM286.22 201.761V224.152H295.165V210.717H330.945V224.152H339.922V201.761H286.22Z" fill="#A9DDE4"/>
<path d="M223.615 179.337C214.78 179.337 206.143 181.963 198.797 186.884C191.451 191.805 185.725 198.799 182.344 206.983C178.963 215.166 178.078 224.17 179.802 232.857C181.525 241.545 185.78 249.524 192.027 255.787C198.275 262.05 206.235 266.316 214.9 268.044C223.566 269.772 232.548 268.885 240.711 265.495C248.873 262.106 255.85 256.366 260.759 249.001C265.667 241.636 268.287 232.978 268.287 224.121C268.287 212.243 263.581 200.852 255.203 192.454C246.826 184.055 235.463 179.337 223.615 179.337ZM205.725 228.663H241.495V237.641H205.725V228.663ZM213.99 219.695L223.094 212.402H223.615H224.073L232.954 219.695H213.99ZM223.562 260.033C214.459 260.037 205.697 256.562 199.06 250.315C192.424 244.068 188.413 235.52 187.845 226.412C187.277 217.304 190.194 208.321 196.002 201.294C201.81 194.267 210.073 189.725 219.106 188.592V199.362H223.573C223.977 199.362 224.371 199.482 224.707 199.707C225.043 199.932 225.305 200.251 225.459 200.625C225.614 200.999 225.654 201.411 225.576 201.808C225.497 202.205 225.302 202.57 225.017 202.856C224.731 203.143 224.367 203.338 223.971 203.417C223.575 203.496 223.164 203.455 222.791 203.3C222.418 203.145 222.099 202.883 221.875 202.546C221.65 202.21 221.531 201.814 221.531 201.409H212.596C212.594 203.663 213.285 205.864 214.574 207.711L199.631 219.695H196.738V246.587H250.397V219.695H247.068L232.56 207.785C233.895 205.921 234.61 203.682 234.602 201.387C234.602 199.26 233.987 197.179 232.832 195.395C231.677 193.61 230.031 192.199 228.093 191.333V188.592C237.129 189.725 245.393 194.27 251.202 201.3C257.01 208.331 259.925 217.317 259.353 226.428C258.78 235.539 254.764 244.087 248.121 250.332C241.479 256.576 232.711 260.045 223.605 260.033H223.562Z" fill="#A9DDE4"/>
<path d="M44.7251 179.326C35.8921 179.326 27.2574 181.951 19.9123 186.87C12.5671 191.788 6.84139 198.78 3.45872 206.96C0.0760407 215.14 -0.811714 224.141 0.907659 232.827C2.62703 241.513 6.87635 249.492 13.1185 255.758C19.3607 262.023 27.3155 266.292 35.9775 268.026C44.6395 269.76 53.6199 268.881 61.7836 265.5C69.9472 262.118 76.9277 256.387 81.8427 249.029C86.7577 241.671 89.3866 233.018 89.3971 224.163C89.4041 218.278 88.2538 212.448 86.012 207.009C83.7701 201.569 80.4807 196.626 76.3318 192.462C72.183 188.298 67.256 184.994 61.8327 182.74C56.4093 180.486 50.596 179.326 44.7251 179.326ZM44.7251 260.022C37.6476 260.024 30.7284 257.922 24.8428 253.981C18.9571 250.041 14.3694 244.439 11.66 237.884C8.95058 231.329 8.24111 224.116 9.62136 217.157C11.0016 210.198 14.4095 203.806 19.4141 198.789C24.4187 193.772 30.7951 190.355 37.7368 188.972C44.6784 187.588 51.8735 188.299 58.4119 191.015C64.9503 193.732 70.5383 198.331 74.469 204.231C78.3998 210.131 80.4968 217.068 80.4947 224.163C80.4961 228.873 79.5719 233.537 77.7749 237.889C75.978 242.241 73.3434 246.195 70.0218 249.526C66.7001 252.857 62.7565 255.499 58.416 257.302C54.0756 259.105 49.4234 260.033 44.7251 260.033V260.022ZM62.6152 210.707V237.641H26.8351V210.707H17.89V246.576H71.5496V210.707H62.6152ZM58.1374 231.563V210.707H49.203V206.228H40.2579V210.707H31.3023V231.563L44.7251 237.492L58.1374 231.563ZM40.2473 219.674H49.1924V225.72L44.7251 227.692L40.2473 225.72V219.674Z" fill="#A9DDE4"/>
<path d="M760.275 89.6631C751.44 89.6631 742.803 92.2896 735.456 97.2105C728.11 102.131 722.384 109.126 719.003 117.309C715.622 125.492 714.738 134.496 716.461 143.184C718.185 151.871 722.44 159.85 728.687 166.113C734.934 172.376 742.894 176.642 751.56 178.37C760.225 180.098 769.207 179.211 777.37 175.821C785.533 172.432 792.51 166.692 797.418 159.327C802.327 151.962 804.947 143.304 804.947 134.447C804.947 122.569 800.24 111.178 791.863 102.78C783.485 94.3813 772.123 89.6631 760.275 89.6631ZM760.275 170.369C753.198 170.369 746.28 168.266 740.396 164.324C734.512 160.383 729.926 154.781 727.218 148.227C724.51 141.672 723.802 134.46 725.182 127.502C726.563 120.544 729.971 114.153 734.974 109.136C739.978 104.12 746.354 100.704 753.294 99.3197C760.235 97.9357 767.429 98.646 773.967 101.361C780.505 104.076 786.093 108.673 790.025 114.572C793.957 120.471 796.055 127.406 796.055 134.5C796.055 144.013 792.285 153.137 785.575 159.864C778.865 166.59 769.764 170.369 760.275 170.369ZM765.901 103.119H754.733L745.788 134.5H735.737V156.892H784.94V134.5H774.9L765.901 103.119ZM775.942 147.903H744.629V143.425H752.479L760.285 116.021L768.092 143.425H775.942V147.903Z" fill="#A9DDE4"/>
<path d="M706.615 161.402C711.599 154.741 714.634 146.82 715.379 138.527C716.125 130.233 714.553 121.896 710.838 114.448C707.124 107.001 701.414 100.737 694.349 96.3594C687.283 91.9818 679.141 89.6631 670.835 89.6631C662.529 89.6631 654.387 91.9818 647.322 96.3594C640.256 100.737 634.546 107.001 630.832 114.448C627.117 121.896 625.545 130.233 626.291 138.527C627.037 146.82 630.071 154.741 635.055 161.402C639.215 166.978 644.614 171.505 650.824 174.623C657.034 177.742 663.884 179.365 670.83 179.365C677.775 179.365 684.625 177.742 690.835 174.623C697.046 171.505 702.445 166.978 706.605 161.402H706.615ZM670.835 98.6305C677.117 98.6264 683.289 100.282 688.731 103.429C694.172 106.577 698.69 111.106 701.83 116.561C704.97 122.015 706.621 128.203 706.617 134.501C706.613 140.798 704.954 146.984 701.808 152.435H688.789L676.44 112.055H671.122C672.286 111.99 673.379 111.472 674.168 110.611C674.958 109.751 675.381 108.616 675.348 107.448C675.316 106.279 674.83 105.17 673.994 104.355C673.158 103.54 672.038 103.084 670.872 103.084C669.706 103.084 668.586 103.54 667.751 104.355C666.915 105.17 666.429 106.279 666.396 107.448C666.364 108.616 666.787 109.751 667.576 110.611C668.365 111.472 669.458 111.99 670.622 112.055H665.304L652.945 152.435H639.863C636.722 146.982 635.069 140.797 635.069 134.501C635.069 128.205 636.722 122.019 639.862 116.567C643.002 111.114 647.518 106.586 652.957 103.437C658.396 100.289 664.565 98.631 670.846 98.6305H670.835ZM670.835 124.509L675.27 139.01H666.453L670.835 124.509ZM663.656 147.967H678.015L679.376 152.424H662.284L663.656 147.967ZM670.835 170.359C662.122 170.369 653.707 167.179 647.18 161.391H694.479C687.958 167.181 679.546 170.375 670.835 170.369V170.359Z" fill="#A9DDE4"/>
<path d="M223.615 89.6631C214.765 89.6526 206.11 92.2746 198.747 97.1973C191.384 102.12 185.643 109.122 182.252 117.317C178.86 125.512 177.97 134.532 179.694 143.234C181.418 151.937 185.679 159.931 191.937 166.204C198.195 172.478 206.169 176.75 214.85 178.478C223.53 180.206 232.528 179.314 240.702 175.914C248.877 172.513 255.861 166.758 260.772 159.377C265.682 151.995 268.298 143.319 268.287 134.447C268.287 122.569 263.581 111.178 255.203 102.78C246.826 94.3814 235.463 89.6631 223.615 89.6631ZM195.685 112.055H210.575L188.888 143.115C187.572 137.767 187.501 132.186 188.682 126.805C189.862 121.425 192.262 116.389 195.695 112.087L195.685 112.055ZM254.918 151.827V134.511H245.973V125.543H232.55V134.511H206.31L221.201 156.902H251.514C247.91 161.42 243.27 164.996 237.988 167.325C232.707 169.654 226.942 170.668 221.185 170.279C215.428 169.891 209.851 168.111 204.929 165.093C200.007 162.075 195.886 157.907 192.919 152.947L227.721 103.109H206.289C213.082 99.344 220.912 97.8958 228.598 98.9826C236.284 100.07 243.409 103.633 248.898 109.134C254.387 114.636 257.943 121.778 259.029 129.483C260.114 137.188 258.672 145.037 254.918 151.848V151.827ZM245.973 143.435V147.914H226.008L223.02 143.425L245.973 143.435Z" fill="#A9DDE4"/>
<path d="M134.165 89.6631C125.33 89.6631 116.693 92.2896 109.346 97.2105C102 102.131 96.2744 109.126 92.8933 117.309C89.5122 125.492 88.6276 134.496 90.3512 143.184C92.0749 151.871 96.3295 159.85 102.577 166.113C108.825 172.376 116.784 176.642 125.45 178.37C134.115 180.098 143.097 179.211 151.26 175.821C159.423 172.432 166.4 166.692 171.308 159.327C176.217 151.962 178.837 143.304 178.837 134.447C178.823 122.574 174.112 111.191 165.737 102.795C157.363 94.4 146.008 89.6772 134.165 89.6631ZM134.165 98.6305C140.024 98.6291 145.793 100.071 150.966 102.828C156.139 105.585 160.557 109.574 163.832 114.444C167.107 119.314 169.139 124.916 169.748 130.758C170.358 136.599 169.527 142.502 167.329 147.946H147.577V129.819C150.294 129.266 152.709 127.721 154.353 125.484C155.998 123.246 156.754 120.476 156.476 117.711C156.197 114.946 154.904 112.383 152.847 110.52C150.79 108.658 148.116 107.627 145.344 107.63H122.944C120.172 107.627 117.497 108.658 115.44 110.52C113.383 112.383 112.09 114.946 111.811 117.711C111.533 120.476 112.29 123.246 113.934 125.484C115.578 127.721 117.993 129.266 120.71 129.819V147.946H101.001C98.8027 142.502 97.9717 136.599 98.5814 130.758C99.191 124.916 101.223 119.314 104.498 114.444C107.773 109.574 112.191 105.585 117.364 102.828C122.537 100.071 128.306 98.6291 134.165 98.6305ZM145.344 121.022H122.944C122.377 120.983 121.845 120.73 121.458 120.313C121.07 119.896 120.854 119.348 120.854 118.778C120.854 118.208 121.07 117.659 121.458 117.243C121.845 116.826 122.377 116.572 122.944 116.533H145.28C145.587 116.512 145.895 116.554 146.185 116.657C146.475 116.761 146.741 116.923 146.965 117.133C147.19 117.344 147.37 117.598 147.492 117.881C147.615 118.164 147.678 118.469 147.678 118.778C147.678 119.086 147.615 119.391 147.492 119.674C147.37 119.957 147.19 120.212 146.965 120.422C146.741 120.633 146.475 120.795 146.185 120.898C145.895 121.001 145.587 121.043 145.28 121.022H145.344ZM129.698 129.99H138.643V147.914H129.698V129.99ZM134.165 170.338C128.802 170.341 123.507 169.133 118.673 166.803C113.84 164.473 109.592 161.082 106.245 156.881H162.085C158.741 161.088 154.495 164.485 149.661 166.82C144.827 169.156 139.531 170.369 134.165 170.369V170.338Z" fill="#A9DDE4"/>
<path d="M491.945 6.22585e-05C483.115 0.0148217 474.488 2.65251 467.152 7.58C459.817 12.5075 454.103 19.5037 450.732 27.6851C447.36 35.8664 446.483 44.8657 448.211 53.5465C449.939 62.2273 454.194 70.2001 460.439 76.4579C466.684 82.7156 474.639 86.9776 483.299 88.7056C491.959 90.4335 500.936 89.55 509.095 86.1664C517.254 82.7828 524.231 77.051 529.142 69.695C534.054 62.3391 536.681 53.6888 536.691 44.8369C536.699 38.9451 535.546 33.1098 533.299 27.6654C531.053 22.2209 527.757 17.2745 523.6 13.1093C519.443 8.94412 514.507 5.64216 509.075 3.39263C503.644 1.14311 497.822 -0.00976165 491.945 6.22585e-05ZM491.945 80.6958C484.868 80.6958 477.95 78.5918 472.066 74.65C466.181 70.7081 461.595 65.1054 458.887 58.5505C456.18 51.9956 455.472 44.7829 456.853 37.8246C458.235 30.8663 461.643 24.475 466.648 19.4589C471.653 14.4429 478.03 11.0275 484.971 9.6447C491.913 8.26187 499.107 8.97373 505.645 11.6902C512.183 14.4068 517.77 19.0059 521.7 24.906C525.631 30.8061 527.727 37.7422 527.725 44.8369C527.722 54.3483 523.951 63.4691 517.242 70.1936C510.532 76.9182 501.433 80.6958 491.945 80.6958ZM516.302 50.0724L496.412 63.3581V53.7617H500.89V44.7943H496.412V39.5269C499.398 38.4692 501.914 36.3873 503.517 33.6494C505.119 30.9114 505.705 27.6937 505.169 24.5649C504.634 21.4361 503.013 18.5977 500.592 16.5515C498.171 14.5053 495.106 13.383 491.94 13.383C488.773 13.383 485.709 14.5053 483.288 16.5515C480.867 18.5977 479.245 21.4361 478.71 24.5649C478.175 27.6937 478.76 30.9114 480.363 33.6494C481.965 36.3873 484.482 38.4692 487.467 39.5269V44.7943H483V53.7617H487.467V63.3581L467.556 50.0724L462.6 57.5363L491.913 77.1344L521.227 57.5363L516.302 50.0724ZM491.945 31.3805C491.058 31.3827 490.191 31.1209 489.453 30.6284C488.715 30.136 488.14 29.435 487.799 28.6143C487.459 27.7936 487.37 26.8902 487.542 26.0184C487.715 25.1466 488.141 24.3458 488.768 23.7173C489.395 23.0889 490.194 22.6611 491.063 22.4883C491.933 22.3154 492.834 22.4052 493.653 22.7463C494.472 23.0874 495.171 23.6644 495.662 24.4042C496.153 25.1441 496.414 26.0134 496.412 26.9022C496.409 28.089 495.938 29.2265 495.101 30.0658C494.264 30.905 493.129 31.3777 491.945 31.3805Z" fill="#A9DDE4"/>
<path d="M44.7252 89.6631C35.8749 89.6526 27.2204 92.2746 19.8573 97.1973C12.4941 102.12 6.75333 109.122 3.3616 117.317C-0.0301335 125.512 -0.920324 134.532 0.803711 143.234C2.52775 151.937 6.78849 159.931 13.0466 166.204C19.3048 172.478 27.2789 176.75 35.9597 178.478C44.6405 180.206 53.6376 179.314 61.8122 175.914C69.9869 172.513 76.9714 166.758 81.8819 159.377C86.7923 151.995 89.4078 143.319 89.3972 134.447C89.3972 122.569 84.6908 111.178 76.3131 102.78C67.9355 94.3814 56.573 89.6631 44.7252 89.6631ZM44.7252 170.369C37.6482 170.372 30.7294 168.27 24.844 164.33C18.9586 160.389 14.3709 154.788 11.6611 148.234C8.95138 141.68 8.2413 134.467 9.62068 127.509C11.0001 120.55 14.407 114.158 19.4105 109.14C24.414 104.123 30.7894 100.705 37.7303 99.3205C44.6713 97.9356 51.866 98.6453 58.4046 101.36C64.9432 104.074 70.5319 108.672 74.464 114.571C78.396 120.47 80.4948 127.405 80.4948 134.5C80.4948 144.011 76.7265 153.133 70.0188 159.86C63.311 166.586 54.2129 170.367 44.7252 170.369ZM31.3024 125.586V121.108H17.8901V125.586H13.391V147.978H49.235L64.1257 125.586H31.3024ZM44.2998 139.032H22.3573V134.553H47.2779L44.2998 139.032ZM58.1268 138.914V147.999H67.1251L76.0701 138.914H58.1268Z" fill="#A9DDE4"/>
<path d="M62.6146 26.9021H53.6696V47.8438L35.7795 26.9021H26.8345V62.7716H35.7795V41.862L53.6164 62.7716H62.6146V58.2826V26.9021ZM17.8894 53.8043V35.8695L8.9444 44.8475L17.8894 53.8043ZM71.5597 35.8695V53.8043L80.4941 44.8156L71.5597 35.8695ZM44.7245 0C35.8915 6.27487e-06 27.2568 2.62519 19.9116 7.54372C12.5665 12.4622 6.84078 19.4533 3.45811 27.6334C0.0754304 35.8134 -0.812324 44.8151 0.907049 53.5008C2.62642 62.1865 6.87574 70.1663 13.1179 76.4315C19.3601 82.6967 27.3149 86.9661 35.9769 88.7001C44.6389 90.4341 53.6193 89.5549 61.783 86.1735C69.9466 82.7921 76.9271 77.0604 81.8421 69.7028C86.7571 62.3451 89.386 53.692 89.3966 44.8369C89.4035 38.9513 88.2532 33.1221 86.0114 27.6826C83.7695 22.243 80.4801 17.2998 76.3312 13.1356C72.1824 8.97146 67.2554 5.66797 61.8321 3.41405C56.4087 1.16013 50.5954 -4.17059e-06 44.7245 0ZM44.7245 80.6957L53.6589 71.739H35.7795L44.7352 80.6957C35.3539 80.5336 26.4116 76.6837 19.8345 69.9755C13.2574 63.2673 9.57191 54.2376 9.57191 44.8315C9.57191 35.4255 13.2574 26.3958 19.8345 19.6876C26.4116 12.9794 35.3539 9.12955 44.7352 8.96738L35.7795 17.9881H53.6696L44.7033 9.02068C54.0845 9.18285 63.0269 13.0327 69.604 19.7409C76.181 26.4491 79.8665 35.4788 79.8665 44.8849C79.8665 54.291 76.181 63.3206 69.604 70.0288C63.0269 76.737 54.0845 80.5869 44.7033 80.749L44.7245 80.6957Z" fill="#A9DDE4"/>
<path d="M134.165 0C125.332 6.27487e-06 116.697 2.62519 109.352 7.54372C102.007 12.4622 96.2811 19.4533 92.8985 27.6334C89.5158 35.8134 88.628 44.8151 90.3474 53.5008C92.0668 62.1865 96.3161 70.1663 102.558 76.4315C108.8 82.6967 116.755 86.9661 125.417 88.7001C134.079 90.4341 143.06 89.5549 151.223 86.1735C159.387 82.7921 166.367 77.0604 171.282 69.7028C176.198 62.3451 178.826 53.692 178.837 44.8369C178.844 38.9513 177.694 33.1221 175.452 27.6826C173.21 22.243 169.92 17.2998 165.772 13.1356C161.623 8.97146 156.696 5.66797 151.272 3.41405C145.849 1.16013 140.036 -4.17059e-06 134.165 0ZM134.165 80.6957C127.088 80.6957 120.17 78.5918 114.285 74.6499C108.401 70.708 103.815 65.1054 101.107 58.5504C98.3996 51.9955 97.6916 44.7828 99.073 37.8245C100.454 30.8662 103.863 24.4749 108.868 19.4589C113.873 14.4429 120.25 11.0275 127.191 9.64464C134.132 8.26181 141.327 8.97367 147.865 11.6902C154.403 14.4067 159.99 19.0058 163.92 24.9059C167.85 30.806 169.947 37.7421 169.945 44.8369C169.942 54.3482 166.171 63.469 159.462 70.1936C152.752 76.9181 143.653 80.6957 134.165 80.6957ZM125.22 35.9122L143.152 53.8043L159.511 19.4808L125.22 35.9122Z" fill="#A9DDE4"/>
<path d="M670.835 0C662.002 6.27487e-06 653.367 2.62519 646.022 7.54372C638.677 12.4622 632.951 19.4533 629.569 27.6334C626.186 35.8134 625.298 44.8151 627.018 53.5008C628.737 62.1865 632.986 70.1663 639.228 76.4315C645.471 82.6967 653.425 86.9661 662.088 88.7001C670.75 90.4341 679.73 89.5549 687.894 86.1735C696.057 82.7921 703.038 77.0604 707.953 69.7028C712.868 62.3451 715.497 53.692 715.507 44.8369C715.514 38.9513 714.364 33.1221 712.122 27.6826C709.88 22.243 706.591 17.2998 702.442 13.1356C698.293 8.97146 693.366 5.66797 687.943 3.41405C682.519 1.16013 676.706 -4.17059e-06 670.835 0ZM670.835 80.6957C663.758 80.6957 656.84 78.5918 650.956 74.6499C645.071 70.708 640.485 65.1054 637.777 58.5504C635.07 51.9955 634.362 44.7828 635.743 37.8245C637.125 30.8662 640.533 24.4749 645.538 19.4589C650.543 14.4429 656.92 11.0275 663.861 9.64464C670.803 8.26181 677.997 8.97367 684.535 11.6902C691.073 14.4067 696.66 19.0058 700.59 24.9059C704.521 30.806 706.617 37.7421 706.615 44.8369C706.613 54.3482 702.842 63.469 696.132 70.1936C689.422 76.9181 680.323 80.6957 670.835 80.6957ZM691.98 52.3008C690.688 55.9454 688.478 59.1935 685.565 61.7304C682.653 64.2673 679.136 66.007 675.356 66.7808V53.8043H679.833V44.8369H675.356V39.5695C678.344 38.5116 680.863 36.4286 682.468 33.6885C684.072 30.9484 684.659 27.7279 684.124 24.5962C683.588 21.4646 681.966 18.6235 679.543 16.5753C677.12 14.5271 674.052 13.4037 670.883 13.4037C667.714 13.4037 664.646 14.5271 662.223 16.5753C659.8 18.6235 658.178 21.4646 657.642 24.5962C657.107 27.7279 657.694 30.9484 659.298 33.6885C660.903 36.4286 663.422 38.5116 666.41 39.5695V44.8475H661.943V53.8149H666.41V66.7915C662.63 66.0218 659.112 64.2835 656.2 61.7459C653.289 59.2083 651.083 55.958 649.797 52.3115L641.309 55.3077C643.468 61.427 647.466 66.7249 652.753 70.472C658.04 74.2192 664.355 76.2312 670.83 76.2312C677.304 76.2312 683.62 74.2192 688.907 70.472C694.193 66.7249 698.192 61.427 700.351 55.3077L691.98 52.3008ZM670.888 31.3805C670.002 31.3826 669.135 31.1208 668.397 30.6284C667.659 30.1359 667.083 29.435 666.743 28.6143C666.403 27.7936 666.313 26.8901 666.485 26.0183C666.658 25.1465 667.085 24.3457 667.711 23.7172C668.338 23.0888 669.137 22.6611 670.007 22.4882C670.876 22.3153 671.778 22.4051 672.596 22.7462C673.415 23.0873 674.114 23.6643 674.605 24.4042C675.097 25.144 675.358 26.0134 675.356 26.9021C675.354 27.4943 675.236 28.0804 675.008 28.6266C674.779 29.1728 674.445 29.6683 674.025 30.0846C673.605 30.5009 673.107 30.8297 672.559 31.0521C672.012 31.2745 671.426 31.3861 670.835 31.3805H670.888Z" fill="#A9DDE4"/>
<path d="M741.342 54.5826L745.82 47.1187L752.468 51.2132L748.352 34.0995L731.334 38.1833L738.205 42.4484L729.621 56.8005C729.216 57.4808 728.997 58.2565 728.987 59.049C728.978 59.8415 729.178 60.6224 729.566 61.3123C729.955 62.0023 730.52 62.5767 731.202 62.9773C731.884 63.3778 732.66 63.5901 733.45 63.5927H752.851V54.6253L741.342 54.5826ZM790.95 56.7152L781.122 40.3799L773.453 44.9968L779.218 54.5933H767.412V46.6389L755.01 59.093L767.433 71.5257V63.5607H787.131C787.923 63.56 788.7 63.349 789.383 62.9493C790.067 62.5495 790.633 61.9753 791.023 61.285C791.413 60.5947 791.614 59.813 791.605 59.0197C791.596 58.2263 791.377 57.4495 790.971 56.7685L790.95 56.7152ZM765.986 32.4894L759.126 36.6266L776.144 40.8917L780.399 23.8313L773.655 27.9044L764.083 11.9636C763.684 11.3013 763.122 10.7535 762.45 10.3732C761.778 9.99293 761.02 9.79312 760.248 9.79312C759.477 9.79312 758.718 9.99293 758.047 10.3732C757.375 10.7535 756.812 11.3013 756.414 11.9636L745.682 29.8984L753.351 34.5047L760.243 22.9889L765.986 32.4894ZM760.275 0C751.442 6.27487e-06 742.807 2.62519 735.462 7.54372C728.117 12.4622 722.391 19.4533 719.008 27.6334C715.626 35.8134 714.738 44.8151 716.457 53.5008C718.177 62.1865 722.426 70.1663 728.668 76.4315C734.91 82.6967 742.865 86.9661 751.527 88.7001C760.189 90.4341 769.17 89.5549 777.333 86.1735C785.497 82.7921 792.477 77.0604 797.392 69.7028C802.307 62.3451 804.936 53.692 804.947 44.8369C804.954 38.9513 803.803 33.1221 801.562 27.6826C799.32 22.243 796.03 17.2998 791.882 13.1356C787.733 8.97146 782.806 5.66797 777.382 3.41405C771.959 1.16013 766.146 -4.17059e-06 760.275 0ZM760.275 80.6957C753.198 80.6957 746.28 78.5918 740.395 74.6499C734.511 70.708 729.925 65.1054 727.217 58.5504C724.509 51.9955 723.801 44.7828 725.183 37.8245C726.564 30.8662 729.973 24.4749 734.978 19.4589C739.983 14.4429 746.36 11.0275 753.301 9.64464C760.242 8.26181 767.437 8.97367 773.975 11.6902C780.512 14.4067 786.1 19.0058 790.03 24.9059C793.96 30.806 796.057 37.7421 796.055 44.8369C796.052 54.3482 792.281 63.469 785.571 70.1936C778.862 76.9181 769.762 80.6957 760.275 80.6957Z" fill="#A9DDE4"/>
<path d="M223.615 0C214.782 6.27487e-06 206.148 2.62519 198.802 7.54372C191.457 12.4622 185.732 19.4533 182.349 27.6334C178.966 35.8134 178.078 44.8151 179.798 53.5008C181.517 62.1865 185.766 70.1663 192.009 76.4315C198.251 82.6967 206.206 86.9661 214.868 88.7001C223.53 90.4341 232.51 89.5549 240.674 86.1735C248.837 82.7921 255.818 77.0604 260.733 69.7028C265.648 62.3451 268.277 53.692 268.287 44.8369C268.294 38.9513 267.144 33.1221 264.902 27.6826C262.66 22.243 259.371 17.2998 255.222 13.1356C251.073 8.97146 246.146 5.66797 240.723 3.41405C235.299 1.16013 229.486 -4.17059e-06 223.615 0ZM223.615 8.96738C233.105 8.96738 242.206 12.7465 248.916 19.4733C255.626 26.2001 259.395 35.3237 259.395 44.8369C259.391 46.3341 259.295 47.8298 259.108 49.3152H247.845L251.429 31.3805H241.495V17.9881H228.082V13.4991H219.137V17.9881H205.725V31.4338H195.791L199.375 49.3685H188.122C187.935 47.8831 187.839 46.3875 187.835 44.8902C187.828 40.1762 188.748 35.507 190.542 31.1496C192.337 26.7923 194.97 22.8322 198.292 19.4959C201.614 16.1596 205.56 13.5125 209.903 11.7059C214.246 9.89936 218.902 8.96878 223.605 8.96738H223.615ZM232.56 26.9021V31.3805H214.66V26.9021H232.56ZM240.516 40.3799L237.538 55.3077L223.615 62.2918L209.682 55.3077L206.704 40.3799H240.516ZM223.605 80.7277C216.481 80.7302 209.519 78.6003 203.61 74.611C197.702 70.6216 193.116 64.9546 190.441 58.3359H201.162L201.769 61.3641L223.615 72.3148L245.451 61.3641L246.058 58.3359H256.779C254.098 64.9503 249.508 70.6117 243.598 74.5952C237.688 78.5787 230.726 80.7029 223.605 80.6957V80.7277Z" fill="#A9DDE4"/>
<path d="M313.055 3.1775e-05C304.224 0.0105771 295.595 2.64469 288.257 7.56962C280.919 12.4946 275.201 19.4893 271.827 27.6703C268.452 35.8512 267.572 44.8513 269.297 53.5335C271.023 62.2157 275.276 70.1905 281.52 76.4503C287.765 82.7102 295.72 86.9743 304.38 88.704C313.041 90.4337 322.018 89.5513 330.179 86.1684C338.339 82.7854 345.317 77.0537 350.229 69.6973C355.142 62.3408 357.77 53.6897 357.78 44.8369C357.787 38.9469 356.635 33.1133 354.39 27.6703C352.145 22.2273 348.851 17.2817 344.696 13.1168C340.542 8.95192 335.608 5.64953 330.179 3.39875C324.749 1.14797 318.93 -0.00698436 313.055 3.1775e-05ZM313.055 80.6958C305.978 80.6958 299.06 78.5918 293.176 74.6499C287.291 70.7081 282.705 65.1054 279.997 58.5505C277.29 51.9955 276.582 44.7828 277.963 37.8245C279.345 30.8662 282.753 24.4749 287.758 19.4589C292.763 14.4429 299.14 11.0275 306.081 9.64467C313.023 8.26184 320.217 8.9737 326.755 11.6902C333.293 14.4067 338.88 19.0059 342.81 24.906C346.741 30.8061 348.837 37.7421 348.835 44.8369C348.832 54.3482 345.061 63.4691 338.352 70.1936C331.642 76.9181 322.543 80.6958 313.055 80.6958ZM313.055 22.4131C313.661 22.3835 314.266 22.4775 314.834 22.6895C315.403 22.9015 315.922 23.2269 316.361 23.6462C316.801 24.0655 317.15 24.5698 317.389 25.1285C317.628 25.6873 317.751 26.2889 317.751 26.8968C317.751 27.5048 317.628 28.1063 317.389 28.6651C317.15 29.2239 316.801 29.7282 316.361 30.1474C315.922 30.5667 315.403 30.8922 314.834 31.1042C314.266 31.3161 313.661 31.4101 313.055 31.3805H308.588V44.8369H317.522V39.5802C319.841 38.7591 321.89 37.3148 323.445 35.4051C325 33.4955 326.001 31.194 326.34 28.7522C326.678 26.3105 326.34 23.8224 325.363 21.5602C324.386 19.2979 322.808 17.3484 320.8 15.9249C318.793 14.5013 316.433 13.6584 313.98 13.4884C311.527 13.3184 309.074 13.8278 306.89 14.9609C304.706 16.094 302.875 17.8072 301.597 19.9132C300.319 22.0192 299.643 24.437 299.643 26.9021H308.577C308.58 25.7124 309.053 24.5723 309.892 23.731C310.731 22.8898 311.868 22.4159 313.055 22.4131ZM308.588 53.8043C308.59 54.6896 308.854 55.5544 309.346 56.2894C309.838 57.0245 310.536 57.5968 311.353 57.9342C312.169 58.2715 313.067 58.3587 313.933 58.1847C314.799 58.0107 315.594 57.5833 316.218 56.9566C316.841 56.3298 317.266 55.5318 317.437 54.6634C317.609 53.795 317.52 52.8951 317.181 52.0774C316.843 51.2597 316.27 50.5609 315.536 50.0693C314.801 49.5776 313.938 49.3153 313.055 49.3153C312.468 49.3153 311.886 49.4315 311.343 49.6572C310.8 49.8829 310.307 50.2137 309.892 50.6307C309.478 51.0477 309.149 51.5426 308.925 52.0872C308.701 52.6318 308.586 53.2153 308.588 53.8043ZM326.403 58.2827H317.522V62.7077H295.133V71.7924H326.372L335.317 62.7077H326.403V58.2827Z" fill="#A9DDE4"/>
<path d="M402.495 3.1775e-05C393.664 0.0105771 385.034 2.64469 377.696 7.56962C370.358 12.4946 364.641 19.4893 361.266 27.6703C357.892 35.8512 357.012 44.8513 358.737 53.5335C360.462 62.2157 364.716 70.1905 370.96 76.4503C377.204 82.7102 385.159 86.9743 393.82 88.704C402.48 90.4337 411.458 89.5513 419.619 86.1684C427.779 82.7854 434.756 77.0537 439.669 69.6973C444.582 62.3408 447.209 53.6897 447.22 44.8369C447.227 38.9469 446.075 33.1133 443.83 27.6703C441.584 22.2273 438.29 17.2817 434.136 13.1168C429.981 8.95192 425.048 5.64953 419.619 3.39875C414.189 1.14797 408.37 -0.00698436 402.495 3.1775e-05ZM402.495 80.6958C395.418 80.6958 388.499 78.5918 382.615 74.6499C376.731 70.7081 372.145 65.1054 369.437 58.5505C366.729 51.9955 366.021 44.7828 367.403 37.8245C368.784 30.8662 372.193 24.4749 377.198 19.4589C382.203 14.4429 388.579 11.0275 395.521 9.64467C402.462 8.26184 409.657 8.9737 416.195 11.6902C422.732 14.4067 428.32 19.0059 432.25 24.906C436.18 30.8061 438.277 37.7421 438.275 44.8369C438.275 49.5469 437.349 54.2107 435.551 58.562C433.753 62.9132 431.117 66.8668 427.794 70.1967C424.472 73.5267 420.527 76.1678 416.186 77.9692C411.845 79.7707 407.193 80.6972 402.495 80.6958ZM402.495 26.8062L375.67 21.4748V65.8426L402.495 76.6013L429.33 65.8426V21.4322L402.495 26.8062ZM420.385 59.7328L402.495 66.9088L384.594 59.7328V32.3615L402.473 35.9548L420.364 32.3615L420.385 59.7328ZM389.082 44.8049V58.2613H398.028V44.8263L393.55 40.3479L389.082 44.8049ZM415.918 53.8363V40.3799H406.93V53.8896L411.397 58.3786L415.918 53.8363Z" fill="#A9DDE4"/>
<path d="M581.364 3.1775e-05C572.533 0.0105771 563.903 2.64469 556.565 7.56962C549.227 12.4946 543.51 19.4893 540.135 27.6703C536.761 35.8512 535.88 44.8513 537.606 53.5335C539.331 62.2157 543.585 70.1905 549.829 76.4503C556.073 82.7102 564.028 86.9743 572.689 88.704C581.349 90.4337 590.327 89.5513 598.487 86.1684C606.648 82.7854 613.625 77.0537 618.538 69.6973C623.451 62.3408 626.078 53.6897 626.089 44.8369C626.096 38.9469 624.944 33.1133 622.698 27.6703C620.453 22.2273 617.159 17.2817 613.005 13.1168C608.85 8.95192 603.917 5.64953 598.487 3.39875C593.058 1.14797 587.239 -0.00698436 581.364 3.1775e-05ZM612.676 62.1959V40.3799H603.731V62.7717H612.347C609.205 68.2205 604.689 72.7448 599.251 75.8902C593.814 79.0356 587.647 80.6915 581.369 80.6915C575.091 80.6915 568.924 79.0356 563.486 75.8902C558.049 72.7448 553.532 68.2205 550.391 62.7717H559.028V40.3799H550.083V62.2279C547.069 56.767 545.528 50.6124 545.613 44.372C545.698 38.1316 547.406 32.0215 550.568 26.6453C553.73 21.2692 558.236 16.8131 563.642 13.7173C569.047 10.6215 575.165 8.99312 581.39 8.99312C587.616 8.99312 593.733 10.6215 599.139 13.7173C604.544 16.8131 609.05 21.2692 612.212 26.6453C615.374 32.0215 617.082 38.1316 617.167 44.372C617.252 50.6124 615.712 56.767 612.698 62.2279L612.676 62.1959ZM563.484 62.7717H572.429V40.3799H563.484V62.7717ZM567.951 35.8695C568.837 35.8716 569.704 35.6102 570.442 35.1182C571.18 34.6262 571.755 33.9259 572.096 33.1058C572.436 32.2857 572.527 31.3828 572.355 30.5113C572.183 29.6398 571.758 28.839 571.132 28.2101C570.506 27.5812 569.708 27.1526 568.839 26.9785C567.971 26.8045 567.07 26.8928 566.251 27.2322C565.432 27.5716 564.732 28.147 564.239 28.8854C563.747 29.6239 563.484 30.4922 563.484 31.3805C563.487 32.5721 563.961 33.7138 564.803 34.5554C565.644 35.3969 566.784 35.8695 567.973 35.8695H567.951ZM576.918 62.7717H585.863V40.3799H576.918V62.7717ZM581.364 35.8695C582.249 35.8695 583.115 35.6063 583.851 35.113C584.588 34.6197 585.162 33.9187 585.5 33.0984C585.839 32.2781 585.928 31.3755 585.755 30.5048C585.583 29.634 585.156 28.8341 584.53 28.2063C583.904 27.5785 583.106 27.151 582.237 26.9778C581.369 26.8046 580.468 26.8934 579.65 27.2332C578.832 27.573 578.132 28.1483 577.64 28.8865C577.148 29.6248 576.886 30.4927 576.886 31.3805C576.886 32.5711 577.357 33.7129 578.197 34.5547C579.037 35.3966 580.176 35.8695 581.364 35.8695ZM590.34 62.7717H599.275V40.3799H590.34V62.7717ZM594.808 26.9021C593.921 26.9 593.054 27.1618 592.316 27.6542C591.578 28.1467 591.002 28.8477 590.662 29.6684C590.322 30.4891 590.232 31.3925 590.405 32.2643C590.577 33.1361 591.004 33.9369 591.631 34.5654C592.258 35.1938 593.056 35.6216 593.926 35.7945C594.796 35.9673 595.697 35.8775 596.516 35.5364C597.334 35.1954 598.033 34.6183 598.525 33.8785C599.016 33.1386 599.277 32.2693 599.275 31.3805C599.275 30.7924 599.159 30.2101 598.935 29.6667C598.71 29.1234 598.381 28.6297 597.966 28.2138C597.552 27.798 597.059 27.4681 596.517 27.2431C595.975 27.018 595.394 26.9021 594.808 26.9021ZM608.22 26.9021C607.334 26.9021 606.468 27.1657 605.731 27.6595C604.994 28.1532 604.42 28.8549 604.082 29.6758C603.743 30.4967 603.655 31.3998 603.829 32.2709C604.003 33.142 604.43 33.9418 605.057 34.5692C605.685 35.1965 606.484 35.6232 607.353 35.7952C608.222 35.9672 609.123 35.8768 609.941 35.5354C610.759 35.194 611.458 34.617 611.948 33.8774C612.439 33.1378 612.7 32.2688 612.698 31.3805C612.698 30.7915 612.582 30.2083 612.357 29.6643C612.131 29.1202 611.801 28.6261 611.386 28.2101C610.97 27.7941 610.476 27.4644 609.933 27.24C609.389 27.0155 608.807 26.9007 608.22 26.9021ZM554.55 26.9021C553.664 26.9021 552.797 27.1657 552.061 27.6595C551.324 28.1532 550.75 28.8549 550.412 29.6758C550.073 30.4967 549.985 31.3998 550.159 32.2709C550.332 33.142 550.76 33.9418 551.387 34.5692C552.014 35.1965 552.813 35.6232 553.683 35.7952C554.552 35.9672 555.453 35.8768 556.271 35.5354C557.089 35.194 557.787 34.617 558.278 33.8774C558.769 33.1378 559.03 32.2688 559.028 31.3805C559.028 30.7915 558.912 30.2083 558.686 29.6643C558.461 29.1202 558.131 28.6261 557.715 28.2101C557.299 27.7941 556.806 27.4644 556.262 27.24C555.719 27.0155 555.137 26.9007 554.55 26.9021Z" fill="#A9DDE4"/>
<path d="M491.945 89.6631C483.112 89.6736 474.48 92.3091 467.141 97.2364C459.802 102.164 454.084 109.162 450.711 117.346C447.338 125.53 446.461 134.532 448.191 143.216C449.921 151.9 454.18 159.874 460.429 166.132C466.679 172.39 474.639 176.65 483.303 178.374C491.967 180.097 500.946 179.207 509.106 175.816C517.265 172.425 524.239 166.685 529.145 159.322C534.052 151.958 536.67 143.302 536.67 134.447C536.656 122.564 531.938 111.174 523.552 102.777C515.166 94.3796 503.798 89.6631 491.945 89.6631ZM491.945 170.369C484.868 170.369 477.951 168.266 472.067 164.324C466.183 160.383 461.597 154.781 458.888 148.227C456.18 141.672 455.472 134.46 456.852 127.502C458.233 120.544 461.641 114.153 466.645 109.136C471.649 104.12 478.024 100.704 484.965 99.3197C491.905 97.9357 499.1 98.646 505.637 101.361C512.175 104.076 517.764 108.673 521.695 114.572C525.627 120.471 527.725 127.406 527.725 134.5C527.725 144.013 523.956 153.137 517.245 159.864C510.535 166.59 501.435 170.369 491.945 170.369ZM491.945 102.97C485.725 102.97 479.644 104.819 474.472 108.284C469.3 111.748 465.268 116.673 462.888 122.434C460.507 128.195 459.885 134.535 461.098 140.651C462.312 146.767 465.307 152.385 469.706 156.795C474.104 161.204 479.708 164.207 485.809 165.424C491.91 166.641 498.234 166.016 503.981 163.63C509.728 161.243 514.64 157.202 518.096 152.017C521.552 146.832 523.396 140.736 523.396 134.5C523.388 126.14 520.071 118.126 514.175 112.214C508.279 106.303 500.284 102.979 491.945 102.97ZM491.945 157.062C487.494 157.062 483.142 155.739 479.441 153.26C475.74 150.781 472.855 147.257 471.152 143.134C469.449 139.011 469.003 134.475 469.871 130.098C470.74 125.722 472.883 121.701 476.031 118.546C479.178 115.391 483.189 113.242 487.554 112.371C491.92 111.501 496.445 111.947 500.558 113.655C504.67 115.363 508.185 118.255 510.658 121.965C513.131 125.675 514.451 130.038 514.451 134.5C514.446 140.482 512.073 146.218 507.853 150.448C503.634 154.678 497.912 157.057 491.945 157.062ZM491.945 117.258C488.543 117.258 485.218 118.27 482.39 120.164C479.562 122.059 477.357 124.751 476.055 127.902C474.754 131.052 474.413 134.519 475.077 137.864C475.74 141.208 477.378 144.28 479.784 146.692C482.189 149.103 485.254 150.745 488.59 151.41C491.926 152.076 495.384 151.734 498.527 150.429C501.669 149.124 504.355 146.914 506.245 144.079C508.135 141.244 509.144 137.91 509.144 134.5C509.141 129.928 507.328 125.544 504.103 122.311C500.878 119.079 496.506 117.261 491.945 117.258ZM491.945 142.774C490.313 142.774 488.717 142.289 487.36 141.38C486.002 140.471 484.944 139.178 484.32 137.666C483.695 136.154 483.531 134.491 483.85 132.886C484.168 131.281 484.954 129.806 486.109 128.649C487.263 127.492 488.734 126.704 490.335 126.385C491.936 126.065 493.595 126.229 495.104 126.856C496.612 127.482 497.901 128.542 498.808 129.903C499.715 131.264 500.199 132.863 500.199 134.5C500.187 136.688 499.313 138.783 497.767 140.327C496.221 141.871 494.128 142.739 491.945 142.742V142.774Z" fill="#A9DDE4"/>
<path d="M402.495 89.6631C393.662 89.6737 385.03 92.3091 377.691 97.2364C370.352 102.164 364.634 109.162 361.261 117.346C357.888 125.53 357.011 134.533 358.741 143.216C360.47 151.9 364.729 159.874 370.979 166.132C377.228 172.39 385.188 176.65 393.852 178.374C402.516 180.097 411.496 179.207 419.655 175.816C427.815 172.425 434.789 166.685 439.695 159.322C444.601 151.958 447.22 143.302 447.22 134.447C447.22 128.561 446.063 122.733 443.814 117.296C441.566 111.86 438.271 106.92 434.117 102.761C429.963 98.6018 425.032 95.3042 419.606 93.0568C414.18 90.8093 408.366 89.6561 402.495 89.6631ZM402.495 170.37C396.443 170.372 390.489 168.836 385.19 165.904C379.892 162.972 375.422 158.741 372.198 153.607C368.974 148.472 367.102 142.601 366.758 136.544C366.413 130.487 367.606 124.441 370.226 118.972C372.846 113.503 376.807 108.789 381.738 105.272C386.67 101.755 392.41 99.5496 398.423 98.8618C404.436 98.1739 410.525 99.0263 416.12 101.339C421.715 103.652 426.633 107.35 430.415 112.087H402.495V107.555H384.594V112.108H375.809V134.5H415.705L430.532 112.204C434.717 117.485 437.332 123.843 438.076 130.547C438.819 137.251 437.662 144.029 434.736 150.103C431.811 156.177 427.236 161.301 421.536 164.886C415.837 168.471 409.244 170.371 402.516 170.37H402.495ZM413.875 121.054L410.897 125.533H384.722V121.054H413.875ZM405.664 137.678L402.473 134.479L399.283 137.678C399.697 138.093 400.19 138.423 400.732 138.648C401.274 138.874 401.855 138.989 402.442 138.989C403.028 138.989 403.609 138.874 404.151 138.648C404.693 138.423 405.186 138.093 405.6 137.678H405.664ZM402.473 156.87C396.57 156.871 390.907 154.529 386.721 150.356L380.435 156.647C383.334 159.557 386.776 161.867 390.566 163.443C394.356 165.018 398.419 165.829 402.521 165.829C406.624 165.829 410.687 165.018 414.476 163.443C418.266 161.867 421.709 159.557 424.607 156.647L418.321 150.345C416.247 152.434 413.78 154.09 411.064 155.217C408.347 156.344 405.435 156.921 402.495 156.913L402.473 156.87ZM415.109 147.114L408.781 140.78C407.954 141.61 406.972 142.267 405.892 142.716C404.812 143.165 403.654 143.396 402.484 143.396C401.315 143.396 400.157 143.165 399.076 142.716C397.996 142.267 397.014 141.61 396.187 140.78L389.912 147.167C391.569 148.832 393.537 150.152 395.703 151.053C397.87 151.954 400.192 152.417 402.537 152.417C404.883 152.417 407.205 151.954 409.371 151.053C411.538 150.152 413.506 148.832 415.162 147.167L415.109 147.114Z" fill="#A9DDE4"/>
<path d="M134.165 179.326C125.332 179.326 116.697 181.951 109.352 186.87C102.007 191.788 96.2811 198.78 92.8985 206.96C89.5158 215.14 88.628 224.141 90.3474 232.827C92.0668 241.513 96.3161 249.492 102.558 255.758C108.8 262.023 116.755 266.292 125.417 268.026C134.079 269.76 143.06 268.881 151.223 265.5C159.387 262.118 166.367 256.387 171.282 249.029C176.197 241.671 178.826 233.018 178.837 224.163C178.837 212.281 174.132 200.884 165.756 192.477C157.38 184.07 146.018 179.34 134.165 179.326ZM134.165 260.022C127.088 260.022 120.17 257.918 114.285 253.976C108.401 250.034 103.815 244.432 101.107 237.877C98.3996 231.322 97.6916 224.109 99.073 217.151C100.454 210.192 103.863 203.801 108.868 198.785C113.873 193.769 120.25 190.354 127.191 188.971C134.132 187.588 141.327 188.3 147.865 191.016C154.403 193.733 159.99 198.332 163.92 204.232C167.85 210.132 169.947 217.068 169.945 224.163C169.946 228.874 169.022 233.539 167.224 237.891C165.427 242.244 162.791 246.199 159.468 249.53C156.146 252.861 152.201 255.503 147.859 257.305C143.517 259.107 138.864 260.034 134.165 260.033V260.022ZM138.643 210.707H120.753V219.674H129.708V237.641H120.753V246.608H147.588V237.641H138.643V210.707ZM134.176 208.574C135.526 208.574 136.846 208.173 137.969 207.42C139.092 206.668 139.967 205.599 140.484 204.348C141.001 203.097 141.136 201.721 140.873 200.393C140.609 199.065 139.959 197.846 139.004 196.888C138.049 195.931 136.832 195.279 135.508 195.015C134.183 194.751 132.81 194.886 131.562 195.404C130.315 195.922 129.248 196.8 128.498 197.925C127.748 199.051 127.347 200.375 127.347 201.729C127.346 202.629 127.521 203.52 127.864 204.352C128.206 205.183 128.709 205.939 129.343 206.576C129.978 207.213 130.731 207.718 131.56 208.063C132.389 208.407 133.278 208.585 134.176 208.585V208.574Z" fill="#A9DDE4"/>
<path d="M491.945 179.337C483.112 179.347 474.48 181.983 467.141 186.91C459.802 191.838 454.084 198.835 450.711 207.02C447.338 215.204 446.461 224.206 448.191 232.89C449.921 241.574 454.18 249.548 460.429 255.806C466.679 262.064 474.639 266.324 483.303 268.047C491.967 269.771 500.946 268.881 509.106 265.49C517.265 262.099 524.239 256.359 529.145 248.995C534.052 241.632 536.67 232.976 536.67 224.121C536.67 218.235 535.513 212.407 533.265 206.97C531.016 201.533 527.721 196.594 523.567 192.435C519.413 188.276 514.483 184.978 509.057 182.731C503.631 180.483 497.816 179.33 491.945 179.337ZM491.945 260.033C486.533 260.036 481.191 258.807 476.323 256.437C471.455 254.067 467.188 250.618 463.844 246.352C464.265 246.395 464.687 246.417 465.11 246.416C468.415 246.415 471.603 245.184 474.055 242.962C476.506 245.186 479.694 246.418 483 246.418C486.306 246.418 489.494 245.186 491.945 242.962C494.396 245.186 497.584 246.418 500.89 246.418C504.196 246.418 507.384 245.186 509.835 242.962C512.285 245.187 515.474 246.419 518.78 246.416C519.203 246.417 519.625 246.395 520.046 246.352C516.702 250.618 512.435 254.067 507.567 256.437C502.699 258.807 497.357 260.036 491.945 260.033ZM523.247 232.971C523.191 234.122 522.696 235.208 521.863 236.003C521.03 236.797 519.925 237.241 518.775 237.241C517.625 237.241 516.519 236.797 515.687 236.003C514.854 235.208 514.358 234.122 514.302 232.971H505.357C505.301 234.122 504.806 235.208 503.973 236.003C503.14 236.797 502.035 237.241 500.885 237.241C499.735 237.241 498.629 236.797 497.797 236.003C496.964 235.208 496.468 234.122 496.412 232.971H487.467C487.411 234.122 486.916 235.208 486.083 236.003C485.25 236.797 484.145 237.241 482.995 237.241C481.845 237.241 480.739 236.797 479.906 236.003C479.074 235.208 478.578 234.122 478.522 232.971H469.577C469.577 234.158 469.106 235.297 468.269 236.137C467.431 236.977 466.295 237.449 465.11 237.449C463.925 237.449 462.789 236.977 461.951 236.137C461.113 235.297 460.643 234.158 460.643 232.971H457.26C455.923 227.677 455.809 222.148 456.926 216.804C458.043 211.459 460.363 206.441 463.709 202.132C467.054 197.823 471.337 194.336 476.23 191.938C481.123 189.54 486.498 188.293 491.945 188.293C497.392 188.293 502.767 189.54 507.66 191.938C512.553 194.336 516.836 197.823 520.181 202.132C523.527 206.441 525.847 211.459 526.964 216.804C528.082 222.148 527.967 227.677 526.63 232.971H523.247ZM504.038 204.938L507.75 201.206L501.432 194.809L497.71 198.541C497.295 198.349 496.87 198.167 496.423 198.007V192.676H487.478V198.007C487.042 198.167 486.616 198.349 486.191 198.541L482.468 194.809L476.14 201.142L479.873 204.885C479.67 205.305 479.489 205.736 479.331 206.175H474.012V215.249H479.331C479.484 215.689 479.661 216.119 479.862 216.539L476.129 220.282L482.458 226.68L486.18 222.937C486.606 223.14 487.042 223.321 487.478 223.481V228.812H496.423V223.481C496.864 223.322 497.297 223.14 497.72 222.937L501.432 226.669L507.761 220.271L504.038 216.539C504.243 216.12 504.424 215.689 504.581 215.249H509.835V206.282H504.581C504.424 205.825 504.243 205.376 504.038 204.938ZM491.956 215.249C491.072 215.251 490.207 214.99 489.471 214.5C488.735 214.009 488.161 213.31 487.821 212.492C487.481 211.674 487.391 210.773 487.562 209.904C487.734 209.034 488.158 208.235 488.782 207.608C489.407 206.98 490.203 206.553 491.07 206.379C491.936 206.206 492.835 206.294 493.652 206.632C494.469 206.971 495.167 207.545 495.659 208.282C496.15 209.018 496.412 209.885 496.412 210.771C496.409 211.956 495.939 213.092 495.104 213.931C494.27 214.77 493.138 215.243 491.956 215.249Z" fill="#A9DDE4"/>
<path d="M581.363 179.337C572.53 179.347 563.899 181.983 556.559 186.91C549.22 191.838 543.503 198.835 540.13 207.02C536.757 215.204 535.88 224.206 537.609 232.89C539.339 241.574 543.598 249.548 549.847 255.806C556.097 262.064 564.057 266.324 572.721 268.047C581.385 269.771 590.364 268.881 598.524 265.49C606.684 262.099 613.657 256.359 618.564 248.995C623.47 241.632 626.089 232.976 626.089 224.121C626.089 218.235 624.931 212.407 622.683 206.97C620.435 201.533 617.14 196.594 612.986 192.435C608.832 188.276 603.901 184.978 598.475 182.731C593.049 180.483 587.234 179.33 581.363 179.337ZM581.363 260.033C574.287 260.033 567.369 257.929 561.485 253.988C555.601 250.046 551.015 244.444 548.307 237.89C545.599 231.336 544.89 224.123 546.271 217.165C547.651 210.207 551.059 203.816 556.063 198.8C561.067 193.783 567.442 190.367 574.383 188.983C581.324 187.599 588.518 188.309 595.056 191.024C601.594 193.739 607.182 198.336 611.114 204.235C615.045 210.134 617.144 217.069 617.144 224.163C617.144 233.676 613.374 242.8 606.664 249.527C599.954 256.254 590.853 260.033 581.363 260.033ZM599.254 219.695H563.495C560.617 219.821 557.899 221.056 555.907 223.142C553.915 225.228 552.803 228.004 552.803 230.891C552.803 233.779 553.915 236.555 555.907 238.641C557.899 240.727 560.617 241.961 563.495 242.087H599.275C600.782 242.153 602.288 241.913 603.7 241.38C605.112 240.847 606.402 240.033 607.493 238.987C608.583 237.94 609.45 236.684 610.043 235.293C610.635 233.901 610.941 232.404 610.941 230.891C610.941 229.379 610.635 227.881 610.043 226.49C609.45 225.099 608.583 223.842 607.493 222.796C606.402 221.75 605.112 220.936 603.7 220.403C602.288 219.87 600.782 219.629 599.275 219.695H599.254ZM599.254 233.131H563.495C562.93 233.091 562.402 232.839 562.016 232.424C561.63 232.01 561.415 231.464 561.415 230.897C561.415 230.33 561.63 229.784 562.016 229.369C562.402 228.954 562.93 228.702 563.495 228.663H599.275C599.58 228.642 599.887 228.684 600.176 228.786C600.464 228.889 600.729 229.05 600.953 229.26C601.177 229.469 601.355 229.723 601.477 230.004C601.599 230.286 601.662 230.59 601.662 230.897C601.662 231.204 601.599 231.508 601.477 231.789C601.355 232.071 601.177 232.324 600.953 232.534C600.729 232.743 600.464 232.904 600.176 233.007C599.887 233.11 599.58 233.152 599.275 233.131H599.254ZM608.199 210.739H599.264L594.786 206.25H581.363V210.739H554.55V219.706H608.22L608.199 210.739Z" fill="#A9DDE4"/>
<path d="M760.275 179.337C751.44 179.337 742.803 181.963 735.456 186.884C728.11 191.805 722.384 198.799 719.003 206.983C715.622 215.166 714.738 224.17 716.461 232.857C718.185 241.545 722.44 249.524 728.687 255.787C734.934 262.05 742.894 266.316 751.56 268.044C760.225 269.772 769.207 268.885 777.37 265.495C785.533 262.106 792.51 256.366 797.418 249.001C802.327 241.636 804.947 232.978 804.947 224.121C804.947 212.243 800.24 200.852 791.863 192.454C783.485 184.055 772.123 179.337 760.275 179.337ZM760.275 260.033C753.198 260.033 746.28 257.929 740.396 253.988C734.512 250.046 729.926 244.444 727.218 237.89C724.51 231.336 723.802 224.123 725.182 217.165C726.563 210.207 729.971 203.816 734.974 198.8C739.978 193.783 746.354 190.367 753.294 188.983C760.235 187.599 767.429 188.309 773.967 191.024C780.505 193.739 786.093 198.336 790.025 204.235C793.957 210.134 796.055 217.069 796.055 224.163C796.055 233.676 792.285 242.8 785.575 249.527C778.865 256.254 769.764 260.033 760.275 260.033ZM760.275 191.727L726.345 216.315L731.589 223.587L737.971 218.992V246.566H782.643V219.013L788.961 223.609L794.204 216.337L760.275 191.727ZM773.698 218.96V237.641H764.753V224.163H755.797V237.641H746.863V218.981H737.992L760.328 202.816L782.664 218.981L773.698 218.96Z" fill="#A9DDE4"/>
<path d="M581.363 170.37C574.287 170.37 567.369 168.266 561.485 164.324C555.601 160.383 551.015 154.781 548.307 148.227C545.599 141.672 544.89 134.46 546.271 127.502C547.651 120.544 551.059 114.153 556.063 109.136C561.067 104.12 567.442 100.704 574.383 99.3197C581.324 97.9357 588.518 98.646 595.056 101.361C601.594 104.076 607.182 108.673 611.114 114.572C615.045 120.471 617.144 127.406 617.144 134.5C617.144 144.013 613.374 153.137 606.664 159.864C599.954 166.59 590.853 170.37 581.363 170.37ZM581.363 89.6631C572.53 89.6737 563.899 92.3091 556.559 97.2364C549.22 102.164 543.503 109.162 540.13 117.346C536.757 125.53 535.88 134.533 537.609 143.216C539.339 151.9 543.598 159.874 549.847 166.132C556.097 172.39 564.057 176.65 572.721 178.374C581.385 180.097 590.364 179.207 598.524 175.816C606.684 172.425 613.657 166.685 618.564 159.322C623.47 151.958 626.089 143.302 626.089 134.447C626.089 128.561 624.931 122.733 622.683 117.296C620.435 111.86 617.14 106.92 612.986 102.761C608.832 98.6018 603.901 95.3042 598.475 93.0568C593.049 90.8093 587.234 89.6561 581.363 89.6631Z" fill="#A9DDE4"/>
<path d="M562.218 143.478H577.949L579.449 138.989H560.729L562.218 143.478ZM584.395 152.445H555.837L548.391 130.054H591.925L584.395 152.445Z" fill="#A9DDE4"/>
<path d="M608.22 143.467H599.275V128.028L583.597 118.293L576.609 136.153L568.281 132.879L579.183 105.007L608.22 123.038V143.467Z" fill="#A9DDE4"/>
<path d="M608.22 143.467H590.415L594.893 152.435H608.22V143.467Z" fill="#A9DDE4"/>
<path d="M670.835 179.337C662 179.337 653.363 181.963 646.017 186.884C638.67 191.805 632.945 198.799 629.564 206.983C626.182 215.166 625.298 224.17 627.021 232.857C628.745 241.545 633 249.524 639.247 255.787C645.495 262.05 653.455 266.316 662.12 268.044C670.786 269.772 679.768 268.885 687.93 265.495C696.093 262.106 703.07 256.366 707.979 249.001C712.887 241.636 715.507 232.978 715.507 224.121C715.507 212.243 710.801 200.852 702.423 192.454C694.045 184.055 682.683 179.337 670.835 179.337ZM670.835 260.033C663.758 260.033 656.841 257.929 650.957 253.988C645.073 250.046 640.487 244.444 637.779 237.89C635.07 231.336 634.362 224.123 635.742 217.165C637.123 210.207 640.531 203.816 645.535 198.8C650.539 193.783 656.914 190.367 663.855 188.983C670.796 187.599 677.99 188.309 684.528 191.024C691.066 193.739 696.654 198.336 700.585 204.235C704.517 210.134 706.615 217.069 706.615 224.163C706.615 233.676 702.846 242.8 696.136 249.527C689.425 256.254 680.325 260.033 670.835 260.033ZM693.171 206.228H679.78V219.685H670.835V206.25H644V215.249H661.89V219.717H644V233.184H652.988C651.487 233.703 650.219 234.739 649.408 236.107C648.598 237.476 648.297 239.088 648.56 240.657C648.823 242.226 649.632 243.652 650.843 244.68C652.055 245.708 653.591 246.272 655.179 246.272C656.766 246.272 658.302 245.708 659.514 244.68C660.726 243.652 661.535 242.226 661.798 240.657C662.06 239.088 661.76 237.476 660.949 236.107C660.138 234.739 658.87 233.703 657.37 233.184H684.301C682.799 233.702 681.53 234.738 680.718 236.106C679.906 237.474 679.605 239.086 679.867 240.656C680.129 242.226 680.938 243.652 682.15 244.681C683.362 245.709 684.898 246.273 686.486 246.273C688.074 246.273 689.611 245.709 690.823 244.681C692.035 243.652 692.844 242.226 693.106 240.656C693.368 239.086 693.066 237.474 692.255 236.106C691.443 234.738 690.173 233.702 688.672 233.184H697.67V219.695L693.171 206.228Z" fill="#A9DDE4"/>
<path d="M313.055 89.6525C304.224 89.663 295.595 92.2972 288.257 97.2221C280.919 102.147 275.201 109.142 271.827 117.323C268.452 125.504 267.572 134.504 269.297 143.186C271.023 151.868 275.276 159.843 281.52 166.103C287.765 172.363 295.72 176.627 304.38 178.356C313.041 180.086 322.018 179.204 330.179 175.821C338.339 172.438 345.317 166.706 350.229 159.35C355.142 151.993 357.77 143.342 357.78 134.489C357.78 122.598 353.068 111.193 344.68 102.785C336.293 94.3763 324.917 89.6525 313.055 89.6525ZM313.055 170.359C305.978 170.359 299.061 168.255 293.177 164.314C287.293 160.372 282.707 154.77 279.999 148.216C277.29 141.662 276.582 134.45 277.962 127.492C279.343 120.534 282.751 114.142 287.755 109.126C292.759 104.109 299.134 100.693 306.075 99.3091C313.015 97.925 320.21 98.6354 326.747 101.35C333.285 104.065 338.874 108.663 342.805 114.561C346.737 120.46 348.835 127.395 348.835 134.489C348.835 144.003 345.065 153.126 338.355 159.853C331.645 166.58 322.544 170.359 313.055 170.359ZM290.719 118.826V150.206L313.055 161.424L335.391 150.206V118.9L335.465 118.826L313.055 107.555L290.719 118.826ZM308.577 149.14L299.632 144.662V128.817L308.577 133.306V149.14ZM326.467 144.662L317.522 149.14V133.306L326.467 128.817V144.662ZM313.055 125.543L305.163 121.587L313.055 117.632L320.947 121.587L313.055 125.543Z" fill="#A9DDE4"/>
</g>
</svg>
