<svg width="158" height="100" viewBox="0 0 158 100" fill="none" xmlns="http://www.w3.org/2000/svg">
<g clip-path="url(#clip0)">
<path d="M133.623 86.2201C133.623 86.2201 133.473 86.8047 133.038 86.8047H132.47L131.953 86.8549C131.953 86.8549 131.351 86.8549 131.351 85.9696C131.351 85.9696 131.351 84.8004 132.153 84.8338H133.072C133.231 84.8464 133.38 84.9188 133.488 85.0365C133.597 85.1542 133.657 85.3085 133.656 85.4685L133.623 86.2201ZM102.823 83.3306H102.188L102.071 75.1629H103.741C103.87 75.6109 104.038 76.0468 104.243 76.4657V83.3974H102.739L102.823 83.3306ZM101.988 74.7119V74.5114C102.061 74.3813 102.128 74.2475 102.188 74.1106V73.977L102.522 73.3589C102.579 73.504 102.658 73.6393 102.756 73.7598C102.837 73.8737 102.945 73.9654 103.07 74.0267C103.196 74.088 103.335 74.1168 103.474 74.1106C103.502 74.3296 103.541 74.547 103.591 74.762H102.756H102.004L101.988 74.7119ZM101.821 73.7097C101.83 73.7538 101.83 73.7992 101.821 73.8433L101.704 73.3923V73.2253H101.336V72.4904H101.57C101.804 72.4416 102.03 72.3571 102.238 72.2399C102.266 72.4368 102.305 72.632 102.355 72.8245L102.171 73.1919L101.887 73.7264L101.821 73.7097ZM101.537 83.5143V81.059H101.821V83.4308L101.57 83.531L101.537 83.5143ZM101.353 75.1796L101.52 75.0459H101.72V80.5579H101.42L101.353 75.1796ZM101.353 74.478V73.526H101.437L101.587 74.0772V74.2108C101.521 74.3201 101.443 74.4211 101.353 74.5114V74.478ZM101.036 83.7314H99.8831V82.1447V82.0444L100.301 81.4431V81.0924H101.069V83.7314H100.919H101.036ZM99.6827 81.0256H99.833V81.226V81.3095L99.7495 81.4431L99.6827 81.0256ZM99.4823 74.762H99.7829V80.5913H99.6159L99.4823 74.762ZM98.5469 83.8316L98.4467 82.7627H99.5157V83.865L98.5469 83.8316ZM98.263 81.1592H99.4322V82.1112L99.2818 82.3117H98.3298L98.263 81.1592ZM98.0458 83.8316V82.7627V83.0967V83.8316ZM98.0458 79.2216H98.5469H99.3653V80.7416H97.8788L98.0458 79.2216ZM98.0458 77.4511H98.5469H99.3152V78.7707H98.5135H97.8788L98.0458 77.4511ZM98.0458 75.6472H99.4322V76.9167H98.6805H98.0291L98.0458 75.6472ZM98.0458 74.929H98.2296H98.7306H99.4155V75.1629H98.0458V74.929ZM97.6784 74.4947V75.1629H97.5781V73.9603H98.5469H99.9165V74.6284H98.5469H98.0458H97.4946L97.6784 74.4947ZM97.6784 77.0169V76.5826V75.547H97.7786V77.0002L97.6784 77.0169ZM97.6784 83.8316H96.9935C97.2197 83.4529 97.426 83.0627 97.6115 82.6624V82.5288L97.6951 82.3284V83.865L97.6784 83.8316ZM97.2608 70.3524H99.8998C99.9462 70.5517 100.008 70.7471 100.084 70.937V73.3088H98.7139H98.146H97.6617H97.4278L97.2608 70.3524ZM97.2608 68.8325H98.3131H98.8142H99.7829C99.7877 69.2075 99.8212 69.5816 99.8831 69.9516H96.9935L97.2608 68.8325ZM101.002 72.3067C101.06 72.3747 101.135 72.4265 101.219 72.457V73.1919H100.969H100.535V71.672C100.639 71.8936 100.787 72.0923 100.969 72.2566L101.002 72.3067ZM100.551 74.3277V73.6429H100.969H101.219V74.3611H100.217L100.551 74.3277ZM101.37 80.608H100.601V74.762C100.686 74.9445 100.811 75.1046 100.969 75.2297C101.03 75.2827 101.106 75.3175 101.186 75.3299L101.37 80.608ZM92.0328 83.7815H91.8825C91.7488 83.5477 91.5317 83.1802 91.2311 82.7292L90.9972 82.3451V81.677C90.9539 81.4081 90.8811 81.1448 90.7801 80.8919L91.1976 80.5412C91.5317 81.0423 91.7154 81.3262 91.7321 81.3262C91.7321 81.3262 91.9827 81.5099 91.9827 82.5622C91.9827 83.0466 91.9827 83.4475 91.9827 83.7481L92.0328 83.7815ZM91.1809 83.7481H91.0807L90.9638 83.5477V83.0132L91.1976 83.3807L91.4482 83.7481H91.1809ZM90.3792 83.7481H90.1955L89.8447 83.2303L89.5942 82.8295L89.3269 82.4286L89.1432 82.1447L89.3269 81.9776L89.5274 82.2616L89.7779 82.6624L90.1955 83.5143L90.3792 83.7815V83.7481ZM88.6588 81.844L88.5252 81.6603L88.1243 81.0757L88.3916 80.8585L88.5252 81.059L88.8091 81.4932L88.9094 81.6436H88.8091L88.6588 81.844ZM87.8905 80.6748L87.7903 80.5245L87.2558 79.706L86.8549 79.0212L86.6044 78.6538L86.4206 78.3698L86.6044 78.2195L86.8549 78.5034L87.3226 79.2216L87.8571 80.0234L88.141 80.441L88.2245 80.5746L88.141 80.6581L87.8905 80.6748ZM86.12 77.9856L86.0031 77.8019L85.6356 77.2507L85.8861 77.0169L86.0031 77.2006L86.287 77.6182L86.3872 77.7685H86.287L86.12 77.9856ZM85.4018 76.8832L85.2848 76.6828L84.7504 75.8811L84.2326 75.1629C84.0763 75.0104 83.9515 74.8288 83.8651 74.6284L84.1156 74.4112L84.7504 75.3967L85.2848 76.1984L85.5855 76.6828L85.4018 76.8832ZM83.8651 79.4889H82.9798V78.3698H83.9486V79.4889H83.8651ZM82.3117 70.9203C82.1613 70.7143 81.9657 70.5454 81.7398 70.4267C81.514 70.308 81.2639 70.2426 81.0089 70.2355H79.6727V69.4672H81.6102L83.5143 72.2399L83.9319 72.8412L84.4163 73.5594L84.2493 73.7097L83.9319 73.2086L83.7482 72.9414C83.6874 72.7615 83.6091 72.5881 83.5143 72.4236C83.1884 71.8951 82.8077 71.4024 82.3785 70.9537L82.3117 70.9203ZM79.6226 67.6967H81.677L83.5143 70.5529L83.9319 71.221L84.8172 72.624L85.051 73.0082L84.8172 73.2086L84.7169 73.2921L83.9319 72.1062L83.5143 71.5049C82.5623 70.0685 81.844 69.1164 81.844 69.0997H79.6226V67.6967ZM77.7853 70.2522H76.2152V69.534H77.7853H79.3219V70.3023L77.7853 70.2522ZM76.115 69.0329C76.6662 68.6655 76.0147 68.5652 76.0147 68.5652C76.0686 68.3122 76.1021 68.0553 76.115 67.7969H77.7853H79.2217V69.1331H76.1317L76.115 69.0329ZM83.2805 68.6989L83.4308 68.9661L83.8484 69.6676C84.0822 70.0518 84.3829 70.5362 84.7336 71.0707C84.9007 71.3379 85.0677 71.6218 85.2681 71.9058L85.5688 72.3902L85.2848 72.6407L84.7504 71.8056L83.8651 70.4025L83.4475 69.7344L82.1113 67.5965C82.3807 67.6599 82.6301 67.7893 82.8371 67.9729C83.0441 68.1566 83.2022 68.3888 83.2972 68.6487L83.2805 68.6989ZM86.0031 72.9915L86.287 73.4258L86.5376 73.8099L86.7881 74.1941L87.2558 74.9123C87.4395 75.1963 87.6232 75.4635 87.7903 75.7475L88.0742 76.165L87.7903 76.3989C87.6232 76.165 87.4562 75.8978 87.2892 75.6305L86.8549 75.1629L86.6044 74.7787L86.3538 74.3611L86.0699 73.9268L85.6523 73.2587L85.9195 73.0416L86.0031 72.9915ZM89.9783 81.2427L90.1287 81.1091C90.1933 81.2885 90.2435 81.4728 90.279 81.6603V81.844L90.112 81.5935L89.9783 81.2427ZM89.5942 81.5601C89.7612 81.7939 89.9115 82.0277 90.0452 82.2449L90.2122 82.4954V83.0466L90.0452 82.7794L89.5107 81.9609L89.377 81.7605L89.5942 81.5601ZM89.3436 80.2572L89.2267 80.1737L89.3436 80.0735C89.3925 80.1561 89.4484 80.2343 89.5107 80.3073L89.661 80.5078C89.7485 80.6085 89.8216 80.7209 89.8781 80.8418L89.661 81.0256L89.5107 80.8084L89.3436 80.2572ZM88.8091 80.4577L88.9261 80.3574L89.0764 80.5746L89.3436 80.9754L89.4438 81.1258L89.3436 81.226L89.2267 81.3262L89.0764 81.0924L88.8091 80.6915L88.7089 80.5412L88.8091 80.4577ZM88.5252 79.0713L88.0742 78.3865L87.7903 77.9856L87.4395 77.4511L87.6733 77.2507L87.7903 77.4344L88.0742 77.8687C88.2301 78.1248 88.3804 78.3587 88.5252 78.5702L88.8091 79.0212L89.0764 79.4221L89.1933 79.6225L89.0764 79.7227L88.8927 79.4388L88.5252 79.0713ZM87.1222 77.7184L87.2558 77.9021L87.7903 78.7039L88.0742 79.1214L88.5252 79.7896L88.6922 80.0401L88.5252 80.1737L88.1243 79.5557L87.8404 79.1548L87.3059 78.3364L86.9718 77.8353L87.1222 77.7184ZM86.7881 76.4657L86.6879 76.3154L86.7881 76.2151L86.9384 76.0815L87.2558 76.5993L87.4395 76.8832L87.2558 77.0336L86.7881 76.4657ZM86.287 76.6828H86.3872L86.5376 76.9167L86.7881 77.2841L86.8883 77.4344H86.7881H86.6879L86.5376 77.2173L86.287 76.8331H86.1868L86.287 76.6828ZM86.1367 76.2318L86.0031 76.3655L85.6356 75.7976L85.3349 75.3132L84.8005 74.5114L84.4664 74.0104L84.6334 73.8767L84.8005 74.1106L85.3349 74.8956L85.6356 75.3633L86.0532 75.998L86.1367 76.2318ZM86.0031 75.3132L85.5855 74.6785L85.2848 74.2108L84.9007 73.6429L85.218 73.3756L85.5187 73.8767L85.9362 74.5449L86.2202 74.9791L86.4707 75.38L86.6378 75.6472L86.4707 75.7809L86.3705 75.8811L86.2202 75.6472L86.0031 75.3132ZM88.5252 76.8331L88.8091 77.2674L89.0764 77.685L89.3436 78.0859L89.5942 78.47L90.1287 79.2885L90.6465 80.0735L90.279 80.3909C90.2558 80.3168 90.2279 80.2443 90.1955 80.1737H90.0285C89.8684 79.9848 89.7232 79.7837 89.5942 79.5724C89.5942 79.4388 89.4271 79.3052 89.3436 79.1715C89.2601 79.0379 89.1766 78.9043 89.0764 78.7707L88.8091 78.3531L88.5252 77.8186L88.0742 77.1171L87.974 76.9668H88.0742L88.3582 76.7162L88.5252 76.8331ZM72.6742 51.2444H72.7911V52.0962H72.6742C72.6742 52.0962 72.4236 51.545 72.6742 51.2611V51.2444ZM72.457 53.4491H71.8223H71.6052L71.7388 53.1652H72.6074L72.457 53.4491ZM71.9727 54.6016L71.8223 54.3845L71.338 53.9669V53.8834H72.29L71.9727 54.6016ZM69.534 33.8567H70.4861L70.0017 36.4623L69.6343 38.4166L69.534 33.8567ZM69.3837 27.8938H70.4861H71.5718L70.7199 32.604H70.4861V32.938V33.4892H69.4839L69.3837 27.8938ZM69.3837 49.0563H67.7134V47.8203H69.2334C69.357 48.2256 69.4023 48.6507 69.367 49.073L69.3837 49.0563ZM69.0497 49.858C68.8481 50.1466 68.7429 50.4915 68.749 50.8435H67.8136V49.4906H69.3336C69.2919 49.6191 69.217 49.7343 69.1165 49.8246L69.0497 49.858ZM68.7156 52.2131C68.5377 52.2254 68.3591 52.2254 68.1811 52.2131H67.8805V51.2778H68.7991V51.7789C68.7991 52.2966 68.7991 52.2465 68.7991 52.2465L68.7156 52.2131ZM67.8304 46.1667H68.4818C68.6424 46.5561 68.8265 46.9354 69.033 47.3025V47.386H67.6633L67.8304 46.1667ZM67.6967 39.9198H68.2646H69.1666H69.5173C69.509 40.0087 69.509 40.0982 69.5173 40.1871C69.5173 40.5545 69.3837 40.5378 69.3837 40.5378C69.3191 40.5135 69.2479 40.5135 69.1833 40.5378C69.0476 40.6147 68.9329 40.7236 68.8492 40.8552C68.5319 41.2728 68.8492 43.5443 68.8492 43.5443C68.8492 44.0621 68.5319 43.9452 68.5319 43.9452C68.4334 43.919 68.3297 43.919 68.2312 43.9452C67.8136 44.0454 67.964 44.5465 67.964 44.5465C67.964 44.5465 68.0642 44.8639 68.2312 45.2814C68.2312 45.3984 68.3481 45.5487 68.3983 45.699H67.7803L67.6967 39.9198ZM67.5631 34.1907V33.9402H67.964L68.0976 39.5858H67.68L67.5631 34.1907ZM67.5631 52.2131V51.378H67.7468V52.2632H67.6466L67.5631 52.2131ZM67.5297 50.7934H67.6633V50.3591H67.5297V49.6075H67.7301V50.9604H67.5464L67.5297 50.7934ZM67.5297 47.9205H67.7134V49.1565H67.513L67.5297 47.9205ZM67.5297 69.7344C67.4544 69.8251 67.3564 69.8943 67.2458 69.9349C67.1744 69.9519 67.1 69.9519 67.0286 69.9349C66.9263 69.9179 66.8292 69.8779 66.7447 69.8179L66.5943 69.6843L66.5108 68.014H67.5297V69.7344ZM66.3104 53.0316C66.2303 53.1814 66.1632 53.3379 66.11 53.4992V52.614H66.5943V52.6975C66.519 52.8035 66.452 52.9152 66.3939 53.0316H66.3104ZM65.9262 67.396C65.7925 67.2117 65.7222 66.989 65.7258 66.7613C65.7258 65.9262 65.5588 58.7607 65.5588 58.7607C65.5588 58.7607 65.5588 58.1092 65.9262 57.8921C65.9447 57.8843 65.9646 57.8803 65.9847 57.8803C66.0048 57.8803 66.0247 57.8843 66.0432 57.8921L66.2937 67.68C66.2201 67.6671 66.1497 67.6398 66.0866 67.5997C66.0236 67.5596 65.9691 67.5074 65.9262 67.4461V67.396ZM65.1412 27.9773H65.7425L65.8761 33.6396H65.2915L65.208 30.299L65.1412 27.9773ZM64.9742 22.1647H65.5922L65.7258 27.6599H65.1412L64.9742 22.1647ZM64.7737 56.6227V56.7897H64.4898V56.2719C64.4655 56.0962 64.5072 55.9177 64.6067 55.7708C64.634 55.7529 64.6659 55.7433 64.6986 55.7433C64.7312 55.7433 64.7632 55.7529 64.7904 55.7708C64.911 55.8058 65.0242 55.8624 65.1245 55.9379V56.3387H64.757L64.7737 56.6227ZM65.1412 54.7687V55.4702L64.8238 55.2698L64.4731 55.1194V54.017C64.5868 54.0761 64.6842 54.1622 64.757 54.2676C64.8661 54.4349 64.9664 54.6077 65.0577 54.7854L65.1412 54.7687ZM64.7737 53.4491C64.6897 53.3444 64.5945 53.2492 64.4898 53.1652V52.4637H64.9742V53.8834L64.7737 53.4491ZM64.2225 51.4782C63.9918 51.4227 63.7573 51.3836 63.521 51.3613H63.0199H62.118L62.3017 50.8769H64.9742V52.1296H64.5065C64.494 51.997 64.4602 51.8673 64.4063 51.7454C64.3061 51.5784 64.1891 51.5951 64.1891 51.5951L64.2225 51.4782ZM64.0722 68.4817H61.5C60.8987 68.4817 60.8486 68.0808 60.8486 68.0808L60.6815 61.0489C60.6815 60.7483 61.0824 60.765 61.0824 60.765H63.7047C64.4564 60.765 64.3562 61.3496 64.3562 61.3496C64.3562 61.3496 64.3562 67.1288 64.3562 67.8303C64.3562 68.5318 63.9887 68.4984 63.9887 68.4984L64.0722 68.4817ZM62.3184 82.1279H60.4811V79.7896H62.569V82.1279H62.3184ZM58.2596 51.5784C58.2596 51.5784 58.6772 51.5784 58.8442 50.9437H59.8297H61.3997L61.1993 51.4448H59.8297L58.2596 51.5617V51.5784ZM58.126 60.1303H52.2633L52.5639 59.4455L53.1987 58.0257H59.4622V60.1303H58.126ZM58.8108 68.1811C58.8108 68.5318 58.8108 68.7991 58.46 69.0663C58.3493 69.0823 58.2368 69.0823 58.126 69.0663C58.0544 69.0817 57.9804 69.0817 57.9089 69.0663C57.8068 69.0327 57.7149 68.9736 57.6418 68.8947C57.5688 68.8159 57.517 68.7197 57.4913 68.6153C57.4913 68.4483 57.4913 68.014 57.4913 68.014C57.4913 68.014 57.4913 67.7635 57.7585 67.7802H58.6939C58.6939 67.7802 58.8776 67.7802 58.8442 68.1978L58.8108 68.1811ZM57.3911 65.8594V62.5856C57.3911 62.168 57.6917 62.1346 57.6917 62.1346H58.46C58.8275 62.1346 58.7607 62.4353 58.7607 62.4353V65.7759C58.7607 66.1099 58.4935 66.0765 58.4935 66.0765H57.6249C57.5868 66.0768 57.5491 66.069 57.5143 66.0535C57.4795 66.038 57.4484 66.0153 57.4231 65.9868C57.3978 65.9583 57.3788 65.9248 57.3675 65.8884C57.3563 65.852 57.3529 65.8136 57.3577 65.7759L57.3911 65.8594ZM58.3431 80.8084H57.2574V79.5223H58.1761H58.3932L58.3431 80.8084ZM55.1195 68.4817H54.8522H54.2509C53.8501 68.4817 53.8 68.298 53.8 68.298V67.9639L52.5639 62.5021L52.3468 61.4665C52.3468 61.1659 52.447 61.0489 52.5639 61.0155C52.6349 60.9956 52.7101 60.9956 52.7811 61.0155H54.919C55.3867 61.0155 55.2865 61.3663 55.2865 61.3663C55.2865 61.3663 55.4201 67.5798 55.4368 68.0474C55.4535 68.5151 55.1195 68.4817 55.1195 68.4817ZM54.6351 81.6937C54.6351 82.295 54.301 82.2783 54.301 82.2783H53.4492C53.3163 82.2783 53.1888 82.2255 53.0949 82.1315C53.0009 82.0375 52.9481 81.9101 52.9481 81.7772V80.1069C52.9435 79.99 52.9844 79.8759 53.0623 79.7886C53.1402 79.7014 53.249 79.6478 53.3657 79.6392H54.3177C54.919 79.6392 54.7687 80.1069 54.7687 80.1069C54.7687 80.1069 54.7687 81.0256 54.7687 81.6436L54.6351 81.6937ZM52.5639 68.4817H50.5596C50.4997 68.4998 50.4358 68.4998 50.3759 68.4817C50.2776 68.4126 50.1954 68.3231 50.1349 68.2194C50.0743 68.1156 50.0369 68 50.0251 67.8804L49.6409 66.4106C49.1232 64.4563 48.3047 61.3997 48.3047 61.3997C48.3001 61.3736 48.3025 61.3468 48.3116 61.3219C48.3207 61.2971 48.3362 61.275 48.3565 61.2581C48.3769 61.2411 48.4013 61.2299 48.4274 61.2254C48.4535 61.2209 48.4803 61.2234 48.5052 61.2327H51.1275C51.1865 61.2094 51.2522 61.2094 51.3112 61.2327C51.4342 61.3461 51.5115 61.5005 51.5284 61.6669C51.5284 62.0511 52.2299 65.3249 52.5639 67.0954L52.7811 68.2479C52.7811 68.2479 52.8813 68.4984 52.5639 68.5151V68.4817ZM50.3926 74.0104H49.6409L46.6177 74.0939H44.4631V72.6574C44.4449 72.4486 44.5044 72.2405 44.6301 72.0728L44.7971 71.9225H48.7724C49.0095 72.1898 49.3158 72.3863 49.6576 72.4904C49.8126 72.5148 49.9704 72.5148 50.1253 72.4904H50.3926H50.5429C50.538 72.9832 50.4933 73.4747 50.4093 73.9603L50.3926 74.0104ZM45.3984 70.3524H48.1711C48.1803 70.7348 48.2714 71.1107 48.4383 71.4548H45.1813C45.3143 71.3014 45.4045 71.1156 45.4426 70.9161C45.4807 70.7167 45.4655 70.5107 45.3984 70.319V70.3524ZM44.4297 68.6487H48.8225C48.4971 68.996 48.282 69.4319 48.2045 69.9015H45.0978C45.0489 69.8117 44.9796 69.7346 44.8954 69.6766C44.8113 69.6186 44.7147 69.5812 44.6134 69.5674C44.3294 69.3336 44.413 68.7156 44.413 68.7156L44.4297 68.6487ZM49.6409 70.319H50.3592C50.4219 70.6611 50.461 71.0071 50.4761 71.3546H49.4739C49.3067 71.2275 49.1713 71.0633 49.0785 70.8748C48.9857 70.6864 48.9381 70.479 48.9394 70.2689L49.6409 70.319ZM49.6409 69.0663C49.757 68.9954 49.8892 68.9551 50.0251 68.9494L50.1086 69.3002C50.1086 69.5006 50.2255 69.6843 50.2757 69.8681H49.0062C49.0497 69.6973 49.1287 69.5376 49.2381 69.3995C49.3474 69.2613 49.4847 69.1478 49.6409 69.0663ZM49.6409 58.6938L50.2757 57.9255H52.1965L51.3112 59.8964V60.0301H48.5553L49.6409 58.6938ZM50.9939 51.0773V51.4114C50.9939 51.4114 50.9939 51.5116 50.9939 51.5617V51.1441V51.0773ZM51.3112 56.439C51.3893 56.6339 51.4902 56.819 51.6119 56.9901H51.044V55.4869C51.1071 55.8074 51.2022 56.1208 51.3279 56.4222L51.3112 56.439ZM53.9336 51.2778C54.0349 51.2219 54.1254 51.1484 54.2008 51.0606H55.1195V52.3301H53.9503C53.9007 51.9922 53.9007 51.649 53.9503 51.3112L53.9336 51.2778ZM55.1195 53.9669H54.5015C54.4371 53.7506 54.359 53.5386 54.2676 53.3322C54.1579 53.1416 54.0683 52.9401 54.0004 52.7309H55.1195V53.9669ZM54.6518 56.0548H55.1195V56.8899H54.2843C54.4859 56.6348 54.6285 56.3382 54.7019 56.0214L54.6518 56.0548ZM54.7019 54.3511H55.1195V55.5537H54.7186C54.7463 55.1501 54.7125 54.7446 54.6184 54.3511H54.7019ZM55.5036 51.0105H56.4557H56.5726C56.6302 51.1623 56.7174 51.301 56.8293 51.4186C56.9411 51.5362 57.0753 51.6303 57.224 51.6953H56.4557L55.5036 51.8123V51.0105ZM56.4557 53.9335H55.5036V53.4491H57.3911V53.9836L56.4557 53.9335ZM57.4245 56.7897H55.5537V55.9713H57.4245V56.7897ZM57.4245 55.4702V55.5704H55.5537V54.3511H57.4412V55.5036L57.4245 55.4702ZM57.842 54.301H59.0781V55.4034H58.1093H57.8253L57.842 54.301ZM57.842 53.3322H59.0614V53.85H57.842V53.3322ZM61.7004 53.1318H62.4019V56.2719H62.3017C62.2195 56.3094 62.1468 56.3648 62.0889 56.4342C62.0311 56.5036 61.9896 56.5852 61.9676 56.6728H61.8006L61.7004 53.1318ZM62.3685 57.8253H63.7215C63.7836 57.8251 63.8451 57.8378 63.9021 57.8625C63.9591 57.8872 64.0104 57.9235 64.0528 57.969C64.0951 58.0144 64.1276 58.0682 64.1482 58.1268C64.1688 58.1854 64.177 58.2477 64.1724 58.3097V59.245C64.1724 59.8797 63.7716 59.9466 63.7716 59.9466H61.0657C60.9477 59.9524 60.8315 59.9148 60.7392 59.841C60.647 59.7672 60.5848 59.6621 60.5646 59.5457V58.46C60.5643 58.3283 60.6143 58.2014 60.7043 58.1052C60.7943 58.009 60.9175 57.9507 61.049 57.9422H62.3852L62.3685 57.8253ZM62.8028 49.5908L63.0366 48.9895L63.5377 47.7034L64.4564 45.2981L64.7904 44.4296V44.3294L64.9408 50.2589H62.4687L62.8028 49.5908ZM62.3852 46.0999L60.0301 43.845H64.1891L63.5377 45.5153L63.0366 46.7513L62.8028 46.5342L62.3852 46.0999ZM59.5958 43.4274C59.5958 43.2771 59.1616 43.2437 59.1616 43.2437V41.1057H59.2618L59.813 41.7237L61.2995 43.394H59.6293L59.5958 43.4274ZM64.7069 12.594H65.3583V14.0137C65.2747 14.1419 65.2127 14.283 65.1746 14.4313C65.1632 14.5479 65.1632 14.6654 65.1746 14.782H65.375V15.8176H64.8071V14.7152L64.7069 12.594ZM64.4397 40.4209L64.1557 39.9866H64.6902V40.8385L64.4397 40.4209ZM64.4397 37.9489C64.487 37.851 64.5489 37.7609 64.6234 37.6816V38.7506H64.2225V39.1014H64.6401V39.6359H63.972C64.0107 39.0587 64.1521 38.4931 64.3896 37.9656L64.4397 37.9489ZM64.7236 10.4226H65.2581V12.2599H64.6067V10.4059L64.7236 10.4226ZM65.5087 20.3274H64.8739V17.8052L65.2247 16.9367L65.4753 16.302L65.5087 20.3274ZM65.5087 21.2627V21.8139H64.8739V20.5946H65.492L65.5087 21.2627ZM65.9596 39.6359H65.3917V39.1181H65.5755V38.7506H65.3917V37.0803H65.5755V36.7463H65.3917V34.0571H65.9596V39.6359ZM65.9596 10.4059H67.229V10.79H66.895V11.692H67.2458V12.1764H65.8427V10.3391L65.9596 10.4059ZM67.2959 13.7465H65.9763V12.5438H67.3961L67.2959 13.7465ZM67.2959 15.8176H66.9284V14.1473H67.2959V15.8176ZM67.2959 17.0703L67.5798 21.7137H67.1956V20.7115V20.3775L67.0954 16.0849H67.4796L67.2959 17.0703ZM67.5464 27.6432H67.3126L67.1956 22.1313H67.5798L67.5464 27.6432ZM67.9974 10.3725H68.5152V12.1931H67.6466V11.692H67.8471V10.6898H67.6466V10.3391L67.9974 10.3725ZM68.6488 15.7675H67.9974H67.5631V14.0972V13.6963V12.4937H68.0809H68.6655L68.6488 15.7675ZM67.1789 28.8625V27.994H67.5631L67.6967 33.6396H67.2959L67.1789 28.8625ZM67.062 46.2168H67.2625V47.4361H67.062V46.2168ZM66.3271 66.4774H67.229V67.5129H66.2603V66.4774H66.3271ZM66.3271 66.1099L66.4273 64.8071H67.1455V66.1266H66.2937L66.3271 66.1099ZM66.0432 50.76H66.2937V52.0294H65.8093V50.7433L66.0432 50.76ZM66.0432 39.9532V40.6548L66.2436 48.3214V50.309H65.7258L65.5421 43.6279L65.4418 39.8864H65.993L66.0432 39.9532ZM66.8115 15.7842H66.0766V14.1139H66.8115V15.6005V15.8343V15.7842ZM66.8115 20.3775H66.6277L66.4774 16.135H66.8115V20.3775ZM66.8115 21.7137H66.6612V20.7115H66.8115V21.7137ZM67.0286 27.5764H66.8115V27.376L66.6779 22.0645H66.9451L67.0286 25.7725V27.5931V27.5764ZM67.0286 33.5727L66.8115 27.9439H67.062L67.1956 33.6062L67.0286 33.5727ZM67.0286 39.5357V36.3287V33.9068H67.2625L67.3794 39.5357H67.0286ZM67.0286 39.8697H67.2458V42.1747V45.6823H67.0453L67.0286 39.8697ZM66.9284 50.7099V52.0294H66.7614V50.7266L66.9284 50.7099ZM66.9284 46.15V48.0374V50.2589H66.8115V46.1834L66.9284 46.15ZM66.8115 39.9198L66.9618 45.7324H66.8115V45.6489L66.6612 39.9198H66.8115ZM66.5275 33.9569H66.6779L66.8115 39.1181V39.5858H66.6445L66.5108 33.9736L66.5275 33.9569ZM66.3772 27.9606H66.5275L66.6779 33.6228H66.5108L66.3772 27.9773V27.9606ZM66.2937 22.1146H66.3772L66.5108 27.6098H66.3104V24.2693V22.1146H66.2937ZM66.1935 20.3441L66.0933 16.5859V16.1517H66.2269V18.2896V20.3608H66.1434L66.1935 20.3441ZM66.2937 20.6948V21.7638H66.1434V20.6614L66.2937 20.6948ZM68.9996 21.6636H68.2145H67.9139L67.7803 16.0514H68.2145H68.8659L68.9996 21.6636ZM69.1165 26.3738V27.5597H68.0475L67.9139 22.0144H68.9996L69.1165 26.3738ZM69.1165 10.3057H69.4505L70.0017 10.0217L70.4861 9.85469L71.8223 9.48722L72.7243 9.18657L73.1419 9.05295L72.7243 9.3536L71.8223 10.0217L70.5362 10.9905L70.0518 11.3579L69.1165 12.0762V10.2723V10.3057ZM68.1477 33.5727L68.0141 27.9272H68.1644H69.0664L69.2 33.556H69.033H68.131L68.1477 33.5727ZM68.1477 33.9068H69.0497H69.2167L69.3503 39.5357H69.0497H68.2646L68.1477 34.3077V33.9068ZM73.8768 8.85251L74.0438 8.73559L74.9625 8.65208H75.1629L75.0627 9.28679L73.977 15.1829L72.7577 21.864L71.8223 26.7246L71.6887 27.4929H69.3837L69.2668 22.3484C69.2668 22.0144 69.3837 21.8807 69.6677 21.9141H70.1521V22.8495H70.8202V21.8807H70.9371V21.5467H70.8369V20.6113H70.4026H70.0351L70.1521 21.7137H70.0017H69.2501L69.1332 16.7029C69.4099 16.4588 69.6998 16.2302 70.0017 16.018H71.1041C71.3291 16.0543 71.5416 16.1462 71.7221 16.2853L71.839 16.4356C71.9894 16.8365 72.2232 16.4356 72.2399 16.3187C72.2586 16.2025 72.2586 16.0841 72.2399 15.9679H72.457V16.8866H73.1753V15.9011V15.5671V14.7152H72.4905V15.5838H71.8223H70.5362H70.0518H69.1666V13.5126V12.3267L70.0351 11.6753L70.5195 11.3245L71.8223 10.4393L72.7243 9.77117L73.8768 8.85251ZM43.4275 69.9015H40.7049L40.8051 68.6654H43.7114C43.7114 69.0329 43.5611 69.4505 43.4943 69.9015H43.4275ZM43.2438 71.5717H40.9555V71.4882C40.7747 71.1438 40.6883 70.7577 40.7049 70.3691H43.4275C43.4275 70.77 43.2939 71.1542 43.2438 71.5383V71.5717ZM42.893 74.1607H41.7572C41.7572 73.9268 41.6069 73.0583 41.4064 73.0249C41.206 72.9915 41.0891 72.8746 41.0891 72.5906C41.13 72.3923 41.13 72.1877 41.0891 71.9893H43.1268C42.9598 73.1919 42.8429 74.1607 42.8429 74.1607H42.893ZM42.8429 80.4577V82.1279C42.8487 82.246 42.8112 82.3621 42.7373 82.4544C42.6635 82.5467 42.5585 82.6088 42.442 82.629H41.3229C40.8886 82.629 40.9053 82.1614 40.9053 82.1614V80.4911C40.9053 79.99 41.2895 79.99 41.2895 79.99H42.3585C42.9431 79.99 42.8429 80.4076 42.8429 80.4076V80.4577ZM40.0869 69.9015C39.6362 69.8707 39.1885 69.9944 38.8175 70.2522L37.5815 71.1208L34.7754 73.0583L34.909 71.8891C34.909 71.8891 34.909 71.4214 35.5604 71.0372L37.5815 69.8848L39.2518 68.9327C39.5366 68.7576 39.8712 68.6812 40.2038 68.7156H40.3542C40.3542 69.1164 40.3542 69.5674 40.3542 69.9516L40.0869 69.9015ZM40.3375 71.5717H40.0869C39.643 71.5557 39.2052 71.6783 38.8342 71.9225L37.4312 72.9247L34.4246 75.0125L34.575 73.6429L37.4312 71.6553L38.8843 70.6531C39.1822 70.4485 39.5444 70.3594 39.9032 70.4025H40.1537L40.3375 71.5717ZM40.3375 72.3568L39.5691 73.3422C39.2909 73.6739 39.1425 74.0953 39.1516 74.5281C39.1516 75.1461 39.0346 75.1294 39.0346 75.1294L38.1828 75.5637C38.1828 75.5637 38.45 75.3132 37.9991 75.2798C37.9128 75.2772 37.8276 75.2994 37.7535 75.3438C37.6795 75.3883 37.6198 75.453 37.5815 75.5303C37.5049 75.6482 37.4485 75.7781 37.4145 75.9145L36.596 76.5492C36.5696 76.4278 36.5128 76.3152 36.431 76.2217C36.3492 76.1282 36.2451 76.057 36.1283 76.0147C35.5604 75.6138 35.4602 76.3822 35.4602 76.3822H34.4079L34.5082 75.5804L37.498 73.4926L39.1683 72.3568C39.4303 72.1443 39.7506 72.0162 40.0869 71.9893H40.2038L40.3375 72.3568ZM34.0071 76.449C33.2554 76.5826 33.3724 77.0002 33.3724 77.0002H33.2554C33.2554 77.0002 33.2554 77.0002 33.2554 76.9C33.2554 76.7997 33.2554 76.5659 33.339 76.3822C33.41 76.0145 33.5221 75.6559 33.673 75.3132C33.7667 75.0303 33.9481 74.7846 34.1908 74.6117L34.0071 76.449ZM33.6897 81.3262H32.8546V80.0067C32.8401 79.8561 32.8724 79.7047 32.9471 79.5732C33.0219 79.4417 33.1354 79.3364 33.2721 79.2718C33.4093 79.2378 33.5526 79.2378 33.6897 79.2718V81.3262ZM30.0652 84.7837C30.0631 84.9879 29.9878 85.1845 29.8529 85.3378C29.718 85.4911 29.5325 85.5908 29.3303 85.6188L28.8292 85.5186L28.2947 85.4184C27.5932 85.1679 27.66 84.2158 27.66 84.2158C27.66 84.2158 27.5431 83.8818 28.1444 83.4642C28.2118 83.4209 28.2849 83.3872 28.3615 83.364C28.5372 83.3221 28.7203 83.3221 28.896 83.364C29.1892 83.4074 29.4722 83.5036 29.7311 83.6479C30.1821 83.9152 30.132 84.8171 30.132 84.8171L30.0652 84.7837ZM28.1778 77.1171H28.3949C28.3773 77.2182 28.3831 77.3221 28.4121 77.4205C28.4411 77.519 28.4923 77.6095 28.5619 77.685L28.3114 77.9355L28.0609 77.5681C28.0609 77.5681 28.1945 77.5681 28.0609 77.1338L28.1778 77.1171ZM20.6114 80.1737C19.9161 80.2155 19.2188 80.2155 18.5235 80.1737L16.2352 80.0401V79.0045H16.4691C17.1274 79.3091 17.8489 79.4523 18.5736 79.4221C19.4154 79.3931 20.2199 79.0677 20.8452 78.5034C20.7049 79.0497 20.6264 79.6099 20.6114 80.1737ZM13.5795 79.6559C13.4853 79.6688 13.3897 79.6688 13.2955 79.6559C13.2014 79.6704 13.1057 79.6704 13.0116 79.6559C13.0116 79.6559 13.0116 79.4722 13.2955 79.0379C13.3858 78.918 13.4864 78.8062 13.5962 78.7039L13.5795 79.6559ZM8.88597 82.3785C8.80001 82.6118 8.66305 82.8229 8.4851 82.9965C8.26797 83.1802 8.11764 82.9965 8.11764 82.9965C7.75018 82.7125 8.00072 82.0444 8.00072 82.0444C8.12177 81.7751 8.28531 81.527 8.4851 81.3095C8.4851 81.3095 8.76905 80.942 8.95278 81.4431C8.99758 81.6052 9.00883 81.7747 8.98586 81.9413C8.96288 82.1079 8.90616 82.268 8.81916 82.4119L8.88597 82.3785ZM63.4709 15.9011C63.4003 15.2863 63.2428 14.6846 63.0032 14.1139H63.6546V13.095H64.0054L64.0889 15.8844L63.4709 15.9011ZM62.7026 13.6629V13.3623H63.1034V13.6963H62.7193L62.7026 13.6629ZM62.7026 12.9781V12.5605V12.9781ZM62.7026 12.2098H62.8863H63.0867V12.6107H62.736L62.7026 12.2098ZM62.8863 9.67095C63.0032 8.00067 63.1034 6.58093 63.1368 6.09654H63.4709C63.7382 6.09654 63.7549 6.51411 63.7549 6.51411L63.9219 12.7276H63.5711V11.692H63.4709H62.9698H62.8362C62.8362 11.0239 62.9197 10.3391 62.9698 9.68766L62.8863 9.67095ZM72.9915 49.4906H74.5616V50.7767H73.0082V50.2422L72.9915 49.4906ZM72.9915 47.7201H73.7432H74.4781V49.0563H72.9414L72.9915 47.7201ZM72.9915 46.0498H73.8434C74.6618 46.0498 74.4113 46.2836 74.4447 47.219H73.7265H72.9748L72.9915 46.0498ZM74.6618 52.1129H73.0918V51.2611H74.6618V52.1129ZM96.7597 74.8622V73.9436H96.8766V74.9791H96.7597V74.8622ZM96.5593 70.5028L96.6929 72.9748L96.8766 73.4926H96.7096L96.5593 70.5028ZM96.5593 68.9661V69.3503V70.0351V68.9661ZM96.2753 74.595V74.0605V74.6618V74.595ZM96.1584 70.7533V70.5529V73.242V73.4926V70.7533ZM96.1584 69.083V70.1353V69.083ZM157.007 90.2789C156.631 88.991 156.104 87.752 155.437 86.5876C155.136 86.1032 154.769 86.2369 154.769 86.2369C154.769 86.2369 154 85.4017 153.633 85.0844C153.492 84.9988 153.33 84.9536 153.165 84.9536C153 84.9536 152.839 84.9988 152.698 85.0844L151.528 86.0531L149.474 81.9943C149.942 80.9587 147.57 80.9754 147.57 80.9754V79.4555C147.87 79.2216 147.72 78.6538 147.72 78.6538C147.369 78.0525 147.035 78.4199 147.035 78.4199C146.969 78.4581 146.915 78.5129 146.877 78.5788C146.839 78.6448 146.819 78.7196 146.819 78.7957C146.819 78.8719 146.839 78.9467 146.877 79.0126C146.915 79.0786 146.969 79.1334 147.035 79.1715V81.0089C142.826 81.4932 137.565 81.9108 132.454 82.2282C122.683 82.8629 113.513 83.2136 113.513 83.2136V82.5622C113.663 82.5622 113.763 82.3284 113.763 82.3284C113.914 81.8106 113.329 81.8607 113.329 81.8607C112.761 82.0611 113.229 82.5455 113.229 82.5455V83.3139H111.107V82.3284H111.909V82.0444H111.208V81.4097H109.537V82.2282H108.719V81.4598H109.437V81.1258H108.752V80.441H107.65V78.7707C107.654 78.2914 107.533 77.8193 107.299 77.401C107.141 77.2353 107.033 77.0278 106.989 76.8029C106.944 76.578 106.965 76.3451 107.049 76.1316L107.617 73.7097C107.967 72.5405 107.399 72.6908 107.399 72.6908C107.065 72.6908 107.082 72.0394 107.082 72.0394C107.082 71.4548 106.798 71.5383 106.798 71.5383H106.381C106.23 70.4311 106.152 69.3152 106.147 68.1978L109.671 71.1041C109.671 72.173 110.506 71.8891 110.506 71.8891L111.876 73.1752C111.876 73.1752 112.293 73.7431 112.761 73.4592C113.229 73.1752 112.627 72.7576 112.627 72.7576C112.627 72.7576 110.122 70.8201 110.874 71.0874C112.073 71.7879 113.194 72.6168 114.214 73.5594L114.765 72.0561C114.373 71.6379 114.005 71.1973 113.663 70.7366C112.811 69.6509 114.598 71.7889 115.333 70.8368C116.068 69.8848 114.849 68.8993 114.849 68.8993C113.874 67.6554 112.752 66.5338 111.508 65.5587C111.489 65.3174 111.39 65.0894 111.227 64.9108C111.063 64.7323 110.845 64.6135 110.606 64.5732L105.378 59.3954L103.023 60.1303C103.004 59.8908 102.935 59.6578 102.823 59.4455C102.762 59.3171 102.675 59.2022 102.569 59.1076C102.463 59.013 102.339 58.9404 102.205 58.8943C102.072 58.876 101.937 58.876 101.804 58.8943C101.716 58.8767 101.625 58.8767 101.537 58.8943C100.735 59.2617 101.102 61.3496 101.102 61.3496C101.333 62.0317 101.396 62.7593 101.286 63.4709C101.327 63.6712 101.413 63.8596 101.537 64.0221C101.724 64.2821 101.949 64.5129 102.205 64.7069C102.401 64.8808 102.607 65.0426 102.823 65.1912L103.324 65.5253L104.092 68.3147C104.293 68.9661 104.092 69.2166 104.092 69.2166C103.766 70.5602 103.516 71.9208 103.341 73.2921C102.823 73.3924 102.89 71.7555 102.89 71.7555C103.424 70.8702 103.207 69.9182 102.773 68.5485V68.3815C102.667 68.0173 102.465 67.6883 102.188 67.4294C101.989 67.2645 101.763 67.1346 101.52 67.0453C101.318 66.9437 101.105 66.8652 100.885 66.8114H100.668C100.524 66.7845 100.376 66.7901 100.234 66.8276C100.093 66.8652 99.9614 66.9338 99.8497 67.0286C99.5674 67.357 99.4237 67.7822 99.4489 68.2145H98.4801H97.979H97.3777H96.7597H95.6573V68.4483L95.8243 74.3277C95.8964 74.422 95.9806 74.5062 96.0749 74.5783L96.1918 74.6785L96.5259 74.8789L96.7263 74.9958H96.8766L97.2441 81.3095C97.1403 81.7523 96.9654 82.1754 96.7263 82.5622L96.5259 82.9297L96.2419 83.4308H92.133V82.2449C92.133 81.1592 91.8491 80.775 91.7488 80.6748C91.6486 80.5746 91.3814 80.1236 90.9304 79.4388C90.7133 79.088 90.4293 78.6705 90.1287 78.2195L89.5942 77.401L89.3436 77.0002L89.0764 76.5993L88.8091 76.1984L88.5252 76.1483L88.0742 75.4635L87.7903 75.0459L87.2558 74.2108L86.8549 73.4926L86.6044 73.1084L86.3538 72.7242L86.0699 72.29C85.9362 72.0728 85.8026 71.8557 85.6523 71.6385L85.3516 71.1375C85.1512 70.8535 84.9842 70.5696 84.8172 70.319C84.433 69.7177 84.1323 69.2166 83.9319 68.8659C83.8519 68.7423 83.7794 68.614 83.7148 68.4817L83.5143 68.131C83.3448 67.8202 83.0891 67.565 82.778 67.3961C82.4668 67.2272 82.1135 67.1518 81.7605 67.1789L77.7853 67.2958H76.115C76.1113 67.2458 76.1113 67.1955 76.115 67.1455C76.0681 66.8735 75.9361 66.6234 75.738 66.4313C75.5399 66.2392 75.2859 66.115 75.0126 66.0765C74.6367 66.0613 74.2632 66.1417 73.9269 66.3103H73.81V65.2915H73.9937C74.2275 65.2915 74.1941 65.0576 74.1941 65.0576C74.1535 64.9149 74.1629 64.7626 74.2206 64.626C74.2783 64.4893 74.3809 64.3764 74.5115 64.306C74.6945 64.2379 74.8853 64.193 75.0794 64.1724H75.1629C75.7141 63.9886 75.5972 63.7214 75.5972 63.7214C75.3633 62.5689 75.1462 61.834 74.9959 61.3162C74.8456 60.7984 74.6117 60.3808 74.5449 60.1136C74.4781 59.8463 74.2944 59.7795 74.2944 59.7795C73.8935 59.98 74.0772 59.362 74.0772 59.362C74.1562 58.6839 74.0994 57.9968 73.9102 57.3409C73.695 56.5689 73.2734 55.8702 72.6909 55.3199V55.2029L73.3256 53.3656H74.3111C74.5359 53.4215 74.771 53.4215 74.9959 53.3656C75.0555 53.3464 75.1118 53.3183 75.1629 53.2821C75.1844 53.2511 75.2132 53.2258 75.2466 53.2083C75.2801 53.1908 75.3172 53.1816 75.355 53.1816C75.3927 53.1816 75.4299 53.1908 75.4634 53.2083C75.4968 53.2258 75.5255 53.2511 75.5471 53.2821C76.0315 53.7331 75.998 53.065 75.998 53.065C76.1304 52.4813 76.3441 51.919 76.6328 51.3947C77.0336 51.0606 76.8332 50.9938 76.8332 50.9938C76.5446 50.906 76.2365 50.906 75.9479 50.9938C75.6373 51.1586 75.3643 51.3861 75.1462 51.6619L74.9792 46.4005V46.0498C74.9792 45.8995 74.8623 45.6155 74.0271 45.5988H73.192V44.9474L72.9247 45.5988H72.4905C72.5706 45.499 72.6328 45.3859 72.6742 45.2647C72.7712 45.1156 72.8229 44.9416 72.8229 44.7637C72.8229 44.5858 72.7712 44.4117 72.6742 44.2626C72.4944 44.0447 72.2478 43.8921 71.9727 43.8283C71.9716 43.57 71.9025 43.3165 71.7722 43.0934C71.6326 42.89 71.4361 42.7324 71.2073 42.6403C70.9785 42.5482 70.7276 42.5257 70.4861 42.5756C70.4811 41.8847 70.3332 41.2023 70.0518 40.5712C70.0518 40.3541 69.8848 40.1537 69.8013 39.9866C69.7953 39.9423 69.7953 39.8974 69.8013 39.853H70.603H71.8892H72.7911H73.2588V40.8218H73.9603V39.8029H74.2275V39.4688H74.0104V38.4166H73.4091V39.2851H72.9414H72.0395H70.7534H69.9182L70.269 37.381L70.7534 34.7753L70.8536 34.2075V34.5749H71.5551V33.6897V33.4057V32.4369H71.2878L72.1397 27.7601H73.192V28.7456H73.4926V26.4072L72.7744 26.5074V27.4094H71.8223L72.6575 22.7994L73.8768 16.1183L74.1774 14.448C74.1774 14.448 74.4948 14.615 74.9625 14.8154C75.8441 15.2213 76.761 15.5456 77.7017 15.7842C78.1171 15.8987 78.5558 15.8987 78.9712 15.7842C78.8443 15.4779 78.6292 15.2162 78.3531 15.0326C78.2621 14.9573 78.1889 14.8629 78.1385 14.7561C78.0882 14.6493 78.0622 14.5327 78.0622 14.4146C78.0622 14.2965 78.0882 14.1799 78.1385 14.073C78.1889 13.9662 78.2621 13.8718 78.3531 13.7966C78.6538 13.5627 78.9545 13.1451 78.8876 12.8445C78.8208 12.5438 77.7184 11.8256 77.7184 11.8256C77.7184 11.8256 76.1651 11.1241 76.0482 10.2723C75.9312 9.42041 75.1629 9.48722 75.1629 9.48722L75.3466 8.48505H75.1629V8.35143H74.9291H73.9937H73.8935H73.6596V7.76683H73.8267C74.5616 7.63321 74.6284 7.34926 74.6284 7.0319C74.6284 6.71455 74.5115 6.34709 74.2108 6.34709C74.1251 6.33653 74.0386 6.35797 73.9677 6.40728C73.8968 6.45659 73.8466 6.53031 73.8267 6.61433C73.8267 6.61433 73.8267 6.61433 73.8267 6.71455C73.7731 6.87729 73.7731 7.0529 73.8267 7.21563H73.5093C73.5259 7.08351 73.5136 6.94934 73.4733 6.82244C73.4329 6.69554 73.3654 6.57894 73.2755 6.48071C72.9748 6.16335 72.908 6.29698 72.741 6.48071C72.6887 6.55123 72.6491 6.63037 72.6241 6.71455C72.576 6.95169 72.5426 7.19154 72.5238 7.43277H72.1898C72.2637 7.31265 72.2987 7.17266 72.29 7.0319C72.1397 6.39719 71.8724 6.51411 71.7221 6.64774L71.6052 6.78136C71.6052 6.78136 71.3046 7.33255 71.505 7.70002C71.5565 7.78232 71.6324 7.84653 71.7221 7.88375C71.9862 7.94222 72.2598 7.94222 72.5238 7.88375C72.4214 8.19634 72.3706 8.52356 72.3735 8.85251L71.8223 9.13646L70.5362 9.57074L70.0518 9.73777L69.3837 9.9549H69.2167L69.1165 6.84817L68.8158 0V10.0217H64.6401V9.21998C64.738 8.96975 64.7889 8.70363 64.7904 8.43494V5.79589C64.7904 2.77267 65.0744 2.923 65.0744 2.923H65.2247C65.3416 2.83949 65.2247 2.67246 65.2247 2.53883L65.1412 2.28829C65.1412 1.93753 64.9575 1.92083 64.8572 1.97094C64.7846 2.02629 64.7224 2.09417 64.6735 2.17137C64.6011 2.25238 64.5495 2.34985 64.5232 2.45532C64.4809 2.56842 64.4809 2.69298 64.5232 2.80608C64.5665 2.92899 64.6486 3.0345 64.757 3.10673C64.6286 4.0209 64.6286 4.94853 64.757 5.8627H64.0722C64.0046 5.77062 63.9121 5.69972 63.8056 5.65831C63.6991 5.6169 63.583 5.60668 63.4709 5.62886C63.2371 5.62886 63.2872 5.39502 63.4709 5.36162C63.6546 5.32821 63.4709 5.36162 63.5878 5.2781C63.6071 5.1957 63.6071 5.10997 63.5878 5.02756C63.5953 4.96655 63.5953 4.90484 63.5878 4.84383C63.5078 4.7664 63.4104 4.70915 63.3039 4.6768H63.0867C63.0412 4.67613 62.9963 4.6864 62.9556 4.70675C62.9149 4.72709 62.8797 4.75692 62.8529 4.79372V4.87723C62.8241 4.90383 62.801 4.93611 62.7853 4.97204C62.7695 5.00798 62.7614 5.04679 62.7614 5.08602C62.7614 5.12525 62.7695 5.16406 62.7853 5.2C62.801 5.23593 62.8241 5.26821 62.8529 5.29481C62.9112 5.34678 62.9794 5.38654 63.0533 5.41173C63.2371 5.41173 63.187 5.41173 63.0533 5.57875L62.8362 5.76249C62.6859 5.94622 62.8362 6.02973 62.8362 6.07984C62.8691 6.08833 62.9035 6.08833 62.9364 6.07984H63.0199C63.0199 6.48071 62.9197 7.48288 62.8362 8.68548C62.7193 10.3558 62.569 12.5438 62.4854 13.9803C62.4854 14.4814 62.4854 14.8989 62.4854 15.1829V15.2998L61.8006 15.1495C61.8006 15.1495 62.0679 14.7653 61.9509 14.5983C61.834 14.4313 61.5835 14.4146 61.5 14.7653C61.4165 15.1161 61.5 15.0326 61.2661 15.0827C61.2122 15.1075 61.1638 15.1431 61.1242 15.1874C61.0845 15.2316 61.0544 15.2835 61.0356 15.3399C61.0168 15.3963 61.0098 15.4559 61.015 15.5151C61.0201 15.5742 61.0374 15.6317 61.0657 15.684C61.1002 15.7266 61.1463 15.7584 61.1985 15.7753C61.2506 15.7923 61.3066 15.7939 61.3596 15.7797C61.4126 15.7656 61.4604 15.7364 61.4971 15.6957C61.5339 15.655 61.5581 15.6045 61.5668 15.5504C61.8782 15.5294 62.1907 15.5294 62.5021 15.5504C62.5141 15.6698 62.5596 15.7835 62.6335 15.8781C62.7075 15.9727 62.8067 16.0444 62.9197 16.0849H63.1536H63.7382L64.2392 17.4044V20.0768H63.8885V19.1582H63.5711H63.1201V20.1436H62.9698V20.4777H63.1368V21.4632H63.8885V20.5445H64.2392L64.3562 24.6701C64.2924 24.6639 64.2305 24.645 64.1741 24.6147C64.1177 24.5844 64.0679 24.5432 64.0275 24.4935C63.9871 24.4438 63.957 24.3866 63.9388 24.3251C63.9207 24.2637 63.915 24.1993 63.9219 24.1356C63.9219 23.6011 63.7215 23.4675 63.5878 23.4341C63.4375 23.4341 63.2037 23.4341 63.1703 23.6345C63.1368 23.835 63.4375 24.002 63.5544 24.002H63.4709C63.4709 24.002 63.6212 24.2693 63.4709 24.286C63.3488 24.2849 63.2305 24.3284 63.1383 24.4084C63.046 24.4883 62.9861 24.5992 62.9698 24.7202C62.9698 24.9374 63.2705 25.0209 63.4709 25.0543H63.6045C63.7549 25.0543 63.6045 25.2881 63.6045 25.2881H63.4709H63.1536C63.1536 25.2881 63.0366 25.5053 63.1536 25.6055C63.2526 25.6272 63.3552 25.6272 63.4542 25.6055H63.8384V24.904L64.1724 24.9875V25.9896H63.521V27.6599C63.6713 27.6599 63.9219 27.5263 63.9553 27.8771C64.0131 28.1242 64.1089 28.3608 64.2392 28.5786V30.1153L64.4063 36.2786H64.2392H63.9887V35.5437V35.4602C63.8024 35.3864 63.6044 35.3468 63.4041 35.3432C63.3377 35.3332 63.2701 35.3332 63.2037 35.3432C63.2107 35.4015 63.2329 35.4568 63.2681 35.5037C63.3033 35.5506 63.3502 35.5875 63.4041 35.6105C63.4756 35.6613 63.5544 35.7007 63.6379 35.7274C63.8551 35.7274 63.6379 36.0114 63.6379 36.0114C63.5448 36.024 63.4544 36.0522 63.3707 36.0949C63.0199 36.2786 63.0867 36.4957 63.0867 36.4957C63.0974 36.5746 63.1295 36.649 63.1796 36.7109C63.2297 36.7728 63.2958 36.8197 63.3707 36.8465H63.521C63.5479 36.8436 63.5751 36.848 63.5996 36.8593C63.6242 36.8705 63.6453 36.8882 63.6607 36.9104C63.6761 36.9326 63.6852 36.9586 63.6871 36.9856C63.6889 37.0125 63.6835 37.0395 63.6713 37.0636C63.612 37.0559 63.5516 37.0661 63.498 37.0929C63.4445 37.1196 63.4001 37.1618 63.3707 37.214C63.3521 37.2795 63.3521 37.3489 63.3707 37.4144C64.2893 37.4144 64.0555 37.1639 64.0555 37.1639V36.7463H64.3061H64.4731V37.1973L64.2894 37.3309C63.8326 38.0448 63.5839 38.8719 63.5711 39.7194L64.2559 40.755L64.5399 41.2059V42.1246L64.2225 42.9263V43.0767H61.8006L59.9132 40.8719L59.5791 40.471C59.6352 40.2632 59.6352 40.0442 59.5791 39.8363C59.7088 39.8254 59.8344 39.7854 59.9466 39.7194C60.0151 39.6878 60.0715 39.635 60.1076 39.5688C60.1437 39.5026 60.1576 39.4266 60.147 39.3519C60.1477 39.2644 60.1302 39.1776 60.0957 39.0971C60.0612 39.0166 60.0105 38.9442 59.9466 38.8843C59.7521 38.7201 59.5143 38.6157 59.2618 38.5836C59.2618 38.2662 59.6961 38.2662 59.6961 38.2662H62.0679V37.7986H55.5537V38.4166H57.8587H58.1093C58.2309 38.4478 58.3485 38.4926 58.46 38.5502V38.784C58.2643 38.7915 58.0781 38.8704 57.9365 39.0058C57.795 39.1412 57.7079 39.3237 57.6917 39.519C57.6716 39.6447 57.7001 39.7734 57.7715 39.8789C57.8428 39.9844 57.9517 40.0587 58.0759 40.0869C58.0665 40.1518 58.0705 40.218 58.0875 40.2814C58.1045 40.3447 58.1343 40.404 58.1749 40.4556C58.2155 40.5071 58.2661 40.5499 58.3238 40.5812C58.3814 40.6126 58.4448 40.6319 58.5102 40.6381V42.9263C58.3222 42.9117 58.1346 42.9586 57.9757 43.06C57.9119 43.1069 57.8556 43.1632 57.8086 43.227C57.5748 43.5778 57.9256 43.678 57.9256 43.678H58.5603L59.6794 44.6968L62.2182 46.9851L62.6024 47.3359L62.2182 48.3047L61.4332 50.309H59.7629H58.8275C58.8275 49.6409 58.3932 49.5073 58.3932 49.5073H57.4245C57.309 49.5028 57.1939 49.5214 57.0857 49.562C56.9775 49.6026 56.8786 49.6644 56.7946 49.7437C56.7106 49.823 56.6432 49.9183 56.5965 50.024C56.5498 50.1297 56.5247 50.2436 56.5225 50.3591H56.439H54.8522H54.1006C54.0758 50.3223 54.041 50.2934 54.0004 50.2756C53.8568 50.1461 53.7673 49.9671 53.7498 49.7745C53.7233 49.4535 53.7801 49.1311 53.9147 48.8385C54.0493 48.5458 54.2571 48.2929 54.5182 48.1042C55.1863 46.6845 54.0505 46.7847 54.0505 46.7847H53.7331H53.0817C52.7477 46.5509 52.5807 46.7847 52.4971 47.0185C52.4613 47.2846 52.4613 47.5542 52.4971 47.8203C51.9624 48.1822 51.5537 48.7018 51.3279 49.3068C51.1982 49.6592 51.1414 50.0342 51.1609 50.4092V50.5428H51.0273C50.5596 50.6765 50.5596 50.9771 50.593 51.1274L50.6932 56.8398L50.4093 57.1572L49.6744 57.9756L48.9394 58.8108C48.6722 59.3285 48.3214 59.1615 48.3214 59.1615C46.9685 57.4912 46.8015 59.1615 46.8015 59.1615H46.6511C46.5331 59.1434 46.4125 59.1536 46.2992 59.1914C46.1859 59.2291 46.0832 59.2933 45.9997 59.3787C45.0811 60.1303 46.3839 60.2472 46.3839 60.2472H46.6511C47.8203 60.2472 47.9038 60.8652 47.9038 60.8652L49.6744 67.396L49.8247 67.9305H49.6744H49.5073H44.2626C44.0288 67.4795 43.8618 67.7802 43.8618 67.7802C43.8524 67.8355 43.8524 67.8919 43.8618 67.9472H40.9722C40.5045 51.094 40.9722 22.5823 40.9722 22.5823C40.6047 28.1109 40.4711 42.8595 40.421 53.9502C40.2038 44.9307 39.9867 34.9925 39.9867 34.9925C40.1203 43.3439 40.3876 67.4962 40.3876 67.4962H40.2038C40.2038 67.4962 40.2038 67.68 40.2038 67.9472H40.0869C39.6775 67.922 39.27 68.021 38.9177 68.2312L37.5147 69.0496C36.6962 69.534 35.7442 70.0852 35.3266 70.3023C35.0763 70.4143 34.8622 70.5941 34.7087 70.8214C34.5553 71.0487 34.4684 71.3144 34.458 71.5884L34.2075 73.8433C33.9853 73.9277 33.7855 74.0619 33.6233 74.2357C33.4611 74.4094 33.341 74.618 33.2721 74.8455C33.2655 74.901 33.2655 74.9571 33.2721 75.0125C33.1416 75.331 33.0409 75.6609 32.9715 75.998C32.9011 76.3051 32.8619 76.6184 32.8546 76.9334C32.8373 77.0104 32.8373 77.0902 32.8546 77.1672C32.7635 77.6361 32.7635 78.1181 32.8546 78.5869C32.4871 78.5869 32.5038 79.088 32.5038 79.088V81.059L28.7958 80.7249V80.0401C28.8414 79.3518 28.7151 78.6631 28.4283 78.0358C28.4283 77.7685 28.6622 77.7351 28.7958 77.7351H28.9127C29.7144 77.6516 29.1799 77.3676 29.1799 77.3676C29.1799 77.3676 28.8793 77.234 28.7958 77.0002C28.6741 76.5766 28.6123 76.1381 28.612 75.6973H28.3949V76.4156H28.0609C27.9506 76.317 27.8079 76.2625 27.66 76.2625C27.5121 76.2625 27.3694 76.317 27.2591 76.4156C26.581 75.7349 25.6643 75.3454 24.7036 75.3299C24.0164 75.3443 23.3453 75.5405 22.7586 75.8984C22.1718 76.2563 21.6903 76.7632 21.363 77.3676C21.363 77.3676 20.9955 77.3676 19.9433 78.0525C19.5554 78.2979 19.1144 78.4468 18.6571 78.4867C18.0152 78.6229 17.3565 78.6623 16.7029 78.6036C16.0515 78.5034 16.0014 78.136 16.1851 77.9522C16.3689 77.7685 17.0537 77.0002 16.5192 76.4991C16.4525 76.4338 16.3996 76.3558 16.3634 76.2698C16.3272 76.1837 16.3086 76.0913 16.3086 75.998C16.3086 75.9047 16.3272 75.8123 16.3634 75.7262C16.3996 75.6402 16.4525 75.5622 16.5192 75.4969C16.5192 74.6952 16.0849 74.6952 16.0849 74.6952H13.4124C13.4124 74.6952 13.4124 75.096 13.4124 76.4657C13.4401 76.9946 13.3837 77.5245 13.2454 78.0358C13.1897 78.3122 13.0564 78.5671 12.8613 78.7707C12.6871 78.9819 12.5718 79.2355 12.5272 79.5056C11.1727 79.2955 9.80546 79.1783 8.435 79.1548H8.35148V79.4388C7.8671 79.0713 7.70007 79.2383 7.70007 79.2383C7.01525 79.6893 7.09877 80.9086 7.09877 80.9086C5.96297 80.8084 6.01308 81.3095 6.01308 81.3095C6.01308 81.6603 6.61438 81.844 6.61438 81.844C7.33261 82.462 6.91504 83.1635 6.61438 83.5143C6.31373 83.865 5.81265 83.7147 5.81265 83.7147C5.39974 83.2561 4.86786 82.9207 4.27598 82.746H2.25494C1.75385 82.746 1.70374 83.0299 1.70374 83.0299C1.62023 83.4809 0.718275 83.2637 0.718275 83.2637C0.0334584 83.2637 0.150378 83.7147 0.150378 83.7147C-0.0915588 86.6718 -0.0915588 89.6436 0.150378 92.6006C1.2318 92.5116 2.30099 92.3101 3.34062 91.9993C3.34976 92.5993 3.50702 93.1877 3.79842 93.7122C4.08982 94.2367 4.50633 94.6811 5.01091 95.0059L8.35148 95.4401L13.3623 96.0581L18.5903 96.6594C21.8084 97.0269 25.0432 97.361 28.2947 97.6616C28.4724 97.6788 28.6514 97.6788 28.8292 97.6616C30.299 97.8119 31.7856 97.9455 33.2554 98.0625L37.5648 98.4132L41.9242 98.7306L46.6845 99.0312L49.7078 99.1983H50.4427H51.378H52.6308C53.0483 99.1983 53.4492 99.1983 53.8668 99.1983H54.9859H56.5726H58.2429H59.9132L62.452 99.2818H63.4709H64.3896H77.7518H83.4809H90.9638L96.1417 99.1148H97.4612H97.9456H98.5469H99.9165H100.735H100.952H101.604H102.272H102.89C112.711 98.6471 122.61 97.9066 132.587 96.8933C139.113 96.2252 145.688 95.4513 152.313 94.5716C153.533 93.2521 153.132 90.0785 153.132 90.0785C154.268 91.4983 155.37 90.8802 155.37 90.8802C155.671 91.3813 155.938 91.2477 155.938 91.2477L156.723 90.8468C156.884 90.7799 157.016 90.6565 157.092 90.4997C157.169 90.3429 157.186 90.1635 157.141 89.995" fill="white"/>
</g>
<defs>
<clipPath id="clip0">
<rect width="157.107" height="100" fill="white"/>
</clipPath>
</defs>
</svg>
