<svg width="198" height="50" viewBox="0 0 198 50" fill="none" xmlns="http://www.w3.org/2000/svg">
<path fill-rule="evenodd" clip-rule="evenodd" d="M0 23.2214C0 10.3966 10.3962 0 23.2205 0C36.0457 0 46.4419 10.3966 46.4415 23.2214C46.4415 24.812 46.2752 26.3637 45.9709 27.865H41.2056H5.23632H0.470085C0.165812 26.3641 0 24.8124 0 23.2214ZM25.5436 41.6474C30.2368 41.0598 34.3897 38.7154 37.3235 35.2932L35.2278 32.5085H44.5056C41.4226 39.5577 34.9423 44.7808 27.1329 46.1073L23.2201 49.5799L19.3081 46.1073C11.4991 44.7812 5.0188 39.5577 1.93632 32.5085H11.2368L9.1312 35.3081C12.065 38.7235 16.2145 41.0624 20.9051 41.6483V32.5085H25.5436V41.6474ZM23.0966 4.64744C23.116 4.64724 23.1353 4.64649 23.1545 4.64574C23.1766 4.64487 23.1986 4.64402 23.2205 4.64402H23.3286C24.012 5.34573 26.7919 8.38547 28.7209 13.2585C26.9192 13.4274 25.0752 13.5158 23.2137 13.5158C21.3568 13.5158 19.5179 13.4274 17.7209 13.2598C19.6491 8.41197 22.4141 5.35598 23.0966 4.64744ZM4.64402 23.2205H11.1419C11.1444 21.0402 11.3701 18.9996 11.7453 17.1064C9.81752 16.7389 7.9688 16.2773 6.23034 15.7316C5.21538 18.0244 4.64402 20.5556 4.64402 23.2205ZM8.72564 11.6312C10.685 9.18462 13.247 7.24316 16.1885 6.03547C15.0726 7.79744 13.912 10.0047 12.9838 12.6137C11.5068 12.3432 10.0816 12.0145 8.72564 11.6312ZM16.356 17.7885C16.0038 19.4688 15.7889 21.2825 15.7868 23.2205H30.6406C30.6376 21.2782 30.4252 19.4662 30.0769 17.7876C27.8363 18.0321 25.5346 18.1598 23.2137 18.1598C20.8944 18.1598 18.5953 18.0321 16.356 17.7885ZM30.2333 6.0265C33.1808 7.23419 35.753 9.17521 37.7184 11.6261C36.3568 12.0124 34.9261 12.3427 33.4427 12.6141C32.5128 10 31.35 7.78974 30.2333 6.0265ZM42.1013 23.4889H35.6034C35.6009 21.3085 35.3752 19.2679 35 17.3748C36.9278 17.0073 38.7765 16.5457 40.515 16C41.5299 18.2927 42.1013 20.8239 42.1013 23.4889Z" fill="#00B7C6"/>
<path fill-rule="evenodd" clip-rule="evenodd" d="M62.7107 14.7499C64.9688 14.7499 66.735 12.9836 66.735 10.793C66.735 8.61951 64.9688 6.85327 62.7107 6.85327H60.6218H58.2786V18.7405H60.6218V14.7499H62.7107ZM62.7102 9.0443C63.6615 9.0443 64.3914 9.80797 64.3914 10.793C64.3914 11.7781 63.6615 12.5597 62.7102 12.5597H60.6214V9.0443H62.7102Z" fill="#003D7B"/>
<path fill-rule="evenodd" clip-rule="evenodd" d="M73.7662 6.61572C70.3355 6.61572 67.6017 9.31572 67.6017 12.7969C67.6017 16.261 70.3355 18.9781 73.7662 18.9781C77.1966 18.9781 79.9474 16.2606 79.9474 12.7969C79.9474 9.3153 77.1966 6.61572 73.7662 6.61572ZM73.7662 8.89094C75.9222 8.89094 77.6039 10.5046 77.6039 12.7969C77.6039 15.0726 75.9222 16.6858 73.7662 16.6858C71.6098 16.6858 69.9286 15.0721 69.9286 12.7969C69.9286 10.5042 71.6094 8.89094 73.7662 8.89094Z" fill="#003D7B"/>
<path d="M80.882 12.7969C80.882 9.31572 83.4632 6.61572 87.0632 6.61572C89.882 6.61572 92.2765 8.46658 92.8372 11.0986H90.3748C89.95 9.75675 88.6256 8.89094 87.0632 8.89094C84.7372 8.89094 83.2085 10.5042 83.2085 12.7969C83.2085 15.0721 84.7368 16.6858 87.0632 16.6858C88.6256 16.6858 89.95 15.8367 90.3748 14.4952H92.8372C92.2765 17.1106 89.8991 18.9781 87.0632 18.9781C83.4632 18.9781 80.882 16.261 80.882 12.7969Z" fill="#003D7B"/>
<path d="M105.659 18.7405H103.332V10.7588L100.7 16.8383H99.0021L96.3701 10.7588V18.7405H94.0269V6.85327H96.3701H96.6932L99.8517 14.1216L102.993 6.85327H105.659V18.7405Z" fill="#003D7B"/>
<path fill-rule="evenodd" clip-rule="evenodd" d="M113.318 6.61572C109.888 6.61572 107.154 9.31572 107.154 12.7969C107.154 16.261 109.888 18.9781 113.318 18.9781C116.749 18.9781 119.5 16.2606 119.5 12.7969C119.5 9.3153 116.749 6.61572 113.318 6.61572ZM113.319 8.89094C115.475 8.89094 117.156 10.5046 117.156 12.7969C117.156 15.0726 115.475 16.6858 113.319 16.6858C111.162 16.6858 109.481 15.0721 109.481 12.7969C109.481 10.5042 111.162 8.89094 113.319 8.89094Z" fill="#003D7B"/>
<path fill-rule="evenodd" clip-rule="evenodd" d="M125.411 14.7499C127.669 14.7499 129.435 12.9836 129.435 10.793C129.435 8.61951 127.669 6.85327 125.411 6.85327H123.322H120.979V18.7405H123.322V14.7499H125.411ZM125.411 9.0443C126.362 9.0443 127.092 9.80797 127.092 10.793C127.092 11.7781 126.362 12.5597 125.411 12.5597H123.322V9.0443H125.411Z" fill="#003D7B"/>
<path d="M139.421 18.7405H137.078V9.09515H133.138V18.7405H130.795V6.85327H133.138H139.421V18.7405Z" fill="#003D7B"/>
<path fill-rule="evenodd" clip-rule="evenodd" d="M147.08 6.61572C143.65 6.61572 140.916 9.31572 140.916 12.7969C140.916 16.261 143.65 18.9781 147.08 18.9781C150.511 18.9781 153.262 16.2606 153.262 12.7969C153.262 9.3153 150.511 6.61572 147.08 6.61572ZM147.08 8.89094C149.236 8.89094 150.918 10.5046 150.918 12.7969C150.918 15.0726 149.237 16.6858 147.08 16.6858C144.924 16.6858 143.242 15.0721 143.242 12.7969C143.242 10.5042 144.923 8.89094 147.08 8.89094Z" fill="#003D7B"/>
<path fill-rule="evenodd" clip-rule="evenodd" d="M159.172 14.7499C161.431 14.7499 163.197 12.9836 163.197 10.793C163.197 8.61951 161.431 6.85327 159.172 6.85327H157.083H154.74V18.7405H157.083V14.7499H159.172ZM159.172 9.0443C160.123 9.0443 160.853 9.80797 160.853 10.793C160.853 11.7781 160.123 12.5597 159.172 12.5597H157.083V9.0443H159.172Z" fill="#003D7B"/>
<path d="M171.519 9.09515H168.649V18.7405H166.305V9.09515H163.453V6.85327H168.649H171.519V9.09515Z" fill="#003D7B"/>
<path fill-rule="evenodd" clip-rule="evenodd" d="M61.0218 31.7778V32.4376H60.4372V31.7778C58.7991 31.7021 57.6214 30.9333 57.6214 29.5137C57.6214 28.0931 58.7996 27.3243 60.4372 27.2491V26.5889H61.0218V27.2491C62.6598 27.3243 63.8376 28.0931 63.8376 29.5137C63.8376 30.9337 62.6598 31.7025 61.0218 31.7778ZM60.4372 27.7842C59.1252 27.8508 58.206 28.4025 58.206 29.5137C58.206 30.6248 59.1256 31.1765 60.4372 31.2431V27.7842ZM61.0218 27.7846C62.3338 27.8513 63.253 28.403 63.253 29.5141C63.253 30.6248 62.3338 31.1765 61.0218 31.2436V27.7846Z" fill="#00B7C6"/>
<path d="M68.191 31.8862V32.4375H65.0996H64.8492V26.5896H65.4333H68.1492V27.1409H65.4333V29.2122H67.9402V29.764H65.4333V31.8862H68.191Z" fill="#00B7C6"/>
<path fill-rule="evenodd" clip-rule="evenodd" d="M73.8393 32.4375V31.8866H73.2128V26.5896H69.7957V29.7969C69.7957 30.9332 69.5449 31.5016 69.2192 31.8858H68.7432V32.1366V33.6409H69.3282V32.4375H72.6282H73.2543V33.6409H73.8393V32.4375ZM72.6282 27.1409V31.8862V31.8866H69.9124C70.1637 31.5187 70.3808 30.917 70.3808 29.8144V27.1409H72.6282Z" fill="#00B7C6"/>
<path d="M78.2342 31.8862V32.4375H75.1432H74.8923V26.5896H75.4769H78.1927V27.1409H75.4769V29.2122H77.9838V29.764H75.4769V31.8862H78.2342Z" fill="#00B7C6"/>
<path fill-rule="evenodd" clip-rule="evenodd" d="M81.4184 30.0977C82.3876 30.0977 83.1727 29.3046 83.1727 28.3434C83.1727 27.3746 82.3876 26.5896 81.4184 26.5896H79.9141H79.3295V32.4375H79.9141V30.0977H81.4184ZM81.4184 27.1409C82.062 27.1409 82.5876 27.6755 82.5876 28.3434C82.5876 29.0037 82.0615 29.5464 81.4184 29.5464H79.9141V27.1409H81.4184Z" fill="#00B7C6"/>
<path fill-rule="evenodd" clip-rule="evenodd" d="M84.3431 31.0008H87.1167L87.6602 32.4376H88.2782L86.0308 26.5889H85.429L83.1816 32.4376H83.8L84.3431 31.0008ZM85.7295 27.3162L86.9077 30.4496H84.5513L85.7295 27.3162Z" fill="#00B7C6"/>
<path d="M88.5791 31.9282C89.3479 32.0282 89.7987 31.5688 89.7987 29.8394V26.5894H93.1739V32.4381H92.5889V27.1411H90.3829V29.8564C90.3829 32.0287 89.6727 32.5381 88.5782 32.4466V31.9282H88.5791Z" fill="#00B7C6"/>
<path fill-rule="evenodd" clip-rule="evenodd" d="M96.6927 32.4376C97.6615 32.4376 98.447 31.653 98.447 30.6834C98.447 29.7227 97.6615 28.9287 96.6932 28.9291H95.1889V26.5894H94.6039V32.4376H94.8547H96.6927ZM96.6923 29.4804C97.3359 29.4804 97.862 30.024 97.862 30.6834C97.862 31.3517 97.3359 31.8864 96.6923 31.8868H95.188V29.4804H96.6923Z" fill="#00B7C6"/>
<path d="M103.468 26.5894V32.4376H102.884V29.706H100.126V32.4376H99.5415V26.5894H100.126V29.1543H102.884V26.5894H103.468Z" fill="#00B7C6"/>
<path fill-rule="evenodd" clip-rule="evenodd" d="M107.588 26.4893C105.883 26.4893 104.563 27.8431 104.563 29.514C104.563 31.185 105.884 32.538 107.588 32.538C109.292 32.538 110.612 31.185 110.612 29.514C110.612 27.8431 109.292 26.4893 107.588 26.4893ZM107.588 27.0576C108.975 27.0576 110.028 28.1517 110.028 29.514C110.028 30.8752 108.975 31.9705 107.588 31.9705C106.201 31.9705 105.149 30.8756 105.149 29.514C105.149 28.1521 106.201 27.0576 107.588 27.0576Z" fill="#00B7C6"/>
<path d="M115.049 31.8862V32.4375H111.958H111.707V26.5896H112.291H115.008V27.1409H112.291V29.2122H114.798V29.764H112.291V31.8862H115.049Z" fill="#00B7C6"/>
<path d="M121.583 27.1411H118.91V32.4376H118.325V26.5894H121.583V27.1411Z" fill="#00B7C6"/>
<path fill-rule="evenodd" clip-rule="evenodd" d="M124.784 26.4893C123.079 26.4893 121.759 27.8431 121.759 29.514C121.759 31.185 123.079 32.538 124.784 32.538C126.489 32.538 127.809 31.185 127.809 29.514C127.809 27.8431 126.489 26.4893 124.784 26.4893ZM124.784 27.0576C126.171 27.0576 127.224 28.1517 127.224 29.514C127.224 30.8752 126.171 31.9705 124.784 31.9705C123.397 31.9705 122.345 30.8756 122.345 29.514C122.345 28.1521 123.397 27.0576 124.784 27.0576Z" fill="#00B7C6"/>
<path d="M128.569 29.514C128.569 27.8431 129.84 26.4893 131.636 26.4893C132.923 26.4893 134.025 27.2914 134.377 28.4277H133.741C133.432 27.617 132.597 27.0576 131.636 27.0576C130.157 27.0576 129.154 28.1521 129.154 29.514C129.154 30.8756 130.157 31.9705 131.636 31.9705C132.597 31.9705 133.432 31.4102 133.741 30.5999H134.377C134.025 31.7358 132.923 32.538 131.636 32.538C129.839 32.538 128.569 31.185 128.569 29.514Z" fill="#00B7C6"/>
<path d="M139.231 26.5893L137.284 31.1598C136.891 32.0867 136.315 32.4961 135.421 32.4376V31.903C136.047 31.9701 136.432 31.7359 136.699 31.1098L136.816 30.8337L134.803 26.5889H135.404L137.092 30.1812L138.629 26.5889H139.231V26.5893Z" fill="#00B7C6"/>
<path fill-rule="evenodd" clip-rule="evenodd" d="M144.211 32.4375V31.8866H143.584V26.5896H140.167V29.7969C140.167 30.9332 139.916 31.5016 139.59 31.8858H139.114V32.1366V33.6409H139.7V32.4375H142.999H143.626V33.6409H144.211V32.4375ZM142.999 27.1409V31.8862V31.8866H140.284C140.534 31.5187 140.752 30.917 140.752 29.8144V27.1409H142.999Z" fill="#00B7C6"/>
<path fill-rule="evenodd" clip-rule="evenodd" d="M145.841 31.0008H148.615L149.158 32.4376H149.776L147.528 26.5889H146.927L144.679 32.4376H145.298L145.841 31.0008ZM147.228 27.3162L148.406 30.4496H146.05L147.228 27.3162Z" fill="#00B7C6"/>
<path fill-rule="evenodd" clip-rule="evenodd" d="M152.709 30.0977C153.678 30.0977 154.463 29.3046 154.463 28.3434C154.463 27.3746 153.678 26.5896 152.709 26.5896H151.205H150.621V32.4375H151.205V30.0977H152.709ZM152.709 27.1409C153.353 27.1409 153.878 27.6755 153.878 28.3434C153.878 29.0037 153.353 29.5464 152.709 29.5464H151.205V27.1409H152.709Z" fill="#00B7C6"/>
<path d="M155.182 29.514C155.182 27.8431 156.453 26.4893 158.249 26.4893C159.535 26.4893 160.638 27.2914 160.989 28.4277H160.354C160.045 27.617 159.209 27.0576 158.249 27.0576C156.77 27.0576 155.767 28.1521 155.767 29.514C155.767 30.8756 156.77 31.9705 158.249 31.9705C159.209 31.9705 160.045 31.4102 160.354 30.5999H160.989C160.638 31.7358 159.535 32.538 158.249 32.538C156.453 32.538 155.182 31.185 155.182 29.514Z" fill="#00B7C6"/>
<path d="M165.176 27.1411H163.546V32.4376H162.962V27.1411H161.332V26.5894H163.546H165.176V27.1411Z" fill="#00B7C6"/>
<path fill-rule="evenodd" clip-rule="evenodd" d="M170.866 30.5163C170.866 31.5693 170.08 32.4376 169.019 32.4376H166.187H166.103V26.5894H166.688H168.435C169.353 26.5894 169.947 27.2329 169.947 28.0188C169.947 28.2778 169.871 28.5274 169.746 28.7372C170.423 29.0291 170.866 29.7141 170.866 30.5163ZM166.688 27.1411V28.5949H169.028H169.153C169.287 28.4441 169.362 28.2351 169.362 28.0184C169.362 27.5329 169.028 27.1406 168.435 27.1406H166.688V27.1411ZM168.944 29.1458C169.763 29.1458 170.28 29.7556 170.28 30.5163C170.28 31.268 169.755 31.8864 168.936 31.8864H166.688V29.1458H168.944Z" fill="#00B7C6"/>
<path d="M175.261 31.8862V32.4375H172.17H171.919V26.5896H172.503H175.219V27.1409H172.503V29.2122H175.01V29.764H172.503V31.8862H175.261Z" fill="#00B7C6"/>
<path d="M180.282 26.5894V32.4376H179.698V29.706H176.941V32.4376H176.356V26.5894H176.941V29.1543H179.698V26.5894H180.282Z" fill="#00B7C6"/>
<path d="M185.638 26.5894V32.4376H185.053V29.706H182.296V32.4376H181.712V26.5894H182.296V29.1543H185.053V26.5894H185.638Z" fill="#00B7C6"/>
<path fill-rule="evenodd" clip-rule="evenodd" d="M189.758 26.4893C188.053 26.4893 186.733 27.8431 186.733 29.514C186.733 31.185 188.053 32.538 189.758 32.538C191.462 32.538 192.782 31.185 192.782 29.514C192.782 27.8431 191.462 26.4893 189.758 26.4893ZM189.758 27.0576C191.144 27.0576 192.197 28.1517 192.197 29.514C192.197 30.8752 191.144 31.9705 189.758 31.9705C188.371 31.9705 187.318 30.8756 187.318 29.514C187.318 28.1521 188.371 27.0576 189.758 27.0576Z" fill="#00B7C6"/>
<path d="M197.22 31.8862V32.4375H194.129H193.877V26.5896H194.462H197.178V27.1409H194.462V29.2122H196.969V29.764H194.462V31.8862H197.22Z" fill="#00B7C6"/>
<path d="M62.0496 36.6162L60.1026 41.1867C59.7098 42.1136 59.1338 42.523 58.2393 42.4644V41.9298C58.8658 41.9965 59.2504 41.7627 59.5179 41.1362L59.6346 40.8606L57.6214 36.6157H58.2227L59.9107 40.208L61.4479 36.6157H62.0496V36.6162Z" fill="#00B7C6"/>
<path d="M66.8205 36.6162V42.4645H66.2355V39.7329H63.4782V42.4645H62.894V36.6162H63.4782V39.1816H66.2355V36.6162H66.8205Z" fill="#00B7C6"/>
<path d="M71.5919 37.7859L68.7509 42.4645H68.2496V36.6162H68.8342V41.2953L71.6756 36.6162H72.1769V42.4645H71.5919V37.7859Z" fill="#00B7C6"/>
<path d="M76.9479 37.1679H75.3184V42.4645H74.7333V37.1679H73.1043V36.6162H75.3184H76.9479V37.1679Z" fill="#00B7C6"/>
<path fill-rule="evenodd" clip-rule="evenodd" d="M78.0346 41.0273H80.8081L81.3517 42.4644H81.9697L79.7222 36.6157H79.1205L76.8731 42.4644H77.4915L78.0346 41.0273ZM79.4214 37.3431L80.5996 40.4764H78.2436L79.4214 37.3431Z" fill="#00B7C6"/>
<path fill-rule="evenodd" clip-rule="evenodd" d="M84.903 40.1248C85.8722 40.1248 86.6572 39.3312 86.6572 38.3705C86.6572 37.4017 85.8718 36.6162 84.903 36.6162H83.3987H82.8141V42.4645H83.3987V40.1248H84.903ZM84.903 37.1679C85.5461 37.1679 86.0722 37.7025 86.0722 38.3705C86.0722 39.0307 85.5461 39.5735 84.903 39.5735H83.3987V37.1679H84.903Z" fill="#00B7C6"/>
<path d="M91.6786 36.6162V42.4645H91.094V39.7329H88.3368V42.4645H87.7521V36.6162H88.3368V39.1816H91.094V36.6162H91.6786Z" fill="#00B7C6"/>
<path fill-rule="evenodd" clip-rule="evenodd" d="M95.7983 36.5159C94.094 36.5159 92.7739 37.8697 92.7739 39.5407C92.7739 41.212 94.094 42.5646 95.7983 42.5646C97.5026 42.5646 98.8231 41.2116 98.8231 39.5407C98.8231 37.8697 97.5026 36.5159 95.7983 36.5159ZM95.7983 37.0842C97.185 37.0842 98.238 38.1783 98.238 39.5407C98.238 40.9026 97.185 41.9966 95.7983 41.9966C94.4115 41.9966 93.359 40.9026 93.359 39.5407C93.359 38.1787 94.4115 37.0842 95.7983 37.0842Z" fill="#00B7C6"/>
<path d="M103.26 41.9132V42.4645H100.168H99.918V36.6162H100.502H103.218V37.1679H100.502V39.2397H103.009V39.791H100.502V41.9132H103.26Z" fill="#00B7C6"/>
<path d="M110.462 42.4645H109.877V37.1679H107.121V42.4645H106.535V36.6162H107.121H110.462V42.4645Z" fill="#00B7C6"/>
<path fill-rule="evenodd" clip-rule="evenodd" d="M113.98 40.1248C114.95 40.1248 115.735 39.3312 115.735 38.3705C115.735 37.4017 114.95 36.6162 113.98 36.6162H112.476H111.891V42.4645H112.476V40.1248H113.98ZM113.98 37.1679C114.624 37.1679 115.15 37.7025 115.15 38.3705C115.15 39.0307 114.624 39.5735 113.98 39.5735H112.476V37.1679H113.98Z" fill="#00B7C6"/>
<path d="M120.172 41.9132V42.4645H117.08H116.83V36.6162H117.415H120.13V37.1679H117.415V39.2397H119.921V39.791H117.415V41.9132H120.172Z" fill="#00B7C6"/>
<path fill-rule="evenodd" clip-rule="evenodd" d="M125.821 42.4644V41.9131V41.9127H125.193V36.6152H121.776V39.8238C121.776 40.9601 121.525 41.5285 121.199 41.9127H120.724V42.1635V43.6678H121.308V42.4644H124.609H125.235V43.6678H125.821V42.4644ZM124.609 37.1678V41.9131V41.9135H121.893C122.144 41.5456 122.361 40.9439 122.361 39.8417V37.1678H124.609Z" fill="#00B7C6"/>
<path d="M130.8 42.4645H130.215V37.1679H127.457V42.4645H126.873V36.6162H127.457H130.8V42.4645Z" fill="#00B7C6"/>
<path fill-rule="evenodd" clip-rule="evenodd" d="M134.318 40.1248C135.287 40.1248 136.072 39.3312 136.072 38.3705C136.072 37.4017 135.287 36.6162 134.318 36.6162H132.814H132.229V42.4645H132.814V40.1248H134.318ZM134.318 37.1679C134.962 37.1679 135.487 37.7025 135.487 38.3705C135.487 39.0307 134.962 39.5735 134.318 39.5735H132.814V37.1679H134.318Z" fill="#00B7C6"/>
<path d="M140.509 37.7859L137.668 42.4645H137.168V36.6162H137.752V41.2953L140.593 36.6162H141.094V42.4645H140.509V37.7859Z" fill="#00B7C6"/>
<path fill-rule="evenodd" clip-rule="evenodd" d="M145.782 42.4645H146.366V36.6162H144.277C143.308 36.6162 142.523 37.4017 142.523 38.3705C142.523 39.2726 143.208 40.0248 144.093 40.1166L142.021 42.4645H142.757L144.812 40.1248H145.782V42.4645ZM145.782 37.1679V39.5735H144.277C143.634 39.5735 143.108 39.0307 143.108 38.3705C143.108 37.703 143.634 37.1679 144.277 37.1679H145.782Z" fill="#00B7C6"/>
<path d="M151.138 37.1679H149.509V42.4645H148.923V37.1679H147.294V36.6162H149.509H151.138V37.1679Z" fill="#00B7C6"/>
<path d="M155.407 37.7859L152.567 42.4645H152.065V36.6162H152.65V41.2953L155.491 36.6162H155.992V42.4645H155.407V37.7859Z" fill="#00B7C6"/>
<path d="M160.764 41.9132V42.4645H157.672H157.421V36.6162H158.006H160.722V37.1679H158.006V39.2397H160.513V39.791H158.006V41.9132H160.764Z" fill="#00B7C6"/>
</svg>
